<svg xmlns="http://www.w3.org/2000/svg" width="500" height="498" fill="none"><path fill="#F5F7FA" d="M281.782 321.917c-.685-2.186-2.522-3.827-4.898-3.587-.549.055-1.061.434-1.043 1.043.028.975.355 1.444 1.141 1.993.047.033.097.04.146.064.225.661.454 1.322.612 1.987.263 1.105.433 2.233.703 3.336.285 1.166 1.008 3.083 2.531 2.141 2.267-1.401 1.443-4.948.808-6.977m-2.037 4.656c-.516-1.759-.705-3.931-1.384-5.777a.9.9 0 0 0-.057-.703c1.324.105 2.064 2.141 2.31 3.318.253 1.205.745 2.567.084 3.741-.564 1-.764.06-.953-.579"/><path fill="#F5F7FA" d="M467.484 213.012c4.273-5.107 10.224-8.811 14.687-13.824 3.685-4.14 4.671-9.141 6.162-14.405 2.687-9.483 5.77-17.935 11.471-26.062.575-.819-.22-1.715-1.034-1.802-2.57-.271-8.233-6.559-9.578-8.044-4.059-4.492-5.167-9.389-6.544-15.012-1.335-5.451-1.107-9.532-5.318-13.202-3.786-3.302-7.945-6.328-11.467-9.99-2.582-2.682-4.438-5.65-7.993-7.1-7.472-3.047-15.541.679-23.069.2-8.3-.529-17.134-4.387-25.517-5.665-7.857-1.197-14.964-.718-22.355 2.462-9.297 4.002-13.041 10.787-16.616 18.515.371-8.522-.521-17.185-1.858-25.36-1.421-8.693-1.289-17.648-1.98-26.418-.615-7.817-1.412-15.57-1.61-23.42-.208-8.29-.942-16.605-.558-24.87.154-3.3 1.467-10.524-1.598-12.955-.602-.478-1.282-.626-1.985-.255-3.906 2.05-7.642 2.603-11.722 4.073-5.491 1.977-10.263 7.02-15.717 8.624-10.841 3.19-14.266-10.112-22.505-14.598-4.284-2.332-7.263-1.825-11.94-1.853-4.702-.027-8.977-1.414-13.619-1.928-9.932-1.101-14.663 5.35-20.7 12.588-15.72 18.847-31.745 36.172-50.064 52.557-6.531 5.843-9.778 13.478-8.204 22.384.468 2.646 1.744 4.89 2.883 7.316.233.498.433.977.622 1.449-.545-.575-1.063-1.166-1.634-1.725-5.86-5.71-12.29-9.904-19.773-13.38-7.514-3.49-15.867-3.844-23.535-7-7.865-3.238-16.795-4.987-24.257-8.899-7.874-4.126-15.445-9.403-22.924-14.2-6.644-4.26-22.67-14.082-21.167 2.03.357 3.82 2.162 5.846-.147 9.25-2.102 3.098-6.112 4.764-8.32 7.895-4.47 6.34-2.55 15.523-4.601 22.681-3.73 13.014-6.995 27.414-4.358 40.932 1.504 7.716 3.6 15.214 6.192 22.518-7.181-.953-19.394 9.382-22.45 12.553-7.426 7.705-12.542 14.042-22.566 18.831-7.02 3.353-12.475 7.521-18.496 12.411-.38.308-.489.931-.364 1.379 1.027 3.707 6.107 6.745 8.26 9.822 3.832 5.478 7.273 11.3 10.292 17.248.149.294.288.584.433.878-7.016 1.39-13.023 6.945-17.373 12.385-6.803 8.51-12.659 15.239-21.761 21.286-.922.614-1.414 1.671-1.128 2.769 1.36 5.199 9.475 8.803 13.152 12.248 2.949 2.764 5.984 7.011 9.787 8.928-.309.426-.652.825-.939 1.267-5.312 8.186-2.49 20.752 1.824 28.605 4.664 8.495 11.772 16.424 15.38 25.62-2.124 4.761-2.55 9.692.783 16.019 3.125 5.935 3.79 10.869 4.333 17.661.393 4.914.716 8.822 3.821 12.986 3.84 5.153 13.28 8.91 20.216 13.75.007.2.198.311.376.265 3.42 2.438 6.165 5.161 7.246 8.474-.17.406-.358.806-.514 1.219-2.172 5.744-1.873 12.401-1.397 18.433.962 12.205 7.139 26.345 11.987 37.5 2.87 6.603 5.867 13.647 9.412 19.91 2.108 3.724 5.125 8.074 9.643 8.633 12.734 1.575 24.383-16.266 32.753-23.29 11.577-9.715 29.395-13.059 34.577-28.724 1.436-4.341.775-9.011 1.61-13.517a503 503 0 0 0 2.308-13.372c.711-4.506 2.097-8.823 3.48-13.175.31 8.831 2.229 17.562 6.102 26.327 7.317 16.561 25.799 25.483 41.099 33.434 7.837 4.075 16.51 8.596 23.407 14.152 5.514 4.444 11.485 10.814 18.445 12.926 1.026.31 2.176-.035 2.927-.773 3.263-3.21 7.664-5.232 10.667-8.919 2.611-3.206 2.178-6.941 4.027-9.967 3.727-6.1 16.785-.131 23.065-.918 2.312-.291 4.097-1.321 6.252-1.952 2.059-.604 4.894-.797 6.802-1.475 2.264-.804 2.866-1.829 4.124-4.005 2.073-3.582 3.562-8.346 5.002-12.317 1.543-4.253 1.754-11.26 4.782-14.982.832-.013 1.639-.237 2.429-.59.419 1.561.911 3.315.942 3.388 1.37 3.129 3.076 6.343 4.646 9.409 1.911 3.733 3.839 6.489 8.256 6.594 3.599.086 6.829-2.176 10.279-2.863 4.203-.837 10.14-.396 14.328.891 5.621 1.73 10.072 6.456 15.862 8.092 10.99 3.107 21.954.208 27.793-10.141 1.451-2.571 1.95-5.632 3.504-8.174 1.772-2.897 4.508-5.321 6.414-8.052 3.03-4.34 2.666-6.863 1.834-11.102 4.677 2.986 12.024 2.503 16.9 1.897 5.038-.626 9.708-2.203 14.344-3.889 5.417.926 10.866.687 14.889-4.176.161-.194.294-.389.42-.583a42 42 0 0 1 2.69-.43c6.473-.79 14.571-2.064 14.935-9.912.233-5.026-2.747-10.113-4.795-14.569-3.814-8.298-6.495-14.799-6.383-24.009.294-24.375-7.102-47.971-26.524-63.538 1.314-.404 2.704-1.177 4.271-2.127 2.108-1.276 4.298-2.912 6.564-4.664-2.108 2.413-4.744 4.844-6.452 7.316-.32.463.413.859.74.433 2.762-3.603 6.818-6.893 9.278-10.52 5.955-4.603 12.375-9.165 19.136-9.725 2.455-.202 3.788-3.566 1.333-4.919-3.384-1.864-7.325-2.539-10.751-4.506-5.107-2.933-10.305-6.719-15.048-10.239-6.848-5.081-14.127-15.107-23.313-14.435 3.935-7.857 6.561-16.24 11.689-24.011 3.342-5.066 6.747-10.217 10.654-14.886m-99.705-77.744c1.043-3.558 1.724-7.225 2.136-10.944 1.678-2.591 3.296-5.206 5.084-7.71 5.66-7.922 17.711-13.22 27.201-13.063 7.466.123 16.08 1.856 23.261 3.655.537.135 1.067.234 1.598.346.04.049.101.082.184.082.079 0 .154.006.235.008 2.71.538 5.406.773 8.243.681q.323.052.644.108c-10.826 1.005-21.745 4.262-30.5 7.828-8.028 3.269-17.428 8.515-22.977 15.394-3.438 4.262-7.52 10.329-12.29 15.259-2.455 1.212-4.916 2.413-7.349 3.797 2.314-9.188 10.773-17.677 17.114-24.293 6.017-6.28 13.665-12.379 21.4-16.407.137-.072.016-.267-.12-.204-9.159 4.117-18.162 11.79-24.596 19.354-5.327 6.263-13.271 13.34-14.509 21.962-.2.117-.402.225-.602.345-.789.477-1.48 1.01-2.045 1.581 3.685-5.7 6.314-12.408 7.888-17.779m56.186 139.051c13.583-.257 28.337-4.661 41.321 1.004.257.112.485-.259.224-.382-12.13-5.789-26.64-2.541-39.733-1.689 3.82-2.354 7.415-5.349 10.366-8.335 2.699-2.732 4.833-5.654 6.649-8.693 4.108.573 11.363 6.53 14.738 8.794 3.013 2.022 5.896 4.22 8.581 6.655 3.784 3.434 3.773 6.621 4.554 10.544-.254-.057-.498-.112-.715-.151-6.223-1.15-12.47-2.336-18.746-3.153-11.41-1.487-22.797-1.708-34.244-1.739a28 28 0 0 0 2.677-.837 34 34 0 0 0 4.328-2.018m60.372 119.054c.586 5.931-.251 6.432-2.337 13.167-.013.041-.026.076-.037.116-7.079-3.441-16.085-10.865-19.003-12.87-6.969-4.791-14.549-10.544-20.673-16.462-9.851-9.523-20.381-17.158-31.714-24.827-6.076-4.111-11.545-9.166-17.422-13.577-6.714-5.037-11.679-11.484-18.262-16.535-4.451-3.416-9.55-5.608-14.883-5.081a67 67 0 0 0 2.218-1.906c-.673 1.548 3.901.062 5.91-.443 3.727.558 7.673 1.759 9.765 1.869 6.513.346 12.936.208 19.33 1.857 12.411 3.204 22.771 12.865 32.024 21.354 9.336 8.564 17.129 18.544 25.645 27.825 5.619 6.124 10.667 14.673 19.221 16.77.518.127.738-.672.22-.799-8.098-1.963-12.007-9.401-17.285-15.068-4.57-4.908-8.665-10.175-13.223-15.112-8.926-9.666-18.179-18.879-28.544-26.955-9.615-7.49-19.657-10.67-31.788-11.184-4.05-.171-7.837.056-11.867-.926 3.397-.248 7.018-.428 10.272-.34 9.319.254 18.111 3.561 27.288 4.857 8.497 1.199 16.896 1.66 24.854 5.111 8.91 3.861 13.305 10.718 19.815 17.321.242.246.602-.121.376-.376-5.694-6.424-8.792-12.95-16.476-17.37-7.687-4.419-16.154-5.986-24.689-7.94-9.752-2.231-18.002-6.843-28.078-7.681a82.3 82.3 0 0 0-14.08.013q1.636-1.197 3.334-2.385c6.881-2.018 14.806-2.139 21.047-2.545 4.813-.314 9.435-1.695 14.31-1.541 6.35.202 13.047 2.156 19.019 4.255 4.858 1.708 9.489 4.062 14.043 6.599 1.365 2.323 2.749 3.8 5.459 5.357 6.143 3.533 9.688 2.31 14.514 9.018 2.121 2.949 3.559 6.303 5.709 9.256 4.76 6.537 8.963 13.805 11.102 21.549.535 3.646.97 7.255.907 11.083-.062 3.869-.075 7.61.816 11.392.317 1.35.728 2.656 1.193 3.939.876 3.116 1.621 5.674 1.97 9.215m-10.729 21.853c-4.201 1.181-7.394 2.167-11.137 3.944-.866.411-1.893.889-3.039 1.392-4.837-1.186-9.644-2.484-14.649-2.701-4.303-.187-9.182.143-13.884 1.148-3.028-1.837-6.225-3.421-9.158-5.441-7.284-5.015-13.763-13.399-18.397-20.658-6.864-10.75-12.303-22.212-20.016-32.445-4.116-5.465-8.529-9.914-13.522-14.503-3.832-3.522-8.063-5.498-12.481-8.23 7.81 4.273 14.7 9.15 22.002 14.653 6.558 4.942 11.93 10.632 19.059 14.817 8.542 5.015 14.787 12.187 22.7 17.94.341.25.652-.312.328-.561-8.14-6.266-14.051-14.213-22.637-19.882-8.713-5.751-15.805-13.937-23.071-21.409-6.445-6.625-14.143-11.502-22.477-15.577-2.617-1.279-5.406-3.097-8.293-4.869 2.459.139 4.868.031 7.022-.718 2.009-.698 3.893-1.776 5.674-3.026 12.821-3.161 20.937 9.928 29.67 17.02 12.905 10.479 27.006 19.17 40.056 29.398 11.558 9.059 21.619 19.773 33.732 28.18 6.616 4.59 13.565 9.842 20.611 13.744-.832 2.569-1.723 4.82-2.749 6.713-1.917.333-3.783.632-5.344 1.071m-121.277 1.122c3.274-7.518 3.595-14.683 2.405-21.76.03.059.052.118.081.178 3.825 7.889 6.353 16.532 8.366 25.062 1.746 7.394 2.046 15.619 4.462 22.852-2.758-.74-5.52-1.489-8.36-1.971-3.761-.635-14.892-2.177-16.079-7.541 4.317-4.947 7.58-13.274 9.125-16.82m-5.948-4.611q-3.438-5.143-2.775-10.871c-.534-6.618-.126-13.401-.06-20.145 1.228 7.747 2.02 16.387.064 22.411-.029.094.107.125.143.039 2.815-6.809 1.014-17.356-.196-25.26-.039-4.42-.303-8.812-1.177-13.116-1.981-9.753-6.732-22.619-13.592-30.096-4.409-4.806-11.207-11.124-18.265-13.042 1.685-.066 3.338-.137 4.895-.089 2.218.067 4.409.049 6.596.018q.233.177.499.314c2.49 3.142 5.728 3.019 8.528 5.604 3.12 2.879 3.055 7.729 4.078 11.657 1.42 5.448 3.636 10.566 5.272 15.924 3.274 10.722 4.881 22.072 7.52 32.957 1.57 6.48 1.841 15.772-.063 22.206-.046.158-.395.9-.933 2.001-.174-.174-.361-.336-.534-.512m-63.344-69.822c-3.439 4.093-5.852 9.012-9.126 13.188-.196.252-.424.487-.639.729a25 25 0 0 0-.567-2.08 62 62 0 0 0 2.587-4.035c10.081-17.09 13.328-33.915 13.943-52.579 1.204 1.851 2.2 3.799 2.877 5.845a129 129 0 0 0-.795 5.608c-.677 5.889.7 8.136 1.717 13.652 2.092 11.334-4.534 13.174-9.997 19.672m-112.994 81.62c-2.225 7.371-6.741 12.576-12.082 17.896-2.918 2.905-5.037 6.295-7.567 9.571-4.791 6.203-5.983 7.326-13.036 11.243-3.706 2.059-5.803 4.308-8.906 7.301-3.817 3.68-8.489 6.882-12.687 10.178-4.967 3.901-8.5 4.459-11.083 3.027 3.838-15.188 9.142-30.324 14.06-45.02 6.746-20.16 12.657-41.703 22.911-60.393 4.644-8.465 10.046-16.089 17.496-22.288 6.195-5.156 13.021-9.416 19.304-14.4 5.707-4.526 12.079-7.762 18.473-11.113 3.188-1.671 5.384-4.135 7.995-6.19a18.6 18.6 0 0 0 .27 3.38l-.165.199a1.75 1.75 0 0 0-.369.776c-11.526 22.623-35.855 35.782-49.302 57.389-6.509 10.459-12.648 21.666-17.472 33.014-2.673 6.289-4.427 12.951-6.216 19.532-1.505 5.542-1.57 13.701-5.15 18.354-.208.272.253.538.459.268 2.688-3.513 2.767-8.489 3.7-12.663a204 204 0 0 1 5.226-19.055c4.589-13.979 12.98-28.087 20.986-40.403 8.385-12.9 19.191-21.609 30.121-32.065 4.105-3.927 8.722-7.925 12.82-12.282-1.654 3.099-3.377 6.068-4.903 8.729-1.948 3.394-3.584 6.904-5.025 10.494a248 248 0 0 0-5.236 11.771c-4.53 10.927-6.682 22.312-9.469 33.776a364 364 0 0 1-5.153 18.974M81.057 402.73c-2.834-.198-6.027-.912-8.423-1.91a36 36 0 0 0-1.769-1.885c3.273-6.099 9.112-12.373 13-17.136 5.705-6.993 11.604-13.71 18.046-20.038 12.07-11.854 25.978-25.085 40.95-33.184 14.028-7.59 28.141-13.589 43.832-16.703a771 771 0 0 0 19.393-4.104c1.896-.323 3.828-.669 5.743-.832-1.724 1.972-3.23 4.185-4.392 6.548-9.457-1.138-20.59 2.89-28.772 7.593-12.175 6.996-26.018 14.925-36.477 24.336-5.215 4.692-10.142 9.666-15.364 14.314-4.31 3.836-8.335 9.152-13.495 11.702-4.345 2.149-10.291 1.32-13.952 4.532-4.993 4.379-9.014 12.007-12.446 17.689-1.847 3.063-3.92 6.037-5.874 9.078M66.29 392.612c-1.92-4.192-2.625-8.915-4.965-12.945-.619-1.067-1.34-1.985-2.079-2.913.955-1.553 1.659-2.829 1.846-3.257 1.52-3.465 1.643-7.299 3.4-10.704 2.16-4.183 5.675-7.734 8.947-11.131 12.933-13.425 28.179-24.914 44.762-33.391 17.291-8.839 38.171-15.626 57.444-18.292 9.62-1.332 19.42-.895 29.112-.902 2.231-.002 4.425.114 6.605.224q.732.581 1.471 1.142c-7.914.105-19.136 4.038-23.174 4.525-4.192.505-8.333-.11-12.472.141-4.26.261-8.973 2.09-13.061 3.272-9.396 2.718-18.458 6.154-27.424 10.037-.274.118-.076.601.205.487 16.005-6.499 32.471-9.949 49.678-9.499 3.647.095 7.257-.222 10.875-.591-6.031 1.182-12.079 2.291-18.042 3.738-14.875 3.614-30.898 10.351-43.256 19.496-14.077 10.417-27.48 21.563-39.673 34.206-6.008 6.23-11.76 13.032-17.025 19.908-2.98 3.893-6.618 7.872-9.06 12.307-.087-.084-.164-.171-.252-.253a26 26 0 0 0-2.152-1.809c-.663-1.333-1.247-2.784-1.71-3.796m-8.112-17.227c-2.881-3.824-4.06-7.369-5.904-11.596-1.484-3.401-2.756-6.326-3.582-9.49.848-.915 1.755-1.78 2.401-2.619 2.055-2.666 3.623-5.529 5.043-8.551 2.352-5.011 3.49-9.22 7.791-12.784 3.32-2.753 6.748-5.34 10.445-7.556 15.551-9.325 33.631-15.66 50.708-21.714 17.729-6.286 35.21-9.543 54.072-10.841 9.011-.621 17.445 1.7 25.91 3.872 1.603 1.308 3.184 2.652 4.776 3.963-12.112-.457-24.305-1.056-36.246.902-18.544 3.04-37.902 9.309-54.768 17.598-15.671 7.701-28.895 18.115-41.636 29.906-5.569 5.154-12.148 10.843-15.057 18.05-1.377 3.412-1.296 7.125-3.175 10.456-.152.27-.323.521-.486.782-.098-.127-.195-.25-.292-.378m-10.476-28.314c-.075-4.533.161-8.832-.608-13.291 4.178-9.23 11.826-18.344 18.645-23.797.208-.166-.071-.533-.286-.371-8.278 6.162-13.267 13.256-18.941 21.563-1.546-5.766-4.67-10.735-6.409-16.481-.859-2.842-1.476-5.538-1.852-8.175a41 41 0 0 1 1.586-1.748c5.603-5.753 10.775-8.871 18.183-11.794 15.883-6.269 29.877-16.053 46.509-20.95 17.361-5.114 34.622-10.439 52.823-11.517 9.971-.589 19.446 1.177 28.356 5.819 3.044 1.587 5.613 3.987 8.241 6.205-9.538-5.132-18.17-4.947-29.491-2.253-6.202 1.476-12.113 5.176-17.958 7.657-8.86 3.761-15.629 3.856-24.951 4.62-10.759.881-25.563 3.619-34.125 10.645-.27.22.093.699.376.488 10.733-8.079 28.161-9.054 40.701-9.745 12.813-.705 24.657-9.234 37.318-8.951 11.855.262 21.064.932 31.145 8.344a254 254 0 0 0 5.136 3.676c-3.485-1.651-7.042-2.986-10.61-3.833-6.352-1.507-13.087-1.212-19.569-1.915-7.723-.837-12.569 1.84-20.024 3.072-.292.048-.228.562.069.524 2.984-.395 5.379-1.403 8.291-2.143 4.782-1.216 8.067-.514 12.735.26 6.763 1.122 14.087 1.297 20.481 3.801 3.124 1.223 5.942 3.016 8.632 5.026a113 113 0 0 0-4.563-1.147c-8.345-1.886-16.199-1.726-24.699-.974-19.846 1.76-37.776 5.72-56.236 13.258-16.752 6.84-34.415 12.075-49.048 23.117-4.853 3.661-9.46 7.128-11.868 12.806-1.334 3.147-1.25 5.544-2.778 8.208-1.124 1.961-3.103 3.728-4.603 5.577a30.5 30.5 0 0 1-.608-5.581m-7.125-58.279c2.71-6.23 5.373-12.244 9.528-17.683 3.418-4.475 6.758-10.858 10.952-14.284 4.907-4.011 9.932-3.491 15.371-5.676 3.63-1.458 5.41-3.136 9.426-4.143 3.211-.804 6.247-1.309 9.502-1.718.931-.118 1.811-.179 2.707-.259 1.276.308 2.608.633 4.036.94 5.658 1.212 11.743 1.225 17.874.933 2.387.442 4.789.846 7.099 1.094 3.822.411 7.58-.292 11.413.18 4.091.501 7.315 2.196 11.157 3.54 4.489 1.57 14.69 5.491 18.722 1.658.415-.394-.213-1.021-.626-.628-4.596 4.378-19.084-2.829-23.168-4.14-6.73-2.162-13.205-.834-19.997-1.965 5.415-.347 10.792-.762 15.862-.637 3.452.084 7.044.369 10.65.85 3.691 1.355 7.45 2.875 11.311 3.246 1.166.112 2.219.101 3.208.037 2.378.799 4.696 1.713 6.89 2.788 4.062 1.992 5.727 4.658 8.61 7.6 3.324 3.39 8.284 5.468 11.394 9.209.277.332.512.666.76.999-2.137-1.938-4.324-3.842-7.053-5.254-6.182-3.197-12.879-5.402-19.824-6.034-18.289-1.665-36.334 4.686-53.598 9.622-15.364 4.392-30.225 9.479-44.282 17.254-6.697 3.705-14.875 5.494-21.052 9.779-3.243 2.25-6.19 6.029-9.338 9.4-.654-5.584-.051-10.918 2.466-16.708m99.311-58.846c-11.17-3.206-19.614-12.959-30.08-18.165 3.781.388 7.657.425 10.834.735.562.248 1.142.51 1.763.804 5.707 2.71 9.493 7.683 14.737 11.029 3.809 2.431 8.107 4.073 11.934 6.447a28 28 0 0 0-1.981-.213c-2.319-.16-4.631-.355-6.941-.571-.088-.024-.175-.041-.266-.066m-43.984-49.453c.712 1.321 1.388 2.67 2.053 4.027-5.008-3.703-10.383-6.781-16.2-9.829-3.649-1.912-7.997-3.855-12.22-3.979.026-.028.046-.057.071-.085 3.695-3.92 8.945-4.789 13.99-3.759 2.135.436 4.219.975 6.321 1.396a176 176 0 0 0 5.985 12.229m14.827 14.11q-.588-1.15-1.182-2.302c1.118 1.296 2.504 2.22 3.915 3.274 4.559 3.408 8.406 7.334 12.855 10.817 5.177 4.054 8.807 6.98 11.705 13.216.483 1.041.945 1.94 1.443 2.792-5.529-3.865-10.235-8.647-15.594-12.807-5.859-4.551-9.647-8.13-13.142-14.99m41.658 29.882c.06.042.126.077.185.121.063.049.134.106.156.126.287.278.553.583.79.904.343.466.876 1.182.696 1.768-.197.645-1.012 1.095-1.533.823-.634-.331-1.189-1.511-1.532-2.108-.239-.415-.617-1.017-.587-1.544l.009-.002q.197-.114.354.038c.446.184.595.81.656 1.221l.033-.009c.104.333.615.426.738.009.132-.453.121-.91.035-1.347m3.696-15.844c.116-.429.312-.73.542-.982.097.147.183.297.314.437.58.621 1.344.7 2.018.47.51.709 1.05 1.394 1.664 1.978a6.687 6.687 0 0 1-.305 2.796 69 69 0 0 1-3.998-1.722c-.371-.922-.525-1.902-.235-2.977m6.89-4.814c.336.112.703.126 1.002-.096.344-.255.641-.519.944-.811l.02-.022c.175.049.351.093.527.163.329.13.884.288 1.008.599.239.593-.545 1.722-1.131 1.808-.055.008-.108-.018-.163-.016q-.905-.54-1.809-1.082a5 5 0 0 1-.398-.543m33.669-38.966c.733.063 1.477-.22 1.85-.962.027-.053.033-.055.049-.083l.028-.034c.014.001.02.003.044.007.036.005.148.048.227.077.061.039.127.081.14.096 1.006 1.131 1.337 2.633-.152 3.51-.963.568-2.13.704-2.402-.594-.149-.707-.013-1.368.216-2.017m37.462 59.093q.072.17.134.343c-.044.081-.068.173-.107.259-.011-.202-.009-.4-.027-.602m-.415-46.788c-.217-.283-.391-.584-.595-.872a127 127 0 0 0-.566-3.256c.654-.24 1.264-.619 1.734-1.168 1.136-1.329 1.774-3.277.262-4.572-1.669-1.432-4.054-.944-5.958-.413-1.464-4.795-2.086-9.958-2.387-15.199.136.116.262.244.407.349.233.169.45-.215.224-.382-.235-.174-.45-.402-.668-.621a274 274 0 0 1-.276-7.725c1.532 4.74 2.784 9.659 3.976 14.389.209.83 1.493.478 1.282-.352-1.535-6.078-3.177-12.432-5.381-18.372-.124-3.909-.323-7.725-.842-11.304a58.5 58.5 0 0 0-3.454-13.012c.15.127.271.266.427.389.131.103.318-.071.19-.189-.307-.277-.566-.56-.847-.839-.308-.756-.674-1.484-1.014-2.225-.023-4.262-.071-8.526-.356-12.821-.51-7.701.841-14.947 1.566-22.568.168-1.76.153-3.656.331-5.413.826-2.058 1.89-4.05 3.307-5.96.909-.414 2.064-.645 3.539-.643.672 0 .657-.986 0-1.034a20 20 0 0 0-2.151-.046q.015-.016.03-.037c3.448-3.867 8.226-6.625 12.189-10.071-.694 1.764-1.311 3.419-1.84 4.834-6.394 17.138-8.05 34.78-6.431 53.008 1.703 19.152 8.172 36.864 6.688 56.323-.081 1.063-.169 2.127-.252 3.19-1.617 2.181-1.035 5.521-.932 8.055.031.777.077 1.554.113 2.331a1429 1429 0 0 0-.831 11.131q-.23-1.282-.458-2.563c-.389-3.913-.833-7.828-1.402-11.708.304-.015.602-.34.376-.634m-15.816-89.932c.834-3.976 1.398-7.885 2.374-11.635-.02 5.53-1.713 11.001-1.709 16.556.005 6.265 1.122 12.416 1.219 18.662a56 56 0 0 0-3.68-6.468c-.91-5.397.544-11.146 1.796-17.115m32.814 134.964c.187.305.432.59.7.856.211.404.444.793.681 1.146.724 1.069 1.809 2.09 3.122 2.068.101 2.346.264 4.686.556 7.001-.286-.556-.566-1.114-.87-1.662-.368-.661-.996-.912-1.616-.883-.171-.406-.336-.815-.513-1.219q-.006-.01-.012-.017c-.151-1.56-.792-3.088-2.303-3.749a3.53 3.53 0 0 0-2.211-.215 35 35 0 0 1-.532-3.616c.227-.736.387-1.511.497-2.242a2.93 2.93 0 0 0 1.779-.058c-.005.899.25 1.817.722 2.59m12.841-28.568c-.824.575-2.336 1.755-3.294 1.601a4.3 4.3 0 0 0 1.159-.45c.618-.345.89-.973.89-1.603.277-.024.582-.016.935.022.081.009.323.096.578.189-.121.112-.231.215-.268.241m23.849 36.788c.188 2.892.445 5.778.496 8.685.009.538-.022 1.076-.036 1.616-.498 5.503-1.341 11.027-2.992 15.896a.95.95 0 0 0-.424-.101c.808-4.599 1.076-9.172 1.711-14.218.496-3.942.917-7.907 1.245-11.878M359.4 33.455c-.069-4.378.037-8.759.911-12.997a278 278 0 0 0-.911 12.997m1.583-19.725c-.108.992-.206 1.98-.308 2.97-4.264 12.304-1.963 27.35-1.978 40.165-.018 15.148.957 30.679-.263 45.777-.545 6.75-1.223 13.167-.091 19.949 1.142 6.851 2.567 12.211-.667 18.772-4.302 8.726-14.782 11.386-15.079 22.211a179 179 0 0 1-5.085 2.764c-10.145 5.272-20.421 10.351-29.729 17.073-2.174 1.57-4.609 3.195-6.967 4.967a7.9 7.9 0 0 1 .972-1.972 41.5 41.5 0 0 1 4.539-7.641c2.563-3.38 5.859-6.281 8.494-9.629 3.941-5.004 7.641-10.461 11.014-15.85 8.996-14.373 15.102-28.13 18.423-44.732 3.324-16.616 5.739-33.35 8.535-50.05 1.179-7.048 2.373-14.186 3.251-21.274 1.006-8.11 1.388-16.337 4.963-23.684zm-62.405 186.624c.2-.293.442-.576.661-.865.529.23 1.276-.361.925-1.03-.016-.033-.018-.084-.031-.119 3.684-4.315 9.139-7.997 13.706-10.909 8.267-5.276 16.816-10.116 25.642-14.373 3.187-1.537 6.208-3.259 9.196-5.003-2.266 1.456-4.428 2.934-6.369 4.107-12.08 7.303-23.974 14.78-34.485 24.211-5.273 4.732-9.756 9.716-11.81 15.454.014-4.056.262-8.103 2.565-11.473m75.452-8.827c12.521-5.281 21.262-17.264 34.257-21.947 4.289-1.546 8.922-3.195 13.482-3.935 3.577-.58 6.603-1.902 9.715-.787-.073.007-.147.009-.194.079-1.952 2.862 3.188 10.325 4.216 12.714 3.922 9.095 3.305 16.054.233 25.067-1.658 4.866-5.569 9.306-7.308 14.027-4.672.688-9.536.413-14.323.51-6.363.129-12.803 1.592-19.088 2.409-11.677 1.521-23.098 3.842-34.057 8.219-13.144 5.252-25.719 11.176-37.447 18.596 6.128-5.984 11.982-12.064 17.647-18.645 6.535-7.591 13.054-17.028 20.902-23.24.117-.092-.041-.299-.162-.209-7.435 5.511-13.513 13.682-20.059 20.25-7.896 7.924-16.306 15.006-25.083 21.925-4.696 3.702-9.272 7.441-14.09 10.825 8.726-10.072 14.857-22.063 22.795-32.728 10.348-13.904 23.82-24.38 37.295-35.056 13.261-10.505 28.113-21.473 45.085-24.901 2.365.121 4.732.022 7.096-.171-2.698.637-5.384 1.313-8.085 2.134-12.974 3.942-20.66 18.825-33.046 24.35-.284.129-.075.637.219.514m65.611-.413c.197-3.803-.621-7.056-2.08-10.804-.395-1.014-6.987-13.42-5.03-14.99.863.469 1.739 1.139 2.641 2.099 1.926 2.049 4.735 8.97 5.319 11.271 1.161 4.585.208 8.513-.85 12.424m-14.257 59.787a53 53 0 0 1-6.731 3.825c2.411-3.555 4.952-6.684 8.009-10.177.256-.292.474-.556.706-.831-.307 2.602-.834 5.027-1.984 7.183m-23.766 18.785c-4.738 2.721-9.24 5.191-13.368 9.815-2.397 2.684-4.686 5.982-7.033 9.31-3.913 1.283-8.15 1.895-12.832 1.595-12.452-.795-23.947-8.753-34.573-14.87-9.163-5.272-18.24-9.086-28.89-9.712-1.089-.064-2.499-.218-3.992-.303 6.339-1.77 13.412-2.703 18.462-2.616 11.734.196 25.441 1.447 35.539 7.991.193.125.439-.18.251-.325-9.84-7.646-26.592-11.005-38.928-11.73-2.224-.13-4.503.09-6.782.428.507-.406 1.007-.821 1.506-1.236 6.078-2.27 12.735-3.54 18.469-4.466 15.754-2.539 30.901 5.415 46.307 7.511 12.442 1.693 26.925 1.369 39.116-3.445l-.509.936c-6.669 2.637-10.714 5.39-12.743 11.117m-102.7 47.048c-.594-1-1.783-1.397-2.889-1.191a2.3 2.3 0 0 1-.316-.393c-.174-.281-.528-.356-.82-.27-.1-.615-.179-1.236-.199-1.868-.033-1.046.03-2.131.134-3.23.083-.51.153-1.019.18-1.524.294-2.258.72-4.53 1.027-6.645l.163-1.144c.118.178.456.139.426-.11q-.099-.839-.185-1.684c1.028-8.047 1.067-15.616-5.628-21.519 2.636-.861 5.271-1.769 8.134-1.989 9.819 1.934 17.278 18.717 22.66 24.643 3.149 3.465 6.981 6.9 11.137 9.146 2.87 1.552 6.133 2.264 9.14 3.493a182 182 0 0 1-4.203.787c-3.406.599-6.816 1.372-10.233 2.169-3.981.127-7.933.384-12.024.602-3.432.184-6.146-.095-9.563.415-1.201.178-4.389.674-6.941.312m-28.282 31.494c-.792-2.007-2.118-4.289-3.785-5.722-.143-.123-.341.07-.209.21 1.463 1.551 2.409 4.491 2.883 6.57.371 1.63.18 3.235.435 4.868.026.163.211.767.42 1.443a29 29 0 0 1-2.618 2.756c-.052-.317-.114-.641-.274-.912-.238-.41-.503-.386-.433-.957.042-.351-.525-.415-.61-.083-.248.975.344 1.163.437 2.141.019.197.004.393.006.59-5.863 4.868-11.609 5.42-17.847 4.284-2.572-2.834-5.259-6.372-5.558-6.697-3.406-3.698-7.114-7.628-11.22-10.569-3.485-2.498-7.042-4.066-10.279-6.286-.09-.118-.189-.23-.277-.347-3.34-4.475-8.677-10.059-9.692-15.493-.795-4.254.806-8.142 3.439-11.414.123 3.383 1.028 6.532 3.315 9.784 3.558 5.064 7.284 9.89 11.737 14.203.384.371.951-.198.586-.585-3.61-3.818-6.486-7.764-9.02-12.34-.736-1.328-1.524-2.646-2.137-4.038-.869-1.974-2.224-7.092-1.277-10.325a33 33 0 0 1 2.838-2.195c-.074 9.354 8.32 24.14 12.539 20.443.101-.088-.029-.257-.143-.185-4.049 2.567-8.842-9.045-9.521-10.869-.674-1.809-2.451-6.772-1.924-10.022q.284-.183.565-.356c.094.029.182.069.276.099.835.259 1.621-.109 2.143-.707-.004 1.324.17 2.644.466 3.786.448 1.735.948 3.596 2.126 5.006 1.082 1.293 2.904 1.915 3.333 3.727.022.096.156.052.143-.038-.312-2.215-2.662-3.796-3.299-6.01-.709-2.47-1.131-5.946-.125-8.576 6.537-3.417 12.508-7.626 18.921-11.412.773.551 1.595.929 2.477 1.06.495.073 1.01-.046 1.274-.52.241-.428.351-.894.408-1.375.095.108.176.224.271.33.854.948 2.485-.046 2.125-1.236-.189-.624-.417-1.241-.637-1.86q.031-.02.062-.042l.063.072c1.577 1.599 3.788-.098 3.476-2.024-.026-.165-.059-.329-.087-.492.276-.206.555-.406.829-.615 3.327-1.207 6.838-1.969 10.292-2.365 5.832-.669 8.988.314 13.168 4.375 2.794 2.714 5.685 5.708 7.971 9.007-.546 14.319-2.226 27.794-8.205 41.551-2.06 4.741-4.726 10.353-8.048 15.061-.549-1.621-1.208-3.206-1.799-4.699M181.232 215.86c-.613-1.218-1.229-2.426-1.838-3.651 1.393 1.959 2.842 3.889 4.291 5.81a29 29 0 0 0-2.453-2.159m5.128 5.707c1.082 1.416 2.171 2.84 3.223 4.236a105 105 0 0 0 5.02 7.966 7 7 0 0 0-1.902 2.301q-.097-.08-.198-.153c.277-.121.486-.433.378-.734-1.048-2.887-3.63-5.524-5.795-7.882-.099-.187-.197-.385-.296-.573l-.002-.003q-.049-.098-.101-.195c.687-1.728.439-3.406-.327-4.963m-9.508-34.151c.303.097.616.175.928.23 1.166.202 2.181.064 3.075-.316a112 112 0 0 0 1.884 3.558 46 46 0 0 0 1.58 5.149c-.182-.249-.375-.488-.559-.736a5.7 5.7 0 0 0-.742-2.218c-1.222-2.103-3.676-3.17-6.022-2.408-.25.081-.493.208-.735.335a6.8 6.8 0 0 0 .591-3.594m16.584-7.916c-.114.13-.232.259-.382.345-.843.481-1.972-.027-2.635-.611-.555-.489-.838-1.091-.972-1.745.215-.134.408-.305.544-.523.235-.378.608-.602.938-.881a93 93 0 0 0 2.507 3.415m7.245 9.679a177 177 0 0 1-1.7-4.38c.299-.2.353-.637.215-.951-.075-.171-.191-.321-.277-.486.137.066.266.088.402.135a67 67 0 0 0 1.36 5.682m26.209 56.195c.612 3.36 2.318 6.783 3.453 9.789.864 2.295 1.766 4.55 2.669 6.805-2.335-4.77-4.704-9.526-7.196-14.209a8 8 0 0 1-.211-.448 6.2 6.2 0 0 0 1.285-1.937m6.712-.9c-.053-.116-.11-.226-.162-.341.043.009.083.023.125.033.013.102.022.203.037.308m7.571 17.703c-2.016-5.552-4.069-12.264-4.879-18.571.077-.056.156-.105.233-.168 1.921 5.939 3.182 12.384 4.646 18.739m1.401 14.476c-.448-.627-.825-1.207-1.085-1.723-3.142-6.221-5.16-14.007-6.752-21.567 2.662 7.667 4.763 15.803 7.837 23.29m-1.223-36.795c.683.271 1.414.4 2.088.191 1.067-.334 1.994-1.242 2.651-2.342.551 12.588 2.72 24.584 7.942 36.448.52 1.183 1.754 2.872 1.959 4.148.439 2.731-.09 1.209-1.019.068-2.995-3.676-4.453-10.582-6.158-15.116-2.832-7.53-5.779-15.455-7.463-23.397m1.822-5.509c.224.281.468.542.751.733.124.084.262.145.394.215-.178.374-.446.697-.765 1.004-.283.27-.608.49-.891.755l-.062.044a.6.6 0 0 1-.18-.043c-.199-.099-.696-.231-.801-.449.127.266.316-.441.387-.665.129-.404.12-.806.197-1.216.022-.117-.013-.242.022-.349q.055-.052.106-.11c.16.401.663.41.842.081m144.935-72.308c1.423-.009 3.638-.288 6.115-.577.388.096.766.204 1.118.353.217.092.364-.27.16-.378-.073-.039-.16-.057-.235-.094q.592-.066 1.197-.13c2.911 1.446 5.88 2.91 8.902 3.279.197.024.393.029.59.05-12.753 2.932-25.284 10.204-35.598 17.747-12.112 8.858-24.51 18.221-35.05 28.938-10.147 10.318-17.307 22.54-25.398 34.417-3.58 5.257-7.611 10.18-11.921 14.851-.659.408-1.334.794-2.008 1.183-1.403.395-2.742.898-3.969 1.603 6.295-7.016 11.483-15.199 16.468-23.122 4.969-7.896 8.225-17.252 13.697-24.658 6.399-8.661 14.216-14.093 22.281-20.946.176-.15-.061-.464-.252-.325-6.97 5.07-14.198 9.042-20.002 15.608-5.801 6.565-9.068 13.765-14.013 20.82-6.864 9.789-14.401 19.967-23.03 28.605q.264-.477.516-.957c.455-.594.824-1.204 1.124-1.83 3.338-4.527 6.399-9.253 9.17-14.007 7.406-12.705 12.057-26.048 22.426-37.085 8.926-9.501 19.27-18.846 30.598-25.346 6.414-3.68 12.786-7.835 19.349-11.22 3.571-1.843 9.739-5.095 15.472-6.695.769-.031 1.509-.079 2.293-.084M293.67 294.134c-1.01-2.508-2.562-5.035-4.327-7.351-.001-.207 0-.409-.003-.617-.004-.266-.412-.266-.413 0q0 .032-.002.059a41 41 0 0 0-2.795-3.182c3.907 2.424 6.076 5.927 7.694 10.107-.044.326-.099.655-.154.984m-29.792-12.208a36 36 0 0 0-3.716 1.082q.07-.057.143-.114c.54-.439 1.085-.944 1.632-1.482q.234-.169.463-.354c.158-.042.307-.101.455-.162.325.364.669.705 1.023 1.03m20.919-8.983q.376-.19.764-.372-.278.243-.559.481c-.068-.039-.137-.072-.205-.109m-20.234.059c-1.421-3.329-3.175-6.625-4.243-9.598a150 150 0 0 1-1.178-3.428c1.772 4.33 3.851 8.551 6.497 12.602a8.4 8.4 0 0 0-1.076.424m-2.606 1.829c-.113.11-.231.217-.341.332-1.836-3.101-3.234-6.988-4.433-10.755 1.544 3.442 3.362 6.945 4.774 10.423m-1.731 2.152c-.074.116-.156.222-.226.342a2.56 2.56 0 0 0 0 2.565l.101.171c-.426.492-.903.916-1.475 1.197-.108-.85-.444-1.603-.861-2.817-1.603-4.666-3.839-9.054-5.273-13.84-1.446-4.818-3.131-9.234-4.083-14.218-.664-3.483-1.092-6.823-1.2-10.334.539 1.807 1.103 3.472 1.357 4.425 1.683 6.319 4.324 12.443 6.538 18.592 1.468 4.079 2.793 9.501 5.122 13.917m-12.274-41.382a6.6 6.6 0 0 0 1.456-.543c.818 5.902 2.116 11.686 3.73 17.417-2.13-5.483-4.112-11.088-5.186-16.874m7.834 47.143c.294.271.598.514.911.74q-.325.204-.652.407a37 37 0 0 0-.259-1.147m-58.828-15.137c-3.139-3.929-7.338-7.229-11.084-10.564.411-.244.802-.54 1.17-.872q.703.28 1.45.496a36 36 0 0 0 2.446 1.61c3.223 4.402 9.04 7.792 11.873 12.289a77 77 0 0 1 2.338 4.003c-2.668-2.375-5.448-4.665-8.193-6.962m-31.593-29.536c.325.092.672.163 1.001.25.051.47.179.931.354 1.383a61 61 0 0 0-1.644-1.372q.15-.127.289-.261m18.302-40.871c.955 1.869 1.935 3.867 2.113 4.161 1.8 2.952 3.493 6.045 5.177 9.17l.404.824c3.691 7.681 8 15.304 13.401 21.964a3.5 3.5 0 0 0-.974.655 365 365 0 0 1-3.123-4.353c-.529-1.051-1.653-2.433-2.165-3.098l-.551-.79c-1.607-2.416-3.283-4.776-4.754-7.284-3.564-6.076-6.363-12.606-9.089-19.088-.114-.272-.316-.911-.566-1.66a6 6 0 0 0 .127-.501m10.933 13.577c3.059 7.191 6.878 14.227 12.58 19.108.729.624 1.794-.147 1.337-1.032-.415-.801-.86-1.59-1.306-2.38 1.837 2.622 3.779 5.162 5.878 7.577.057.066.119.099.18.136a4 4 0 0 0-.485.464 4.5 4.5 0 0 0-2.2 1.866c-.572-1.376-1.937-2.51-3.406-2.76-6.798-8.548-11.43-18.756-16.88-28.304a95 95 0 0 1-2.142-5.175c2.048 3.44 4.27 7.061 6.444 10.5m-2.997-12.314c3.032 6.214 6.111 12.454 9.554 18.438-1.629-2.411-3.268-4.817-4.84-7.248-2.011-4.519-3.77-8.775-4.714-11.19m8.954 8.898c-2.432-5.001-4.635-9.888-5.838-15.349a28 28 0 0 0-.373-1.482c.07.145.127.272.202.426 4.228 8.723 7.913 17.634 12.048 26.389.635 1.346 1.328 3.081 2.084 4.989-2.756-4.972-5.657-9.899-8.123-14.973m16.97 38.362c1.717 4.219 3.357 8.465 5.008 12.714-2.196-3.542-4.758-7.143-7.703-10.002 1.046-.617 1.968-1.565 2.695-2.712m22.353 46.439-.415.205q-.1-.22-.2-.442c.174-.055.353-.11.525-.154q.017.2.09.391m-1.95-3.168c-.169-.363-.327-.729-.498-1.094-.644-1.796-1.623-3.726-2.66-5.641-2.571-5.39-5.18-10.786-7.593-16.235-1.267-2.864-2.63-5.688-3.888-8.558 2.259 4.473 4.784 8.929 6.923 13.155a827 827 0 0 0 9.354 17.931c-.551.108-1.096.262-1.638.442m-48.753-35.772q.192-.445.32-.898c.933 1.588 2.927 2.327 4.767 1.335.049-.027.092-.072.139-.101 6.091 6.427 11.963 13.291 16.729 20.741-2.643-2.769-5.373-5.45-8.003-8.062-2.236-2.221-4.576-4.372-7.051-6.337-1.756-1.981-3.566-3.832-5.375-5.369-.527-.446-1.028-.922-1.526-1.309m7.551-3.351c.845 1.291 2.185 2.176 3.733 2.348 4.598 6.411 8.919 13.111 13.201 19.735.162.251.307.505.461.758-.176-.241-.338-.487-.52-.727-5.108-6.774-10.927-14.398-17.872-19.685.494-.703.824-1.555.997-2.429m10.386-7.927c-.061.15-.147.299-.195.451-1.037 3.355 1.26 6.317 4.271 6.784 1.82 4.243 3.392 8.553 5.18 12.789-2.833-4.576-6.228-10.355-10.323-13.968a7.54 7.54 0 0 0-.296-4.273 7.4 7.4 0 0 0-.947-1.745c.149.033.286.081.444.099a5.3 5.3 0 0 0 1.866-.137m20.096 52.555c-.334-.014-.567.081-.736.235-5.076-11.302-9.931-21.519-17.101-31.947-1.662-2.416-6.519-7.264-7.085-10.703.022-.006.042-.006.063-.011.727 2.163 4.787 6.669 6.544 8.938a174 174 0 0 0 4.517 7.037c3.219 4.787 6.493 9.62 9.323 14.644 2.102 3.731 3.671 7.878 6.139 11.368-.16.131-.325.256-.485.39a7 7 0 0 1-1.179.049m3.487-1.832c-4.012-11.034-11.576-19.301-18.168-28.967-1.52-2.23-3.414-6.708-5.894-9.997a220 220 0 0 1-1.703-3.331 5.5 5.5 0 0 0 .869-1.518c3.065 2.528 8.019 10.009 12.283 16.93.855 1.809 1.766 3.599 2.806 5.349 3.997 6.743 7.824 13.517 11.897 20.18-.709.408-1.403.865-2.09 1.354m-29.549-45.576s-.088.428-.178.486c-.579.38-.843-.468-.942-1.07.327.079.666.09 1.002.016.041.14.09.276.122.417.009.041.016.063.023.087-.007.016-.016.031-.027.064m-.239 12.424c-1.629-1.774-3.222-4.426-5.042-6.225 1.821 1.777 3.836 4.605 5.433 6.328 5.836 6.291 11.762 13.037 15.71 20.692.271.527.53 1.062.793 1.596a88 88 0 0 0-3.162-3.781c-.862-1.643-1.745-3.259-2.692-4.796-3.162-5.121-6.983-9.398-11.04-13.814m18.91 27.243a1.5 1.5 0 0 0-.507.203 107 107 0 0 1-2.409-4.449 42 42 0 0 1 2.916 4.246m6.913-17.84c.504 1.216.992 2.433 1.514 3.643 1.801 4.171 3.534 8.431 5.45 12.546.442.953 1.474 2.945 2.447 4.559-.71.305-1.393.628-2.023.933-.024.011-.046.026-.068.037-3.166-7.384-7.872-14.108-12.454-20.777-.099-.171-.204-.338-.301-.511-2.978-5.198-7.062-12.435-8.333-18.443a21 21 0 0 0-.422-1.684 5.7 5.7 0 0 0 1.07-.224c2.736 1.452 6.475 8.75 8.175 11.379 1.769 2.743 3.401 5.608 4.945 8.542m-14.462-27.672a2.37 2.37 0 0 0 1.524-.349c.015 0 .031.009.046.007 0 .067-.011.131-.011.197-.016.949-.488 3.188-1.449 3.652-1.186.573-1.673-.604-1.37-1.533.162-.498.665-1.414 1.26-1.974m-21.951-41.455a504 504 0 0 1-4.045-6.771 50 50 0 0 0 2.788 2.878 135 135 0 0 0 1.257 3.893m11.609 38.669c.032.687.204 1.335.535 1.886-1.438-.317-2.672.32-3.441 1.372a2.9 2.9 0 0 0-.996.363c-1.272.744-1.917 2.23-2.141 3.656-.703-.795-1.733-1.272-2.776-1.166.802-.684 1.382-1.5 1.687-2.418 2.492.744 5.865-1.166 7.132-3.693m-12.077-3.567a27 27 0 0 1-.194-.515c.24.226.499.419.758.612a5 5 0 0 0-.564-.097m-3.909 6.265c.171-.423.74-.65 1.307-.847.314.329.555.667.548.942-.01.364-.981 1.499-1.475 1.348-.217-.068-.518-1.102-.38-1.443m2.189 5.845c.98.312 1.768.117 2.508-.542-.057.127-.119.251-.162.386-.516.459-.925 1.127-1.19 1.838a5.5 5.5 0 0 0-1.296-1.761c.046.029.085.06.14.079m-9.073-1.811c-1.034.85-1.499.523-1.884-.663a6.2 6.2 0 0 1-.248-1.147c.536-.252 1.006-.673 1.414-1.099.42-.44 1.109-1.373 1.592-1.263 2.034.465-.169 3.592-.874 4.172m-1.177 3.775q-.017.046-.032.09c-.09-.046-.179-.095-.271-.139.101.016.198.042.303.049m-2.982-1.083a2 2 0 0 0-.362-.683c.095-.13.187-.261.266-.399.364.603.812 1.121 1.333 1.501-.305-.116-.6-.252-.912-.346-.111-.034-.215-.045-.325-.073m-2.711-8.195c-.729-.266-1.511-.298-2.205-.088a4.5 4.5 0 0 1-.586-1.1.28.28 0 0 0-.071-.177 4 4 0 0 1-.164-.684c.32.141.738.13 1.008-.048.625-.408 1.051-1.513 1.86-.883.83.644.628 2.159.158 2.98m31.409 29.755a156 156 0 0 0-3.463-4.632c4.624 4.244 8.994 8.945 13.197 13.534q.292.32.581.644c1.546 2.907 3.042 6.495 4.756 9.611-.01.138-.03.277-.041.415-1.434-2.653-2.673-5.534-4.409-7.736-1.256-1.594-2.903-2.776-4.173-4.317-1.488-1.801-2.298-3.904-3.745-5.713-.093-.117-.288.035-.209.162 2.494 3.941 5.044 7.74 7.439 11.64-1.921-2.314-4.047-4.49-6.291-6.583a38 38 0 0 1-.876-1.851c-.918-2.073-1.35-3.208-2.766-5.174m12.757 19.161c-.422-.31-.856-.623-1.318-.953-.089-.063-.175-.131-.263-.193-1.756-2.176-3.399-4.269-4.875-6.478 2.379 2.367 4.649 4.926 6.456 7.624m21.308 4.668a1.33 1.33 0 0 0-.242-.715q.052-.018.106-.035c.064-.02.165-.056.261-.09q.146.316.294.628-.21.108-.419.212m6.823-3.328c-.187-.604-.67-1.12-1.272-1.313-.505-.161-1.034-.224-1.566-.247-2.395-8.736-7.944-17.168-11.372-25.486-.97-2.354-1.824-4.771-2.646-7.204 1.009 1.879 1.99 3.745 2.866 5.588 2.185 4.596 4.791 8.979 7.132 13.497 1.126 2.17 1.939 5.053 3.162 7.411a47 47 0 0 0 1.829 4.082c-.11.338-.039.725.365.951l.2.112a20.4 20.4 0 0 0 1.622 2.462zm-22.648-40.682c.514-.031 1.041-.191 1.559-.413.248.676.448 1.221.529 1.46 1.544 4.53 3.267 9.014 5.079 13.454-2.382-4.906-4.831-9.787-7.498-14.523.114.002.212.029.331.022m-2.898-15.737a2.57 2.57 0 0 0-1.026-1.147c-.14-.083-.301-.122-.457-.169-1.047-2.218-2.108-4.413-3.15-6.614.438.545.889 1.07 1.376 1.553.619.615 1.581-.018 1.408-.819-.325-1.502-.756-2.978-1.226-4.442 1.101 2.505 2.299 4.969 3.656 7.318-.828 1.276-.966 2.84-.581 4.32m3.737-8.483c-3.45-4.885-4.978-11.967-6.849-17.645-1.047-3.178-1.976-6.421-2.881-9.677 1.504 3.533 3.048 7.053 4.506 10.592.758 2.394 1.544 4.783 2.288 7.181.698 2.257 1.658 6.111 3.044 9.698-.038-.054-.067-.09-.108-.149m-8.711-3.555c2.916 7.023-2.24-4.916-2.76-6.291l-.079-.217a248 248 0 0 1 2.839 6.508m-.779 6.249c-1.786-3.691-3.439-7.524-5.253-11.174-5.136-10.325-10.254-21.46-14.69-32.149a5.6 5.6 0 0 0 2.738-1.185c2.119 7.044 5.189 13.996 7.69 20.702 2.96 7.935 5.808 16.137 9.515 23.806M185.69 179.81c1.058 2.367 3.37 4.198 5.84 4.584 3.198 12.819 7.28 24.163 13.634 35.792-3.032-5.243-5.851-10.638-8.689-15.974-.526-.986-4.361-9.078-6.881-14.102-.602-2.654-1.529-5.167-3.424-6.091-.764-.371-1.565.384-1.163 1.16.832 1.605 1.649 3.23 2.463 4.863.211.962.484 2.02.778 3.076a93 93 0 0 1-4.616-5.335c-.052-.097-.103-.2-.153-.293-.196-.588-.372-1.133-.593-1.631.498-.534.948-1.151 1.346-1.842.658-1.138.564-2.392.039-3.525.486-.179.964-.41 1.419-.682m-5.687 1.919c.298.184.537.468.742.744.334.45.252.046.228.452-.011.191-.096.464-.202.747a.9.9 0 0 0-.364-.064 184 184 0 0 1-1.698-2.318c.429.125.876.182 1.294.439m-4.137 16.578.002.005-.093-.027c.029.013.062.011.091.022m.011.04c.008.021.008.041.017.059.059.114.112.226.171.34a2 2 0 0 1-.357-.423c.057.008.114.011.169.024m1.805-.31c.182-.174.327-.395.393-.689.002-.012.01-.022.011-.035.12-.157.243-.308.331-.516q.113-.217.167-.451c.106-.094.206-.182.292-.255.077.152.163.383.151.348.339.931-.195 1.631-.911 2.125-.145-.174-.287-.354-.434-.527m5.19 1.241c2.02 4.525 3.937 9.101 6.111 13.563-2.683-3.785-5.419-7.512-8.265-11.097a8.3 8.3 0 0 0 2.154-2.466m6.761 18.482c1.887 2.58 6.166 11.295 9.389 12.812.435.602.892 1.162 1.345 1.726-1.226-.34-2.519-.143-3.701.296-.228.084-.45.203-.674.313a586 586 0 0 1-5.823-8.169c-2.27-3.72-4.282-7.56-6.119-11.559-.896-1.954-1.623-4.121-2.421-6.229 2.506 3.709 5.455 7.329 8.004 10.81m-6.148 7.435c-.582.033-1.058.749-.527 1.289 1.028 1.045.914.955 2.242 1.488.039.016.081.011.121.016.711 1.286 1.488 2.74 2.406 4.082.04.132.093.248.134.382.014.05.024.094.038.142a22 22 0 0 0-1.298-1.558c-2.011-2.95-5.997-6.267-7.336-8.625a36 36 0 0 1-1.107-2.168c.128.068.262.128.389.198 1.601 1.611 3.287 3.171 4.938 4.754m-7.156-5.255c-.259-.29-.507-.593-.764-.885.107.042.219.084.323.127q.219.38.441.758m-2.271-2.632a126 126 0 0 1-2.885-3.505c.362-.068.718-.185 1.043-.426.066-.05.11-.119.172-.173.852 1.444 1.706 2.889 2.547 4.343a58 58 0 0 0-.877-.239m-1.886 7.114c-.184-1.085-.661-2.077-1.622-2.719a3.9 3.9 0 0 0-1.417-.579 10.9 10.9 0 0 0 1.07-3.821q.084.022.169.048c.95 2.618 1.825 5.426 2.881 8.068a89 89 0 0 1-1.081-.997m-2.476-14.025c.399.228.807.441 1.209.661-.011.02-.019.046-.031.068-.072.128-.188.18-.21.204a.94.94 0 0 1-.382-.188 5.3 5.3 0 0 1-.91-.94c.11.063.214.132.324.195m-5.793 5.981c.018-.054.035-.09.052-.14.304-.007.574-.149.822-.334l1.502.38c.024.117.052.231.061.354.055.733-.035 2.507-.542 3.054-.474.512-.924-.591-1.278-1.155-.481-.768-.902-1.293-.617-2.159m7.318-.471c.143.278.319.549.484.823l-.189-.044c-.099-.263-.205-.538-.295-.779m-4.413-7.251c.04.033.066.074.108.107a3.3 3.3 0 0 0-.17.479c-.184-.121-.333-.274-.533-.382-.07-.037-.141-.053-.211-.086.053-.01.105-.01.158-.021.187-.038.36-.102.534-.163q.059.031.114.066m-9.062 5.391q-.123-.174-.242-.349 1.082.41 2.176.762c-.76.84-1.264.529-1.934-.413m-1.359 5.458c.36.372.709.753 1.08 1.116.575.562.852.975.69 1.811-.11.567-.229.49-.771.145-.718-.459-1.258-1.284-1.572-2.062a4.2 4.2 0 0 1-.238-.915c.266.044.539.008.811-.095m4.595.207c-.184-.472-.45-.925-.742-1.364.086-.031.171-.055.259-.094.584 2.064 2.403 4.493 4.364 5.237-.101.467-.102.988.046 1.563.081.314.241.569.426.795-.176 1.605.279 3.513 1.15 4.451.85.916 2.231 1.267 3.36.659.992-.534 1.563-1.586 1.923-2.613a9.6 9.6 0 0 0 .396-1.599c1.302 1.656 2.714 3.281 4.027 4.363 1.209 1.724 2.661 3.156 4.508 4.089.481.243.931-.24.711-.71-1.069-2.29-3.026-4.347-5.164-6.339-1.404-3.08-3.077-7.2-4.302-10.359.198.059.397.129.595.19 2.075 2.86 5.12 5.589 7.641 8.165 2.168 3.251 4.568 6.321 7.376 9.066a5 5 0 0 0-1.669 1.089c-.327.323-.513.806-.557 1.296a3.89 3.89 0 0 0-2.596 1.115c-.064-.07-.119-.145-.189-.213-1.504-1.471-3.495-1.708-5.223-.496a7 7 0 0 0-.721.597c-.283-.085-.579-.055-.865.029.163-1.751-.355-3.56-1.726-4.667-1.163-.941-2.824-1.288-4.191-.549a2.78 2.78 0 0 0-1.156 1.241c-.737.15-1.401.551-1.838 1.3-.21.358-.342.731-.419 1.111l-.164-.066a6 6 0 0 0 .895-2.775c.147-2.029-.54-4.344-2.253-5.549-1.772-1.247-4.249-.971-5.406.982l-.004.01a4.9 4.9 0 0 0-1.581-.592 5.3 5.3 0 0 0 .406-1.168c.193-.894.134-1.768-.072-2.609 2.45-.05 3.654-3.27 2.755-5.586m40.766 53.68c1.631 1.522 3.541 3.211 5.498 5.036a71 71 0 0 0 2.874 4.841c-1.331-1.365-2.587-2.316-4.099-3.548-3.04-2.475-4.555-5.264-6.427-8.294q1.087.971 2.154 1.965m76.982 10.49c-3.177-2.42-7.448-3.008-11.921-2.457 0-.018.007-.035.007-.053-.026-.929-.183-1.879-.393-2.837.042-.022.092-.033.136-.053.707-.12 1.409-.248 2.11-.375 1.844.022 4.409.556 6.765 1.155-.518.075-.964.044-1.256-.208-.674-.58-1.662.399-.983.983l.744.639c.176.152.439.272.676.178a34 34 0 0 0 2.556-1.135c1.458.399 2.712.773 3.468.981.583.16 1.132.339 1.664.529a22 22 0 0 1 2.845 2.66 55 55 0 0 1 3.745 4.683 400 400 0 0 1-.097 4.579c-3.054-3.599-6.761-6.751-10.066-9.269m10.626 5.345c1.42 2.072 2.672 4.281 3.406 6.409-.128.15-.17.36-.014.589l.431.638q-.191 1.05-.378 2.097c-.944-1.809-2.136-3.544-3.474-5.19q.036-2.25.029-4.543m44.333 26.145c.516-.108 1.036-.224 1.552-.327 2.857-.564 5.705-1.111 8.529-1.709.338.178.678.354 1.004.556.373.231.711-.353.344-.588-.11-.071-.224-.126-.334-.194 6.116-1.324 12.115-2.953 17.887-5.493a266 266 0 0 1-3.528 2.628 3.1 3.1 0 0 0-1.302.927c-.402.283-.798.584-1.202.858-4.134 2.787-5.798 4.379-11.295 4.332-2.918-.026-5.737-.764-8.644-.918-1.02-.052-2.01-.052-3.011-.072m68.452-26.923c7.643-1.526 18.726 1.73 26.596 4.355 6.864 4.51 9.165 10.616 12.957 17.992.077.149.149.279.224.422-4.15-2.466-8.283-4.684-13.008-6.292-5.724-1.949-11.725-3.645-17.771-4.119-6.824-.536-13.247 1.77-20.001 1.417-5.846-.304-9.787 1.141-15.367 2.507.264-.186.517-.364.785-.549 4.264-2.975 7.063-4.681 12.05-6.372 1.952-.661 3.952-1.295 5.779-2.262 3.382-1.794 6.03-4.027 7.756-7.099m.298-.601a16.3 16.3 0 0 0 1.081-2.651c.206-.681.365-1.383.507-2.088 6.519-1.01 15.997 4.973 21.295 7.749-5.175-1.548-15.399-4.189-22.883-3.01m1.718-5.393c.015-.079.033-.156.046-.233.186-.002.369 0 .569-.062.27-.087.507-.18.731-.274q.578.174 1.183.323c-.883-.02-1.726.066-2.529.246m-7.113 6.453c-3.065 3.577-7.83 4.502-12.046 5.907-3.864 1.289-7.579 3.203-11.15 5.3 2.705-3.1 4.883-6.787 7.218-10.208 7.073-2.437 13.341-7.026 19.096-12.606-.318 4.126-.155 8.149-3.118 11.607m-28.459 13.875c-7.718 4.862-16.557 7.545-25.417 9.39-5.621-3.074-11.504-4.44-16.707-9.109-5.712-5.127-9.188-11.661-13.536-17.808-2.105-2.977-5.926-7.588-10.225-10.085 5.47.371 10.601 2.31 15.489 4.857 9.633 5.018 17.388 12.011 27.377 16.557.015.008.031-.011.018-.024-4.859-4.386-11.282-6.99-16.394-11.326-4.346-3.683-9.001-6.823-13.886-9.748-10.145-6.075-17.817-5.07-27.668-2.76a80 80 0 0 0 2.181-1.91q.849-.322 1.691-.646c.05.468.784.514.931.044.061-.193.182-.344.267-.518a36 36 0 0 0 2.781-1.238 67 67 0 0 0 3.286-1.79c6.72-.661 16.583 1.862 19.341 2.795 5.802 1.959 11.113 4.932 16.42 7.929 8.575 4.844 18.129 11.583 27.911 13.617 6.496 1.352 12.38.898 17.789-.819-3.522 4.96-7.223 9.804-11.649 12.592m-17.622-48.579c-10.691-2.796-20.262-2.361-30.835.522-2.618.714-5.173 1.339-7.639 2.047 1.75-1.5 3.451-3.044 5.103-4.605.507-.479.996-.96 1.499-1.44 15.557-10.949 33.087-19.346 51.072-25.032 11.678-3.69 24.093-4.676 36.139-6.538 7.115-1.1 14.793-.369 21.899-1.681-.108.342-.239.682-.321 1.027-.601 2.552-.221 3.711.406 6.219.35 1.401 1.09 2.696 1.592 4.06a11 11 0 0 0-1.097 2.863c-.73 3.234-.909 6.44-1.158 9.479a43 43 0 0 1-1.741 2.64c-2.653 3.726-6.541 6.613-9.033 10.45a37 37 0 0 0-1.076 1.778c-20.296 8.243-43.971 3.661-64.81-1.789m79.267-26.06a94 94 0 0 1-.521-2.613c-.568-3.099.176-5.931 1.327-8.693 2.558-.712 5.017-1.772 7.318-3.382.154-.108.011-.362-.149-.255-2.205 1.456-4.515 2.38-6.89 2.976 1.014-2.304 2.266-4.572 3.234-6.92 1.221-2.962 2.45-6.202 3.408-9.466-.026.67-.029 1.347.02 2.043.511 7.074 3.829 11.859-.861 18.414-2.363 3.306-5.121 5.083-6.886 7.896m-35.124-67.317c-.345.026-.694.022-1.039.04-2.13-.653-4.662-.554-7.36.011-1.88-.06-3.759-.13-5.63-.139-3.235-.015-5.859.316-8.959.868-3.867.691-7.767.149-11.533.847-2.035.376-4.136 1.234-6.227 2.293 5.257-3.009 10.63-5.782 16.783-7.431 6.855-1.838 12.804-.797 19.441 1.317 1.643.523 3.309 1.313 4.993 2.144-.157.017-.313.039-.469.05m-99.448 63.737c.193.694.408 1.393.672 2.109.171.463.838.285.742-.203-1.542-7.808-1.131-13.638 3.438-20.565 2.302-3.49 8.7-9.41 12.413-12.095 8.592-6.212 16.754-12.65 25.986-17.937 4.665-2.67 9.301-5.395 13.954-8.085 5.558-3.213 10.684-3.422 16.853-4.133 4.16-.478 7.99-.982 11.945-1.3-6.623 2.448-13.379 6.594-17.207 8.874-12.667 7.553-24.794 14.727-35.73 24.746-11.056 10.129-20.469 22.154-26.743 35.845-3.394 7.404-7.369 14.702-12.037 21.51 1.601-4.065 2.725-8.274 3.68-12.716 1.133-5.257 1.711-10.652 2.034-16.05m-23.078 37.505c.178.58.389 1.146.588 1.717.13.722.246 1.447.297 2.187.059.762.553 1.212 1.122 1.366q.277.598.579 1.186.037.335.108.674-.041.137-.085.278a2.5 2.5 0 0 0-.532.437c-.252.003-.494.044-.742.062-7.301-12.894-12.231-27.11-13.241-41.736 1.649 5.171 2.438 10.294 3.906 15.492 1.838 6.515 4.195 12.839 8 18.337m-9.255-34.793c-.099-.496-.187-.992-.28-1.488a75 75 0 0 1-.281-7.152c.058 2.609.203 5.621.561 8.64m4.876 19.431q-.155-.44-.307-.88a31 31 0 0 1-.543-1.761 375 375 0 0 1-1.954-7.545c.631 1.642 1.412 3.083 2.378 4.218.49 2.716 1.048 5.423 1.746 8.107.252.97.518 1.912.793 2.837-.764-1.621-1.493-3.268-2.113-4.976m-3.666-25.333c-.056-.632-.064-1.263-.104-1.895.101.47.204.942.281 1.397.576 3.416 1.056 6.846 1.546 10.272-.81-3.2-1.416-6.373-1.723-9.774m-.135-11.513a92 92 0 0 1 .236-3.276c.083 2.319.219 4.646.427 6.976-.235-1.238-.461-2.47-.663-3.7m-20.164-2.02c.303-.039.606-.204.786-.47.248 1.684.571 3.336.993 4.934-.125-.169-.252-.336-.36-.516-.514-.863-1.155-1.978-1.463-3.037.161-.272.2-.61.044-.911m-1.277-1.076c.011-.116.028-.224.037-.342.048.125.099.248.143.377-.06-.015-.115-.03-.18-.035m3.846-3.482q-.024.032-.046.064c-.162-2.655-.25-5.301-.47-7.837.282.294.6.557.943.768a655 655 0 0 0-.427 7.005m2.286-14.356c1.011.008 1.344 1.199 1.193 2.268a5.7 5.7 0 0 1-.692 1.998c-.327.571-.553.819-.843.767q.161-2.519.342-5.033m1.399-38.212-.028-.202c.605-.621 1.313-1.557 1.624-1.576.868-.053.552.48.192.854-.431.45-1.142.76-1.788.924m-3.019 41.931c-.046-.074-.106-.136-.152-.208a15 15 0 0 1-.38-.641c-.028-.049-.12-.266-.186-.374a1 1 0 0 1 .048-.158c.099-.182.151-.408.22-.602.133-.37.219-.764.424-1.088.094-.062.204-.1.302-.157-.085 1.076-.195 2.15-.276 3.228m-5.373 18.421c.112.253.23.5.345.744a7 7 0 0 0-.705.114q.196-.403.36-.858m-7.846 16.743c-.018.009-.031.035-.05.042a.8.8 0 0 0-.022-.167c.019.044.052.083.072.125m1.566-32.118c.173-1.941.432-3.871.676-5.713.296 4.997.604 9.992.804 14.994l.015.288c-.406-3.199-.936-6.387-1.495-9.569m.547 12.949c.146 1.613.25 3.135.289 4.494-.691-.814-.931-3.089-1.005-5.627q.306.584.716 1.133M238 220.445c.249.038.503.07.786.04.15-.014.268-.07.404-.101a9.5 9.5 0 0 0 .644 1.429 4 4 0 0 0-1.898-.893c.027-.156.044-.317.064-.475m-2.674 11.276c.364-.567.65-1.175.874-1.81 1.038.591 2.259.716 3.353-.094 1.409-1.045 1.77-3.118 1.739-4.765a4.7 4.7 0 0 0-.319-1.588c.573.672 1.195 1.204 1.788 1.47.94.421 1.717.465 2.373.269-.21.196-.399.418-.535.696a.089.089 0 0 0 .14.106c.589-.512 1.043-1.067 1.864-1.195.147-.022.113-.278-.035-.261-.153.016-.294.059-.437.097q.387-.338.694-.802c.101.698.209 1.39.347 2.062-.727.363-1.396.9-1.952 1.526a6 6 0 0 0-.863.865l-.287.343a2.34 2.34 0 0 0-1.406.942c-.553.791-.646 1.825-.433 2.813.005.081.053.149.069.228a1.7 1.7 0 0 0-.688-.116c-1.607.057-1.824 1.699-2.395 2.824-.672 1.326-.563 2.613.588 3.599.073.537.152 1.067.226 1.605.036.514.101 1.199.2 2.099.626 5.702 3.9 12.476 5.802 17.85 1.152 3.258 2.435 8.337 4.253 13.027-.463.33-.731.946-.404 1.634a20 20 0 0 1 1.095 2.936c-6.236-11.636-7.869-26.176-12.724-38.499.074-.527.127-1.048.182-1.538l-.02.075c.148-1.521-.801-2.914-2.307-3.34-.066-.134-.126-.272-.194-.404-.713-1.383-2.488-.542-2.641.714q-.002.03-.003.061c-.05.025-.105.038-.153.064a1 1 0 0 0-.426-.171c-.867-.108-1.709-.319-2.523.147-.769.443-1.193 1.293-1.245 2.159-.097 1.657.661 3.379 1.673 4.72a1.13 1.13 0 0 0-.175.837c1.106 5.874 2.577 11.702 4.031 17.518-2.451-5.527-4.895-11.054-7.226-16.501.002-.035.015-.068.013-.103 0-.064-.013-.126-.016-.189.507.316 1.428-.183 1.162-.863l-.196-.501c-.257-.657-1.056-.681-1.372-.173-.466-.932-1.291-1.685-2.321-1.928a3.07 3.07 0 0 0-2.365.379c-.244-.562-.463-1.135-.725-1.688-.37-.775-1.62-.228-1.378.58.166.549.355 1.098.551 1.646-.178.051-.36.097-.521.181-.485.254-.845.656-1.12 1.119.282-1.166.363-2.323.172-3.357.127-.151.252-.301.36-.463.674-1.006.705-1.952.444-2.885.48.683 1.078 1.282 1.789 1.714 2.793 1.693 7.049-.296 7.9-3.377.378-1.372.073-2.962-.669-4.31a83 83 0 0 0-1.315-5.127c1.137 2.345 2.549 4.492 4.468 6.176a.98.98 0 0 0 1.241.051c.164.299.294.63.469.92.356.58 1.171.553 1.529-.004m-8.309-14.374c-1.702-5.296-3.061-10.753-4.466-16.133-2.576-9.874-4.245-20.32-7.815-29.922.468.275.975.483 1.533.534.695.064 1.319-.099 1.894-.374a99 99 0 0 0 5.136 22.78c1.234 3.495 2.326 7.039 3.456 10.57 1.235 6.796 2.128 14.558 4.449 21.161-1.258 1.147-3.476-6.405-4.187-8.616m-2.945-3.448c-1.598-4.492-3.212-8.976-4.457-13.521-1.583-5.769-3.256-11.603-4.295-17.503-.576-3.272-1.111-7.527-1.484-10.43 0 0 .942 4.651 1.203 5.647 2.771 10.575 5.142 21.241 8.003 31.794.345 1.278.683 2.635 1.03 4.013m-14.128-49.229q.36-.028.723-.115c.255-.063.485-.151.705-.263.25.151.547.329.582.353.21.148.402.325.599.492-1.019 1.037-1.842.598-2.609-.467m.817 5.739a3 3 0 0 0 .027-.48 4.8 4.8 0 0 0 1.53-.051c1.166 10.615 2.857 20.555 5.698 30.943 1.471 5.378 3.024 10.736 4.904 15.99 1.108 3.092 2.628 6.217 3.458 9.401.086.329.224.746.365 1.163a4.5 4.5 0 0 0-.958-.435c-.185-.957-.652-1.928-1.122-3.397-1.475-4.615-3.212-8.919-4.991-13.288-.786-2.892-1.568-5.743-2.508-8.395-3.289-9.288-6.359-18.702-9.339-28.111 1.448-.478 2.732-1.879 2.936-3.34m-4.069 29.791c-1.626-4.166-3.111-8.379-4.301-12.687 2.277 6.921 5.046 13.985 7.857 20.836-1.252-2.706-2.488-5.413-3.556-8.149m-12.48-22.817a52 52 0 0 1-1.843-2.498c.308.105.622.32.854.5.83.643 1.123 1.065.989 1.998m-9.146-1.175c-.54.424-1.127.795-1.711 1.088-1.172.588-1.829-.203-2.61-1.105-.128-.147-.218-.292-.319-.437 1.112-.288 2.034-1.21 2.8-2.082.299-.34.521-.805.505-1.271.25-.017.501-.026.791.006.471.049.966.216 1.363.471-.533.997-.777 2.178-.819 3.33m-5.421 8.233c.006.05-.018.088-.003.14.038.132.095.292.163.47-.861.365-2.644-.048-3.386-.637-.461-.366-.573-.672-.577-1.234 0-.147.01-.325.028-.498.275-.09.551-.205.819-.371.345-.213.729-.53.992-.782q.97 1.467 1.964 2.912m-1.443 18.57c2.413 4.927 4.651 9.791 7.026 14.564q-.069-.099-.136-.199c-2.52-3.709-4.753-7.539-7.358-11.203-.797-1.122-1.842-2.537-2.652-3.384a4.95 4.95 0 0 0 3.12.222m2.916 17.256q-.435-.295-.881-.557a159 159 0 0 1-5.645-6.596c.224.131.457.248.679.384l2.013 1.357a14 14 0 0 1 1.498.715 162 162 0 0 0 2.336 4.697m-22.636-17.278a3.8 3.8 0 0 0-.925.511 32 32 0 0 1-1.045-1.95c.239.172.474.35.713.523.424.307.848.608 1.27.913q-.006.002-.013.003m-96.291 51.827c5.76-4.486 13-7.307 19.701-9.78 4.57-1.688 8.15-1.621 11.857-.955-2.222.266-4.451.617-6.7 1.161-6.25 1.511-11.393 5.108-17.7 6.676-2.564.637-4.982 1.545-7.158 2.898m177.316 99.228c2.068 2.108 4.156 5.613 6.497 8.713a97 97 0 0 1-4.627-1.306c-2.854-2.033-4.514-4.995-7.009-8.173-2.584-3.291-5.726-6.122-8.647-9.147 4.735 2.99 9.59 5.634 13.786 9.913m27.346 6.136-.042.461q-.732.368-1.491.696a27 27 0 0 0 1.533-1.157m1.14-.185a27 27 0 0 0-.092-.72 28.5 28.5 0 0 0 2.746-2.813c.227.749.418 1.408.378 1.465-.008.013-.008.026-.015.039a23 23 0 0 1-3.017 2.029m36.277-38.356q-.013.075-.024.153-.152-.087-.306-.177c.11.011.22.015.33.024m.283.022c1.519.107 3.065.096 4.6.046 5.518 2.303 13.838 8.93 14.716 9.67 5.435 4.574 8.874 9.897 11.473 16.315-3.489-6.59-7.107-12.343-13.414-16.567-3.192-2.137-6.457-3.762-9.885-5.453-1.761-.869-4.767-2.206-7.598-3.768.035-.087.066-.173.108-.243m59.638 99.496c-1.519-7.228-3.375-14.802-6.098-21.675-1.671-4.216-3.496-8.526-5.279-12.905-1.053-3.46-2.338-6.919-3.704-10.414-2.345-6.001-3.439-12.53-5.103-18.823a61 61 0 0 1-.466-4.641c-.034-.572-.816-.6-.932-.112-1.889-5.668-3.419-11.226-4.897-16.915a81.3 81.3 0 0 0 8.555 12.736c9.174 11.165 13.664 24.02 20.587 36.566 10.264 18.599 16.691 39.152 25.553 58.437-4.826 1.707-10.05 2.043-15.432 1.329-3.065-.406-6.03-1.177-8.992-1.972-2.161-6.849-2.33-14.65-3.792-21.611m1.974-39.443c-5.604-10.933-9.214-22.558-17.11-32.131-5.296-6.419-8.142-12.046-11.949-19.369a283 283 0 0 0-1.651-3.14c1.6.779 3.164 1.479 4.408 2.028.201.172.402.339.604.529 7.301 6.854 10.031 16.577 16.161 24.051 5.213 6.355 11.739 10.31 15.549 17.973 4.559 9.169 8.283 18.656 13.08 27.742.033.063.121.019.108-.046-.738-3.444-2.78-6.37-4.271-9.546-2.874-6.121-4.934-12.522-7.569-18.719-2.635-6.196-6.943-10.834-10.862-16.185-4.361-5.957-7.025-12.646-10.637-18.99 2.271 1.417 4.541 2.838 6.873 4.177 13.441 7.718 22.786 18.48 31.082 31.648 6.466 10.259 11.145 22.307 19.52 31.22 3.663 3.898 7.512 8.109 11.851 11.28 2.736 2 5.791 3.377 8.718 4.975-4.511 1.046-8.825 2.715-12.242 5.198-6.315 4.587-11.836 10.257-18.039 15.019-2.161 1.66-4.472 2.881-6.875 3.786-9.519-20.138-16.631-41.755-26.749-61.5m82.075-65.969a609 609 0 0 0 5.294 3.046c-.149-.068-.295-.13-.444-.202-1.892-.911-3.465-1.842-4.85-2.844m30.475 37.322c-1.941-5.199-3.078-10.037-6.574-14.466-3.684-4.668-6.726-11.38-11.113-15.62 5.869 3.594 10.375 7.97 13.886 13.275 1.669 4.895 2.842 10.04 3.659 15.623.068.461.138.905.208 1.36zm-13.53-28.628c-5.924-4.225-12.822-6.841-19.009-10.637-.238-.147-.47-.285-.707-.43-1.9-1.985-3.347-4.359-4.726-7.488-2.174-4.934-4.385-8.709-8.043-11.735 1.017.347 1.93.655 2.699.901 3.796 1.207 7.354 2.584 10.786 4.24 6.247 5.88 12.981 11.014 18.348 17.845 3.978 5.062 6.892 10.197 9.086 15.615a37.3 37.3 0 0 0-8.434-8.311m-35.05-32.112c-.432-.27-.845-.547-1.313-.804-3.829-2.11-10.542-6.436-16.817-8.364 1.583.214 2.962.378 3.823.563 5.528 1.181 10.873 2.121 16.07 4.371 5.404 2.339 8.505 5.587 12.387 9.377-4.567-2.06-9.332-3.652-14.15-5.143m-29.86-16.181c-5.497 5.389-11.362 9.914-18.221 12.365.408-.564.814-1.129 1.24-1.663 4.058-5.069 8.817-10.987 14.4-14.349 1.191-.718 2.416-1.353 3.646-1.965-.494 1.624-.844 3.48-1.065 5.612m17.177-19.597a43.2 43.2 0 0 0 6.858-3.977c-1.54 2.018-3.832 3.737-7.38 5.022l-.178.066q.35-.563.7-1.111m15.722-18.797c-.314-6.097 1.652-8.493 5.319-12.981 2.579-3.155 5.504-6.902 5.985-11.038.22-1.891-.931-6.619-1.139-7.885-.804-4.902-.472-8.208.996-12.984.705-2.295 1.134-4.774 1.289-7.314 3.791-1.156 8.68-.561 12.126-.595 5.252-.049 10.695.026 15.799 1.427.195.053.309-.22.136-.325-5.644-3.399-13.744-2.424-20.079-2.519-2.156-.033-5.268-.23-7.925.365.093-8.015-2.674-16.377-9.14-21.359-3.802-2.931-6.972-1.399-11.25-.386-.136.033-.27.061-.406.094-4.003-.393-7.968-.817-11.947-1.52-3.753-.663-6.976-1.932-10.14-3.39 7.434-4.35 19.127-5.731 26.477-6.523 10.258-1.105 23.842-3.863 33.378 1.302 2.4 1.3 4.082 3.471 6.682 4.496 2.946 1.16 5.948.758 8.932 1.727.066.022.159.061.246.094 1.267 2.907 2.345 5.944 3.092 9.286 1.706 7.639-.485 12.367-3.045 19.352-1.03 2.81-1.375 6.537-2.653 9.143-3.924 8.004-12.734 10.276-18.669 16.304-5.336 5.421-6.967 13.252-11.067 19.532-3.599 5.515-8.05 12.544-12.909 17.803.062-.281.134-.555.187-.841.724-3.9-.077-7.398-.275-11.265m41.361-81.057c-9.831-3.099-15.821-8.018-26.458-8.175-9.012-.134-19.018.702-27.825 2.716-5.588 1.278-12.749 2.608-17.992 5.854-2.537-1.188-5.053-2.482-7.789-3.685-3.924-1.728-7.652-2.89-11.389-3.456.476-.127.946-.272 1.425-.386 7.052-1.671 9.475-4.37 15.179-8.946 14.769-11.851 43.909-20.551 59.774-5.856.349.324.87-.196.521-.523-12.316-11.537-34.789-8.711-48.758-2.314-8.785 4.024-15.351 13.095-24.363 15.912-2.046.639-4.097 1.233-6.15 1.828a33 33 0 0 0-1.934-.091c2.81-2.112 5.338-4.604 8.229-6.653 4.734-3.355 9.084-7.09 13.952-10.215 4.181-2.685 9.721-7.228 14.701-7.997.352-.055.257-.606-.083-.61-5.634-.057-12.69 4.798-17.542 7.288-6.201 3.183-12.743 6.692-18.553 10.585-2.143 1.435-4.323 2.635-6.519 3.755 7.404-6.914 12.323-15.35 20.744-21.31 13.1-9.27 31.241-14.545 48.428-14.536 5.716 1.912 10.837 5.138 16.023 10.059 6.79 6.445 7.422 14.797 11.789 22.559 2.962 5.266 5.949 10.062 8.296 15.286a108 108 0 0 1-3.706-1.089M363.84 120.874c-.415 10.858-2.558 25.963-9.299 36.038-3.562 1.869-7.03 3.882-10.609 5.909 3.028-9.684 13.412-14.029 16.71-24.018 1.011-3.061.69-6.915.202-10.042-1.247-7.959-2.553-14.691-1.864-22.75 1.186-13.887.619-27.959.602-41.903l-.009-7.37c.283 5.996.674 11.995 1.028 18.077.889 15.289 3.825 30.733 3.239 46.059M282.481 2.584c5.186-.843 11.04 1.776 16.361 2.022 11.121.514 13.265 6.5 18.721 14.444 2.501 3.643 4.629 4.377 8.849 5.205 10.195 1.998 18.063-6.18 27.142-10.141 1.852-.808 3.553-1.89 5.369-2.707.147-.066 2.545-2.314 2.631-2.258.022.012-.2 1.727-.374 3.062-6.831 12.252-6.37 29.162-8.475 42.484-2.919 18.482-6.032 37.037-9.943 55.334-4.148 19.413-13.443 36.132-24.837 52.234-4.573 6.462-18.664 18.069-19.362 27.882-3.777 3.121-7.036 6.741-8.217 11.306a38 38 0 0 0-.709 3.391c.098-7.246.206-14.455 1.761-21.655 2.114-9.785 5.413-22.602 12.231-30.096.371-.408-.231-1.014-.606-.606-9.735 10.547-13.441 29.417-14.629 43.255-.29 3.39-.488 6.845-.654 10.316a118 118 0 0 0-.558-6.141c-2.167-18.05 2.343-37.208 9.163-53.897 3.733-9.138 7.799-18.297 12.501-26.966 3.647-6.724 8.069-13.153 10.59-20.404.151-.434-.533-.617-.685-.19-3.057 8.618-8.678 16.31-12.929 24.375-3.878 7.356-7.34 15.063-10.628 22.698-6.328 14.694-9.204 29.569-10.452 45.451-.474 6.03 1.098 12.09.874 18.069-.283 7.582-2.002 16.269-3.219 23.805-.637 3.941-1.223 7.865-1.84 11.771 0-11.881-.793-23.958-.854-35.716-.002-.437-.678-.439-.679 0-.072 14.138-2.055 29.709.163 43.834a172 172 0 0 1-1.985 9.462 8 8 0 0 1-.569-.421c.374-6.142 1.125-12.205-.114-18.351-1.752-8.697-4.446-16.391-4.736-25.442-.527-16.458 1.884-32.804 5.83-48.776.046-.184-.236-.263-.284-.079-3.856 15.035-6.618 30.137-6.728 45.653-.057 8.046.953 14.993 2.614 22.867 1.503 7.112 1.128 13.412.696 20.019-.541-1.552-1.09-3.1-1.588-4.67-.222-1.496-.431-2.997-.648-4.499-1.77-12.365-4.457-24.776-4.668-37.283-.092-5.443-.767-10.595.052-15.95.446-.516.78-1.113.877-1.832.07-.516-.036-.975-.209-1.403.632-2.516 1.401-4.98 1.722-7.566.114-.916-1.221-1.123-1.638-.444a19 19 0 0 0-.602 1.083c2.251-13.145 2.92-26.693 3.138-39.918.254-15.349 9.936-31.969 17.988-44.674.098-.155-.132-.336-.255-.197-4.664 5.235-8.544 12.56-12.035 18.655-3.727 6.504-7.207 14.051-9.277 21.287-2.33 8.15-2.625 17.272-3.88 25.673-.191 1.273-.391 2.558-.589 3.847-1.805.294-3.368 1.603-3.854 3.671-.043.18-.05.376-.044.573-.034.114-.07.224-.087.35-.158 1.262.685 2.599 1.541 3.456.138.14.286.222.43.335-1.29.993-2.422 2.618-2.029 4.203.012.047.033.092.047.137a4 4 0 0 0-.148.674c-1.884-.719-4.525.158-4.659 2.389a1.1 1.1 0 0 0 .121.553c-.371 2.152 2.347 5.434 4.914 3.478.808-.615 1.348-1.585 1.542-2.602a3.9 3.9 0 0 0 1.585.512l.004.03c.328 1.786 2.479 2.286 3.902 1.562-.087.268-.178.533-.259.806a8.24 8.24 0 0 0-7.81.88 2.51 2.51 0 0 0-1.054 1.708 1.9 1.9 0 0 0-.589.844c-.4 1.143.222 2.411.914 3.296.773.986 1.809 1.866 3.076 2.05.729.106 1.431.007 2.108-.206q-.437 3.152-.698 6.282l-.018-.011c-.847-.472-1.921-.446-2.846-.254-.771.16-1.71.557-2.286 1.133a2.8 2.8 0 0 0-.669 1.054c-.15.078-.301.162-.444.265-.779.556-1.155 1.537-1.287 2.455-.243 1.684.407 3.478 1.922 4.258-.084.77-.189 1.539-.251 2.305-.133-.03-.263-.07-.397-.09-.735-.112-1.48-.103-2.174.06.349-1.555.086-3.206-1.298-4.087-1.042-.663-2.162-.636-3.117-.204a.92.92 0 0 0-.582-.171c-.045-.202-.104-.398-.148-.602.042-.705.088-1.386.136-2.071 1.505.927 3.613.892 4.963-.443 1.574-1.557 2.659-5.378 1.019-7.187-1.168-1.289-3.008-1.267-4.275-.149-.185.164-.332.371-.488.566-.266.06-.52.167-.764.301q.159-2.565.321-5.123a2.6 2.6 0 0 0 1.552-.276c1.454-.758 2.317-2.513 2.699-4.045.663-2.668-.406-6.153-3.524-6.3q.099-1.306.202-2.609a.69.69 0 0 0 .257-.482c.215-2.126.311-4.346.373-6.579.164-1.678.329-3.364.476-5.057.685.584 1.597.927 2.754.848 3.12-.209 6.547-3.463 5.829-6.79-.375-1.73-2.085-2.499-3.69-1.912-.007.002-.012.008-.02.01-.095-.559-.417-1.016-1.23-1.234-1.082-.29-2.24.248-3.14 1.006.097-2.98.057-5.957-.193-8.91a8 8 0 0 0 1.748-.517c1.691-.728 3.539-2.02 4.148-3.838.711-2.121-.341-4.216-2.126-5.425-1.629-1.103-3.643-1.112-5.243-.08-1.206-6.1-2.774-12.171-3.843-18.253-3.689-20.994 2.999-41.352 11.842-60.273 3.671-7.854 8.105-15.634 12.931-22.843 5.713-8.531 11.247-18.065 17.994-25.834.211-.243-.136-.597-.357-.357-6.023 6.646-10.228 14.564-15.527 21.755-6.12 8.303-11.519 17.43-15.953 26.745-7.553 15.87-15.21 34.8-13.436 52.702.866 8.742 2.987 17.483 4.796 26.064.037.174.059.347.095.521-2.526-.139-5.358 2.388-5.215 4.854.116 1.994 1.908 3.275 3.546 4.087.716.356 1.444.553 2.171.676-.904 3.272-.362 7.912-.536 10.61-.369 5.751-1.71 12.271.36 17.78-.103 1.144-.197 2.288-.294 3.434q-.413.1-.85.268c-.18-3.265-1.13-6.713-1.739-8.437a2.5 2.5 0 0 0-1.297-1.429l-.014-.121c-.067-.505-.526-.74-.917-.691-.027-.273-.057-.545-.081-.819.676-.352 1.26-1 1.668-1.559 1.129-1.546 1.5-3.593 1.348-5.474-.094-1.166-.942-2.264-2.222-2.221-1.368.046-2.354.69-3.041 1.86-.094.158-.171.334-.25.508-.488.281-.912.669-1.179 1.166-.74 1.379-.573 3.192.3 4.464.356.52.857.996 1.439 1.275q-.029 1.154-.07 2.306c-1.024.922-1.397 2.345-1.496 3.891-.055.854.512 1.743 1.236 2.156l.029.016c-.051 1.212-.092 2.428-.136 3.642-1.072.556-.78 1.718-.099 2.928a152 152 0 0 0-.051 5.103c-.283-2.155-.56-4.12-.654-5.604-.391-6.234-.683-12.609-1.519-18.785-.011-.077-.066-.125-.101-.189.211-2.852.399-5.705.513-8.551.571-14.248-3.956-27.379-5.981-41.301-2.391-16.433-3.168-34.53 1.162-50.725 1.653-6.183 3.856-12.7 6.648-18.6 2.655-2.616 5.115-5.431 7.831-7.984 2.925-2.747 6.633-4.695 9.472-7.416 8.02-7.687 13.852-17.19 23.03-23.79 11.113-7.994 19.844-5.07 28.335 3 1.954 1.856 3.636 3.735 6.185 4.645.468.167.663-.57.204-.74-3.767-1.403-5.294-5.255-8.019-7.732-1.859-1.69-4.13-2.406-6.346-3.555-5.449-2.824-8.436-3.983-14.085-.834-14.456 8.056-23.485 22.257-35.996 32.577-2.991 2.466-5.797 5.12-8.573 7.804q.402-.754.824-1.57c7.123-7.54 14.49-15.202 20.239-23.687 4.327-6.389 10.138-18.066 18.719-19.461m-26.08 184.579c-.086-.099-.11-.109-.208-.331.002.004-.038-.075-.086-.268-.005-.026-.004-.028-.009-.048.083-.066.174-.121.237-.204a.84.84 0 0 0 .406-.416c.242-.094.442-.098.58.025.013.035.068.127.073.166.022.159 0 .304-.038.47-.066.29-.204.573-.377.815-.071.101-.161.154-.148.147-.019.011-.035-.015-.023-.009.019.005-.007.018-.187-.121.145.108-.167-.166-.22-.226m-8.669-36.788c-.691-.297-1.245-.722-1.216-1.241.021-.353.336-.794.757-1.214-.127.854.011 1.717.459 2.455m-7.38-101.266q-.174.398-.341.795a282 282 0 0 1-4.417 4.22c1.166-1.19 2.321-2.39 3.456-3.62.43-.466.869-.93 1.302-1.395M212.68 95.43c-1.626-5.252-3.263-8.941-1.754-14.733 1.406-5.396 4.954-9.122 8.99-12.541a14.5 14.5 0 0 0-.407 1.976c-.123.874.169 1.865.426 2.86a35 35 0 0 0-.933 2.99c-2.119 8.177-5.222 18.249-3.939 26.866a55 55 0 0 0-1.57-2.111c-.088-1.77-.263-3.526-.813-5.307m-9.433 4.139c7.69 7.167 11.228 15.58 13.852 24.758a60 60 0 0 1-2.115-3.155c-2.784-4.502-4.842-9.679-8.819-13.256-6.185-5.562-13.6-9.447-19.492-15.454-2.015-2.05-3.695-4.208-5.493-6.21 7.817 3.267 15.328 7.037 22.067 13.317m-99.017-42.59c-.466-6.787-.292-6.81 6.051-3.868 3.424 1.589 6.796 3.218 10.123 5.002 7.093 3.807 13.493 9.038 20.829 12.362 2.965 1.344 6.004 2.332 9.051 3.322-4.639-.832-9.285-1.636-13.767-3.14-8.144-2.73-12.795-7.962-19.448-12.628-.203-.143-.391.187-.194.332 5.077 3.702 7.853 7.635 13.649 10.575 4.998 2.536 10.455 3.86 15.914 5.013 3.667.775 7.263 1.491 10.849 2.303 1.074.426 2.145.876 3.202 1.386 5.91 2.856 11.864 5.052 17.685 7.388 1.839 1.573 3.627 3.419 5.619 5.655 4.477 5.028 9.569 9.06 14.948 13.093 7.056 5.292 10.758 10.448 15.195 18.015 1.283 2.189 2.743 4.246 4.188 6.3.582 2.242 1.139 4.523 1.71 6.84 2.66 10.801 2.451 23.672 7.339 34.181.019.192.066.38.149.554.207 1.214.773 2.325 1.768 3.002a29 29 0 0 0 2.132 3.001.2.2 0 0 1 .007.044c-.413 1.557.696 5.125.84 6.588.473 4.883 1.1 9.738 1.604 14.617.338 3.276.144 7.301.252 11.267-1.023-5.132-2.451-10.193-3.79-15.272-1.926-10.165-3.764-19.668-4.128-21.346-.228-1.053-1.941-.829-1.888.255.377 7.626 2.272 15.366 4.31 22.83.182 1.021.369 2.04.553 3.061.751 4.174 1.21 8.93 1.917 13.614-.312-.872-.626-1.726-.931-2.565-3.144-13.574-7.246-30.467-9.462-37.023.314-.238.494-.694.266-1.061-.209-.338-.365-.661-.553-.992.492-.718.74-1.612.74-2.359 0-.439-.13-.858-.286-1.258q-.394-.816-.173-.446-.102-.416-.009-.14c-.02-1.348-1.172-2.473-2.484-2.446-.061-.637-.123-1.27-.111-1.965.057-2.978.401-5.931.3-8.909a.64.64 0 0 0-.136-.375 4.75 4.75 0 0 0-.681-2.398c-.52-.854-1.381-1.509-2.342-1.832a1.58 1.58 0 0 0-.646-.974c-2.295-1.594-4.512.814-4.986 2.982-.554 2.549.799 5.28 3.44 5.902 1.291.303 2.734.098 3.788-.694-.242 1.82-.536 3.752-.687 5.672-1.454-1.527-3.375-2.884-5.551-2.367a4 4 0 0 0-.753.279c-.315-.091-.688-.091-1.065-.034-.949-3.319-1.742-6.716-3.503-9.797-1.148-2.011-2.185-2.73-3.603-4.528-3.188-4.045-4.291-7.453-5.556-12.277-2.384-9.099-6.135-20.109-14.865-25.084-.15-.086-.277.136-.134.23 12.013 7.795 10.316 23.074 14.929 34.579 2.066 5.15 5.132 9.561 7.058 14.879.698 1.926 1.084 3.913 2.09 5.426a4.34 4.34 0 0 0 .022 1.959c.358 1.467 1.164 3.05 2.273 4.257a4.5 4.5 0 0 0-.955.483c-.154-.002-.301.044-.449.078-.52-.255-1.28-.012-1.223.706q.003.03.007.06c-.707.792-.837 1.831-.494 2.736-.086.672.413 1.317 1.039 1.57.101.619.191 1.24.309 1.855-.441-.031-.87.215-.83.791.503 7.204 1.937 15.133 4.093 22.998-2.002-5.471-4.133-10.88-6.337-16.272.876-.69 1.528-1.764 1.829-2.888.707-2.648-1.431-7.193-4.745-6.14a2.3 2.3 0 0 0-.608.317c-.393-1.111-1.076-2.124-1.913-2.982 1.878.184 3.922-.701 5.189-2.071 2.639-2.852 2.411-8.162-1.203-10.162-1.529-.846-3.59-1.048-5.13-.128-1.322.789-1.884 2.214-1.616 3.54-.555.975-.962 2.056-1.135 3.138-2.126-3.034-4.341-5.748-5.38-7.409l-.028-.044a5.14 5.14 0 0 0 2.628-1.22c1.421-1.248 1.994-3.294 1.104-5.014-1.023-1.974-3.829-2.801-5.893-2.421-.863.158-1.603.588-2.202 1.176-4.388-7.946-8.355-16.128-13.45-23.721-7.114-10.605-16.227-18.917-25.851-27.177-5.421-4.653-9.51-10.259-14.244-15.568-5.303-5.947-12.035-12.88-13.327-21.08-.092-.58-.974-.334-.884.244 1.468 9.374 9.85 17.15 15.788 23.98 8.205 9.435 17.818 16.739 26.365 25.785 9.226 9.761 16.22 20.926 22.298 32.86.937 1.838 1.811 3.643 2.688 5.435-.115.182-.244.354-.334.556-.648 1.422-.652 3.7.894 4.606l.471.198q-.36-.132-.12.059c.239.216.454.462.709.659.347.266.782.538 1.243.404l.006-.002q.304.128.618.198c.36.636.702 1.269 1.087 1.905 1.165 1.915 3.893 5.431 6.147 9.082-1.455-.386-2.988-.261-4.332.499-1.152-2.106-2.213-4.286-3.267-6.598-3.75-8.222-8.333-15.865-14.306-22.692-7.197-8.226-15.41-15.571-23.574-22.81-9.292-8.237-16.905-17.832-24.184-27.872-.165-.228-.549-.01-.382.224 5.603 7.842 11.352 16.103 18.273 22.844 8.32 8.106 17.096 15.524 25.065 24.006 7.367 7.842 13.118 15.826 17.373 25.737.863 2.007 1.592 3.911 2.376 5.756a8 8 0 0 0-.7-.253c-1.107-.323-2.457-.496-3.681-.266-.489-.279-1.126-.307-1.791-.015-1.278.562-1.673 1.669-2.133 2.789-1.143 1.453-1.787 3.526-1.315 5.219.137.494.369 1.019.67 1.537-.035-.037-.062-.083-.099-.116-.641-.604-1.574-1.076-2.488-1.107-2.975-4.308-5.836-8.59-8.62-12.437-8.57-11.846-16.587-24.452-26.176-35.5-.2-.232-.53.104-.334.334 10.948 12.808 20.206 27.575 29.972 41.306 1.454 2.046 2.884 4.217 4.326 6.426-.059.018-.121.011-.18.034-1.122.474-1.908 1.532-1.715 2.698-.136.738-.11 1.506.044 1.996.257.812.736 1.373 1.324 1.702-.018.068-.048.13-.063.2-.005.031-.001.057-.007.088-1.07-.446-2.271-.534-3.423-.15-2.205.734-3.129 3.351-1.922 5.233-.351 1.122-.142 2.527.101 3.641.044.201.121.392.189.588-.393-.58-.786-1.129-1.111-1.621-1.089-1.657-2.356-3.251-3.359-4.956-.33-.564-.613-1.132-.909-1.69.726-1.483.979-3.243.213-4.451-.716-1.131-2.027-1.906-3.376-1.921-1.029-.011-2.14.522-2.74 1.385-.086.035-.176.062-.257.108-1.17.676-1.97 2.077-2.123 3.39-.382 3.314 3.388 5.549 6.229 3.906.457-.265.89-.676 1.276-1.164.922 1.682 1.746 3.465 2.775 5.051 1.454 2.244 2.928 4.462 3.927 6.947.206.514 1.098.686 1.225 0 .207-1.111-.195-2.279-.793-3.394.36.355.775.65 1.3.783.85.214 1.719-.011 2.506-.397-.466.516-.876 1.072-1.127 1.647a5.04 5.04 0 0 0-.389 2.677c-.272.186-.447.536-.261.915.817 1.66 1.741 3.299 2.708 4.93.14.478.307 1.012.542 1.677.854 2.42 1.877 4.893 2.993 7.359a119 119 0 0 0-3.915-2.604c.074-.291.134-.585.176-.872.357-2.424-1.524-4.658-3.725-5.402q.006-.018.013-.037c.65-2.291-.131-3.893-1.954-5.277-1.142-.867-2.674-1.678-4.137-1.53-.393-.448-1.058-.563-1.84-.196-1.418.663-2.775 2.394-3.102 3.883-.036.169-.053.34-.069.513a135 135 0 0 1-3.734-2.442c-.457-.942-.931-1.886-1.485-2.821a.85.85 0 0 0-.224-.248 1.16 1.16 0 0 0 .363-.721c.017-.199.054-.395.061-.594.011-.053-.011-.104-.007-.158.714-.85.391-2.366-1.003-2.359-.323.002-.621.07-.892.178a1 1 0 0 1 .172-.279c.456-.529-.115-1.377-.769-.999-1.186.687-1.992 1.838-.99 3.109.171.216.369.387.579.529.236.683.784 1.059 1.469 1.366-.254.211-.382.543-.223.909-21.3-15.632-33.809-38.218-46.205-61.063-.246-.452-.933-.05-.689.402 5.118 9.49 10.12 18.651 16.099 27.683 5.014 7.577 9.337 16.007 16.07 22.252 4.999 4.637 10.366 8.834 15.838 12.88.907 1.865 1.678 3.716 2.777 5.501-.19.026-.381.044-.564.118-.898.363-1.609 1.118-2.084 1.948-.496.863-.729 1.908-.768 2.965-12.115-6.43-22.042-15.957-32.153-25.986-.473-.47-1.204.26-.731.731 9.935 9.89 20.262 20.76 33.011 27.073.099.529.248 1.038.444 1.502.38.904.88 1.831 1.473 2.657a2.4 2.4 0 0 0-.402.531 2.9 2.9 0 0 0-.263.687.88.88 0 0 0-.413.319c-.384.518-.547 1.122-.599 1.75-.962-.58-2.034-.956-3.162-.659-1.75.463-2.447 2.321-1.933 3.834-1.833.997-1.574 3.138-.713 5.09a166 166 0 0 0-4.959-3.059c-.309-.182-.599-.384-.9-.573-3.085-4.399-4.067-9.747-8.129-13.553-4.655-4.363-10.427-9.117-15.581-12.975-4.539-3.399-8.546-6.339-10.259-12.246-.902-3.113-.703-5.279-2.167-8.177-.176-.349-5.91-7.665-5.022-6.341-3.01-4.484-4.286-9.264-5.46-14.445-3.597-15.888-8.703-31.468-8.811-48.002-.02-3.015.165-6.076.477-9.145.573-2.256 1.186-4.52 1.798-6.84 1.046-3.959 1.38-8.037 2.363-11.983 1.495-6 6.135-8.774 10.237-12.861 3.796-3.783 3.476-5.208 3.127-10.292m67.835 131.268c.02-.024.046-.044.064-.07l.006.008a.8.8 0 0 0 .195-.256h.013c-.054.199-.114.274-.175.305.101.14.208.292.266.402.098.186.246 1.266.228.581.007.282.015.664-.066.912-.123.375-.505.999-.801 1.251a.75.75 0 0 1-.33.17c-.009-.038-.143-.134-.23-.35-.101-.252-.148-.538-.194-.806-.077-.458-.094-.917-.122-1.376a2.56 2.56 0 0 0 1.137-.765l.011-.004zm-11.787-6.596a3 3 0 0 1-.233.748c-.149.343-.49.947-.69 1.072-.854.531-1.647-.382-1.363-1.295.026-.084.072-.174.105-.264.51.075 1.076-.05 1.397-.441.041-.049.098-.097.149-.141.143.009.378-.017.187-.046l.145.024a.24.24 0 0 0 .191.11l.099.007c.01.098.019.199.013.226m-76.052-68.852c.27-3.562.865-6.936 1.616-10.272-.733 13.096.786 26.24 4.804 38.877 2.848 8.957 3.046 18.671 7.63 26.955 2.366 4.276 4.957 7.192 6.692 11.882.775 2.097 1.374 4.941 2.222 7.485-12.203-23.554-25.019-47.811-22.964-74.927m2.222 47.004q1.396 3.676 2.967 7.287c-3.946-1.113-7.997-2.191-11.737-1.73-4.418.543-6.873 2.652-9.056 5.358-.654.024-1.304.09-1.947.217 6.814-6.859 14.45-13.082 19.773-11.132m-20.65 12.022a11.3 11.3 0 0 1 2.313-.453c-1.131 1.473-2.226 3.087-3.524 4.71-.395.494.237 1.175.71.71 1.701-1.669 2.307-3.657 3.732-5.477 7.017-.127 14.523 5.435 20.032 8.353 3.599 1.904 6.757 4.198 9.787 6.68 2.676 5.599 5.186 11.334 8.517 16.495 3.048 4.721 5.408 6.247 8.775 7.744-3.07-.321-6.133-.454-9.321-.971-7.897-1.28-15.55-11.231-22.778-15.756-8.343-5.22-22.27-12.877-31.94-8.055.376-.241.709-.468.973-.681 2.55-2.053 7.33-7.775 12.723-13.299m-32.44 40.637c-1.498-2.286-2.688-4.905-4.552-6.932-.623-.676-3.783-3.078-3.785-3.135-.216-4.596 18.084-11.57 25.651-15.751-.338.224-.685.42-1.01.681-.182.145.064.468.252.325 8.467-6.513 21.535.643 29.591 4.765 7.593 3.886 12.27 9.569 18.39 15.177-9.25-2.385-19.07-3.384-28.414-3.858-14.65-.742-29.075 1.616-43.562-1.397-.352-.074-.503.466-.148.541 11.974 2.553 23.566 1.188 35.678 1.39 12.294.206 25.69.928 37.87 4.455 2.1 1.41 4.774 2.202 7.64 2.677.711.298 1.421.597 2.119.922 9.785 4.543 17.397 12.9 27.175 17.287-4.505-.498-9-1.119-13.493-1.95-5.289-.979-10.055-3.054-14.978-5.129-2.955-1.245-8.45-1.798-9.918-4.864-.074-.153-.318-.044-.27.114 1.36 4.574 8.583 5.345 12.228 7.104 7.767 3.748 15.845 5.066 24.141 7.228 5.613 1.461 12.081 2.133 17.589 4.199.011.07.013.138.03.209.339 1.442 1.281 3.177 2.552 3.998 1.519.979 3.125.722 4.486-.11 1.825 1.483 3.511 3.125 5.235 4.712a305 305 0 0 1-3.755-1.131c-8.364-2.597-16.64-4.817-25.461-5.474-3.14-.234-6.183-.208-9.176-.092-12.569-3.853-25.776-8.515-38.68-10.865-9.274-1.688-19.809-3.203-28.87-.687-.421.117-.243.771.18.655 10.5-2.873 24.394-.602 34.648 2.389 9.941 2.902 19.943 5.638 29.863 8.638-8.605.465-16.894 1.284-25.928-1.504-9.94-3.066-20.315 2.248-29.182 6.596-4.16 2.04-8.193 4.361-11.684 7.406-1.73-2.494-3.42-4.949-4.622-7.911-1.873-4.616-4.05-9.396-6.537-13.708-3.425-5.945-7.538-11.243-11.293-16.97m-18.823 60.2c-2.527-2.206-5.052-4.128-7.744-6.102-2.727.844-3.057.696-1.006-.439.883.132 2.047.083 3.417-.099a12 12 0 0 1-2.782-.222 7.7 7.7 0 0 0 1.447-.933c12.645-9.165 17.046-29.764 32.823-34.529 3.22 6.634 5.373 12.859 8.546 18.854-.982-.719-2.302-1.133-4.548-.868-8.656 1.023-17.608 4.308-25.868 6.945-.396.126-.227.752.173.626 7.251-2.285 14.62-4.477 22.072-5.983 2.969-.6 4.653-1.298 7.431.14 1.945 1.006 2.108 1.856 2.96 2.995q.464.734.96 1.463c-3.253 3.992-5.284 8.779-8.65 12.762-5.037 5.961-12.015 10.401-17.463 16.058-3.29-3.949-8.09-7.457-11.768-10.668m21.72 11.427c3.66-3.045 6.45-5.122 9.184-7.948-2.933 4.67-5.51 9.872-7.231 14.826-2.108 6.071-2.433 11.163-1.65 16.126-2.26 2.235-4.656 4.119-7.363 4.973-3.65-10.022-2.543-19.988 7.06-27.977m-2.146 37.667c-1.983-3.08-3.6-6.214-4.776-9.345 1.256.107 2 .364 3.742-.78 1.324-.869 2.527-2.103 3.675-3.394.999 5.18 3.169 10.287 5.79 16.293 1.318 3.021 2.08 5.889 2.546 8.721-1.09 1.583-2.137 3.103-3.092 4.6-1.166-5.825-4.969-11.567-7.885-16.095m10.14 21.062c.273-1.717.745-3.473 1.35-5.241.304 3.919.266 7.881.53 12.202.107 1.732.4 3.357.805 4.93-.03.059-.07.116-.098.175-.149.321-.27.529-.38.699-1.632-4.148-2.921-8.287-2.207-12.765m2.657 13.887a7 7 0 0 1 .397-.69c1.127 3.729 2.844 7.196 4.346 10.992 1.548 3.915 3.865 6.673 6.117 9.82-1.41 1.976-3.105 3.72-4.813 5.448-1.497-3.992-1.546-8.368-2.13-13.239-.527-4.352-2.31-8.361-3.917-12.331m6.827 27.375c1.511-1.359 3.326-3.889 4.784-6.162a39 39 0 0 1 1.577 2.47c2.705 4.667 3.88 9.877 6.153 14.743-2.516-1.734-5.182-3.278-7.574-5.184-2.342-1.864-3.886-3.814-4.94-5.867m22.235 21.622c1.19.243 2.263.21 3.267-.037a57 57 0 0 0-2.05 3.774c-.249-1.3-.645-2.547-1.217-3.737m20.326 67.951c-5.118-11.372-9.57-23.299-12.865-35.284-1.458-5.305-2.505-10.534-3.37-15.944-1.088-6.805.812-12.876 3.583-18.726a33 33 0 0 1 2.161-1.089c.109-.048.032-.222-.079-.189a9 9 0 0 1-1.603.294c1.168-2.377 2.456-4.721 3.73-7.068 2.57-4.73 5.727-8.965 8.742-13.418 4.293-6.34 10.07-6.45 16.264-9.297 9.313-4.28 17.266-12.306 25.502-18.32 12.543-9.157 25.094-17.933 38.424-25.998 7.721-4.671 18.092-10.452 27.582-10.14-17.567 14.351-40.572 19.836-58.369 33.584-9.29 7.176-18.254 14.541-25.047 24.226-3.718 5.301-7.025 10.934-10.538 16.375-2.657 4.115-6.287 8.254-7.749 12.984-.046.145.184.208.228.063 1.707-5.558 6.261-10.737 9.423-15.557 3.577-5.454 7.026-11.034 11.024-16.192 8.151-10.518 19.422-19.685 30.643-26.771 8.254-5.211 18.151-7.248 26.596-12.239 6.13-3.622 13.831-6.784 20.074-11.067-1.537 2.287-3.514 3.926-5.984 4.844-1.565.998-3.465 1.631-5.063 2.597-4.151 2.51-8.017 5.564-11.878 8.603-14.107 11.102-27.194 19.528-36.202 35.671-9.841 17.635-15.427 37.873-21.697 56.992-5.368 16.361-11.361 33.082-15.574 49.928-6.706-4.459-6.61-23.088-8.944-30.064-4.099-12.251-12.79-22.049-9.714-35.627 2.778-12.258 7.314-24.157 15.52-33.943.265-.316-.167-.767-.459-.459-8.138 8.608-12.817 19.777-15.584 31.068-1.232 5.024-2.534 9.471-1.622 14.708 1.177 6.752 5.404 12.72 7.918 18.954 3.045 7.553 4 14.35 5 22.312.538 4.284 1.47 9.138 4.4 12.595.971 1.146 1.97 1.914 2.982 2.426-.318 1.313-.595 2.63-.889 3.944-2.864-3.459-4.91-11.096-6.566-14.776m59.934-18.993c-11.259 6.664-21.733 12.623-30.767 22.283-4.273 4.569-14.923 18.246-21.771 12.357-.156-.134-.308-.294-.461-.454.309-1.377.616-2.754.952-4.132 5.007 2.132 10.31-2.44 14.488-5.874 2.877-2.365 6.072-3.942 8.832-6.401 2.04-1.816 3.474-4.308 5.588-6.034 6.105-4.987 10.417-4.699 15.489-10.828 3.573-4.319 6.241-9.363 10.125-13.403 3.373-3.507 7.363-7.215 9.853-11.589-.505 1.89-.938 3.787-1.232 5.685-1.34 8.666-3.272 13.759-11.096 18.39m18.858-43.581c2.044-8.877 3.456-18.032 5.549-26.492 1.849-7.468 4.578-14.743 7.823-21.8-1.774 4.903-3.26 9.925-4.725 14.971-2.147 7.393-3.45 14.63-3.772 21.782-1.449 3.907-3.274 7.683-4.875 11.539m162.02 19.789c-1.405-.698-2.706-.459-3.887.501-5.946 4.843-6.55 16.933-8.998 23.837-.431 1.217-1.904 7.751-2.576 8.292.553-.446-4.699.636-4.137.502-6.499 1.537-10.694 3.36-17.191 1.18-5.202-1.744-14.709-2.416-18.906 2.316-2.674 3.015-1.89 7.417-4.148 10.691-2.252 3.261-5.742 5.224-8.484 7.945-7.051-1.785-12.308-6.691-18.302-10.621-6.26-4.104-12.751-6.93-19.264-10.538-8.436-4.673-16.772-8.869-24.795-14.295-9.866-6.673-15.476-13.761-19.156-25.029-5.764-17.648.404-39.725 5.397-56.922 1.416-4.877 3.584-9.802 5.867-14.774-.441 3.656-1.001 7.178-1.892 10.957-3.839 16.289-3.081 33.888-.819 50.304.048.343.643.266.61-.083-1.517-15.944-1.443-33.902 2.953-49.465.969-3.432 2.664-6.867 3.38-10.33.67-3.238.239-6.729 1.299-9.883 1.222-3.643 4.425-6.007 5.837-9.567.024-.063.031-.134.053-.197.986.95 2.05 1.844 3.113 2.716-.169.011-.329.099-.426.318-2.503 5.667-.349 11.473-3.183 17.474a155 155 0 0 0-6.223 15.215c-5.163 14.82-3.905 28.128.553 42.968 3.799 12.649 12.07 23.211 21.08 32.713 11.554 12.184 24.259 22.676 37.249 33.214.306.248.747-.183.439-.438-10.937-9.033-21.585-17.959-31.6-28.057-10.059-10.139-21.268-22.428-25.695-36.205-5.195-16.172-5.944-30.801.075-46.88 1.82-4.858 4.886-9.462 6.589-14.267 1.84-5.197.655-9.633.629-15.003.004.643 1.045.834 1.161.158l.07-.406a.6.6 0 0 0-.004-.211c1.012.834 2 1.664 2.874 2.529 4.662 4.601 10.323 8.206 14.526 13.313 6.341 7.701 9.657 11.697 19.759 13.988.46.105.916.195 1.369.279-.38-.034-.782.245-.705.799.421 3.065.32 6.359.72 9.259.4 2.905 1.691 2.688.23 6.472-1.464 3.785-4.037 6.238-3.491 10.618.514 4.128 3.452 6.79 5.534 10.213 6.706 11.021 10.794 23.229 15.91 35.058 1.805 4.174 3.97 8.184 5.815 12.325 1.862 4.177 2.486 8.953 5.334 12.596.226.289.726-.093.511-.394-2.644-3.7-3.155-8.601-4.96-12.72-2.341-5.344-4.826-10.592-7.09-15.985-3.92-9.339-7.302-18.987-12.376-27.751-3.843-6.638-8.816-13.704-4.862-22.114.923-1.965 3.283-3.911 3.105-6.306-.057-.766-1.919-2.11-2.165-2.954-.579-1.985-.645-6.433-.909-8.493-.042-.327-.23-.514-.446-.59 7.787 1.403 14.412-.315 19.923-6.138 3.746-3.957 5.52-8.541 8.684-13.041 2.348-3.342 5.31-6.179 8.154-9.075 2.522 2.405 13.157 18.937 13.85 19.883 6.928 9.451 11.333 17.395 13.211 29.073 3.3 20.495 2.615 41.807 3.065 62.503.011.476.746.477.74 0-.362-23.48 1.131-48.299-4.3-71.326-2.599-11.019-10.785-18.136-16.038-27.797-2.158-3.97-4.866-11.052-9.167-13.75 1.556-1.634 3.043-3.311 4.321-5.136a15 15 0 0 0 1.702-3.151c3.662 6.656 9.976 11.991 15.006 17.999 9.587 11.453 16.563 28.657 19.172 43.33.059.327.601.254.581-.079-.783-13.133-6.877-26.811-12.909-38.35-5.933-11.354-16.907-20.322-18.886-33.369 2.185 1.749 6.357 3.333 9.4 5.047 9.359 5.271 16.746 7.859 22.744 17.574 3.633 5.887 6.133 11.848 7.932 18.207 1.662 7.099 2.543 14.212 2.975 21.875.419 7.476-2.343 17.525.04 24.691.838 2.513 2.442 3.788 3.581 5.514-2.92 5.898-8.831 17.395-9.132 17.244m48.13 22.138c-6.076-4.227-12.587-6.772-20.243-5.94-6.309.685-12.051 4.726-16.665-1.431-2.41-3.215-4.514-7.29-6.642-10.933.36-.321.712-.674 1.061-1.046.883 2.614 3.227 4.858 5.775 6 5.342 2.395 10.843 2.048 16.407 3.431 1.067.266 2.105.547 3.133.828.033.088.055.178.09.266.061.158.316.092.257-.072q-.017-.054-.035-.11c4.407 1.207 8.588 2.395 13.432 2.389 4.134-.005 7.738-.747 11.051-2.018 2.367 5.09 4.916 10.085 7.754 14.929-5.571-.56-11.26-3.43-15.375-6.293m44.983-31.378c-.879 9.635-7.813 14.738-11.524 23.186-2.453 5.586-5.077 11.793-11.525 13.89-1.845.6-3.793.786-5.767.668-2.907-4.925-5.553-10.009-8.032-15.197 5.865-2.372 10.806-6.441 16.078-11.177 5.926-5.323 11.012-9.324 18.644-11.543.887-.257 1.752-.471 2.618-.69-.26.171-.455.465-.492.863m1.983-.536a1.14 1.14 0 0 0-.859-.494c.253-.061.509-.118.76-.175.333.206.68.386 1.005.605.271.181.516-.25.253-.434-.163-.115-.34-.211-.505-.323 7.793-1.671 14.995-1.636 23.238.38.646.158 1.307.327 1.976.496-8.069 3.39-20.583 7.216-25.868-.055m34.366.534c2.94-1.076 5.891-2.132 8.935-2.962-2.268 2.002-5.117 3.025-8.935 2.962m20.307-27.461c1.381 2.888 3.502 6.278 4.242 9.394 1.832 7.738.841 4.148-1.735 6.723-2.03 2.027-5.291 2.908-8.594 3.54.106-.448.226-.905.398-1.379.524-1.44 1.108-2.888 1.681-4.348 2.747 1.528 4.465 2.446 7.299.395.349-.252.024-.836-.344-.588-1.432.97-3.83.505-6.616-.692.544-1.41 1.067-2.828 1.495-4.259.946-3.16 1.133-7.479.843-11.546.442.92.89 1.838 1.331 2.76m-30.137-91.086c-6.764-5.834-12.817-12.808-20.933-16.664-4.423-2.102-9.222-4.205-14.04-5.068-1.138-.204-6.992-1.146-11.644-2.174.975-.432 1.971-.749 2.981-1.025 14.42.035 28.744.346 43.051 2.577 4.981.776 9.906 2.007 14.822 2.888.057.226.112.452.178.683.531 1.879 1.469 3.943 1.899 6.014-4.001 3.911-11.334 13.434-16.314 12.769m16.343-17.084a16 16 0 0 1-.485-2.105c2.858.463 5.715.772 8.583.775a53 53 0 0 0-6.618 4.345c-.582-1.117-1.217-2.183-1.48-3.015m-10.924-20.735c3.397 3.435 7.248 6.248 11.13 9.12 3.3 2.441 6.339 5.136 9.939 7.134.687.38 1.435.727 2.204 1.065-1.346.549-2.661 1.214-3.952 1.917-3.064-.235-6.487-1.171-9.063-1.843-.263-2.141-.368-4.249-1.291-6.394-2.34-5.435-7.153-7.718-11.787-10.952-3.981-2.778-8.453-6.043-12.659-8.382-2.211-1.229-.933-1.223-2.395-.986.042-.007.042-.079 0-.086q-.587-.093-1.175-.186.593-1.015 1.146-2.047c7.607-.364 13.12 6.801 17.903 11.64m-22.58-10.86c-5.917 5.412-12.277 12.231-19.736 15.489-3.206 1.401-8.01 1.276-11.282 3.077-1.543.851-2.342 2.434-3.445 3.774.279-1.377.639-2.727 1.214-3.999 2.519-5.568 7.198-7.244 12.066-8.959-.063.163-.155.31-.206.479-.213.692.872.989 1.083.299.135-.439.344-.87.586-1.298 2.538-.915 5.074-1.941 7.332-3.636 2.575-1.928 4.259-4.334 5.309-7.16 2.576-2.455 3.823-4.855 5.781-8.017 4.733-7.64 10.086-13.571 13.918-21.862 3.666-7.927 8.982-12.4 16.181-17.033 2.219-1.429 4.944-2.637 6.591-4.795 1.759-2.304 2.189-5.611 2.98-8.27 1.442-4.844 3.731-9.506 4.91-14.486 1.504-6.356-.609-12.819-2.875-18.912 3.125 1.456 8.922 4.223 10.294 2.327-.259.359.226.69.545.545q.349-.16.698-.316c.444-.202.356-1.023-.143-1.093-3.954-.56-7.904-1.39-11.743-2.4q-.404-1.072-.797-2.124c-1.469-3.941-3.776-7.134-5.992-10.678-3.127-4.998-4.535-10.18-6.774-15.557-3.303-7.931-9.888-13.246-16.864-18.012a26 26 0 0 0-3.076-1.797c6.284.312 12.377 1.349 17.97 3.2.143.048.233-.17.103-.242-6.739-3.739-14.767-5.017-23.043-4.798q-.674-.171-1.354-.309c3.248-.699 6.412-1.909 9.69-2.016 8.899-.29 16.537 8.14 22.028 14.308 5.016 5.634 4.317 10.524 5.799 17.347 1.722 7.931 8.619 20.721 18.065 21.909-4.277 3.636-7.755 7.203-9.863 12.778-2.389 6.324-2.749 13.005-4.75 19.323-2.057 6.495-7.224 11.271-12.02 15.851-4.08 3.895-7.608 9.091-10.821 13.684-3.173 4.533-5.97 9.544-8.445 14.512-3.3 6.621-4.073 13.524-9.914 18.867"/><path fill="#F5F7FA" d="M172.135 188.184c-.024.02-.04.047-.066.066.033.016.066.005.101-.015zM254.132 178.446c-.921-.105-2.133-.11-2.787.668-.353.421-.404.933-.27 1.412-.288.603-.327 1.354-.15 2.088.157.659 1.232.694 1.368 0 .04-.209.056-.45.071-.694.09.031.178.07.274.086.597.1 1.315-.383 1.072-1.072a5 5 0 0 0-.259-.621c.276-.088.595-.202.68-.213 1.057-.132 1.074-1.533.001-1.654M232.943 155.311c-.02-.321-.485-.325-.503 0-.042.813.024 1.561.371 2.312.334.729 1.052 1.146.914 2.038-.045.296.401.428.456.125.117-.632.022-1.049-.349-1.568-.652-.915-.817-1.798-.889-2.907M9.2 266.021c2.992-.094 6.278-1.073 9.303-2.119-3.502.971-6.758 1.777-9.303 2.119M43.853 259.368c.057.184.211.29.399.303l.51.035c.404.027.43-.545.09-.668-.39-.142-1.12-2.099-2.082-2.454-1.383-.507-3.544.628-4.752 1.01-4.73 1.497-9.47 2.946-14.198 4.449-1.565.498-3.388 1.189-5.32 1.859 11.003-3.058 24.369-7.722 25.353-4.534M401.968 111.165c.002-.494.138-.789.49-1.136.14-.136-.051-.404-.214-.28-.496.381-.731.794-.808 1.414-.041.335.532.353.532.002M223.528 403.617c-1.546-6.188-2.548-12.7-2.319-19.099.303-8.438 4.273-14.411 6.46-22.325.608-2.202 2.554-8.1.455-8.937.627.25.975-.722.445-1.054q-.337-.212-.674-.423c-.553-.347-1.214.338-.887.887.815 1.365-1.322 11.181-1.451 11.639-1.651 5.887-4.541 11.063-5.193 17.27-1.052 10.013 1.383 20.463 4.42 29.91 6.919 21.521 22.235 41.467 37.928 57.503.32.327.819-.173.501-.501-17.394-18.044-33.552-40.332-39.685-64.87M102.943 487.026l.044-1.262c.009-.266-.423-.266-.414 0l.045 1.262c.007.21.317.21.325 0"/></svg>