<svg xmlns="http://www.w3.org/2000/svg" width="293" height="253" fill="none"><path fill="#79977F" d="M174.003 171.452c-.055 0-.055-.086 0-.086.056 0 .056.086 0 .086"/><path fill="#79977F" d="M.98 183.787c.33-4.184.785-8.294 1.422-12.452.55-3.593.343-7.199.958-10.746.598-3.447 1.75-6.36 3.312-9.448.133-.264.259-.538.384-.81.05-.344.127-.677.243-.99.189-.514.47-1.022.81-1.52 1.924-4.949 3.587-10.375 9.177-12.01 6.87-2.01 13.152-3.543 19.316-7.265 5.546-3.35 11.495-4.981 17.519-7.438 3.127-1.276 3.597-3.824 4.576-6.913 1.304-4.12 4.155-8.204 3.31-12.641-.8-4.198-2.652-7.221-6.01-9.81-2.603-2.007-5.197-4.192-7.676-6.357-3.951-3.451-6.167-9.732-3.372-14.728 1.247-2.23 4.097-3.808 6.354-4.756 2.014-.845 4.575-.706 6.452-1.762 2.689-1.512 1.666-3.728.94-6.075-.728-2.357-.273-4.199.836-5.666-.263-2.085-.498-4.169-.543-6.274-.116-5.421.865-11.01 3.15-15.927.822-1.77 2.132-3.265 3.121-4.938 1.304-2.206 2.241-4.662 4.132-6.46 1.646-1.568 3.847-2.653 5.732-3.894 2.675-1.763 5.073-3.813 8.004-5.126 4.857-2.173 9.947-3.334 14.785-5.574 5.095-2.36 10.933-3.809 16.539-4.15 5.254-.318 10.657.648 15.841 1.482 6.569 1.057 13.115 1.235 19.678 2.192 6.631.967 12.928 1 19.608.998 5.263-.002 10.481.32 15.719.495.117-.086.29-.075.416.012.911.03 1.821.065 2.733.08 5.953.105 19.518 1.978 13.997 11.119-2.494 4.13-7.258 6.207-10.428 9.712-3.699 4.089-6.879 8.536-11.032 12.244-2.058 1.836-4.551 3.006-6.606 4.869-1.798 1.63-3.276 3.645-5.223 5.108q-.37.276-.746.508a88 88 0 0 1-6.482 6.052c-2.175 1.828-3.994 1.997-6.333 3.49-2.656 1.695-4.869 4.625-7.152 6.793-2.512 2.384-5.041 4.814-7.205 7.523-.48.6-.917 1.248-1.336 1.911-.993 2.64-1.968 5.29-3.434 7.757-3.624 6.104-6.573 12.806-10.681 18.497 1.803-.687 3.74-1.154 5.529-1.84a153 153 0 0 0 5.087-2.052c3.3-5.708 6.615-11.401 10.16-16.966 3.117-4.894 5.987-9.764 10.047-13.929 4.156-4.264 9.585-7.358 14.209-11.064 4.661-3.737 9.342-6.325 15.154-8.141 5.033-1.574 10.957-.77 16.065-.359 5.917.477 11.714 4.042 17.298 5.832 5.13 1.646 9.713 3.493 14.29 6.09-2.566-1.754-5.111-3.532-7.518-5.529-2.558-2.122-6.123-3.347-9.132-4.72-3.455-1.576-7.066-2.88-10.771-3.73-3.81-.873-7.561-.754-11.393-1.184-3.618-.406-7.559-.98-11.166-.135-3.368.79-5.293 2.793-8.016 4.658-3.503 2.4-7.543 2.775-10.405 6.233-.342.414-1.039-.127-.744-.575 1.298-1.975 2.619-3.617 4.667-4.852 1.641-.99 3.393-1.642 4.921-2.818 1.354-1.041 2.309-2.5 3.679-3.503 4.37-3.203 10.695-3.091 15.804-2.538 6.897.747 13.275.984 19.897 3.396 5.415 1.973 11.581 4.282 15.901 8.133 4.598 4.098 10.357 7.042 15.259 10.853 5.353 4.162 8.823 9.45 13.489 14.224 4.79 4.9 8.163 11.146 12.399 16.54 3.982 5.072 8.497 9.735 12.148 15.063 5.503 8.029 14.796 23.249 5.522 31.823-3.997 3.694-8.61 3.95-13.765 3.83-2.884-.067-5.399.44-6.444 3.536-.908 2.687-.883 7.21-.455 10.057.371 2.48 1.025 5.617-2.6 5.226-1.961-.212-2.417-.495-4.281.298-.982.417-1.88.883-2.927 1.122-2.388.546-5.527 1.061-8.015.876-2.263-.167-3.775-1.388-5.769-2.433a93 93 0 0 1-.782-.413c1.206 1.768 1.633 3.7.477 5.873-1.783 3.355-6.946 2.652-9.983 3.527-5.748 1.653-10.924 3.911-16.862 5.034-3.082.583-6.205 1.095-9.227 1.948-3.107.878-5.95 2.496-9.049 3.387-2.251.648-4.26 1.568-6.277 1.764 4.459 2.895 8.837 5.901 13.821 7.841 3.137 1.222 6.032 2.422 8.951 4.11 3.398 1.965 7.303 2.909 11.007 4.189 6.709 2.317 14.731 1.959 20.936 5.695 4.857 2.925 5.473 10.447 5.108 15.605-.431 6.081-4.93 12.295-9.342 16.188-4.305 3.8-9.188 6.62-15.068 7.134-8.14.712-15.37-1.487-23.404-2.234-8.265-.769-16.368.822-24.617 1.263-8.849.473-17.513 2.936-25.697 6.25-6.232 2.523-13.953 4.16-20.666 2.831-3.311-.656-5.007-3.091-7.32-5.334-2.491-2.415-4.759-3.674-6.721-6.477-1.603-2.29-4.23-3.963-6.372-5.996-.069 1.837-.836 3.438-2.782 4.522-.547 2.107-1.738 3.377-3.359 5.44-.34.432-.714.905-1.114 1.393-.017.132-.029.265-.052.395-.038.219-.297.321-.495.258-2.913 3.412-7.005 7.01-10.465 2.664-2.51-3.155-3.125-6.804-4.054-10.616-.508-2.085-.619-3.588-.618-5.71 0-.584-.023-5.066-.536-6.315-3.012-.33-6.166-.692-9.09-.002-3.51.83-6.95 1.882-10.457 2.74-4.34 1.061-7.688 2.854-11.585 4.949-3.209 1.725-6.291 2.779-9.97 2.37-6.815-.756-13.314-3.769-19.527-6.678l-.005.904c0 .035-.053.035-.053 0l-.005-.933q-1.29-.607-2.568-1.198c-6.453-2.983-12.247-7.705-16.082-13.589C5.79 208.63 1.54 202.324.35 194.492c-.577-3.744.339-7.017.63-10.705m10.078-4.409c-.3 3.638-1.89 6.62-3.392 9.832-1.887 4.032-1 10.226.385 14.325 1.684 4.977 5.31 8.203 8.966 11.689 2.557 2.437 6.146 3.367 8.728 5.935 1.364 1.356 2.28 2.967 3.437 4.452.673-3.509 3.322-6.708 5.007-9.734 2.838-5.096 4.645-10.669 7.494-15.757 5.286-9.441 13.605-16.157 22.086-22.57 4.331-3.276 8.93-6.127 13.328-9.29 2.563-1.844 4.896-3.94 7.238-6.029-6.599 3.158-13.059 6.528-19.777 9.492-8.004 3.531-16.503 6.634-24.072 11.067-7.57 4.431-13.761 10.982-21.168 15.622-.095.06-.181-.09-.088-.15 5.826-3.699 11.283-8.557 16.773-12.744 5.11-3.898 10.96-6.492 16.76-9.206 6.194-2.898 12.575-5.42 18.726-8.39 2.444-1.179 4.61-2.701 7.13-3.72 2.37-.959 4.814-2.085 7.184-3.272 1.448-1.276 2.917-2.529 4.466-3.696 3.004-2.263 5.953-4.766 9.055-6.967a17 17 0 0 1-.374-.055c-.062.009-.123.024-.185.033-1.068.151-2.179.239-3.305.286-.631.271-1.262.539-1.9.787-8.026 3.126-16.348 5.454-24.442 8.359-9.91 3.557-20.408 7.625-29.195 13.494-4.85 3.24-9.225 7.311-12.663 12.027-1.234 1.695-2.174 3.606-3.473 5.247-1.125 1.424-3.098 2.691-3.594 4.491-.022.083-.151.048-.129-.035.633-2.336 3.446-4.282 4.75-6.264 2.339-3.557 4.666-6.893 7.753-9.872 6.501-6.274 14.111-10.279 22.337-13.798 8.754-3.744 17.754-6.538 26.584-9.976 4.068-1.584 8.208-2.904 12.29-4.422a59 59 0 0 1-6.98-.42c-5.635-.662-11.083-2.065-16.469-3.72-6.12-.352-12.242-.752-18.38-1.189-4.924-.351-9.832-1.335-14.606-2.724-2.61-.012-5.222-.094-7.84-.367-1.563-.164-8.082-.234-10.563-2.053-1.307.49-2.642 1.295-3.987 1.48q-.358.309-.684.626a9.2 9.2 0 0 0-1.024 1.783c-1.495 3.421-2.763 6.834-4.388 10.218-.147.308-.264.608-.39.912.727 3.772 1.616 7.547 2.05 11.354.479 4.206.89 8.661.541 12.909m21.963 48.919c4.64-3.85 8.844-8.344 13.323-12.357 5.173-4.634 10.155-9.132 14.564-14.524 4.258-5.206 9.199-9.678 13.711-14.625 4.678-5.13 9.29-10.178 14.212-15.068 2.273-2.259 4.649-4.353 7.069-6.395.633-1.279 1.211-2.603 1.898-3.738.834-1.378 1.767-1.915 2.875-2.301 1.575-2.413 3.111-4.849 4.411-7.426.436-.864.555-1.835.921-2.599-2.343 1.91-4.801 3.7-7.438 5.118-3.322 1.785-6.415 4.019-9.769 5.724-4.2 3.647-8.138 7.576-12.684 10.84-6.209 4.459-12.678 8.802-18.452 13.829-6.48 5.642-11.925 12.099-16.151 19.582-1.985 3.514-3.65 7.209-5.761 10.651-1.946 3.169-5.389 7.061-6.323 10.91q.23.287.477.562c.23.255.474.477.716.701a89 89 0 0 0 2.4 1.116m58.978-40.261c.564 3.407 1.33 6.941 2.307 10.259 1.155 3.916 3.345 7.371 5.527 10.809-3.266-7.805-6.216-15.384-7.553-23.957a31 31 0 0 1-.29-2.721c-.247 1.827-.312 3.67.009 5.61m10.977 56.173q.186-.183.364-.37c-.632-1.553-1.01-3.259-1.527-4.8-.016-.051-.037-.1-.054-.151.431 1.731 1.007 3.528 1.217 5.321m.664-2.271c.32.434.507.757.617.905l.148-.164c.004-.185-.004-.475-.006-.892-.005-1.097-1.085-3.201-1.347-4.304a289 289 0 0 1-1.328-5.875 33 33 0 0 1-1.45-3.321c-.66-.169-1.34-.322-2.03-.466q.346.713.658 1.436c.894 1.207 1.433 2.903 1.827 4.641.843 2.26 1.493 6.114 2.911 8.04m-.843-9.768c.066.162.125.333.198.485a148 148 0 0 0 3.534 6.784c.14.254.264.469.376.657q.329-.337.623-.682c-.166-.758-.391-1.66-.558-2.424a20 20 0 0 0-.36-1.379c-.136.571-.275 1.131-.406 1.666-.051.209-.372.121-.322-.089.193-.807.341-1.622.461-2.44-.546-1.649-1.226-3.242-1.791-4.887a11 11 0 0 0-1.765-.82c-.266-.094-.546-.18-.823-.267.4 1.066.641 2.313.833 3.396m3.634 1.986q.175-1.393.213-2.792a12 12 0 0 0-1.658-1.244c.488 1.384.987 2.713 1.445 4.036m.007-50.051c1.664-9.411 4.597-18.882 3.55-28.513-.024-.224-.038-.946-.05-1.66-.126 1.16-.484 2.373-.671 3.362-.849 4.522-1.356 9.079-2.325 13.581-2.211 10.277-3.7 20.512-2.945 31.041.114 1.597.209 3.26.326 4.939.341 2.018.727 4.028 1.175 6.031.325-2.03.764-4.085 1.197-6.198.953-4.652.969-9.193.097-13.839-.525-2.807-.854-5.914-.354-8.744m107.621 55.961c1.477-.543-3.48-4.49-3.678-4.677-4.784-4.519-10.115-8.495-15.293-12.553-5.647-4.426-12.031-8.11-17.291-12.992-5.123-4.755-10.662-9.072-15.911-13.717-4.48-3.966-9.072-7.84-13.096-12.277.3.867.461 1.765.239 2.685-.055.228-.282.493-.526.526-1.138.158-2.025-.373-2.74-1.154-.855-.367-1.662-1.002-2.258-1.482-1.781-1.439-4.329-3.064-5.671-4.89-1.071-1.458-1.625-5.185-.547-7.33-1.905-2.415-3.903-4.731-6.455-6.579-1.791-1.297-3.465-2.902-5.34-4.051-1.763-1.079-3.795-1.723-5.652-2.626-.889-.432-1.682-.959-2.432-1.532.421 1.165.858 2.329 1.372 3.445 5.693 12.353 11.257 24.812 21.725 33.898 5.162 4.481 10.397 9.098 15.978 13.049 5.126 3.629 10.876 6.648 16.437 9.55 11.899 6.211 23.684 12.762 35.271 19.54.892.521 4.88 3.53 5.868 3.167m-69.528-62.322-.049.086q.201.302.407.601c-.094-.195-.215-.43-.358-.687m-.323 5.521a.333.333 0 0 1 .54-.124c.283.254.768.856 1.268 1.351.868.484 1.527.619 1.289-.299-.096-.373-1.071-.876-1.322-1.133-1.365-1.393-2.416-3.143-3.716-4.631-.64-.284-.973-.551-1.387-1.268a1.2 1.2 0 0 1-.156-.564q-.59-.728-1.162-1.466c.004.134.002.278-.016.442-.362 3.339 1.362 4.568 3.436 6.69.068.069.577.505 1.226 1.002m.068-5.156a1.8 1.8 0 0 1-.38.343c.653.845 1.319 1.682 1.984 2.518a17 17 0 0 1-.538-1.319 40 40 0 0 1-1.066-1.542m-23.853-25.176c.148-.252.359-.473.602-.669q-.65.126-1.299.266c.229.144.463.272.697.403m115.269 3.775c-1.157-1.085-2.869-2.288-3.461-3.855-1.099-1.052-2.303-1.919-3.748-2.305-2.373-.633-4.63.123-6.953.59q.85.311 1.694.648c3.5 1.398 7.179 2.559 10.617 4.063.863.377 1.673.861 2.441 1.414zm-29.312-20.785q-1.494-.217-3.011-.385c-.121 1.024.313 2.6.484 3.597 1.42-1.005 2.638-2.234 2.527-3.212m-.139-.405c-.152-.263-.428-.501-.868-.696-1.14-.507-1.684-.292-1.904.269q1.387.203 2.772.427m-52.302.477c-.183-.549-.254-1.117-.292-1.716-.009-.137.013-.41.046-.723-.497.094-.999.151-1.466.194a13 13 0 0 0-.822.106c.218.733-.509 1.405-1.206 1.34.495.192.99.331 1.2.409.285.106.607.275.893.362q.516.046 1.022.121c.215-.018.412-.055.625-.093m8.695-14.191a9 9 0 0 1 1.504-.022c1.115.082 5.86 1.155 7.671.285a24 24 0 0 1-1.911-1.552 59 59 0 0 0-4.46-.008q-1.422.59-2.804 1.297m19.804-9.69c-1.67 3.663-8.917.162-10.46-1.788-.054-.067-.088-.136-.128-.203a10 10 0 0 0-2.4-.133c-2.368.181-4.25.823-6.668.417-4.789-.803-9.708-1.387-14.488-2.37a91 91 0 0 0-4.849 2.04c2.434 1.895 4.344 4.627 5.243 7.375.306.936.794 2.422.87 3.714 2.06-.879 4.168-1.662 6.376-2.28 3.818-1.068 8.884-2.328 13.209-1.647 1.182-.819 2.723-.819 4.283-.438 1.119-.103 2.227-.199 3.315-.294 9.062-.792 18.321-.949 27.392-.41 8.538.506 16.998 2.082 25.444 3.374 9.053 1.385 18.103 2.004 27.05 4.083 8.854 2.058 17.418 5.066 26.198 7.278.922.232 2.651 1.187 3.304.368 1.071-1.343-2.228-2.782-3.604-3.705-3.643-2.448-7.336-4.841-11.002-7.236-6.525-4.264-14.017-6.804-21.356-9.522-9.565-3.542-19.247-6.643-29.178-9.046-10.189-2.466-21.386-4.731-31.894-3.964-10.884.796-20.679 3.754-30.999 6.944-1.81.559-3.622 1.142-5.423 1.762 1.458.236 2.914.468 4.364.706 1.923.318 3.881.586 5.808.878 2.655.403 4.951-.368 7.559-.572a9.6 9.6 0 0 1 2.439.122c.895-.696 2.067-.783 3.424-.549 1.451.25 4.368.712 5.228 2.165.117.197.204.38.276.556.75.524 1.159 1.298.667 2.375m-56.08-4.433c-.408.314-.895-.353-.542-.703q.42-.412.867-.767c-1.213-.053-2.59.027-3.752.362q-.314.228-.626.458c2.133.479 4.658 1.638 6.057 2.281q.032.016.064.033c.143-.374.295-.742.465-1.101a13 13 0 0 0-1.226-.752.72.72 0 0 1-.35-.459c-.323.199-.644.408-.957.648m-25.321 10.528-.059.246q.028-.079.059-.155zm-2.944 8.349a.65.65 0 0 0 .239.146c.08-.215.19-.406.316-.586l.001-.015c.001-.06.039-.09.082-.106a3 3 0 0 1 .309-.334 53 53 0 0 1 .64-1.561c-.042-.112-.093-.221-.124-.335a.54.54 0 0 1 .373-.656c.084-.024.146-.06.22-.09.321-.727.647-1.452.967-2.173l-.024-.447c-.199-.434-.298-.887-.249-1.356.002-.03.012-.058.017-.088-.64 2.589-1.56 5.279-2.767 7.601M76.238 49.732c-.483.636-1.656.672-1.993-.026-1.847.273-3.689.72-5.58 1.39-1.165.41-3.17.866-4.288 1.432-.596.302-1.034.663-1.36 1.064.005 2.023-.273 3.96-.242 5.978.147.725.218 1.464.184 2.19.205 1.498.484 2.934.833 4.344.168-1.721.142-3.369.483-5.106a4.7 4.7 0 0 0 .356-2.417q.741-1.785-.049-3.435c.05-.418-.132-.896.014-1.31.693-1.985 3.068-1.88 4.806-1.76q.426.029.826.053c0-.314.027-.616.13-.88.13-.327.099-.211.498-.672.189-.219.464.025.432.25l-.189 1.345c2.877.112 4.825-.225 7.38-2.575q.114-.103.224-.211-1.154 0-2.29.085c-.06.086-.112.177-.175.261m-9.985 60.615c.028 5.691-3.158 11.124-7.568 14.626-.417.332-.85.636-1.288.928 2.874-.456 10.735 3.682 11.315 3.927 4.292 1.815 8.778 3.237 12.936 5.346 2.985 1.513 5.93 2.905 8.978 4.093-.217-.153-.443-.297-.656-.455-5.129-3.802-8.276-9.856-12.023-14.884-4.161-5.587-8.29-11.216-11.76-17.277l-.007-.013c.125 1.559.07 3.1.073 3.709M28.55 136.176c-1.24.436-2.485.851-3.731 1.226q-.192.056-.384.109c1.174.101 2.32.361 3.448.731 2.472.055 4.955.342 7.405.398 8.374.191 17.241 1.258 25.268 3.717 3.135.96 6.247 1.957 9.373 2.88 9.55.379 19.065.369 28.623.332-3.245-.772-6.418-1.961-9.61-2.859a120 120 0 0 1-13.843-4.845c-4.816-2.018-9.535-4.287-13.812-7.305-.767-.541-4.97-2.451-4.934-3.61.005-.178.047-.325.11-.456-2.124 1.263-4.436 2.184-6.747 3.082-2.725 1.06-6.117 1.929-8.223 4.07-.99 1.006-1.583 2.572-2.873 3.28-2.594 1.424-5.905-.686-8.604-.779a15 15 0 0 0-1.466.029m-8.604 3.428c1.29-.484 2.483-.929 3.338-1.077a20 20 0 0 1 2.217-.238 6.55 6.55 0 0 0-2.587-.238c.154-.016-.27.026-.802.07a56 56 0 0 0-2.111.556c-.264.36-.255.666-.055.927m40.463 3.859c.844.178 1.685.371 2.524.568l-1.917-.641c-9.014-3.01-18.596-3.771-28.023-4.196-1.017-.046-2.009-.104-2.988-.155 2.011.829 4 1.802 6.048 2.453.689.219 1.382.414 2.075.597 7.456.15 14.928-.178 22.281 1.374m-20.575-.956c6.273 1.416 12.72 1.623 19.121 2.114 2.377.183 4.75.326 7.119.448l-.315-.103c-4.654-1.201-9.37-2.18-14.133-2.414-3.94-.193-7.865-.079-11.792-.045m-12.115-3.373-.457-.19c-2.38-.034-4.73.131-7.177.808 1.022.919 4.456 1.205 5.325 1.32 2.613.345 5.215.66 7.847.827q1.222.075 2.445.119a97 97 0 0 1-7.983-2.884m-9.49.203a21 21 0 0 0-2.553 1.657c.99-.215 2.086-.584 3.165-.98a2.5 2.5 0 0 1-.613-.677m81.316 10.773.01-.006q-.011.001-.024.004zm23.771 3.303c-.869.617.567.421 1.797.218-.189-.243-.341-.497-.417-.771-.52.134-1.02.298-1.38.553m3.941-.073q.613-.069 1.189-.171c2.312-1.892 5.145-2.823 7.88-3.971q.687-.621 1.356-1.316a36 36 0 0 1-3.728 1.808c-2.512 1.052-5.109 1.939-7.699 2.773q-.075.023-.155.045c.386.317.771.591 1.157.832m14.899 2.073q.13-.44.311-.862c.36-.26.463-.391.483-.471-1.911.641-3.944.851-5.898.484a1 1 0 0 1-.496-.246c-1.268.676-2.642 1.067-4.167 1.046.503.156 1.02.322 1.556.514.948.339 1.768.649 2.564.907.456.051.904.087 1.332.089q2.448.824 4.315-1.461m3.795-5.503c1.032-.788 2.234-1.773 2.912-2.898-.632.088-1.256.199-1.875.324-1.405 1.273-3.063 2.413-4.63 3.52q.18.12.364.238c.065-.084.167-.136.285-.095.268.094.54.167.809.251a14 14 0 0 0 2.135-1.34m3.034-24.825c-2.136.961-4.237 2.005-6.35 3.074-2.354 1.191-4.348 2.682-6.708 3.694.267.112.535.225.796.345 1.377-.392 2.646-1.203 4.054-1.791 2.383-.995 4.902-1.392 7.378-1.965-1.374-.852-.532-2.155.83-3.357m-4.254-9.222-.387.073c-.907.171-1.429-.803-1.153-1.425a5.7 5.7 0 0 0-1.101-1.19c.836 2.667 2.645 7.21 4.023 7.491 3.176.647.209-5.192-.412-6.221a12 12 0 0 0-.63-.924c.175.333.298.668.345.988.073.49-.114 1.1-.685 1.208m-2.669-5.141q-.215.106-.431.214c.561.119 1.132.389 1.657.757a12 12 0 0 0-1.226-.971m-14.021 2.046c-.077.317-.518.173-.476-.132.048-.342.12-.669.189-.998-1.555-.871-3.765-1.934-5.53-2.356 1.059.796 2.018 1.77 3.126 2.68 2.053 1.687 4.263 3.073 6.436 4.516.333-.253.662-.511 1.001-.756-.98-1.087-2.129-2.053-3.252-2.967-.214-.174-.662-.467-1.248-.811-.084.273-.178.541-.246.824m-14.157.611c2.107 1.25 3.914 2.581 5.878 4.069 3.426 2.598 7.38 5.603 11.796 6.264-1.069-1.869-3.847-3.868-4.932-4.929-1.762-1.719-3.563-3.377-5.804-4.46-2.379-1.149-4.486-1.32-6.652-1.13q-.142.094-.286.186m5.856 12.486c-1.151.758-2.785.863-4.448.706.612.088 1.211.192 1.842.379 1.402.416 2.612.893 3.297 2.11 1.188-.166 2.529-.16 3.854-.033l-.127-.087c-.936-.633-3.199-1.804-4.418-3.075m-15.476-5.923-.063.062c.01.391.033.878.034 1.398.211.174.503.314.896.413q1.347.75 2.821 1.16c1.473.481 2.926.721 4.471.769.77.023 3.124.417 4.694.385-1.696-.776-3.893-1.002-5.459-1.448-2.059-.588-4.108-1.356-6.111-2.111-.188-.07-.759-.403-1.283-.628m-7.77 11.239c-.16-.173-.313-.356-.468-.537-.282.92-.354 1.826-.13 2.768.05.078.096.163.147.24.692 1.051 1.538 1.586 1.693 2.919.005.05.002.096 0 .143l.534.722c-.744-1.902-.939-3.763-.796-5.594a.71.71 0 0 1-.591-.242l-.367-.385c-.012-.012-.013-.024-.022-.034M69.283 56.502c.282-1.017.756-1.812.939-2.86.027-.157.035-.325.035-.498-2.003-.223-3.697-.225-4.362 2.554.252-.766.266 2.256.294 3.029-.096.444-.362.913-.48 1.327-.646 2.282-1.123 3.834-1.1 6.191.008.824.128 1.766-.031 2.569q-.009.037-.019.077c.239.786.492 1.577.76 2.384 2.09 6.273 4.028 12.52 6.59 18.634q.42 1 .863 1.985a118 118 0 0 1-1.325-5.948c-.77-4.003-1.21-8.026-1.57-12.058a62 62 0 0 1-.544-6.44q-.103-1.247-.218-2.493c-.249-2.738-.577-5.765.168-8.453m-3.445 18.85c-.39-1.412-.85-2.805-1.3-4.198.74 2.99 1.677 5.922 2.634 8.857 2.243 6.88 4.91 13.6 7.223 20.461 1.213 3.595 2.28 7.347 3.665 10.869.69 1.751 1.766 2.986 2.983 4.091-2.543-5.612-4.739-11.324-6.52-17.188-.084-.176-.17-.348-.253-.524-3.362-7.172-6.321-14.743-8.432-22.368m12.214 31.814a259 259 0 0 0 3.92 9.071c.873.728 1.784 1.443 2.656 2.258-2.824-6.189-6.117-12.088-9.12-18.207a108 108 0 0 0 2.544 6.878m-20.39 20.65c.326.482 2.724 1.684 3.194 2.015 1.627 1.149 3.272 2.235 5.01 3.212 3.902 2.197 8.065 3.982 12.228 5.614 3.829 1.501 7.729 2.78 11.684 3.902 3.466.984 6.887 2.323 10.432 3.003l.225-.001c-.743-.484-1.47-.995-2.204-1.469-1.925-1.244-3.944-2.404-5.883-3.653-5.544-2.044-10.544-5.025-16.13-7.184-3.254-1.259-6.54-2.49-9.716-3.942-1.806-.825-3.486-1.429-5.368-2.022-.567-.177-5.414-2.348-3.472.525m44.252 21.905c-.252.17-.5.35-.749.528a5.4 5.4 0 0 0 1.086-.126c.231-.054 1.25-.406 1.936-.74q.334-.319.677-.638l.003-.012c-.858.244-1.716.498-2.578.733zm3.793-12.662c1.934 1.378 5.287 2.166 7.598 2.754 2.254.574 5.743 1.949 8.028 1.724l.044-.006c-.166-.016-.327-.023-.499-.048-.61-.086-.872-.935-.572-1.407.06-.092.138-.164.203-.252a26 26 0 0 0-2.27-.893c-.463-.129-1.764-.258-2.226-.371-3.2-.788-5.911-1.99-9.298-2.051-.918-.017-2.174-.118-3.257-.033.643 1.264 1.496 2.412 2.389 3.58 1.488.739 3.058 1.318 4.143 1.711.554.201 1.114.37 1.677.522 1.727-.298 3.55-.329 5.387-.251-.949-.377-1.886-.747-2.805-1.029-2.875-.883-6.356-1.822-8.724-3.64-.18-.136-.01-.447.182-.31m19.63 5.511q.56.012 1.101 0a1.1 1.1 0 0 1 .372.061c1.053-2.108 5.054-3.337 7.243-4.041-.624-.022-1.574.14-2.332.17-.974.631-2.143.99-3.339 1.431-1.088.401-2.093.76-3.105 1.017.131.414.161.866.06 1.362m3.62-13.885a7 7 0 0 1-.251.11l.542.309c1.423.825.594.221-.291-.419m-6.328 2.863c-.192-.055-.368-.294-.284-.499l.008-.013c-2.181.08-5.201.712-1.197 1.381 1.854.309 4.235.775 6.416.648a3.6 3.6 0 0 0 .589-.252c-1.834-.45-3.7-.739-5.532-1.265m-27.354 4.568c-.433.268-.292.017-1.157-.54-.698-.449-1.142-1.408-1.615-2.057q-.417-.57-.824-1.138c.343.66.714 1.308 1.128 1.936.198.301.467.621.748.951q.825.632 1.681 1.216.035-.138.107-.265zm20.785-1.799a55 55 0 0 0-4.275-1.339c1.701.71 3.377 1.46 5.136 1.951 2.393.67 2.004.418-.861-.612m-7.559-1.156c-1.104-.389-3.733-.906-6.065-1.762l-.134.014c-.001.458.015.922.061 1.395.023.237.074.454.112.681 1.374.55 4.752 1.385 6.489 1.918 2.102.233 4.121.628 6.44 1.22.245.063.549.131.895.206-2.842-.983-5.834-2.982-7.798-3.672m-4.424-9.954c-.1.453-.259.854-.512 1.14 1.24-.025 2.449.096 3.323.233a20 20 0 0 1-2.811-1.373m-1.012 2.572-.006.03c.697.544 1.359.855 2.269 1.089 1.53.392 3.123.866 4.739 1.259-1.877-.777-5.133-2.305-7.002-2.378m2.18 2.651c-.779-.191-1.657-.575-2.494-1.077a29 29 0 0 0-.308 1.942c3.807-.442 8.372 1.094 11.715 2.161.63.201 1.48.414 2.377.682.005-.328.051-.633.153-.904-3.873-.384-7.736-1.89-11.443-2.804m19.334 6.349a35 35 0 0 1-3.795-.469c.44.483.733 1.047.777 1.728.023.36-.222.798-.55.957-.698.339-1.483.437-2.313.374 1.112.273 2.307.619 3.377 1.074 1.592-.935 3.645-1.261 5.392-1.586l.483-.091c-2.182-.288-4.097-.85-3.371-1.987m-.24 5.033.028.026a16.6 16.6 0 0 0 3.666-.84c-1.261.15-2.542.402-3.694.814m-30.77-2.357a73 73 0 0 1-5.15-4.25c1.556 1.642 3.277 3.136 5.266 4.414q-.059-.082-.116-.164m-6.953-14.354a96 96 0 0 0-.963-2.297 46 46 0 0 0-2.921-2.934 231 231 0 0 0 3.165 6.571c1.307 2.597 2.807 4.981 4.376 7.409-1.362-2.826-2.477-5.793-3.657-8.749m36.556 2.109c1.034.884 2.191 1.63 3.372 2.332.208-.132.405-.254.581-.353-.486-.462-1.073-1.026-1.668-1.55.061.202-.229.282-.342.13a4 4 0 0 0-.338-.501 31 31 0 0 1-.554-.164c-1.852-.585-2.456-1.095-1.051.106m7.458 1.608c-.01.062-.04.111-.055.17.916.695 1.77 1.453 2.445 2.375.03.041.044.093.065.138.394-.126.812-.28 1.301-.503.365-.167.713-.357 1.063-.543-.605-.463-1.108-1.348-1.285-2.185a1.23 1.23 0 0 1-.821.29 12.3 12.3 0 0 1-2.709-.353q.05.298-.004.611m5.798.651-.217-.207c-.378-.248-.039-.843.357-.611q.38.24.789.425a.38.38 0 0 1 .172.187c.909-.553 1.815-1.112 2.775-1.605l.757-.39c-1.149-.233-2.229-1.01-3.443-.922-1.017.074-2.309.542-2.216 1.729.057.712.433 1.713 1.026 1.394m-9.977-12.567c-1.902-2.121-3.839-4.519-6.212-5.719-.416.117-.721.353-.831.781a.63.63 0 0 1-.439.439 6.7 6.7 0 0 0-1.491.551c1.274.113 2.536.411 3.716.854 1.976.743 3.674 1.829 5.257 3.094m12.801-2.744q.268.246.537.507c-.032-.163-.064-.326-.085-.471-.014-.094-.008-.184-.004-.274zm-1.527.851q-.497.284-.988.578c.139.147.279.298.418.441a45 45 0 0 1 3.491 4.056c2.314 3.011.794.184-.095-1.429-.814-1.473-1.758-2.613-2.826-3.646m-4.047 3.805c-.2-.276-.424-.533-.646-.793-.31.222-.62.443-.924.673a71 71 0 0 1 1.735 1.191c1.756 1.252.692.114-.165-1.071m.988-2.557c-1.523-2.021-3.102-3.979-5.034-5.479q-.25.462-.476.937c2.058 1.124 3.904 2.81 5.51 4.542m-4.188-6.929c2.209 1.643 4.125 3.971 5.97 5.955q.472-.29.951-.574c-.951-.881-1.992-1.7-3.13-2.597-1.171-.923-2.345-2.139-3.692-2.935q-.05.075-.099.151m5.686 2.343c.649.426 1.654 1.199 2.736 2.169.341-.19.688-.373 1.032-.558a.95.95 0 0 1 .475-.327c.076-.022.155-.034.233-.049.316-.165.63-.335.949-.496-.087-.054-.173-.121-.26-.172-1.232-.704-2.47-.744-3.834-1.121-.92-.255-2.366-.847-3.87-1.326.882.678 1.729 1.347 2.539 1.88m7.535 11.839a3.4 3.4 0 0 1-.718.742c-.285.219-.821.197-1.109 0-1.426-.978-2.657-2.223-3.805-3.582.182.627.165 1.301-.195 2.041-.737 1.511-2.195 1.69-3.57.949-1.165-.627-1.831-1.982-2.906-2.746-.488-.347-.975-.601-1.46-.881 1.872 1.743 4.368 3.505 4.735 6.075.56-.697 1.444-1.159 2.317-1.358a4.7 4.7 0 0 1 2.252.041c.387.101.821.31 1.261.473.09-.242.296-.428.59-.39.669.089 1.02.29 1.611.628.29.167.425.429.441.702a156 156 0 0 1 2.24-1.117c-.593-.38-1.158-.925-1.684-1.577m-2.347 9.882c-.889.44-1.798 1.112-2.722 1.743q.238.122.476.245c1.69-.324 3.34-.918 4.732-1.569.819-.384 1.631-.745 2.438-1.102.714-.822 1.818-1.211 3.009-1.354.423-.195.844-.399 1.261-.604a8 8 0 0 1-.88.037c-2.771.79-5.648 1.284-8.314 2.604m5.672 2.728c-.027-.099-.022-.196-.017-.293a3.1 3.1 0 0 1-.997-.746 1.36 1.36 0 0 1-.362-1.04c-1.62.907-2.651 1.994-4.382 2.495.574.307 1.155.61 1.751.906 1.757.144 3.515.28 5.282.369-.597-.402-1.077-.938-1.275-1.691m-14.053 1.374c-.173-.001-.26-.132-.263-.266a5 5 0 0 1-.334-.166c-.119-.035-.235-.078-.353-.12.085.236-.017.541-.333.516l-.282-.022c-.363-.029-.658-.509-.327-.791.028-.024.057-.042.086-.065a6 6 0 0 1-.5-.302c-.955.661-3.071.511-3.611 1.193.257-.324 4.89.174 5.818.247a.85.85 0 0 1 .637.397c1.19.014 2.272.19 3.001.669.48.313.784.657.956 1.019a6.3 6.3 0 0 1 1.115.038c-.934-.539-1.829-1.158-2.819-1.588-.804-.349-1.584-.501-2.339-.747-.153-.003-.299-.011-.452-.012m16.678 9.676c.169-.559.249-1.069.058-1.225a9 9 0 0 1-.666 1.114zm-6.1-.374-.285-.005c-.434.288-.875.566-1.335.826q-.464.595-.96 1.194c.937-.581 1.832-1.249 2.58-2.015m-2.083-2.597c-.187-.267-.365-.541-.561-.801a6.6 6.6 0 0 1-.451.981q.566-.107 1.012-.18m-.375-1.478c.06-.002.12.006.176.042.772.485.917.565 1.238.848.369-.56.75-1.101 1.159-1.593a42 42 0 0 1-2.892-1.098c.325.464.455 1.064.319 1.801m7.712 4.666-.009.012.042-.007zm-8.531 3.221q-.08.043-.159.088c.084.172.202.344.339.516q.277-.334.548-.679-.363.043-.728.075m.069 3.725c.333-.038.662-.101.988-.175a7 7 0 0 1-.337-.318q-.333.248-.651.493m-.753-3.386c-.291.142-.579.286-.873.421a37 37 0 0 1-2.748 2.663 11.4 11.4 0 0 1-2.897 1.831c1.178-.087 2.255-.449 3.258-1.005.05-.115.11-.225.189-.319.889-1.071 2.035-1.886 3.2-2.68a3.1 3.1 0 0 1-.129-.911m-5.454-2.246q.782-.723 1.484-1.524l.176-.184c-1.457.428-2.567.867-2.601 1.215q-1.313.495.941.493m5.997-2.779q-.42.09-.864.19c-.221.283-.49.613-.792.969.554-.377 1.104-.768 1.656-1.159m15.517-3.531c5.717 1.624 11.207 2.929 17.178 3.214 2.49.119 4.961.063 7.424-.082l-.076-.001c-3.657-.012-7.191.038-10.79-.673-3.888-.768-7.594-2.198-11.449-3.054-1.94-.432-3.887-.373-5.824-.397 1.178.33 2.359.658 3.537.993m3.104 4.521.191.092.134-.003zm-7.566-2.123c-.055-.012-.102-.018-.156-.03.373.463.507 1.402.375 2.425 1.839-.071 3.669-.105 5.494-.138-1.845-.919-3.708-1.817-5.713-2.257m-22.825 4.665c-1.594-.146-3.172-.035-4.76.213q.42.063.843.098c1.38.109 2.655-.055 3.917-.311m-3.507-1.482c1.758-.461 3.672-.343 5.497.042 1.443-1.357 4.525-2.362 7.253-3.025.268-.357.502-.722.661-1.097.74-1.745.149-2.235-1.024-2.082-1.603 2.726-7.595 5.551-9.479 5.376-.426-.039-.817-.25-1.021-.619-.096.039-.188.082-.302.096-3.057.37-5.301.931-8.477.711-2.226-.154-4.417-.401-6.565-.963q-.874.2-1.68.529.27.302.547.6c.649.023.979.502.995 1.006.882.114 1.831.105 2.944.002 1.416-.132 2.742-.15 4.152.037.885.118 1.751.322 2.615.529 1.298-.389 2.593-.803 3.884-1.142m-11.174 2.943c.098.097.201.191.297.291.032-.028.064-.06.095-.085.139-.107.301-.202.47-.292q-.43.047-.862.086m-4.455 2.845-.194-.152c-.292-.225-.568-.452-.85-.68 0 1.433-.074 2.865-.322 4.205.337-.408.724-.92 1.072-1.469.069-.645.157-1.285.294-1.904m-1.595 4.412q-.194.723-.482 1.387c-.625 1.431-1.357 1.943-2.186 2.207-.34.872-.702 1.742-1.149 2.595-1.559 2.976-3.345 6.146-3.516 9.509-.355 6.97 1.127 13.443 1.998 20.28q.281 2.224.56 4.446c.029-3.47.241-6.913.612-10.252.7-6.316 2.187-12.449 3.388-18.674.676-3.503 1.082-7.057 1.694-10.572.13-.746.202-1.524.274-2.306-.36.47-.763.931-1.193 1.38m-4.52 2.358c.961-.336 1.594-.765 2.034-1.312.256-.627.525-1.249.826-1.864a20 20 0 0 0 .295-1.717c.192-1.37.274-2.712.31-4.057l-.017-.014c-.428.362-.613 1.995-.882 2.547-.723 1.484-1.809 2.835-2.632 4.267-.512.89-1.042 1.774-1.574 2.656.509-.15 1.053-.301 1.64-.506m-2.176-8.119c-2.584 1.876-5.043 4.119-7.601 6.017-.481.357-.946.731-1.415 1.101 1.7-1.085 3.372-2.219 5.152-3.183 2.01-1.089 3.716-2.1 5.548-3.524.215-.167.501-.427.824-.733-.837.259-1.664.343-2.508.322m-1.117-2.211a39 39 0 0 0 2.008-.569c-8.89-.134-17.746-.469-26.602-.933 3.166.801 6.368 1.463 9.649 1.858 1.47.177 2.996.316 4.54.399 1.617-.01 3.296-.107 4.923.024 1.875-.101 3.723-.341 5.482-.779m-34.151-47.689c-.35-1.691-1.022-3.257-1.874-4.74q-.068-.009-.14-.016c.913 2.073 2.032 4.829 2.168 7.12q.625 1.033 1.269 2.053a116 116 0 0 0 3.276 4.884c-1.105-2.09-1.996-4.211-2.514-6.6-.57-2.628-.692-6.408-3.445-7.3.76 1.416 1.352 2.906 1.658 4.489.05.26-.344.372-.398.11m-2.39-5.567q.008-.002.016-.003l-.093-.15zm-3.202-4.318q-.194-.235-.39-.468.066.105.128.21c.09.084.174.172.262.258m-.775-1.722c1.599 1.894 3.273 3.899 4.584 6.083 3.006.39 4.115 3.132 4.562 6.123 1.051 7.021 5.171 13.081 9.489 18.477 3.54 4.425 7.218 8.413 11.356 12.111-1.966-3.206-3.59-6.721-5.169-9.84a165 165 0 0 1-2.35-4.85c-.211-.184-.41-.376-.624-.558-4.883-4.132-5.837-11.546-7.842-17.385-2.506-7.296-5.257-14.481-7.535-21.855-.67-2.172-1.307-4.392-1.827-6.634-.173.283-.373.551-.645.766-1.255.995-2.456.651-3.894.432-3.046-.463-10.849-1.15-8.45 5.192.544 1.435 2.003 3.367 2.827 4.648 1.589 2.47 3.627 5.05 5.518 7.29M88.07 43.455c-.128.57-.265 1.135-.432 1.675.08.22.235.37.502.403l-.006-.12c.1-.632.064-1.3-.064-1.958m-6.54-6.017a60 60 0 0 0 .118-4.07c-.129.956-.244 1.912-.325 2.87-.27 3.189-.366 6.688-1.342 9.74q.306.027.619.058c.263-2.876.733-5.719.93-8.599m2.952 8.92c.004-2.458.586-4.958.836-7.366.167-1.605.27-3.202.353-4.8a58 58 0 0 1-1.111 5.027c-.53 1.944-.83 4.864-1.685 7.04.535.047 1.074.082 1.607.1M78.47 24.903c-2.153 3.672-.914 9.343-.903 13.285.007 2.28.396 5.135.077 7.687.316-.003.627.006.938.017-.932-1.444-.538-4.821-.527-5.976.042-4.287.029-8.839.663-13.03.072-.472.717-.45.935-.123 1.337 2.007.33 6.11.178 8.299-.026.37-.549.37-.574 0-.077-1.08.124-3.154.075-4.957-.458 4.303-.582 9.112-.208 13.202.313 3.433.297.31.436-1.105.196-2 .57-3.96.768-5.963.32-3.233.957-6.56 1.216-9.814-1.06-.469-2.127-.94-3.074-1.522m4.13 2.006c-.016 3.265.14 6.539-.025 9.795-.151 2.978-1.254 6.244-.877 9.187l-.03.254.054.005c.046-.223.106-.555.19-1.022q.297-1.487.77-2.93c.507-1.85 1.112-3.676 1.534-5.55.576-2.558.962-5.252 1.32-7.907a22 22 0 0 0-1.215-.886c-.524-.353-1.113-.656-1.721-.946m4.222 2.91c-.047 2.363-.128 4.716-.34 7.095-.212 2.404-1.195 5.688-.956 8.07.19 1.887.004 1.526.618.429q.145-.262.262-.555c-.064-2.124.642-4.713.904-6.847.275-2.227.61-4.473.99-6.698a20 20 0 0 0-1.478-1.494m3.118 3.65c-.215 1.21-.548 2.364-.677 2.982-.339 1.632-.563 3.698-.936 5.74.362.945.653 2.05.792 3.118.072-.032.141-.06.22-.098.615-.303 1.266-3.095 1.447-3.683a29 29 0 0 0 .906-4.002c-.328-1.434-.944-2.796-1.752-4.058m1.74 7.657c-.16.625-.417 1.779-.823 2.923.448-.663.78-1.503.961-2.563.084-.495.117-.983.127-1.47-.088.393-.177.766-.265 1.11m-1.555 6.706c-.409.26-.832.484-1.26.689-.823 1.841-1.905 1.409-3.333 1.02-.982.14-1.982.16-2.982.054-.475-.05-.943-.084-1.409-.117-.809.243-1.606.629-2.45 1.174-.752.488-1.256 1.228-2.048 1.7-1.426.852-2.864 1.083-4.516.985a21 21 0 0 1-1.172-.11c-1.051 7.832-1.622 15.362-.203 23.292 1.363 7.622 3.766 15.859 6.856 22.967.119.274-.285.511-.403.236-2.161-4.981-3.606-10.416-5.13-15.625a73 73 0 0 1-1.507-6.113 111 111 0 0 0 2.9 15.428c2.63 5.658 5.704 11.078 8.584 16.589-.942-3.307-1.673-6.691-2.077-10.027-.406-3.348-.5-6.703-.929-10.05-.264-2.058-.538-4.112-.072-6.159.39-1.711.73-3.422 1.081-5.128-.042-3.514.432-6.853 2.176-10.22.567-1.095 1.09-2.374 1.755-3.545.448-1.51.923-3.007 1.604-4.375 1.039-2.09 2.796-3.731 3.803-5.852 1.468-3.088 2.582-6.055 3.051-9.179a7.45 7.45 0 0 1-2.32 2.366m-4.85 18.965a94 94 0 0 0-.857 4.233q.07-.098.135-.204c.943-1.574 1.13-3.156 1.226-4.907-.173.272-.338.569-.505.878m.97-1.533c.207.01.413.153.442.429.434 4.19-1.796 5.863-2.825 9.684-1.489 5.524-.808 11.533-.251 17.152.03.308.074.612.11.919.562 2.33 1.27 4.642 1.952 6.914.601 2.001 1.31 3.847 2.33 5.631-.005-5.523-.723-10.836-.33-16.382.373-5.272.086-10.596.812-15.84.346-2.49.786-5.025 1.206-7.49.28-1.634.88-3.13 1.33-4.686-.732.744-1.252 1.3-2.488 1.91-1.073.528-1.752 1.092-2.288 1.759m1.993 49.48c-.24-2.256-.249-4.465-.24-6.702-.244-.392-.498-.79-.773-1.206-.718-1.09-1.281-2.264-1.765-3.477.44 2.136.876 4.275 1.225 6.446.374 2.323 1.124 4.421 1.778 6.586-.086-.608-.174-1.174-.225-1.647m-2.425-6.214c-.607-3.656-1.511-7.211-2.186-10.829-.15-.51-.3-1.017-.458-1.517q-.118-.38-.233-.76c.142 1.914.282 3.828.559 5.736.51 3.508 1.68 6.755 2.654 10.155.207.722.439 1.432.683 2.135-.369-1.624-.743-3.255-1.02-4.92m6.452 17.666a52 52 0 0 0 1.864 4.117c.166-.453.382-.891.631-1.319-2.236-3.224-3.828-7.258-4.813-11.04.028.885-.026 1.731-.202 2.507.862 1.894 1.734 3.786 2.52 5.735m3.54 1.173c.372-.557.728-1.116 1.013-1.691-1.31-2.721-3.501-5.108-4.691-7.903-.144-.34-.27-.689-.406-1.033.762 3.344 2.173 7.364 4.084 10.627m1.563.482a21 21 0 0 0-.593 1.035q.45.648.932 1.226.191-1.007.486-2.002a2 2 0 0 1-.036-.345 3 3 0 0 1-.372.137.144.144 0 0 1-.175-.099c-.021-.085-.05-.167-.074-.252-.057.098-.11.204-.168.3m12.907-11.712c2.207.458 3.997 1.512 6.153 2.213 1.797.585 3.31.779 4.237 2.579a.873.873 0 0 1-.973 1.266c-2.056-.469-4.046-1.664-6.092-2.354-1.917-.646-3.938-1.512-5.621-2.641-.077-.012-.146-.02-.22-.031q-.947.638-1.848 1.346c2.639.608 5.19 1.657 7.812 2.296 2.02.493 4.431.842 6.122 2.162.175-.117.373-.23.607-.34.561-.266 1.516-.344 2.624-.26a38 38 0 0 1-1.232-.957c-2.584-2.088-4.942-4.515-7.683-6.382a13 13 0 0 0-1.537-.876c-.673.41-1.351.813-2.026 1.22-.03.283-.146.536-.323.759m21.396-10.615c.174.045.348.093.534.151 1.297.403 2.625 1.194 3.978 1.625 1.192.381 2.632.426 3.76.824 1.067.376 2.087.93 3.037 1.609a92 92 0 0 1 4.281-1.921c-.336-.074-.673-.143-1.006-.221-4.578-1.073-9.752-2.902-14.512-2.17q-.037.05-.072.103m25.158 16.609c-2.24.647-4.391 1.458-6.5 2.363a5 5 0 0 0-.714.783c-.758 1.079-1.128.125-.718 1.86.129.546.26.844.439 1.009a23 23 0 0 0 2.043-.627c3.879-1.423 7.171-4.783 10.946-6.65-1.855.302-3.688.74-5.496 1.262m-2.971 14.919c-.506.188-.884.4-1.621.228-.601-.14-1.229-.353-1.832-.55-1.366.014-2.687.015-4.044-.179-.437-.063-.858-.111-1.288-.168 3.62 1.465 6.33 1.129 10.115 1.465 2.57.229 5.002 1.116 7.468 1.809 6.45 1.814 12.438 2.327 19.119 2.329 2.931 0 6.05.328 8.965.053 1.297-.122 4.677-.784 7.234-1.722a1.8 1.8 0 0 1 .098-.474 28.3 28.3 0 0 0-6.241-2.045c-4.42-.918-9.56-.697-14.105-1.012-4.021-.279-7.689-.586-11.712.043-3.033.474-5.936 1.481-9.015.873-1.083-.214-2.107-.459-3.141-.65m41.528 8.375c5.053.792 10.136 1.544 15.139 2.617l-.055-.042c-2.313-1.897-4.535-3.462-6.988-5.061-2.397 1.44-5.494 2.085-8.096 2.486m35.738 12.009c-3.572-1.372-7.085-2.942-10.687-4.239-8.846-3.19-18.436-4.602-27.719-5.876-3.948-.542-7.902-.23-11.861-.324-4.57.24-9.158.174-13.636-.379q-.99.049-1.986.134a51 51 0 0 1-1.78.125c8.926 3.071 18.554 3.064 27.88 3.927 9.006.833 17.786 2.116 26.53 4.445 4.425 1.178 8.697 2.191 13 3.815 1.937.73 4.028 1.305 6.064 1.984-1.655-1.486-3.473-2.717-5.805-3.612m-70.106-10.48q-.975.016-1.951.012 2.755.644 5.514 1.257a44 44 0 0 1-3.563-1.269m3.021 2.199c-2.875-.586-5.824-1.447-8.8-2.251-1.165-.03-2.333-.063-3.505-.085-.264-.005-.52.015-.78.022-.616 1.503-1.568 2.863-2.743 4.016 1.978-.079 4.026.437 5.942.759 3.591.602 7.157 1.028 10.627 2.199 1.797.607 4.119 1.408 5.094 3.07 5.027 1.641 10.024 3.386 15.076 4.939 6.567 2.019 13.448 3.164 19.845 5.722 2.51 1.004 7.424 4.421 10.222 3.704 4.422-1.132-1.951-3.902-2.902-4.409-2.763-1.469-5.119-3.648-7.741-5.336-5.574-3.587-13.248-5.728-19.615-7.462-6.882-1.873-13.73-3.462-20.72-4.888m-9.32 3.192c-2.71-.452-4.995-.663-7.554-.553-.112.089-.231.17-.347.255 5.676 1.252 11.623 1.325 17.251 3.008 1.62.484 3.231.995 4.84 1.515-2.663-3.163-11.408-3.762-14.19-4.225m-10.768 1.593a.33.33 0 0 1-.139.21c-1.062.759-.884 2.284-1.612 3.27a54 54 0 0 0 2.723-.392c2.997-.518 5.897.778 8.743 1.508.335.086.656.176.985.264q1.147.267 2.285.545c-1.81-.738-3.634-1.459-5.463-2.218-1.568-.651-4.816-1.704-7.522-3.187m40.408 18.551c.653.042 1.786.177 2.352-.117 1.002-.52 1.135-1.031.774-1.421-1.184.347-2.4.712-2.605.73-1.161.106-2.352.047-3.549-.123.898.451 1.833.854 3.028.931m-4.685 3.558c-1.539-2.134-3.359-2.995-5.301-4.557-1.164-.937-2.201-2.035-3.182-3.184-5.415-2.268-10.449-4.554-16.2-5.945-2.586-.626-5.372-1.887-8.023-2.023-1.341-.069-2.641.283-3.965.564 2.242 1.775 4.972 2.452 7.574 3.77 4.418 2.237 8.982 3.603 13.476 5.599 5.341 2.371 10.826 4.278 16.179 6.621-.179-.287-.36-.571-.558-.845m-43.115-18.159a16 16 0 0 1-.83-.329c-.696-.189-1.319-.364-1.787-.459-1.155-.231-4.236-.795-6.541-1.853-.47.072-.942.143-1.431.222-.07.011-.148.024-.224.038.062.034.125.063.188.097 3.591 1.98 6.421 2.513 10.427 2.296q.099-.005.198-.012m-18.739-6.806c.21.193.426.362.64.534 2.505-.652 4.949-1.127 7.39-1.738-.081.003-.161.012-.243.013-2.199.015-4.216-.688-6.358-1.089-.218-.041-.433-.056-.648-.081l-.023.005c-.713.168-2.502.637-3.84 1.297.681.753 1.337 1.52 2.014 2.265.314-.147.621-.293.91-.412-.103-.108-.213-.212-.313-.321-.293-.318.155-.765.471-.473m-2.682 4.552a10 10 0 0 1-1.328-.614c.385 1.112 1.014 2.333 1.158 2.604q.07.132.14.268c-.005-.616.006-1.23.028-1.851.002-.051.003-.202.002-.407m-12.11 47.476c-.787-5.578-1.45-11.181-2.536-16.693-1.063-5.393-2.12-12.518-.531-17.899.678-2.299 2.13-4.403 3.195-6.544.329-.662.618-1.328.89-1.995-.403.078-.825.156-1.264.29-.518.39-.979.737-1.343 1.029q-.552.445-1.103.892c-.714 1.307-1.172 3.139-1.698 4.182-1.562 3.097-2.64 5.891-2.862 9.35-.366 5.72-.059 10.88 1.269 16.484 1.5 6.331 4.189 12.42 6.839 18.495a79 79 0 0 1-.856-7.591m-40.974-88.701c-.848 2.16-1.884 5.565-3.718 7.135-1.662 1.423-5.015 2.018-6.964 2.763-3.717 1.419-7.221 2.684-10.298 5.27-2.024 1.703-4.413 3.367-6.934 4.438a95 95 0 0 1-3.81 1.514q.63.031 1.242.11c3.716.481 5.826 1.923 8.839-1.647 1.174-1.391 2.023-1.977 3.69-2.806 4.333-2.156 9.203-3.136 13.218-5.949 4.316-3.024 7.984-8.235 8.392-13.586.067-.867.212-3.718-.073-5.968l-.089-.158c-.686 3.05-2.426 6.158-3.495 8.884m-8.64-45.732c-1.93.668-5.132 2.315-5.806 4.375-.831 2.54-.23 6.444 1.45 8.399 2.635 3.069 6.395 5.213 9.553 7.853-.058-.098-.106-.203-.168-.3-.058-.09-.01-.187.067-.238a74 74 0 0 1-2.31-2.836c-1.475-1.935-2.904-3.731-4.157-5.815-.733-1.22-2.377-2.749-2.758-4.142-.577-2.11 1.432-4 3.13-4.767 3.332-1.506 9.443.97 11-3.146a47 47 0 0 1-.306-1.905 27 27 0 0 1-.421-2.248c-.018-.128-.026-.252-.04-.38a5.5 5.5 0 0 1-1.214 2.093c-2.157 2.315-5.26 2.101-8.02 3.057M157.198 8.136c-10.751-.824-21.385-2.558-32.071-3.939-5.501-.71-10.686-1.159-16.17.012-5.155 1.101-9.568 3.448-14.422 5.308-2.815 1.079-5.792 1.577-8.61 2.707-2.973 1.192-5.139 2.923-7.749 4.685-2.628 1.776-5.922 3.248-7.739 5.905-1.479 2.162-2.718 4.672-4.023 6.928-3.157 5.453-4.84 12.375-4.187 18.7q.08.777.163 1.527c1.947-1.155 4.285-1.95 6.277-2.57a35.3 35.3 0 0 1 5.722-1.272c.326-4.881.33-9.744.249-14.669-.048-2.919.288-5.952 2.165-7.933-.119-.136-.253-.261-.358-.41-.58-.833.003-2.151.962-2.365 5.148-1.147 7.974 2.579 10.986 6.187a22.8 22.8 0 0 1 3.205 5.096q.015.03.031.058c-.08-.276-.17-.54-.287-.778-.108-.222.207-.413.335-.195.443.75.686 1.67.796 2.663.1.223.204.442.294.67.826 2.098 1.254 4.618.997 6.984.11 2.077.08 4.26-.346 6.252-.52 2.432-1.904 4.507-2.777 6.81-1.029 2.714-3.195 4.834-4.1 7.586.264-.042.56.035.784-.044 1.859-.66 2.774-1.052 4.21-2.271a.49.49 0 0 1 .812.472c-.954 5.068-2.458 10.012-2.99 15.217-.608 5.972-.623 12.156-.85 18.159-.15 4.024.19 8.095.4 12.15.242-3.076.788-6.14 1.469-9.122.775-3.395 2.147-6.602 2.935-10.003.87-3.745 1.633-7.514 2.521-11.253 1.72-7.244 4.148-14.128 6.007-21.293 1.781-6.864 4.564-13.367 7.631-19.743 1.202-2.499 2.555-4.818 4.441-6.854 2.15-2.322 3.636-5.069 5.857-7.297 3.46-3.471 6.915-8.297 11.714-9.958 2.059-.712 5.554-1.832 4.836 1.324-.639 2.805-3.15 6.144-4.797 8.471-1.799 2.54-4.033 4.654-6.187 6.88-5.125 5.3-10.309 12.03-14.167 18.31-8.087 13.164-12.864 28.866-14.865 44.146-1.03 7.866-1.726 15.479-.406 23.367.28 1.68.633 3.346 1.043 4.998.165.664.306 1.339.377 1.694-.041-.215-.108-.573-.21-1.136-.669-3.666.212-7.311.751-10.921 1.067-7.139 1.511-14.316 3.385-21.308 1.885-7.031 3.887-13.941 6.947-20.577 6.58-14.269 14.164-29.226 27.068-38.72 5.866-4.316 12.461-7.05 18.611-10.81 3.053-1.868 6.007-3.11 9.505-3.91 3.398-.776 6.842-.845 10.216-1.616-.188.313-.341.84-.587.827-2.069-.104-6.237.598-8.162.941-4.955.887-8.799 3.26-13.128 5.604-7.63 4.131-16.268 7.887-22.31 14.362-6.662 7.138-11.844 15.385-16.19 24.08-5.07 10.149-9.242 20.312-11.945 31.347-1.228 5.013-1.576 10.144-2.271 15.239-.354 2.592-.785 5.178-1.175 7.764-.579 3.832-.178 6.983.115 10.8.024.315-.452.36-.537.073-2.285-7.813-3.416-15.904-2.6-24.039.813-8.084 2.49-15.915 4.057-23.87.8-4.062 2.582-7.858 3.805-11.804 1.171-3.782 3.213-6.822 4.828-10.406 3.507-7.779 8.835-14.067 14.026-20.766 1.672-2.158 17.911-18.778 12.433-20.446-2.439-.743-7.356 3.947-8.932 5.635-3 3.214-5.614 6.472-8.279 9.922-2.209 2.858-4.562 5.163-6.158 8.49-2.093 4.359-4.055 8.901-5.578 13.486-1.325 3.99-1.959 8.146-3.201 12.14-1.288 4.147-2.596 8.053-3.552 12.316-1.062 4.736-2.044 9.484-3.06 14.23-.973 4.55-2.56 8.872-3.328 13.466-.672 4.016-1.111 7.892-.863 11.831.894 2.77 1.477 5.643 2.823 8.293.776 1.528 1.852 2.822 2.708 4.295.005.009.23.431.528.922a59 59 0 0 0 1.654-4.111c1.579-9.384 2.845-18.612 5.13-27.871 2.171-8.796 6.001-15.46 11.112-22.915 10.803-15.756 25.701-27.474 40.014-39.86 6.209-5.372 12.38-11.48 17.885-17.548.475-.523 2.057-.853 1.498-2.054a1.9 1.9 0 0 0-.292-.478q.725-.178 1.445-.412c.158-.051.302.085.309.236.053 1.103-.421 1.386-1.226 2.111-2.027 1.822-4.112 3.327-5.958 5.391-3.612 4.039-7.597 8.072-11.66 11.67-9.471 8.386-19.668 16.163-28.494 25.241-8.273 8.513-16.344 18.628-21.298 29.476-4.947 10.832-5.575 23.349-7.751 34.992.338-.98.671-1.955.995-2.898.132-.385.514-.437.766-.274.188-1.511.577-3.009 1.41-4.283 1.242-1.903 3.163-2.864 5.082-3.959 2.58-1.473 4.939-3.272 7.377-4.968 4.038-2.808 8.123-7.306 10.491-12.283-.527.48-1.425.452-1.69-.445-.204-.69-.494-3.385-.471-6.254a.75.75 0 0 1 .009-.609c.095-3.998.847-8.082 3.323-7.362 1.71.497 1.97 4.414 2.066 5.703.357 4.812-2.337 10.136-4.782 14.113-2.874 4.674-6.5 8.491-10.602 12.099-1.774 1.56-3.534 2.558-5.539 3.777-2.033 1.238-2.925 2.836-3.329 4.728a13 13 0 0 1 1.651-.209 32 32 0 0 1 1.886-1.885 1.6 1.6 0 0 0-.443-.486c-.309-.345.077-.864.495-.642.323.17.628.241.924.264q.3-.255.603-.503a9 9 0 0 1-.867-.584c-.528-.414.053-1.211.62-1.065.695.179 1.319.285 1.912.337q1.041-.807 2.084-1.618c.041-.07.08-.141.148-.206 3.833-3.696 7.42-7.301 10.472-11.718 2.677-3.875 4.966-8.599 7.11-12.798 2.315-4.536 4.938-8.59 6.905-13.337 1.555-3.753 4.111-7.442 6.765-10.514 2.615-3.027 6.251-6.018 9.581-8.266 1.674-1.13 3.467-2.314 5.298-3.171 1.637-.766 3.296-.757 4.925-1.288a77 77 0 0 0 2.509-2.706c1.834-2.079 4.181-3.691 5.875-5.861 1.385-1.773 2.353-3.895 3.617-5.773 2.869-4.263 6.911-5.633 10.588-8.9 2.652-2.358 10.865-11.476 8.52-15.79-1.435-.377-2.904-.552-4.388-.645-5.289-.33-10.716-.636-16.015-.638-5.978-.003-12.15.475-18.107.018m-31.304 75.358c-.42-.013-.984.284-1.447.457.008.565.041 1.128.118 1.68.134-.283.282-.558.463-.821.542-.79 1.936-1.283.866-1.316m1.608-2.293c-.055-1.006-.152-2.128-.346-2.37-1.201-1.5-1.833-.994-2.255.862a19 19 0 0 0-.38 2.33c.896-.755 1.959-1.532 2.981-.822m57.766-52.01c3.191-3.538 5.617-6.817 9.406-9.818 2.397-1.897 4.98-3.38 4.605-6.673-.267-2.352-.536-2.357-2.475-2.981 1.017 2.575-1.016 5.405-2.371 7.75-2.829 4.887-6.337 8.563-10.996 11.65-3.189 2.113-4.908 4.676-6.437 8.104l-.01.022c2.857-2.577 5.683-5.176 8.278-8.053m-41.453 38.167c2.072-2.328 4.338-4.445 6.306-6.872 1.466-1.809 3.016-3.864 5.066-5.07 1.997-1.174 3.782-1.808 5.592-3.372.289-.249.557-.5.836-.748-1.069.322-2.133.717-3.181 1.324-5.977 3.463-10.916 8.227-14.703 13.889a25 25 0 0 0-1.768 3.14 35 35 0 0 1 1.852-2.29m-17.907 37.286c.135-.021.271-.042.395-.054.837-.076 1.65.055 2.442.308a12.8 12.8 0 0 1 3.034-1.019q.525-.619 1.096-1.223l.29-.302q.183-.282.366-.563c-2.471.896-5.241 1.632-7.623 2.853m30.314-26.993c.398-.854 2.17-2.56 1.198-2.615-4.174-.238-2.974 5.59-2.813 8.809.122-.292.233-.586.322-.885.524-1.758.51-3.626 1.293-5.309m55.457-25.922c-4.639-2.054-8.672-2.908-13.669-3.295-3.519-.273-6.882-1.144-10.456-.415-3.572.73-9.079 2.866-12.144 4.718-2.489 1.504-5.865 4.157-8.105 6.141-3.029 2.686-6.742 4.53-9.682 7.286-6.442 6.039-11.015 14.643-15.574 22.152-1.673 2.756-3.266 5.559-4.871 8.355q1.64-.71 3.258-1.478a81 81 0 0 1 3.065-2.666 148 148 0 0 1 5.387-4.197c1.456-1.843 3.776-2.182 3.771-5.076-.004-2.417-.808-3.484.403-5.905.697-1.396 1.748-2.179 2.986-3.102.995-.741 2.851-2.321 3.548-.457.366.98-.913 2.104-1.319 2.753-1.223 1.955-1.294 4.137-1.528 6.323 5.158-3.323 10.534-6.3 16.083-8.795 10.705-4.81 21.983-8.787 33.586-10.786 11.106-1.914 22.051-2.668 32.758.972-5.926-4.03-12.181-7.229-19.044-9.445-2.89-.936-5.677-1.854-8.453-3.083m-69.87 42.796a89 89 0 0 0 3.757-1.972c.759-.422 1.558-.91 2.357-1.453q.002-.808.299-1.59c-2.179 1.603-4.338 3.266-6.413 5.015M265.77 92.5l-.031-.04c2.553 3.522 4.971 7.137 6.587 11.188 1.664 4.174 3.176 7.081 6.359 10.32 2.226 2.265 4.949 4.066 6.99 6.483.17.202.345.424.522.655-4.34-10.869-13.147-19.68-20.427-28.606m12.205 47.862c3.437-.137 6.674-1.322 8.86-4.103a7.9 7.9 0 0 0 1.406-2.76c-1.333 1.668-3.37 3.368-4.668 4.428-1.507 1.23-2.755 1.515-4.708 1.515-.305 0-.296-.443 0-.467 2.889-.235 8.38-4.268 9.716-7.737.079-2.378-.602-4.86-1.314-7.159q-.017-.051-.036-.102c-1.44-2.34-3.562-4.376-5.397-5.907-4.42-3.69-7.848-7.679-9.901-13.032-2.88-7.51-8.284-13.65-12.924-20.114-5.082-7.08-10.332-13.817-17.431-18.983-.566-.411-1.138-.804-1.709-1.2-14.131-5-29.795-2.563-43.939 1.355-13.707 3.797-27.519 9.221-39.252 17.399a16 16 0 0 1-.321 1.794c-.982 3.949-4.21 7.388-7.676 9.474-4.527 2.725-9.066 4.744-13.954 6.582q-.493.554-.969 1.119-.402.613-.816 1.216c3.64-.485 7.575.205 10.977 1.053 2.426.605 4.899 1.06 7.38 1.475 5.648-2.114 11.458-3.824 17.076-5.431 7.305-2.088 15.453-3.447 23.065-3.628 7.377-.176 14.761 1.216 21.993 2.501 14.762 2.624 29.778 7.299 43.63 12.999 6.097 2.509 11.631 5.223 17.131 8.843 3.081 2.028 6.158 4.183 9.2 6.291 1.759 1.218 3.601 2.335 4.556 4.321.029.06.021.147-.046.18-1.674.811-4.262-.889-5.821-1.324-4.557-1.272-9.018-2.87-13.609-4.059-9.121-2.363-18.378-4.836-27.782-5.727-8.695-.824-17.319-2.269-25.956-3.559-9.902-1.479-19.4-1.374-29.35-1.047-3.649.121-7.208.239-10.795.583.841.294 1.663.668 2.411 1.054 3.183 1.28 6.357 3.634 4.085 6.078-1.695 1.823-5.015.553-7.821-1.22-1.704.713-4.371.349-5.806.152-2.639-.36-5.145-1.077-7.686.293-1.887 1.018-3.342 2.783-5.039 4.138.094.025.184.061.276.093 3.348-.421 6.699-.933 10.049-1.285 17.364-1.828 35.337-.988 52.279 3.547 17.342 4.643 32.989 12.27 47.7 22.404-.064-2.954-.594-6.537 1.338-9.003 3.04-3.883 7.34-2.872 11.598-3.04m-31.262 19.736c2.695 1.524 3.918 1.4 7.009 1.109.905-.085 1.767.063 2.658.034 2.07-.066 3.431-1.245 5.305-1.548.982-.16 3.52.64 4.085-.322.21-.358-.471-1.819-.548-2.321-.202-1.331-.169-2.719-.178-4.069l-.352-.145c-.654-.276-1.261-.678-1.849-1.12a51 51 0 0 0-2.975-1.458q1.273.547 2.546 1.126c-.752-.593-1.482-1.225-2.247-1.719-3.453-2.226-7.018-4.578-10.659-6.487-16.626-8.714-34.27-14.668-53.056-16.59-8.5-.87-16.908-.578-25.408-.242-5.172.206-10.553.674-15.661 1.467-.031.005-.07.014-.103.019 1.227.531 2.091 1.697 1.617 3.377-.35 1.24-1.343 1.846-2.469 2.171-.437.882-.559 1.777.514 2.678a.37.37 0 0 1 .144.33c1.866.359 3.713.751 5.664.524 2.955-.345 5.85-1.209 8.823-1.477 5.975-.539 12.543.895 18.544 1.004 3.812.07 7.293.949 10.605 2.445.653-.6 1.63-.993 2.503-1.243-.033-.622.025-1.247.164-1.642.087-.246.193-.456.313-.645-4.566-.471-9.191-.868-13.489-2.267-.188-.061-.108-.357.081-.296 4.022 1.287 8.217 1.368 12.372 1.91.468.061.935.13 1.403.195.342-.354.762-.63 1.251-.942 1.518-.97 3.226-1.936 4.206.023.271.542.377 1.163.36 1.813 1.696.288 3.39.593 5.073.927 8.86 1.757 17.519 4.221 26.241 6.515 5.755 1.514 11.25 3.271 16.676 5.395-3.055-1.149-6.163-2.129-9.105-3.002-6.27-1.861-12.742-3.947-19.146-5.269-6.599-1.362-13.112-3.088-19.763-4.207-.166 1.853-1.223 3.872-2.201 5.004a8 8 0 0 1-.973.941c1.42.743 2.869 1.484 4.08 2.413 3.195 2.45 5.312 5.132 9.718 5.111 5.061-.025 9.38-4.354 13.963-.797 2.129 1.652 3.841 3.83 5.757 5.71 2.594 2.547 5.398 3.808 8.507 5.567m-47.943 17.483c4.572-1.448 9.074-2.977 13.845-3.859 8.5-1.572 16.484-4.37 24.882-6.21 1.62-.355 4.004 1.59 4.101-1.988a1.1 1.1 0 0 1-.548-.191c-9.029-5.962-21.395-8.885-31.921-10.93-11.576-2.249-23.338-2.45-34.977-4.105-.197-.028-.392-.061-.587-.09q.567.126 1.133.251c5.299 1.191 10.751 2.545 15.875 4.343 4.749 1.667 10.012 3.176 14.262 5.914 3.545 2.284 6.77 4.676 10.524 6.61 1.249.643 3.52 1.81 2.696 3.577-1.482 3.177-8.893-.871-10.752-1.713-9.43-4.277-19.947-6.141-29.842-9.138-2.443-.74-4.851-1.598-7.265-2.444.091.301.143.626.145.978.004.421-.651.422-.654 0a2.94 2.94 0 0 0-.287-1.255c-3.464-1.209-6.944-2.364-10.548-3.074-3.394-.667-6.853-.765-10.263-1.295-.231-.036-1.684-.258-2.458-.426q-.2.13-.405.251c.471.245.881.454 1.18.619 4.171 2.298 8.655 3.896 13.027 5.749 2.593 1.099 5.546 2.452 8.031 4.028 1.099.539 2.355 1.109 3.57 1.768.322.151.639.294.963.45 1.794.862 3.585 1.726 5.395 2.459a8 8 0 0 1 .375-.034c2.824-.191 14.627-2.314 13.377 4.088-.514 2.633-3.329 3.403-5.627 3.532-.884.05-1.85.073-2.776-.058.455.64.915 1.223 1.826 1.7.539.283 1.357.236 1.952.505 2.282 1.029 3.171 2.325 6.206 1.887 1.878-.271 3.762-1.335 5.545-1.899m37.926 61.4c5.948-2.575 11.045-9.838 12.847-15.871.884-2.956.539-7.089-.291-10.017-1.07-3.777-2.957-5.456-6.749-6.509-5.684-1.578-11.796-2.043-17.362-3.966-2.596-.897-5.303-1.591-7.872-2.538-2.389-.88-4.422-2.439-6.678-3.578-5.817-2.935-11.858-4.545-17.097-8.607-6.007-4.656-13.986-8.734-21.204-11.103-6.002-1.968-12.025-4.541-17.685-7.362-2.931-1.461-5.691-3.323-8.431-5.104-.625-.408-3.825-2.168-4.3-3.217q-.434.065-.875.094c.313.328.647.7 1.042 1.123 2.728 2.924 5.281 6.504 8.443 8.952 3.759 2.909 6.885 6.511 10.679 9.355a250 250 0 0 1 9.778 7.741c7.225 5.995 15.171 10.224 23.068 15.151 8.039 5.015 15.562 10.332 24.078 14.559.396.195.118.877-.303.72-8.188-3.045-15.342-8.245-22.709-12.819-7.533-4.676-15.747-7.996-23.013-13.165a190 190 0 0 1-19.716-16.088c-3.152-2.946-6.18-5.108-8.956-8.482-1.12-1.362-2.376-2.757-3.389-4.186-.27-.381-.552-.908-.836-1.453-.153.189-.295.386-.459.566-.041.044-.108-.023-.067-.067.173-.184.321-.388.482-.582a29 29 0 0 0-.713-1.319c-3.548-.048-7.098-.265-10.32-1.876a43.4 43.4 0 0 1-5.916-3.558c-.804-.133-1.487-.491-1.811-1.278-.024-.057-.035-.11-.054-.165a31 31 0 0 1-1.734-1.531c-.359.089-.717.173-1.073.278 1.052 1.081 2.199 2.072 3.632 2.813 7.061 3.647 12.25 9.203 17.057 15.204.326-.234.71-.394 1.163-.452s.924.037 1.391.237c-.452-1.365-.932-2.74-1.634-3.667-.12-.158.147-.311.265-.156.843 1.111 1.344 2.582 1.828 4.054 1.585.914 3.034 2.958 3.468 4.644.57.579 1.034 1.187 1.215 1.522.832 1.535 1.432 3.26 2.181 4.86q.191.404.373.818a72 72 0 0 0 2.713 2.916c5.568 5.677 11.727 11.107 17.832 16.202 6.499 5.425 13.06 10.656 19.908 15.649 6.642 4.843 13.376 9.892 19.535 15.332.734.649 8.299 6.113 7.353 7.499a.64.64 0 0 1-.302.234c1.221.305 2.445.571 3.679.695 6.053.605 12.017-.111 17.539-2.502m-121.638-4.218c1.683 1.526 3.64 2.181 5.011 4.036 1.123 1.521 1.792 2.627 3.449 3.719.986.65 1.999 1.201 2.914 1.951 2.757 2.26 4.558 5.23 8.509 4.951 3.935-.278 7.642-.259 11.514-1.176 5.953-1.409 11.655-3.928 17.498-5.742 5.836-1.813 11.826-2.406 17.913-2.618 6.497-.226 12.892-1.81 19.413-1.331 2.85.21 5.71.511 8.539.925.893.13 1.779.326 2.663.542-2.786-1.359-6.365-3.94-7.096-4.353-15.001-8.475-30.654-16.16-45.303-25.207-6.301-3.892-11.793-8.933-17.435-13.691-6.323-5.331-11.403-11.023-15.543-18.206-4.071-7.064-7.492-14.655-10.84-22.096-.136-.121-.279-.235-.412-.36.025 1.102.033 2.208.052 3.317 1.567 2.993 3.095 5.997 4.533 9.057 1.607 3.423 3.754 6.478 5.289 9.957a98 98 0 0 0 5.559 10.718c4.322 7.244 9.871 13.507 15.408 19.824 5.941 6.775 12.096 13.354 18.869 19.31.88.774 1.739 1.582 2.596 2.391a47 47 0 0 1 2.706 1.356c2.265 1.246 5.541 2.827 6.082 5.585.02.102-.089.214-.19.146-3.169-2.12-6.209-4.471-9.141-6.975l-.017-.007c-15.082-6.57-27.845-17.856-36.272-31.961-4.399-7.362-9.966-13.614-12.693-21.921-1.354-4.122-2.141-8.432-2.839-12.707-.277-1.699-.54-3.408-.645-5.13-.946-1.543-1.993-3.193-2.542-4.775a32 32 0 0 1-1.843-1.324c.084 1.337.093 2.701.218 3.955.319 3.194.104 6.553-.361 9.727-.801 5.455-1.915 11.067-3.155 16.43-1.421 6.142 1.152 12.325.751 18.556-.278 4.307-1.828 8.892-2.258 13.346l.24 1.125a111 111 0 0 1 2.147 5.56c.91 2.586 3.515 6.823 4.268 10.623a35 35 0 0 0 2.444 2.473m.871-74.378c.039 1.236.119 2.47.315 3.692.803 4.989 1.721 10.024 3.513 14.768 1.895 5.015 4.805 9.566 7.865 13.94 2.989 4.273 5.457 9.081 8.872 12.981 3.057 3.493 5.926 7.114 9.269 10.36 3.711 3.603 8.095 6.17 12.214 9.24 2.728 2.033 5.736 3.302 8.745 4.657-5.937-5.172-11.433-10.952-16.65-16.713-8.226-9.085-16.085-18.096-21.907-28.948-1.347-2.51-2.453-5.092-3.646-7.673-1.289-2.788-3.133-5.22-4.44-7.996a220 220 0 0 0-3.782-7.641c-.113-.217-.241-.442-.368-.667m52.951 70.979c1.724 1.62 3.475 3.211 5.439 4.515 3.352 2.226-.332-1.61-1.532-2.395-1.264-.826-2.56-1.497-3.907-2.12m-59.916-1.117a22 22 0 0 1-1.44-1.885c.012.151.034.302.039.455.017.435.003.885-.024 1.341 2.011 1.866 2.838 3.576 2.813 6.18.3-1.894-.443-4.088-1.388-6.091m-.316 3.919c-.252-.746-.721-1.459-1.311-2.112a41 41 0 0 1-.599 3.014c.429 1.317.791 2.651 1.032 4.048 1.05-1.338 1.596-2.835.878-4.95m-2.102 6.288c-.995-2.018-2.16-3.973-3.272-5.95.593 2.269 1.537 4.743 2.034 7.182.222-.236.446-.471.683-.695q.283-.27.555-.537m-7.64 7.279c.522-.101 1.462-.933 2.312-1.762a7 7 0 0 1-.941-1.547q.056.632.064 1.242c.004.327-.357.511-.632.362-2.1-1.131-2.398-3.427-3.075-5.594-.591-1.89-1.046-3.814-1.556-5.725.394 2.587.62 5.21.771 7.801.076 1.314.39 2.529.353 3.671.672 1.092 1.547 1.776 2.704 1.552m-6.452-20.283c.99 3.657.551 7.289 1.468 10.95.266 1.062.622 3.594 1.366 5.76-.078-2.253-.513-4.759-.639-5.775-.362-2.93-.802-5.965-1.431-8.846-.078-.353.401-.729.67-.39 2.888 3.625 1.965 9.351 4.277 13.281.943 1.603.52 1.38.743.194.277-1.474-.604-4.008-.942-5.47-.126-.546-1.648-4.698-1.857-6.885a28 28 0 0 0-.923-2.177c-.205-.423.407-.796.638-.372 1.105 2.02 1.768 4.433 2.342 6.748.22.616.386 1.087.437 1.253.206.67 1.922 9.097 3.368 7.7.501-.484-1.521-6.558-1.789-7.604-.738-2.888-1.795-5.476-2.936-8.196a76 76 0 0 0-4.958-.758q.083.28.166.587m-5.48-4.143c4.051.523 7.628 1.699 11.545 2.677 2.982.744 5.711 1.552 8.106 3.406a29 29 0 0 0-.329-3.314c-.043-.11-.098-.215-.136-.326a21 21 0 0 1-.669-2.393c-1.042-2.45-1.903-5-2.856-7.486a28 28 0 0 0-.948-1.502c-4.58-6.721-8.412-13.125-9.999-21.156-.677-3.428-1.648-6.542-1.328-10.087.237-2.619.936-5.542 1.845-8.243.09-.731.195-1.449.326-2.124.403-2.079 1.468-4.066 2.536-5.867.122-.205.23-.424.345-.637-4.148 3.494-8.186 7.13-11.894 11.093-5.17 5.523-10.134 11.155-15.433 16.532-6.195 6.286-11.247 13.447-17.95 19.259-5.703 4.947-11.098 10.49-17.024 15.198 1.595.717 3.205 1.383 4.822 2.017.576.074 1.16.133 1.757.165 2.534.135 5.059-.21 7.583-.363 2.74-.165 5.434.136 8.166.042 2.722-.095 5.237-1.216 7.748-2.374q.086-.041.172-.08c1.702-.786 3.405-1.58 5.17-2.073 7.394-2.064 16.407-7.02 23.992-2.383.338.207.04.715-.31.531-4.619-2.447-11.009-1.773-15.707-.072a93 93 0 0 1-2.083.719c4.133-1.025 8.307-1.706 12.552-1.159m-31.787 8.776c1.033-.486 2.02-1.027 2.994-1.577-.85.241-1.752.402-2.743.434-4.703.15-9.532.307-14.24.308-.321 0-.653-.007-.984-.015 4.822 1.764 10.121 3.135 14.973.85M3.463 192.902c.4 4.404 2.328 9.528 4.61 13.25 2.471 4.028 5.161 9.369 8.812 12.39 3.577 2.959 7.55 5.453 11.705 7.607-1.965-2.438-3.531-5.227-6.37-6.978-1.322-.816-2.928-1.2-4.19-2.095-1.106-.785-1.785-1.947-2.757-2.873-3.072-2.924-5.627-5.198-7.308-9.255-1.166-2.817-1.567-5.892-1.823-8.912-.342-4.016.485-5.82 2.125-9.324 4.178-8.926 1.716-19.907-.13-29.143q-.097-.47-.223-.994c-1.125 3.381-1.201 6.58-1.438 10.337-.247 3.914-1.292 7.857-1.802 11.755-.315 2.408-.186 4.853-.541 7.247-.348 2.338-.886 4.598-.67 6.988"/><path fill="#79977F" d="M66.19 58.727c.016-.078.039-.157.042-.234-.022.503-.033.498-.043.234M174.057 10.328c-.156.039-.312.068-.468.104.127-.21.27-.318.468-.104M259.868 150.26a137 137 0 0 0-3.994-1.632 71 71 0 0 1 3.994 1.632M179.492 191.014c-7.864-5.429-15.633-11.172-23.19-16.982-.067-.052-.001-.168.068-.115 12.121 9.29 24.616 18.236 37.94 25.769 2.168 1.227 34.412 16.782 35.303 9.622.037-.301.514-.31.481 0-.772 7.116-24.312-3.522-26.381-4.637-8.17-4.401-16.54-8.355-24.221-13.657"/></svg>