<svg width="293" height="253" viewBox="0 0 293 253" fill="none" xmlns="http://www.w3.org/2000/svg">
<path d="M174.003 171.452C173.948 171.452 173.948 171.366 174.003 171.366C174.059 171.366 174.059 171.452 174.003 171.452Z" fill="#79977F"/>
<path d="M0.979649 183.787C1.31011 179.603 1.76506 175.493 2.40165 171.335C2.95211 167.742 2.74521 164.136 3.36026 160.589C3.95847 157.142 5.11093 154.229 6.67151 151.141C6.80538 150.877 6.93077 150.603 7.05622 150.331C7.10583 149.987 7.18266 149.654 7.29874 149.341C7.48784 148.827 7.7696 148.319 8.10849 147.821C10.0332 142.872 11.6958 137.446 17.2856 135.811C24.1561 133.801 30.4378 132.268 36.6015 128.546C42.1482 125.196 48.0966 123.565 54.1208 121.108C57.2485 119.832 57.7185 117.284 58.6968 114.195C60.0009 110.075 62.8524 105.991 62.007 101.554C61.2066 97.3565 59.3549 94.3327 55.9978 91.7442C53.3944 89.7371 50.8002 87.5521 48.3213 85.3867C44.3698 81.936 42.1539 75.6553 44.9492 70.659C46.1962 68.4291 49.0459 66.8507 51.303 65.9033C53.3166 65.058 55.878 65.1975 57.755 64.1415C60.4436 62.6286 59.4214 60.4128 58.6949 58.0658C57.9666 55.7095 58.4225 53.8671 59.5309 52.4002C59.2678 50.3153 59.0328 48.2314 58.9879 46.126C58.8718 40.7047 59.8529 35.1168 62.1381 30.1991C62.96 28.4298 64.2697 26.9338 65.2592 25.2609C66.5633 23.0553 67.5004 20.5988 69.3905 18.8004C71.0372 17.2333 73.2381 16.1483 75.1226 14.9069C77.7982 13.1441 80.1957 11.0939 83.1268 9.78143C87.9836 7.60767 93.0735 6.44684 97.9116 4.20661C103.007 1.84655 108.845 0.398298 114.451 0.0575356C119.705 -0.260759 125.108 0.705352 130.292 1.53947C136.861 2.5964 143.407 2.77427 149.97 3.73103C156.601 4.69808 162.898 4.73085 169.578 4.72898C174.841 4.72711 180.059 5.04914 185.297 5.2242C185.414 5.13808 185.587 5.14931 185.713 5.23637C186.624 5.2654 187.534 5.30097 188.446 5.31688C194.399 5.4208 207.964 7.29406 202.443 16.4347C199.949 20.5641 195.185 22.6424 192.015 26.1465C188.316 30.2356 185.136 34.6833 180.983 38.3905C178.925 40.2273 176.432 41.3965 174.377 43.2595C172.579 44.8893 171.101 46.9049 169.154 48.3681C168.907 48.5535 168.658 48.7201 168.408 48.8764C166.33 51.0184 164.145 53.063 161.926 54.9278C159.751 56.7561 157.932 56.9246 155.593 58.4178C152.937 60.1132 150.724 63.0434 148.441 65.2106C145.929 67.595 143.4 70.0253 141.236 72.7336C140.756 73.3346 140.319 73.9815 139.9 74.6452C138.907 77.2842 137.932 79.9345 136.466 82.4022C132.842 88.506 129.893 95.208 125.785 100.899C127.588 100.212 129.525 99.7446 131.314 99.0584C133.065 98.3862 134.749 97.7103 136.401 97.0073C139.701 91.2995 143.016 85.6058 146.561 80.0412C149.678 75.147 152.548 70.2771 156.608 66.1121C160.764 61.8479 166.193 58.7539 170.817 55.0476C175.478 51.3114 180.159 48.7229 185.971 46.9068C191.004 45.3331 196.928 46.1363 202.036 46.5482C207.953 47.0247 213.75 50.5896 219.334 52.3805C224.464 54.0263 229.047 55.8733 233.624 58.4702C231.058 56.7159 228.513 54.9381 226.106 52.9413C223.548 50.819 219.983 49.5945 216.974 48.2211C213.519 46.6446 209.908 45.3415 206.203 44.4915C202.393 43.618 198.642 43.7369 194.81 43.3072C191.192 42.9009 187.251 42.3261 183.644 43.1724C180.276 43.9625 178.351 45.965 175.628 47.8298C172.125 50.2292 168.085 50.6046 165.223 54.0628C164.881 54.4766 164.184 53.9364 164.479 53.488C165.777 51.5127 167.098 49.8707 169.146 48.6359C170.787 47.6463 172.539 46.9938 174.067 45.818C175.421 44.777 176.376 43.3185 177.746 42.3149C182.116 39.1123 188.441 39.2237 193.55 39.777C200.447 40.524 206.825 40.7609 213.447 43.1734C218.862 45.1458 225.028 47.4553 229.348 51.3058C233.946 55.4043 239.705 58.3476 244.607 62.1587C249.96 66.3209 253.43 71.6083 258.096 76.3827C262.886 81.2835 266.259 87.5286 270.495 92.9228C274.477 97.9949 278.992 102.658 282.643 107.986C288.146 116.015 297.439 131.235 288.165 139.809C284.168 143.503 279.555 143.759 274.4 143.639C271.516 143.572 269.001 144.079 267.956 147.175C267.048 149.862 267.073 154.385 267.501 157.232C267.872 159.712 268.526 162.849 264.901 162.458C262.94 162.246 262.484 161.963 260.62 162.756C259.638 163.173 258.74 163.639 257.693 163.878C255.305 164.424 252.166 164.939 249.678 164.754C247.415 164.587 245.903 163.366 243.909 162.321C243.645 162.183 243.385 162.046 243.127 161.908C244.333 163.676 244.76 165.608 243.604 167.781C241.821 171.136 236.658 170.433 233.621 171.308C227.873 172.961 222.697 175.219 216.759 176.342C213.677 176.925 210.554 177.437 207.532 178.29C204.425 179.168 201.582 180.786 198.483 181.677C196.232 182.325 194.223 183.245 192.206 183.441C196.665 186.336 201.043 189.342 206.027 191.282C209.164 192.504 212.059 193.704 214.978 195.392C218.376 197.357 222.281 198.301 225.985 199.581C232.694 201.898 240.716 201.54 246.921 205.276C251.778 208.201 252.394 215.723 252.029 220.881C251.598 226.962 247.099 233.176 242.687 237.069C238.382 240.869 233.499 243.689 227.619 244.203C219.479 244.915 212.249 242.716 204.215 241.969C195.95 241.2 187.847 242.791 179.598 243.232C170.749 243.705 162.085 246.168 153.901 249.482C147.669 252.005 139.948 253.642 133.235 252.313C129.924 251.657 128.228 249.222 125.915 246.979C123.424 244.564 121.156 243.305 119.194 240.502C117.591 238.212 114.964 236.539 112.822 234.506C112.753 236.343 111.986 237.944 110.04 239.028C109.493 241.135 108.302 242.405 106.681 244.468C106.341 244.9 105.967 245.373 105.567 245.861C105.55 245.993 105.538 246.126 105.515 246.256C105.477 246.475 105.218 246.577 105.02 246.514C102.107 249.926 98.0146 253.524 94.5554 249.178C92.0447 246.023 91.4296 242.374 90.5009 238.562C89.9926 236.477 89.8822 234.974 89.8831 232.852C89.8831 232.268 89.8597 227.786 89.3467 226.537C86.335 226.207 83.1811 225.845 80.2575 226.535C76.7469 227.365 73.3065 228.417 69.8005 229.275C65.4596 230.336 62.1119 232.129 58.2146 234.224C55.0064 235.949 51.9236 237.003 48.2455 236.594C41.4302 235.838 34.9314 232.825 28.7181 229.916C28.7162 230.217 28.7153 230.519 28.7134 230.82C28.7134 230.855 28.66 230.855 28.66 230.82C28.6582 230.509 28.6572 230.198 28.6553 229.887C27.7941 229.483 26.9384 229.082 26.0875 228.689C19.6336 225.706 13.8397 220.984 10.0052 215.1C5.78869 208.63 1.53944 202.324 0.349583 194.492C-0.227092 190.748 0.688503 187.475 0.979649 183.787ZM11.0584 179.378C10.7588 183.016 9.16822 185.998 7.66568 189.21C5.77932 193.242 6.66591 199.436 8.05143 203.535C9.73464 208.512 13.3613 211.738 17.017 215.224C19.5737 217.661 23.1629 218.591 25.7448 221.159C27.1088 222.515 28.0244 224.126 29.1824 225.611C29.8546 222.102 32.5039 218.903 34.189 215.877C37.0274 210.781 38.8342 205.208 41.683 200.12C46.9695 190.679 55.2882 183.963 63.7689 177.55C68.1005 174.274 72.6998 171.423 77.097 168.26C79.6602 166.416 81.9931 164.32 84.3345 162.231C77.7364 165.389 71.276 168.759 64.5581 171.723C56.5539 175.254 48.0554 178.357 40.4856 182.79C32.9158 187.221 26.725 193.772 19.3181 198.412C19.2226 198.472 19.1365 198.322 19.2301 198.262C25.0558 194.563 30.5127 189.705 36.0033 185.518C41.1138 181.62 46.9639 179.026 52.7634 176.312C58.957 173.414 65.3379 170.892 71.4894 167.922C73.9328 166.743 76.0981 165.221 78.6183 164.202C80.9886 163.243 83.4329 162.117 85.8033 160.93C87.2515 159.654 88.7204 158.401 90.2688 157.234C93.2729 154.971 96.2218 152.468 99.3242 150.267C99.1997 150.25 99.0753 150.232 98.9498 150.212C98.888 150.221 98.8271 150.236 98.7654 150.245C97.6972 150.396 96.586 150.484 95.4598 150.531C94.8288 150.802 94.1978 151.07 93.5603 151.318C85.5337 154.444 77.2121 156.772 69.1181 159.677C59.2079 163.234 48.7098 167.302 39.923 173.171C35.0727 176.411 30.6981 180.482 27.2605 185.198C26.0257 186.893 25.0857 188.804 23.7873 190.445C22.662 191.869 20.6886 193.136 20.1934 194.936C20.1709 195.019 20.0417 194.984 20.0642 194.901C20.6971 192.565 23.5102 190.619 24.8143 188.637C27.1528 185.08 29.4801 181.744 32.5666 178.765C39.0683 172.491 46.6783 168.486 54.9044 164.967C63.6584 161.223 72.6577 158.429 81.4876 154.991C85.5561 153.407 89.6959 152.087 93.7785 150.569C91.4147 150.576 89.0218 150.411 86.7985 150.149C81.1628 149.487 75.7152 148.084 70.3295 146.429C64.2098 146.077 58.0873 145.677 51.9498 145.24C47.0247 144.889 42.1174 143.905 37.3429 142.516C34.7329 142.504 32.121 142.422 29.5026 142.149C27.9401 141.985 21.4207 141.915 18.9399 140.096C17.633 140.586 16.298 141.391 14.9527 141.576C14.7131 141.781 14.4865 141.991 14.2694 142.202C13.8883 142.719 13.5429 143.304 13.2452 143.985C11.7502 147.406 10.4817 150.819 8.85743 154.203C8.70951 154.511 8.59345 154.811 8.46613 155.115C9.19353 158.887 10.0829 162.662 10.5163 166.469C10.9956 170.675 11.4075 175.13 11.0584 179.378ZM33.0207 228.297C37.6612 224.447 41.8646 219.953 46.3441 215.94C51.5173 211.306 56.4987 206.808 60.908 201.416C65.1656 196.21 70.1067 191.738 74.619 186.791C79.297 181.661 83.9094 176.613 88.8308 171.723C91.1038 169.464 93.4798 167.37 95.8998 165.328C96.5326 164.049 97.1112 162.725 97.7983 161.59C98.6325 160.212 99.5649 159.675 100.673 159.289C102.248 156.876 103.784 154.44 105.084 151.863C105.52 150.999 105.639 150.028 106.005 149.264C103.662 151.174 101.204 152.964 98.5669 154.382C95.2454 156.167 92.1524 158.401 88.7981 160.106C84.5975 163.753 80.66 167.682 76.114 170.946C69.9054 175.405 63.4365 179.748 57.6623 184.775C51.1813 190.417 45.7365 196.874 41.5107 204.357C39.526 207.871 37.8606 211.566 35.7496 215.008C33.8042 218.177 30.361 222.069 29.4267 225.918C29.5812 226.109 29.7385 226.297 29.9042 226.48C30.1345 226.735 30.3779 226.957 30.6204 227.181C31.4142 227.567 32.2165 227.935 33.0207 228.297ZM91.9988 188.036C92.5633 191.443 93.3291 194.977 94.3064 198.295C95.4607 202.211 97.6513 205.666 99.8326 209.104C96.5673 201.299 93.6165 193.72 92.2797 185.147C92.1458 184.287 92.0522 183.369 91.9894 182.426C91.7432 184.253 91.6777 186.096 91.9988 188.036ZM102.976 244.209C103.1 244.088 103.221 243.963 103.34 243.839C102.708 242.286 102.33 240.58 101.813 239.039C101.797 238.988 101.776 238.939 101.759 238.888C102.19 240.619 102.766 242.416 102.976 244.209ZM103.64 241.938C103.96 242.372 104.147 242.695 104.257 242.843C104.306 242.788 104.356 242.734 104.405 242.679C104.409 242.494 104.401 242.204 104.399 241.787C104.394 240.69 103.314 238.586 103.052 237.483C102.591 235.541 102.147 233.572 101.724 231.608C101.183 230.524 100.69 229.422 100.274 228.287C99.6145 228.118 98.9339 227.965 98.2449 227.821C98.4742 228.296 98.6933 228.775 98.902 229.257C99.7961 230.464 100.335 232.16 100.729 233.898C101.572 236.158 102.222 240.012 103.64 241.938ZM102.797 232.17C102.863 232.332 102.922 232.503 102.995 232.655C104.102 234.928 105.304 237.225 106.529 239.439C106.669 239.693 106.793 239.908 106.905 240.096C107.124 239.871 107.332 239.644 107.528 239.414C107.362 238.656 107.137 237.754 106.97 236.99C106.868 236.522 106.743 236.066 106.61 235.611C106.474 236.182 106.335 236.742 106.204 237.277C106.153 237.486 105.832 237.398 105.882 237.188C106.075 236.381 106.223 235.566 106.343 234.748C105.797 233.099 105.117 231.506 104.552 229.861C103.948 229.515 103.344 229.236 102.787 229.041C102.521 228.947 102.241 228.861 101.964 228.774C102.364 229.84 102.605 231.087 102.797 232.17ZM106.431 234.156C106.548 233.228 106.619 232.296 106.644 231.364C106.13 230.901 105.564 230.481 104.986 230.12C105.474 231.504 105.973 232.833 106.431 234.156ZM106.438 184.105C108.102 174.694 111.035 165.223 109.988 155.592C109.964 155.368 109.95 154.646 109.938 153.932C109.812 155.092 109.454 156.305 109.267 157.294C108.418 161.816 107.911 166.373 106.942 170.875C104.731 181.152 103.242 191.387 103.997 201.916C104.111 203.513 104.206 205.176 104.323 206.855C104.664 208.873 105.05 210.883 105.498 212.886C105.823 210.856 106.262 208.801 106.695 206.688C107.648 202.036 107.664 197.495 106.792 192.849C106.267 190.042 105.938 186.935 106.438 184.105ZM214.059 240.066C215.536 239.523 210.579 235.576 210.381 235.389C205.597 230.87 200.266 226.894 195.088 222.836C189.441 218.41 183.057 214.726 177.797 209.844C172.674 205.089 167.135 200.772 161.886 196.127C157.406 192.161 152.814 188.287 148.79 183.85C149.09 184.717 149.251 185.615 149.029 186.535C148.974 186.763 148.747 187.028 148.503 187.061C147.365 187.219 146.478 186.688 145.763 185.907C144.908 185.54 144.101 184.905 143.505 184.425C141.724 182.986 139.176 181.361 137.834 179.535C136.763 178.077 136.209 174.35 137.287 172.205C135.382 169.79 133.384 167.474 130.832 165.626C129.041 164.329 127.367 162.724 125.492 161.575C123.729 160.496 121.697 159.852 119.84 158.949C118.951 158.517 118.158 157.99 117.408 157.417C117.829 158.582 118.266 159.746 118.78 160.862C124.473 173.215 130.037 185.674 140.505 194.76C145.667 199.241 150.902 203.858 156.483 207.809C161.609 211.438 167.359 214.457 172.92 217.359C184.819 223.57 196.604 230.121 208.191 236.899C209.083 237.42 213.071 240.429 214.059 240.066ZM144.531 177.744C144.516 177.773 144.5 177.801 144.482 177.83C144.616 178.032 144.752 178.231 144.889 178.431C144.795 178.236 144.674 178.001 144.531 177.744ZM144.208 183.265C144.286 183.069 144.547 182.961 144.748 183.141C145.031 183.395 145.516 183.997 146.016 184.492C146.884 184.976 147.543 185.111 147.305 184.193C147.209 183.82 146.234 183.317 145.983 183.06C144.618 181.667 143.567 179.917 142.267 178.429C141.627 178.145 141.294 177.878 140.88 177.161C140.77 176.973 140.732 176.782 140.724 176.597C140.331 176.112 139.944 175.622 139.562 175.131C139.566 175.265 139.564 175.409 139.546 175.573C139.184 178.912 140.908 180.141 142.982 182.263C143.05 182.332 143.559 182.768 144.208 183.265ZM144.276 178.109C144.163 178.24 144.037 178.36 143.896 178.452C144.549 179.297 145.215 180.134 145.88 180.97C145.682 180.533 145.504 180.104 145.342 179.651C144.973 179.144 144.619 178.63 144.276 178.109ZM120.423 152.933C120.571 152.681 120.782 152.46 121.025 152.264C120.591 152.347 120.159 152.438 119.726 152.53C119.955 152.674 120.189 152.802 120.423 152.933ZM235.692 156.708C234.535 155.623 232.823 154.42 232.231 152.853C231.132 151.801 229.928 150.934 228.483 150.548C226.11 149.915 223.853 150.671 221.53 151.138C222.097 151.346 222.662 151.561 223.224 151.786C226.724 153.184 230.403 154.345 233.841 155.849C234.704 156.226 235.514 156.71 236.282 157.263C236.085 157.078 235.889 156.892 235.692 156.708ZM206.38 135.923C205.384 135.778 204.38 135.65 203.369 135.538C203.248 136.562 203.682 138.138 203.853 139.135C205.273 138.13 206.491 136.901 206.38 135.923ZM206.241 135.518C206.089 135.255 205.813 135.017 205.373 134.822C204.233 134.315 203.689 134.53 203.469 135.091C204.394 135.226 205.318 135.369 206.241 135.518ZM153.939 135.995C153.756 135.446 153.685 134.878 153.647 134.279C153.638 134.142 153.66 133.869 153.693 133.556C153.196 133.65 152.694 133.707 152.227 133.75C151.961 133.774 151.686 133.812 151.405 133.856C151.623 134.589 150.896 135.261 150.199 135.196C150.694 135.388 151.189 135.527 151.399 135.605C151.684 135.711 152.006 135.88 152.292 135.967C152.636 135.996 152.976 136.039 153.314 136.088C153.529 136.07 153.726 136.033 153.939 135.995ZM162.634 121.804C163.107 121.76 163.597 121.743 164.138 121.782C165.253 121.864 169.998 122.937 171.809 122.067C171.081 121.533 170.428 120.995 169.898 120.515C168.203 120.437 166.19 120.473 165.438 120.507C164.49 120.9 163.555 121.334 162.634 121.804ZM182.438 112.114C180.768 115.777 173.521 112.276 171.978 110.326C171.924 110.259 171.89 110.19 171.85 110.123C171.073 109.993 170.278 109.927 169.45 109.99C167.082 110.171 165.2 110.813 162.782 110.407C157.993 109.604 153.074 109.02 148.294 108.037C146.657 108.673 145.038 109.349 143.445 110.077C145.879 111.972 147.789 114.704 148.688 117.452C148.994 118.388 149.482 119.874 149.558 121.166C151.618 120.287 153.726 119.504 155.934 118.886C159.752 117.818 164.818 116.558 169.143 117.239C170.325 116.42 171.866 116.42 173.426 116.801C174.545 116.698 175.653 116.602 176.741 116.507C185.803 115.715 195.062 115.558 204.133 116.097C212.671 116.603 221.131 118.179 229.577 119.471C238.63 120.856 247.68 121.475 256.627 123.554C265.481 125.612 274.045 128.62 282.825 130.832C283.747 131.064 285.476 132.019 286.129 131.2C287.2 129.857 283.901 128.418 282.525 127.495C278.882 125.047 275.189 122.654 271.523 120.259C264.998 115.995 257.506 113.455 250.167 110.737C240.602 107.195 230.92 104.094 220.989 101.691C210.8 99.225 199.603 96.9595 189.095 97.7272C178.211 98.5229 168.416 101.481 158.096 104.671C156.286 105.23 154.474 105.813 152.673 106.433C154.131 106.669 155.587 106.901 157.037 107.139C158.96 107.457 160.918 107.725 162.845 108.017C165.5 108.42 167.796 107.649 170.404 107.445C171.269 107.377 172.053 107.43 172.843 107.567C173.738 106.871 174.91 106.784 176.267 107.018C177.718 107.268 180.635 107.73 181.495 109.183C181.612 109.38 181.699 109.563 181.771 109.739C182.521 110.263 182.93 111.037 182.438 112.114ZM126.358 107.681C125.95 107.995 125.463 107.328 125.816 106.978C126.096 106.702 126.386 106.449 126.683 106.211C125.47 106.158 124.093 106.238 122.931 106.573C122.723 106.726 122.512 106.877 122.305 107.031C124.438 107.51 126.963 108.669 128.362 109.312C128.384 109.322 128.404 109.335 128.426 109.345C128.569 108.971 128.721 108.603 128.891 108.244C128.496 107.975 128.092 107.72 127.665 107.492C127.471 107.388 127.368 107.218 127.315 107.033C126.992 107.232 126.671 107.441 126.358 107.681ZM101.037 118.209C101.018 118.291 100.997 118.373 100.978 118.455C100.996 118.402 101.017 118.351 101.037 118.3C101.037 118.269 101.037 118.239 101.037 118.209ZM98.0932 126.558C98.1793 126.633 98.2598 126.685 98.3319 126.704C98.4124 126.489 98.5229 126.298 98.6483 126.118C98.6483 126.112 98.6493 126.109 98.6493 126.103C98.6503 126.043 98.6877 126.013 98.7307 125.997C98.8244 125.878 98.9273 125.767 99.0397 125.663C99.2438 125.141 99.4581 124.62 99.68 124.102C99.6379 123.99 99.5873 123.881 99.5564 123.767C99.4797 123.488 99.651 123.19 99.929 123.111C100.013 123.087 100.075 123.051 100.149 123.021C100.47 122.294 100.796 121.569 101.116 120.848C101.109 120.699 101.1 120.55 101.092 120.401C100.893 119.967 100.794 119.514 100.843 119.045C100.845 119.015 100.855 118.987 100.86 118.957C100.22 121.546 99.2999 124.236 98.0932 126.558ZM76.2376 49.7321C75.7546 50.3677 74.5815 50.4043 74.2445 49.7059C72.3984 49.9792 70.556 50.4267 68.665 51.0951C67.5004 51.5061 65.4952 51.962 64.3774 52.5275C63.7811 52.8299 63.3429 53.1912 63.0171 53.5919C63.0218 55.6149 62.7438 57.5518 62.7747 59.5702C62.9216 60.2948 62.9928 61.0344 62.9591 61.7608C63.1641 63.2577 63.4431 64.6938 63.7923 66.1037C63.9599 64.383 63.9337 62.7354 64.2754 60.9978C64.6021 60.2489 64.721 59.4429 64.6311 58.5807C65.1254 57.3908 65.1085 56.2459 64.5824 55.1459C64.632 54.7284 64.4504 54.25 64.5955 53.8362C65.2892 51.8506 67.6643 51.9555 69.4018 52.0753C69.6873 52.095 69.9607 52.1127 70.2284 52.1287C70.2284 51.815 70.2546 51.5127 70.3585 51.2487C70.4877 50.922 70.4568 51.038 70.8565 50.5765C71.0447 50.3584 71.3199 50.6018 71.2881 50.8274C71.2235 51.2768 71.1608 51.7242 71.099 52.1717C73.9758 52.2841 75.924 51.9471 78.4797 49.5973C78.5546 49.529 78.6286 49.4569 78.7025 49.3857C77.933 49.3848 77.171 49.4166 76.4136 49.4709C76.3528 49.557 76.3013 49.6478 76.2376 49.7321ZM66.2534 110.347C66.2806 116.038 63.0948 121.471 58.6855 124.973C58.268 125.305 57.8355 125.609 57.3974 125.901C60.2705 125.445 68.1324 129.583 68.7118 129.828C73.0041 131.643 77.4902 133.065 81.6477 135.174C84.6331 136.687 87.5783 138.079 90.6264 139.267C90.4092 139.114 90.1827 138.97 89.9702 138.812C84.841 135.01 81.6936 128.956 77.947 123.928C73.7858 118.341 69.6564 112.712 66.1879 106.651C66.1851 106.646 66.1832 106.642 66.1804 106.638C66.3049 108.197 66.2506 109.738 66.2534 110.347ZM28.5496 136.176C27.3101 136.612 26.065 137.027 24.8189 137.402C24.6907 137.44 24.5634 137.475 24.4352 137.511C25.6091 137.612 26.7559 137.872 27.883 138.242C30.3545 138.297 32.8381 138.584 35.2881 138.64C43.662 138.831 52.5293 139.898 60.556 142.357C63.6912 143.317 66.803 144.314 69.9288 145.237C79.4786 145.616 88.9937 145.606 98.5519 145.569C95.3072 144.797 92.1336 143.608 88.9413 142.71C84.2315 141.384 79.6115 139.756 75.0993 137.865C70.2827 135.847 65.5635 133.578 61.2871 130.56C60.5204 130.019 56.3161 128.109 56.3526 126.95C56.3582 126.772 56.4004 126.625 56.4621 126.494C54.3389 127.757 52.0266 128.678 49.7162 129.576C46.991 130.636 43.5993 131.505 41.4929 133.646C40.5025 134.652 39.9099 136.218 38.6198 136.926C36.0257 138.35 32.7145 136.24 30.0156 136.147C29.5419 136.13 29.0495 136.146 28.5496 136.176ZM19.9463 139.604C21.2354 139.12 22.429 138.675 23.2837 138.527C24.0186 138.4 24.7591 138.332 25.5005 138.289C24.7225 138.064 23.9128 137.949 22.9139 138.051C23.0683 138.035 22.6443 138.077 22.1125 138.121C21.3935 138.299 20.6877 138.478 20.0006 138.677C19.7375 139.037 19.7459 139.343 19.9463 139.604ZM60.409 143.463C61.2534 143.641 62.0941 143.834 62.9329 144.031C62.2935 143.817 61.655 143.604 61.0156 143.39C52.0023 140.38 42.4197 139.619 32.9926 139.194C31.9759 139.148 30.9845 139.09 30.0053 139.039C32.0162 139.868 34.0045 140.841 36.0529 141.492C36.7419 141.711 37.4347 141.906 38.1284 142.089C45.584 142.239 53.0564 141.911 60.409 143.463ZM39.834 142.507C46.1072 143.923 52.5546 144.13 58.9552 144.621C61.3321 144.804 63.7043 144.947 66.0737 145.069C65.9689 145.034 65.864 145 65.7591 144.966C61.1045 143.765 56.3891 142.786 51.6259 142.552C47.6865 142.359 43.7612 142.473 39.834 142.507ZM27.7192 139.134C27.5628 139.069 27.4121 139.006 27.2624 138.944C24.8826 138.91 22.532 139.075 20.0848 139.752C21.1071 140.671 24.5409 140.957 25.4097 141.072C28.0225 141.417 30.625 141.732 33.2566 141.899C34.071 141.95 34.8864 141.987 35.7018 142.018C32.9851 141.169 30.3142 140.202 27.7192 139.134ZM18.2284 139.337C17.3119 139.847 16.4497 140.401 15.6755 140.994C16.6659 140.779 17.7622 140.41 18.8406 140.014C18.5823 139.81 18.3763 139.585 18.2284 139.337ZM99.5452 150.11C99.548 150.108 99.5517 150.105 99.5546 150.104C99.5471 150.104 99.5396 150.107 99.5311 150.108C99.5358 150.108 99.5405 150.109 99.5452 150.11ZM123.316 153.413C122.447 154.03 123.883 153.834 125.113 153.631C124.924 153.388 124.772 153.134 124.696 152.86C124.176 152.994 123.676 153.158 123.316 153.413ZM127.257 153.34C127.665 153.293 128.063 153.238 128.446 153.169C130.758 151.277 133.591 150.346 136.326 149.198C136.785 148.785 137.235 148.344 137.682 147.882C136.479 148.56 135.235 149.153 133.954 149.69C131.442 150.742 128.845 151.629 126.255 152.463C126.206 152.479 126.152 152.493 126.1 152.508C126.486 152.825 126.871 153.099 127.257 153.34ZM142.156 155.413C142.243 155.119 142.346 154.832 142.467 154.551C142.827 154.291 142.93 154.16 142.95 154.08C141.039 154.721 139.006 154.931 137.052 154.564C136.845 154.525 136.685 154.433 136.556 154.318C135.288 154.994 133.914 155.385 132.389 155.364C132.892 155.52 133.409 155.686 133.945 155.878C134.893 156.217 135.713 156.527 136.509 156.785C136.965 156.836 137.413 156.872 137.841 156.874C139.473 157.423 140.912 156.937 142.156 155.413ZM145.951 149.91C146.983 149.122 148.185 148.137 148.863 147.012C148.231 147.1 147.607 147.211 146.988 147.336C145.583 148.609 143.925 149.749 142.358 150.856C142.478 150.937 142.599 151.015 142.722 151.094C142.787 151.01 142.889 150.958 143.007 150.999C143.275 151.093 143.547 151.166 143.816 151.25C144.565 150.872 145.282 150.419 145.951 149.91ZM148.985 125.085C146.849 126.046 144.748 127.09 142.635 128.159C140.281 129.35 138.287 130.841 135.927 131.853C136.194 131.965 136.462 132.078 136.723 132.198C138.1 131.806 139.369 130.995 140.777 130.407C143.16 129.412 145.679 129.015 148.155 128.442C146.781 127.59 147.623 126.287 148.985 125.085ZM144.731 115.863C144.602 115.887 144.473 115.911 144.344 115.936C143.437 116.107 142.915 115.133 143.191 114.511C142.918 114.111 142.51 113.652 142.09 113.321C142.926 115.988 144.735 120.531 146.113 120.812C149.289 121.459 146.322 115.62 145.701 114.591C145.515 114.284 145.299 113.975 145.071 113.667C145.246 114 145.369 114.335 145.416 114.655C145.489 115.145 145.302 115.755 144.731 115.863ZM142.062 110.722C141.918 110.791 141.775 110.865 141.631 110.936C142.192 111.055 142.763 111.325 143.288 111.693C142.895 111.334 142.481 111.016 142.062 110.722ZM128.041 112.768C127.964 113.085 127.523 112.941 127.565 112.636C127.613 112.294 127.685 111.967 127.754 111.638C126.199 110.767 123.989 109.704 122.224 109.282C123.283 110.078 124.242 111.052 125.35 111.962C127.403 113.649 129.613 115.035 131.786 116.478C132.119 116.225 132.448 115.967 132.787 115.722C131.807 114.635 130.658 113.669 129.535 112.755C129.321 112.581 128.873 112.288 128.287 111.944C128.203 112.217 128.109 112.485 128.041 112.768ZM113.884 113.379C115.991 114.629 117.798 115.96 119.762 117.448C123.188 120.046 127.142 123.051 131.558 123.712C130.489 121.843 127.711 119.844 126.626 118.783C124.864 117.064 123.063 115.406 120.822 114.323C118.443 113.174 116.336 113.003 114.17 113.193C114.075 113.255 113.98 113.318 113.884 113.379ZM119.74 125.865C118.589 126.623 116.955 126.728 115.292 126.571C115.904 126.659 116.503 126.763 117.134 126.95C118.536 127.366 119.746 127.843 120.431 129.06C121.619 128.894 122.96 128.9 124.285 129.027C124.244 128.999 124.197 128.967 124.158 128.94C123.222 128.307 120.959 127.136 119.74 125.865ZM104.264 119.942C104.243 119.963 104.222 119.983 104.201 120.004C104.211 120.395 104.234 120.882 104.235 121.402C104.446 121.576 104.738 121.716 105.131 121.815C106.029 122.315 106.969 122.702 107.952 122.975C109.425 123.456 110.878 123.696 112.423 123.744C113.193 123.767 115.547 124.161 117.117 124.129C115.421 123.353 113.224 123.127 111.658 122.681C109.599 122.093 107.55 121.325 105.547 120.57C105.359 120.5 104.788 120.167 104.264 119.942ZM96.4943 131.181C96.3342 131.008 96.1807 130.825 96.0262 130.644C95.7444 131.564 95.6723 132.47 95.896 133.412C95.9466 133.49 95.9915 133.575 96.043 133.652C96.7349 134.703 97.5811 135.238 97.7356 136.571C97.7412 136.621 97.7384 136.667 97.7356 136.714C97.9135 136.954 98.0923 137.196 98.2701 137.436C97.5259 135.534 97.3312 133.673 97.4744 131.842C97.2769 131.86 97.0672 131.794 96.8828 131.6L96.5158 131.215C96.5045 131.203 96.5027 131.191 96.4943 131.181ZM69.2829 56.5024C69.5647 55.4848 70.0393 54.69 70.2218 53.6415C70.249 53.4852 70.2565 53.3166 70.2565 53.1435C68.254 52.9207 66.5596 52.9188 65.8949 55.6982C66.1467 54.9325 66.1608 57.9544 66.1889 58.7267C66.0934 59.1714 65.8266 59.6404 65.7095 60.0542C65.0626 62.3356 64.5862 63.8878 64.6086 66.245C64.6171 67.0689 64.7369 68.0106 64.5777 68.8139C64.573 68.8391 64.5646 68.8644 64.559 68.8906C64.7977 69.677 65.0505 70.4681 65.3192 71.275C67.4096 77.5482 69.3465 83.7952 71.9088 89.9093C72.1878 90.5759 72.478 91.2358 72.7719 91.894C72.287 89.928 71.833 87.9499 71.4473 85.9456C70.6768 81.9426 70.2368 77.9199 69.8773 73.8879C69.5853 71.7543 69.4008 69.6059 69.3334 67.4471C69.2632 66.6167 69.1921 65.7863 69.1153 64.955C68.8663 62.2167 68.5377 59.1901 69.2829 56.5024ZM65.8378 75.352C65.4474 73.9403 64.9887 72.5473 64.5384 71.1543C65.2789 74.1444 66.2151 77.0764 67.1718 80.0113C69.4149 86.8911 72.0811 93.6118 74.3952 100.472C75.6076 104.067 76.6748 107.819 78.0603 111.341C78.7493 113.092 79.8259 114.327 81.0429 115.432C78.5003 109.82 76.3041 104.108 74.5225 98.2439C74.4392 98.068 74.3522 97.8957 74.2698 97.7197C70.908 90.5478 67.9489 82.977 65.8378 75.352ZM78.0519 107.166C79.3082 110.232 80.6114 113.248 81.9716 116.237C82.8451 116.965 83.7559 117.68 84.6275 118.495C81.804 112.306 78.5106 106.407 75.5083 100.288C76.2853 102.626 77.1335 104.924 78.0519 107.166ZM57.6623 127.816C57.9881 128.298 60.3865 129.5 60.8555 129.831C62.4835 130.98 64.1283 132.066 65.8659 133.043C69.7678 135.24 73.9309 137.025 78.094 138.657C81.9229 140.158 85.823 141.437 89.7782 142.559C93.2439 143.543 96.6646 144.882 100.21 145.562C100.285 145.562 100.361 145.561 100.435 145.561C99.6922 145.077 98.9648 144.566 98.2308 144.092C96.3061 142.848 94.2868 141.688 92.348 140.439C86.8041 138.395 81.804 135.414 76.218 133.255C72.9639 131.996 69.6779 130.765 66.5024 129.313C64.6956 128.488 63.0162 127.884 61.1336 127.291C60.5672 127.114 55.7198 124.943 57.6623 127.816ZM101.914 149.721C101.662 149.891 101.414 150.071 101.165 150.249C101.526 150.24 101.887 150.207 102.251 150.123C102.482 150.069 103.501 149.717 104.187 149.383C104.409 149.171 104.636 148.957 104.864 148.745C104.864 148.741 104.866 148.737 104.867 148.733C104.009 148.977 103.151 149.231 102.289 149.466C102.149 149.56 102.02 149.648 101.914 149.721ZM105.707 137.059C107.641 138.437 110.994 139.225 113.305 139.813C115.559 140.387 119.048 141.762 121.333 141.537C121.349 141.535 121.361 141.533 121.377 141.531C121.211 141.515 121.05 141.508 120.878 141.483C120.268 141.397 120.006 140.548 120.306 140.076C120.366 139.984 120.444 139.912 120.509 139.824C119.463 139.35 118.34 138.959 118.239 138.931C117.776 138.802 116.475 138.673 116.013 138.56C112.813 137.772 110.102 136.57 106.715 136.509C105.797 136.492 104.541 136.391 103.458 136.476C104.101 137.74 104.954 138.888 105.847 140.056C107.335 140.795 108.905 141.374 109.99 141.767C110.544 141.968 111.104 142.137 111.667 142.289C113.394 141.991 115.217 141.96 117.054 142.038C116.105 141.661 115.168 141.291 114.249 141.009C111.374 140.126 107.893 139.187 105.525 137.369C105.345 137.233 105.515 136.922 105.707 137.059ZM125.337 142.57C125.709 142.577 126.078 142.579 126.438 142.57C126.581 142.566 126.699 142.596 126.81 142.631C127.863 140.523 131.864 139.294 134.053 138.59C133.429 138.568 132.479 138.73 131.721 138.76C130.747 139.391 129.578 139.75 128.382 140.191C127.294 140.592 126.289 140.951 125.277 141.208C125.408 141.622 125.438 142.074 125.337 142.57ZM128.957 128.685C128.874 128.723 128.791 128.76 128.706 128.795C128.886 128.898 129.069 129.002 129.248 129.104C130.671 129.929 129.842 129.325 128.957 128.685ZM122.629 131.548C122.437 131.493 122.261 131.254 122.345 131.049C122.347 131.045 122.351 131.04 122.353 131.036C120.172 131.116 117.152 131.748 121.156 132.417C123.01 132.726 125.391 133.192 127.572 133.065C127.809 132.983 128.012 132.899 128.161 132.813C126.327 132.363 124.461 132.074 122.629 131.548ZM95.2754 136.116C94.8419 136.384 94.9833 136.133 94.1183 135.576C93.4199 135.127 92.9762 134.168 92.5034 133.519C92.2254 133.138 91.9501 132.76 91.6786 132.381C92.0222 133.041 92.3929 133.689 92.8067 134.317C93.0052 134.618 93.2739 134.938 93.5547 135.268C94.1052 135.689 94.665 136.095 95.2361 136.484C95.2595 136.392 95.2969 136.304 95.3428 136.219C95.3212 136.185 95.2979 136.151 95.2754 136.116ZM116.06 134.317C114.664 133.815 113.231 133.367 111.785 132.978C113.486 133.688 115.162 134.438 116.921 134.929C119.314 135.599 118.925 135.347 116.06 134.317ZM108.501 133.161C107.397 132.772 104.768 132.255 102.436 131.399C102.39 131.404 102.347 131.408 102.302 131.413C102.301 131.871 102.317 132.335 102.363 132.808C102.386 133.045 102.437 133.262 102.475 133.489C103.849 134.039 107.227 134.874 108.964 135.407C111.066 135.64 113.085 136.035 115.404 136.627C115.649 136.69 115.953 136.758 116.299 136.833C113.457 135.85 110.465 133.851 108.501 133.161ZM104.077 123.207C103.977 123.66 103.818 124.061 103.565 124.347C104.805 124.322 106.014 124.443 106.888 124.58C105.94 124.203 104.968 123.736 104.077 123.207ZM103.065 125.779C103.063 125.79 103.061 125.799 103.059 125.809C103.756 126.353 104.418 126.664 105.328 126.898C106.858 127.29 108.451 127.764 110.067 128.157C108.19 127.38 104.934 125.852 103.065 125.779ZM105.245 128.43C104.466 128.239 103.588 127.855 102.751 127.353C102.628 127.996 102.522 128.642 102.443 129.295C106.25 128.853 110.815 130.389 114.158 131.456C114.788 131.657 115.638 131.87 116.535 132.138C116.54 131.81 116.586 131.505 116.688 131.234C112.815 130.85 108.952 129.344 105.245 128.43ZM124.579 134.779C123.3 134.7 122.011 134.523 120.784 134.31C121.224 134.793 121.517 135.357 121.561 136.038C121.584 136.398 121.339 136.836 121.011 136.995C120.313 137.334 119.528 137.432 118.698 137.369C119.81 137.642 121.005 137.988 122.075 138.443C123.667 137.508 125.72 137.182 127.467 136.857C127.617 136.829 127.78 136.799 127.95 136.766C125.768 136.478 123.853 135.916 124.579 134.779ZM124.339 139.812C124.349 139.821 124.357 139.829 124.367 139.838C125.539 139.713 126.827 139.423 128.033 138.998C126.772 139.148 125.491 139.4 124.339 139.812ZM93.5688 137.455C91.82 136.143 90.09 134.717 88.4189 133.205C89.9748 134.847 91.6964 136.341 93.6848 137.619C93.6455 137.565 93.6081 137.509 93.5688 137.455ZM86.6159 123.101C86.307 122.328 85.9812 121.566 85.6535 120.804C84.7351 119.793 83.7606 118.815 82.7317 117.87C83.7531 120.069 84.7979 122.258 85.8969 124.441C87.2038 127.038 88.7035 129.422 90.2735 131.85C88.9113 129.024 87.7964 126.057 86.6159 123.101ZM123.172 125.21C124.206 126.094 125.363 126.84 126.544 127.542C126.752 127.41 126.949 127.288 127.125 127.189C126.639 126.727 126.052 126.163 125.457 125.639C125.518 125.841 125.228 125.921 125.115 125.769C125.013 125.588 124.899 125.423 124.777 125.268C124.552 125.203 124.358 125.146 124.223 125.104C122.371 124.519 121.767 124.009 123.172 125.21ZM130.63 126.818C130.62 126.88 130.59 126.929 130.575 126.988C131.491 127.683 132.345 128.441 133.02 129.363C133.05 129.404 133.064 129.456 133.085 129.501C133.479 129.375 133.897 129.221 134.386 128.998C134.751 128.831 135.099 128.641 135.449 128.455C134.844 127.992 134.341 127.107 134.164 126.27C133.947 126.451 133.672 126.565 133.343 126.56C132.423 126.548 131.52 126.419 130.634 126.207C130.666 126.406 130.667 126.609 130.63 126.818ZM136.428 127.469C136.356 127.401 136.284 127.331 136.211 127.262C135.833 127.014 136.172 126.419 136.568 126.651C136.821 126.811 137.084 126.952 137.357 127.076C137.441 127.118 137.492 127.186 137.529 127.263C138.438 126.71 139.344 126.151 140.304 125.658C140.557 125.527 140.808 125.398 141.061 125.268C139.912 125.035 138.832 124.258 137.618 124.346C136.601 124.42 135.309 124.888 135.402 126.075C135.459 126.787 135.835 127.788 136.428 127.469ZM126.451 114.902C124.549 112.781 122.612 110.383 120.239 109.183C119.823 109.3 119.518 109.536 119.408 109.964C119.355 110.167 119.177 110.356 118.969 110.403C118.434 110.524 117.946 110.723 117.478 110.954C118.752 111.067 120.014 111.365 121.194 111.808C123.17 112.551 124.868 113.637 126.451 114.902ZM139.252 112.158C139.43 112.322 139.61 112.491 139.789 112.665C139.757 112.502 139.725 112.339 139.704 112.194C139.69 112.1 139.696 112.01 139.7 111.92C139.551 111.999 139.401 112.078 139.252 112.158ZM137.725 113.009C137.394 113.199 137.064 113.391 136.737 113.587C136.876 113.734 137.016 113.885 137.155 114.028C138.405 115.308 139.556 116.665 140.646 118.084C142.96 121.095 141.44 118.268 140.551 116.655C139.737 115.182 138.793 114.042 137.725 113.009ZM133.678 116.814C133.478 116.538 133.254 116.281 133.032 116.021C132.722 116.243 132.412 116.464 132.108 116.694C132.69 117.083 133.27 117.477 133.843 117.885C135.599 119.137 134.535 117.999 133.678 116.814ZM134.666 114.257C133.143 112.236 131.564 110.278 129.632 108.778C129.464 109.086 129.308 109.398 129.156 109.715C131.214 110.839 133.06 112.525 134.666 114.257ZM130.478 107.328C132.687 108.971 134.603 111.299 136.448 113.283C136.763 113.09 137.08 112.898 137.399 112.709C136.448 111.828 135.407 111.009 134.269 110.112C133.098 109.189 131.924 107.973 130.577 107.177C130.544 107.227 130.51 107.277 130.478 107.328ZM136.164 109.671C136.813 110.097 137.818 110.87 138.9 111.84C139.241 111.65 139.588 111.467 139.932 111.282C140.049 111.14 140.195 111.018 140.407 110.955C140.483 110.933 140.562 110.921 140.64 110.906C140.956 110.741 141.27 110.571 141.589 110.41C141.502 110.356 141.416 110.289 141.329 110.238C140.097 109.534 138.859 109.494 137.495 109.117C136.575 108.862 135.129 108.27 133.625 107.791C134.507 108.469 135.354 109.138 136.164 109.671ZM143.699 121.51C143.514 121.773 143.28 122.023 142.981 122.252C142.696 122.471 142.16 122.449 141.872 122.252C140.446 121.274 139.215 120.029 138.067 118.67C138.249 119.297 138.232 119.971 137.872 120.711C137.135 122.222 135.677 122.401 134.302 121.66C133.137 121.033 132.471 119.678 131.396 118.914C130.908 118.567 130.421 118.313 129.936 118.033C131.808 119.776 134.304 121.538 134.671 124.108C135.231 123.411 136.115 122.949 136.988 122.75C137.733 122.579 138.504 122.598 139.24 122.791C139.627 122.892 140.061 123.101 140.501 123.264C140.591 123.022 140.797 122.836 141.091 122.874C141.76 122.963 142.111 123.164 142.702 123.502C142.992 123.669 143.127 123.931 143.143 124.204C143.889 123.825 144.635 123.452 145.383 123.087C144.79 122.707 144.225 122.162 143.699 121.51ZM141.352 131.392C140.463 131.832 139.554 132.504 138.63 133.135C138.788 133.217 138.948 133.297 139.106 133.38C140.796 133.056 142.446 132.462 143.838 131.811C144.657 131.427 145.469 131.066 146.276 130.709C146.99 129.887 148.094 129.498 149.285 129.355C149.708 129.16 150.129 128.956 150.546 128.751C150.241 128.779 149.945 128.793 149.666 128.788C146.895 129.578 144.018 130.072 141.352 131.392ZM147.024 134.12C146.997 134.021 147.002 133.924 147.007 133.827C146.648 133.659 146.313 133.418 146.01 133.081C145.723 132.763 145.623 132.408 145.648 132.041C144.028 132.948 142.997 134.035 141.266 134.536C141.84 134.843 142.421 135.146 143.017 135.442C144.774 135.586 146.532 135.722 148.299 135.811C147.702 135.409 147.222 134.873 147.024 134.12ZM132.971 135.494C132.798 135.493 132.711 135.362 132.708 135.228C132.596 135.176 132.485 135.124 132.374 135.062C132.255 135.027 132.139 134.984 132.021 134.942C132.106 135.178 132.004 135.483 131.688 135.458L131.406 135.436C131.043 135.407 130.748 134.927 131.079 134.645C131.107 134.621 131.136 134.603 131.165 134.58C130.993 134.489 130.827 134.386 130.665 134.278C129.71 134.939 127.594 134.789 127.054 135.471C127.311 135.147 131.944 135.645 132.872 135.718C133.115 135.736 133.381 135.894 133.509 136.115C134.699 136.129 135.781 136.305 136.51 136.784C136.99 137.097 137.294 137.441 137.466 137.803C137.865 137.78 138.232 137.8 138.581 137.841C137.647 137.302 136.752 136.683 135.762 136.253C134.958 135.904 134.178 135.752 133.423 135.506C133.27 135.503 133.124 135.495 132.971 135.494ZM149.649 145.17C149.818 144.611 149.898 144.101 149.707 143.945C149.518 144.329 149.291 144.699 149.041 145.059C149.242 145.096 149.444 145.133 149.649 145.17ZM143.549 144.796C143.454 144.794 143.359 144.793 143.264 144.791C142.83 145.079 142.389 145.357 141.929 145.617C141.619 146.014 141.3 146.412 140.969 146.811C141.906 146.23 142.801 145.562 143.549 144.796ZM141.466 142.199C141.279 141.932 141.101 141.658 140.905 141.398C140.794 141.707 140.647 142.033 140.454 142.379C140.831 142.308 141.169 142.248 141.466 142.199ZM141.091 140.721C141.151 140.719 141.211 140.727 141.267 140.763C142.039 141.248 142.184 141.328 142.505 141.611C142.874 141.051 143.255 140.51 143.664 140.018C142.688 139.681 141.719 139.327 140.772 138.92C141.097 139.384 141.227 139.984 141.091 140.721ZM148.803 145.387C148.8 145.392 148.797 145.396 148.794 145.399C148.808 145.397 148.822 145.394 148.836 145.392C148.825 145.39 148.813 145.389 148.803 145.387ZM140.272 148.608C140.219 148.636 140.166 148.667 140.113 148.696C140.197 148.868 140.315 149.04 140.452 149.212C140.637 148.99 140.819 148.762 141 148.533C140.759 148.563 140.515 148.586 140.272 148.608ZM140.341 152.333C140.674 152.295 141.003 152.232 141.329 152.158C141.212 152.054 141.099 151.948 140.992 151.84C140.77 152.005 140.553 152.17 140.341 152.333ZM139.588 148.947C139.297 149.089 139.009 149.233 138.715 149.368C137.798 150.343 136.865 151.257 135.967 152.031C135.022 152.846 134.06 153.428 133.07 153.862C134.248 153.775 135.325 153.413 136.328 152.857C136.378 152.742 136.438 152.632 136.517 152.538C137.406 151.467 138.552 150.652 139.717 149.858C139.629 149.562 139.586 149.259 139.588 148.947ZM134.134 146.701C134.656 146.219 135.15 145.711 135.618 145.177C135.674 145.118 135.735 145.054 135.794 144.993C134.337 145.421 133.227 145.86 133.193 146.208C132.317 146.538 132.632 146.702 134.134 146.701ZM140.131 143.922C139.851 143.982 139.564 144.046 139.267 144.112C139.046 144.395 138.777 144.725 138.475 145.081C139.029 144.704 139.579 144.313 140.131 143.922ZM155.648 140.391C161.365 142.015 166.855 143.32 172.826 143.605C175.316 143.724 177.787 143.668 180.25 143.523C180.224 143.523 180.199 143.522 180.174 143.522C176.517 143.51 172.983 143.56 169.384 142.849C165.496 142.081 161.79 140.651 157.935 139.795C155.995 139.363 154.048 139.422 152.111 139.398C153.289 139.728 154.47 140.056 155.648 140.391ZM158.752 144.912C158.815 144.943 158.879 144.974 158.943 145.004C158.988 145.003 159.033 145.001 159.077 145.001C158.968 144.971 158.859 144.942 158.752 144.912ZM151.186 142.789C151.131 142.777 151.084 142.771 151.03 142.759C151.403 143.222 151.537 144.161 151.405 145.184C153.244 145.113 155.074 145.079 156.899 145.046C155.054 144.127 153.191 143.229 151.186 142.789ZM128.361 147.454C126.767 147.308 125.189 147.419 123.601 147.667C123.881 147.708 124.162 147.743 124.444 147.765C125.824 147.874 127.099 147.71 128.361 147.454ZM124.854 145.972C126.612 145.511 128.526 145.629 130.351 146.014C131.794 144.657 134.876 143.652 137.604 142.989C137.872 142.632 138.106 142.267 138.265 141.892C139.005 140.147 138.414 139.657 137.241 139.81C135.638 142.536 129.646 145.361 127.762 145.186C127.336 145.147 126.945 144.936 126.741 144.567C126.645 144.606 126.553 144.649 126.439 144.663C123.382 145.033 121.138 145.594 117.962 145.374C115.736 145.22 113.545 144.973 111.397 144.411C110.814 144.544 110.254 144.721 109.717 144.94C109.897 145.142 110.08 145.341 110.264 145.54C110.913 145.563 111.243 146.042 111.259 146.546C112.141 146.66 113.09 146.651 114.203 146.548C115.619 146.416 116.945 146.398 118.355 146.585C119.24 146.703 120.106 146.907 120.97 147.114C122.268 146.725 123.563 146.311 124.854 145.972ZM113.68 148.915C113.778 149.012 113.881 149.106 113.977 149.206C114.009 149.178 114.041 149.146 114.072 149.121C114.211 149.014 114.373 148.919 114.542 148.829C114.255 148.86 113.968 148.889 113.68 148.915ZM109.225 151.76C109.161 151.709 109.091 151.654 109.031 151.608C108.739 151.383 108.463 151.156 108.181 150.928C108.181 152.361 108.107 153.793 107.859 155.133C108.196 154.725 108.583 154.213 108.931 153.664C109 153.019 109.088 152.379 109.225 151.76ZM107.63 156.172C107.5 156.653 107.341 157.117 107.148 157.559C106.523 158.99 105.791 159.502 104.962 159.766C104.622 160.638 104.26 161.508 103.813 162.361C102.254 165.337 100.468 168.507 100.297 171.87C99.9421 178.84 101.424 185.313 102.295 192.15C102.484 193.632 102.668 195.115 102.855 196.596C102.884 193.126 103.096 189.683 103.467 186.344C104.167 180.028 105.654 173.895 106.855 167.67C107.531 164.167 107.937 160.613 108.549 157.098C108.679 156.352 108.751 155.574 108.823 154.792C108.463 155.262 108.06 155.723 107.63 156.172ZM103.11 158.53C104.071 158.194 104.704 157.765 105.144 157.218C105.4 156.591 105.669 155.969 105.97 155.354C106.089 154.843 106.176 154.273 106.265 153.637C106.457 152.267 106.539 150.925 106.575 149.58C106.569 149.576 106.564 149.571 106.558 149.566C106.13 149.928 105.945 151.561 105.676 152.113C104.953 153.597 103.867 154.948 103.044 156.38C102.532 157.27 102.002 158.154 101.47 159.036C101.979 158.886 102.523 158.735 103.11 158.53ZM100.934 150.411C98.3497 152.287 95.8914 154.53 93.3328 156.428C92.8517 156.785 92.3873 157.159 91.9183 157.529C93.6184 156.444 95.2904 155.31 97.07 154.346C99.0809 153.257 100.786 152.246 102.618 150.822C102.833 150.655 103.119 150.395 103.442 150.089C102.605 150.348 101.778 150.432 100.934 150.411ZM99.8167 148.2C100.497 148.031 101.163 147.834 101.825 147.631C92.935 147.497 84.0789 147.162 75.2228 146.698C78.3889 147.499 81.5915 148.161 84.8718 148.556C86.3416 148.733 87.8685 148.872 89.4122 148.955C91.029 148.945 92.7084 148.848 94.3355 148.979C96.2097 148.878 98.0576 148.638 99.8167 148.2ZM65.6655 100.511C65.3154 98.8197 64.6442 97.2544 63.7923 95.7706C63.7474 95.7641 63.6996 95.7603 63.6528 95.7547C64.5646 97.8283 65.6842 100.584 65.82 102.875C66.2366 103.563 66.6588 104.248 67.0885 104.928C68.1342 106.584 69.2342 108.208 70.3651 109.812C69.2604 107.722 68.3692 105.601 67.8505 103.212C67.2804 100.584 67.1587 96.8041 64.4055 95.912C65.1656 97.3284 65.7582 98.8178 66.0644 100.401C66.1149 100.661 65.7198 100.773 65.6655 100.511ZM63.2765 94.944C63.2821 94.944 63.2868 94.9412 63.2924 94.9412C63.2606 94.8916 63.2306 94.841 63.1987 94.7904C63.224 94.8419 63.2512 94.8925 63.2765 94.944ZM60.0738 90.6255C59.9437 90.4701 59.8155 90.3128 59.6844 90.1583C59.7266 90.2285 59.7715 90.2978 59.8117 90.368C59.9016 90.4523 59.9858 90.5403 60.0738 90.6255ZM59.2987 88.9039C60.8977 90.7977 62.5725 92.803 63.8831 94.987C66.8891 95.3765 67.9975 98.1185 68.445 101.11C69.4963 108.131 73.6163 114.191 77.9339 119.587C81.4735 124.012 85.1517 128 89.2895 131.698C87.3245 128.492 85.6994 124.977 84.121 121.858C83.3065 120.249 82.5267 118.632 81.7703 117.008C81.5597 116.824 81.3612 116.632 81.1468 116.45C76.2638 112.318 75.3099 104.904 73.3046 99.065C70.7995 91.7695 68.0481 84.5835 65.7704 77.2103C65.0992 75.0375 64.4626 72.8178 63.943 70.5757C63.7698 70.8594 63.5704 71.1271 63.298 71.3424C62.0426 72.3366 60.8425 71.9931 59.4045 71.774C56.3582 71.3106 48.5553 70.6244 50.9547 76.966C51.4977 78.4011 52.9572 80.3333 53.781 81.614C55.3696 84.0836 57.4077 86.6636 59.2987 88.9039ZM88.0707 43.4551C87.9433 44.0253 87.8057 44.5898 87.6391 45.1299C87.7187 45.3499 87.8741 45.5006 88.1409 45.5334C88.1399 45.4932 88.1362 45.4529 88.1353 45.4127C88.2354 44.7807 88.1989 44.1133 88.0707 43.4551ZM81.5307 37.4375C81.6233 36.0847 81.6477 34.7273 81.6486 33.3689C81.5203 34.3238 81.4052 35.2797 81.3238 36.2373C81.0542 39.4268 80.9577 42.9262 79.9823 45.9771C80.1863 45.9959 80.3923 46.0146 80.601 46.0361C80.8641 43.1602 81.3341 40.3171 81.5307 37.4375ZM84.4833 46.3582C84.4871 43.8998 85.0694 41.4003 85.3193 38.9915C85.486 37.3869 85.5899 35.7899 85.6723 34.1928C85.368 35.8872 85.0122 37.5686 84.561 39.219C84.0302 41.1634 83.7307 44.0833 82.8759 46.2599C83.4114 46.3057 83.9497 46.3413 84.4833 46.3582ZM78.4703 24.9032C76.3171 28.5749 77.5557 34.2461 77.567 38.1883C77.5735 40.4688 77.9629 43.3231 77.6437 45.8751C77.9601 45.8723 78.2709 45.8807 78.5817 45.892C77.6503 44.4484 78.0435 41.0707 78.0547 39.9164C78.0968 35.6288 78.0837 31.0772 78.7184 26.8851C78.7896 26.4142 79.4346 26.4367 79.6527 26.7634C80.9905 28.7696 79.9832 32.8728 79.8306 35.0615C79.8053 35.4313 79.282 35.4313 79.2567 35.0615C79.18 33.9821 79.3812 31.9076 79.3325 30.1045C78.8738 34.4081 78.7502 39.2171 79.1238 43.3072C79.4374 46.7401 79.4215 43.6171 79.56 42.2016C79.7557 40.2029 80.1292 38.2417 80.3277 36.2392C80.6478 33.0057 81.2854 29.6795 81.5438 26.4254C80.4831 25.9564 79.4168 25.4846 78.4703 24.9032ZM82.5997 26.9094C82.5838 30.1738 82.7392 33.4476 82.5745 36.7036C82.4238 39.6824 81.3209 42.9477 81.6982 45.891C81.686 45.9912 81.6767 46.0698 81.6683 46.1447C81.686 46.1466 81.7048 46.1485 81.7225 46.1503C81.7675 45.9266 81.8284 45.5952 81.9117 45.1281C82.1101 44.1367 82.3667 43.1602 82.6812 42.1988C83.1886 40.348 83.7943 38.5216 84.2165 36.6474C84.7922 34.0898 85.1779 31.3965 85.5365 28.7415C85.1358 28.4298 84.7304 28.1302 84.3213 27.8549C83.7971 27.502 83.2082 27.1987 82.5997 26.9094ZM86.8218 29.819C86.775 32.1819 86.6936 34.5354 86.4829 36.9142C86.2704 39.3182 85.2866 42.6023 85.5262 44.9839C85.7153 46.8712 85.5299 46.5098 86.1441 45.4127C86.2414 45.2385 86.3266 45.0522 86.4062 44.8575C86.3425 42.7343 87.0484 40.1449 87.3105 38.0114C87.5848 35.7842 87.9209 33.5384 88.3 31.3131C87.8329 30.7879 87.3377 30.288 86.8218 29.819ZM89.9402 33.4682C89.7249 34.6786 89.3916 35.8329 89.2634 36.4508C88.9245 38.0825 88.6998 40.1486 88.3272 42.1904C88.6886 43.1359 88.9797 44.2406 89.1191 45.3087C89.1912 45.2769 89.2605 45.2498 89.3392 45.2114C89.9542 44.9081 90.6048 42.1164 90.7864 41.5276C91.1085 40.481 91.4624 39.0411 91.6918 37.5264C91.3641 36.0922 90.7481 34.7301 89.9402 33.4682ZM91.6796 41.126C91.5195 41.7513 91.263 42.9047 90.8567 44.0487C91.3051 43.3859 91.6375 42.5461 91.8182 41.4864C91.9024 40.9912 91.9351 40.5025 91.9445 40.0166C91.8574 40.4089 91.7676 40.7815 91.6796 41.126ZM90.1246 47.8317C89.7164 48.0929 89.2933 48.3157 88.8645 48.5207C88.0417 50.3621 86.9604 49.9296 85.5318 49.5402C84.5498 49.6815 83.55 49.7003 82.5501 49.5954C82.0746 49.5458 81.6074 49.5112 81.1412 49.4784C80.3324 49.7209 79.5348 50.1066 78.6913 50.6523C77.9386 51.1401 77.435 51.8796 76.643 52.3524C75.2172 53.2043 73.7792 53.4346 72.1269 53.3372C71.7309 53.3138 71.3396 53.2717 70.9549 53.2268C69.9036 61.0587 69.3334 68.5892 70.7517 76.5185C72.1147 84.1407 74.5179 92.378 77.6081 99.4862C77.727 99.7596 77.3235 99.9974 77.2046 99.7221C75.044 94.7408 73.5986 89.3055 72.0745 84.0967C71.4847 82.0793 70.9801 80.0403 70.5682 77.9836C71.1627 83.1568 72.1391 88.3459 73.4685 93.4124C76.0972 99.0696 79.1725 104.49 82.0521 110.001C81.1103 106.694 80.3792 103.31 79.9748 99.974C79.5685 96.6263 79.4758 93.2711 79.0461 89.9234C78.7821 87.8657 78.5078 85.8117 78.974 83.7653C79.3644 82.054 79.7033 80.3427 80.0553 78.637C80.0132 75.1227 80.4868 71.7843 82.2309 68.4169C82.7982 67.3216 83.3215 66.0428 83.9862 64.8717C84.4337 63.3626 84.9093 61.8647 85.5899 60.497C86.629 58.4075 88.3862 56.7655 89.3935 54.6451C90.8614 51.5567 91.9754 48.59 92.4444 45.466C91.8715 46.3844 91.116 47.197 90.1246 47.8317ZM85.2743 66.7974C84.9542 68.2054 84.6668 69.6386 84.4178 71.0297C84.4637 70.9642 84.5105 70.8978 84.5535 70.8257C85.4963 69.252 85.6825 67.6699 85.7789 65.9193C85.6057 66.1907 85.441 66.4875 85.2743 66.7974ZM86.2452 65.2639C86.4521 65.2733 86.658 65.4165 86.687 65.6927C87.1214 69.883 84.8915 71.5559 83.8617 75.3773C82.3732 80.9006 83.0538 86.9098 83.6108 92.5287C83.6417 92.8367 83.6848 93.1409 83.7203 93.448C84.283 95.7781 84.9907 98.0895 85.6732 100.362C86.2742 102.363 86.9829 104.209 88.0033 105.993C87.9977 100.47 87.2796 95.1565 87.6728 89.6107C88.0463 84.3392 87.7589 79.0152 88.4854 73.7718C88.8308 71.2806 89.2708 68.7465 89.6912 66.2806C89.9701 64.647 90.5712 63.151 91.0215 61.5951C90.2894 62.3394 89.7689 62.8955 88.5331 63.5049C87.4603 64.0329 86.7807 64.5974 86.2452 65.2639ZM88.2382 114.744C87.9986 112.488 87.9892 110.279 87.9976 108.042C87.7542 107.65 87.4996 107.252 87.2253 106.836C86.5073 105.746 85.9437 104.572 85.4597 103.359C85.8997 105.495 86.336 107.634 86.6852 109.805C87.0587 112.128 87.8095 114.226 88.4629 116.391C88.3768 115.783 88.2888 115.217 88.2382 114.744ZM85.8126 108.53C85.206 104.874 84.3017 101.319 83.6267 97.701C83.477 97.1917 83.3262 96.6843 83.169 96.1835C83.0903 95.9316 83.0135 95.677 82.9358 95.4233C83.0781 97.3377 83.2176 99.2522 83.4947 101.16C84.0058 104.668 85.1751 107.915 86.1487 111.315C86.3556 112.037 86.5878 112.747 86.8321 113.45C86.4633 111.826 86.0888 110.195 85.8126 108.53ZM92.2647 126.196C92.818 127.568 93.4395 128.958 94.1285 130.313C94.2952 129.86 94.5114 129.422 94.7604 128.994C92.524 125.77 90.9325 121.736 89.9467 117.954C89.9748 118.839 89.9205 119.685 89.7454 120.461C90.6067 122.355 91.4792 124.247 92.2647 126.196ZM95.8052 127.369C96.1769 126.812 96.5326 126.253 96.8181 125.678C95.5084 122.957 93.3169 120.57 92.127 117.775C91.9829 117.435 91.8575 117.086 91.7208 116.742C92.4828 120.086 93.8936 124.106 95.8052 127.369ZM97.3677 127.851C97.1533 128.204 96.9549 128.548 96.7751 128.886C97.0756 129.319 97.3864 129.726 97.7066 130.112C97.8339 129.441 97.9968 128.773 98.1934 128.11C98.1719 127.998 98.1597 127.883 98.1569 127.765C98.0483 127.814 97.9275 127.859 97.7852 127.902C97.7122 127.924 97.6289 127.876 97.6101 127.803C97.5886 127.718 97.5605 127.636 97.5362 127.551C97.4791 127.649 97.4267 127.755 97.3677 127.851ZM110.275 116.139C112.482 116.597 114.272 117.651 116.428 118.352C118.225 118.937 119.738 119.131 120.665 120.931C121.014 121.608 120.44 122.367 119.692 122.197C117.636 121.728 115.646 120.533 113.6 119.843C111.683 119.197 109.662 118.331 107.979 117.202C107.902 117.19 107.833 117.182 107.759 117.171C107.128 117.597 106.511 118.044 105.911 118.517C108.55 119.125 111.101 120.174 113.723 120.813C115.743 121.306 118.154 121.655 119.845 122.975C120.02 122.858 120.218 122.745 120.452 122.635C121.013 122.369 121.968 122.291 123.076 122.375C122.654 122.061 122.243 121.741 121.844 121.418C119.26 119.33 116.902 116.903 114.161 115.036C113.673 114.703 113.153 114.423 112.624 114.16C111.951 114.57 111.273 114.973 110.598 115.38C110.568 115.663 110.452 115.916 110.275 116.139ZM131.671 105.524C131.845 105.569 132.019 105.617 132.205 105.675C133.502 106.078 134.83 106.869 136.183 107.3C137.375 107.681 138.815 107.726 139.943 108.124C141.01 108.5 142.03 109.054 142.98 109.733C144.386 109.057 145.815 108.418 147.261 107.812C146.925 107.738 146.588 107.669 146.255 107.591C141.677 106.518 136.503 104.689 131.743 105.421C131.718 105.455 131.695 105.489 131.671 105.524ZM156.829 122.133C154.589 122.78 152.438 123.591 150.329 124.496C150.042 124.76 149.795 125.023 149.615 125.279C148.857 126.358 148.487 125.404 148.897 127.139C149.026 127.685 149.157 127.983 149.336 128.148C150.024 127.966 150.707 127.768 151.379 127.521C155.258 126.098 158.55 122.738 162.325 120.871C160.47 121.173 158.637 121.611 156.829 122.133ZM153.858 137.052C153.352 137.24 152.974 137.452 152.237 137.28C151.636 137.14 151.008 136.927 150.405 136.73C149.039 136.744 147.718 136.745 146.361 136.551C145.924 136.488 145.503 136.44 145.073 136.383C148.693 137.848 151.403 137.512 155.188 137.848C157.758 138.077 160.19 138.964 162.656 139.657C169.106 141.471 175.094 141.984 181.775 141.986C184.706 141.986 187.825 142.314 190.74 142.039C192.037 141.917 195.417 141.255 197.974 140.317C197.984 140.149 198.022 139.994 198.072 139.843C196.135 138.949 194.134 138.275 191.831 137.798C187.411 136.88 182.271 137.101 177.726 136.786C173.705 136.507 170.037 136.2 166.014 136.829C162.981 137.303 160.078 138.31 156.999 137.702C155.916 137.488 154.892 137.243 153.858 137.052ZM195.386 145.427C200.439 146.219 205.522 146.971 210.525 148.044C210.507 148.03 210.488 148.016 210.47 148.002C208.157 146.105 205.935 144.54 203.482 142.941C201.085 144.381 197.988 145.026 195.386 145.427ZM231.124 157.436C227.552 156.064 224.039 154.494 220.437 153.197C211.591 150.007 202.001 148.595 192.718 147.321C188.77 146.779 184.816 147.091 180.857 146.997C176.287 147.237 171.699 147.171 167.221 146.618C166.561 146.652 165.9 146.694 165.235 146.752C164.64 146.805 164.048 146.845 163.455 146.877C172.381 149.948 182.009 149.941 191.335 150.804C200.341 151.637 209.121 152.92 217.865 155.249C222.29 156.427 226.562 157.44 230.865 159.064C232.802 159.794 234.893 160.369 236.929 161.048C235.274 159.562 233.456 158.331 231.124 157.436ZM161.018 146.956C160.368 146.967 159.717 146.971 159.067 146.968C160.904 147.398 162.742 147.816 164.581 148.225C163.378 147.852 162.19 147.432 161.018 146.956ZM164.039 149.155C161.164 148.569 158.215 147.708 155.239 146.904C154.074 146.874 152.906 146.841 151.734 146.819C151.47 146.814 151.214 146.834 150.954 146.841C150.338 148.344 149.386 149.704 148.211 150.857C150.189 150.778 152.237 151.294 154.153 151.616C157.744 152.218 161.31 152.644 164.78 153.815C166.577 154.422 168.899 155.223 169.874 156.885C174.901 158.526 179.898 160.271 184.95 161.824C191.517 163.843 198.398 164.988 204.795 167.546C207.305 168.55 212.219 171.967 215.017 171.25C219.439 170.118 213.066 167.348 212.115 166.841C209.352 165.372 206.996 163.193 204.374 161.505C198.8 157.918 191.126 155.777 184.759 154.043C177.877 152.17 171.029 150.581 164.039 149.155ZM154.719 152.347C152.009 151.895 149.724 151.684 147.165 151.794C147.053 151.883 146.934 151.964 146.818 152.049C152.494 153.301 158.441 153.374 164.069 155.057C165.689 155.541 167.3 156.052 168.909 156.572C166.246 153.409 157.501 152.81 154.719 152.347ZM143.951 153.94C143.938 154.015 143.895 154.09 143.812 154.15C142.75 154.909 142.928 156.434 142.2 157.42C143.096 157.311 143.998 157.188 144.923 157.028C147.92 156.51 150.82 157.806 153.666 158.536C154.001 158.622 154.322 158.712 154.651 158.8C155.416 158.978 156.177 159.16 156.936 159.345C155.126 158.607 153.302 157.886 151.473 157.127C149.905 156.476 146.657 155.423 143.951 153.94ZM184.359 172.491C185.012 172.533 186.145 172.668 186.711 172.374C187.713 171.854 187.846 171.343 187.485 170.953C186.301 171.3 185.085 171.665 184.88 171.683C183.719 171.789 182.528 171.73 181.331 171.56C182.229 172.011 183.164 172.414 184.359 172.491ZM179.674 176.049C178.135 173.915 176.315 173.054 174.373 171.492C173.209 170.555 172.172 169.457 171.191 168.308C165.776 166.04 160.742 163.754 154.991 162.363C152.405 161.737 149.619 160.476 146.968 160.34C145.627 160.271 144.327 160.623 143.003 160.904C145.245 162.679 147.975 163.356 150.577 164.674C154.995 166.911 159.559 168.277 164.053 170.273C169.394 172.644 174.879 174.551 180.232 176.894C180.053 176.607 179.872 176.323 179.674 176.049ZM136.559 157.89C136.278 157.788 136.002 157.678 135.729 157.561C135.033 157.372 134.41 157.197 133.942 157.102C132.787 156.871 129.706 156.307 127.401 155.249C126.931 155.321 126.459 155.392 125.97 155.471C125.9 155.482 125.822 155.495 125.746 155.509C125.808 155.543 125.871 155.572 125.934 155.606C129.525 157.586 132.355 158.119 136.361 157.902C136.428 157.899 136.492 157.894 136.559 157.89ZM117.82 151.084C118.03 151.277 118.246 151.446 118.46 151.618C120.965 150.966 123.409 150.491 125.85 149.88C125.769 149.883 125.689 149.892 125.607 149.893C123.408 149.908 121.391 149.205 119.249 148.804C119.031 148.763 118.816 148.748 118.601 148.723C118.593 148.725 118.586 148.726 118.578 148.728C117.865 148.896 116.076 149.365 114.738 150.025C115.419 150.778 116.075 151.545 116.752 152.29C117.066 152.143 117.373 151.997 117.662 151.878C117.559 151.77 117.449 151.666 117.349 151.557C117.056 151.239 117.504 150.792 117.82 151.084ZM115.138 155.636C114.7 155.473 114.255 155.265 113.81 155.022C114.195 156.134 114.824 157.355 114.968 157.626C115.016 157.714 115.06 157.804 115.108 157.894C115.103 157.278 115.114 156.664 115.136 156.043C115.138 155.992 115.139 155.841 115.138 155.636ZM103.028 203.112C102.241 197.534 101.578 191.931 100.492 186.419C99.4291 181.026 98.3722 173.901 99.9609 168.52C100.639 166.221 102.091 164.117 103.156 161.976C103.485 161.314 103.774 160.648 104.046 159.981C103.643 160.059 103.221 160.137 102.782 160.271C102.264 160.661 101.803 161.008 101.439 161.3C101.07 161.596 100.704 161.895 100.336 162.192C99.622 163.499 99.1642 165.331 98.6381 166.374C97.0756 169.471 95.9981 172.265 95.7762 175.724C95.4102 181.444 95.7172 186.604 97.0447 192.208C98.5444 198.539 101.234 204.628 103.884 210.703C103.48 208.198 103.19 205.661 103.028 203.112ZM62.0539 114.411C61.2057 116.571 60.1703 119.976 58.3363 121.546C56.6737 122.969 53.3213 123.564 51.3722 124.309C47.6547 125.728 44.1507 126.993 41.0744 129.579C39.0495 131.282 36.6614 132.946 34.1403 134.017C32.8896 134.548 31.6146 135.05 30.3301 135.531C30.7495 135.553 31.1642 135.587 31.5715 135.641C35.288 136.122 37.3982 137.564 40.4107 133.994C41.5847 132.603 42.4337 132.017 44.1001 131.188C48.4336 129.032 53.3035 128.052 57.3187 125.239C61.6353 122.215 65.3033 117.004 65.7114 111.653C65.7779 110.786 65.923 107.935 65.6384 105.685C65.6084 105.632 65.5785 105.58 65.5494 105.527C64.8632 108.577 63.123 111.685 62.0539 114.411ZM53.414 68.679C51.4837 69.3475 48.2819 70.9942 47.6079 73.0537C46.7766 75.5935 47.3777 79.4983 49.0571 81.453C51.6934 84.5217 55.453 86.6665 58.6106 89.3064C58.5526 89.2081 58.5049 89.1033 58.4431 89.0069C58.385 88.916 58.4337 88.8187 58.5104 88.7681C57.71 87.8207 56.9236 86.8799 56.2 85.9316C54.7246 83.9974 53.2961 82.201 52.0435 80.1171C51.3105 78.8963 49.6656 77.3685 49.2846 75.9745C48.7079 73.8644 50.7169 71.9753 52.4142 71.2076C55.7469 69.7023 61.8581 72.1775 63.4159 68.0621C63.2998 67.4283 63.1987 66.7927 63.1089 66.157C62.9413 65.4147 62.7915 64.6685 62.6876 63.9093C62.6698 63.7811 62.6623 63.6566 62.6474 63.5292C62.403 64.2894 62.0117 65.0018 61.4341 65.6216C59.2771 67.9367 56.1748 67.7232 53.414 68.679ZM157.198 8.13566C146.447 7.31184 135.813 5.57807 125.127 4.19724C119.626 3.48669 114.441 3.03827 108.957 4.20941C103.802 5.31033 99.3889 7.65728 94.5349 9.51744C91.7198 10.5959 88.7428 11.0939 85.925 12.2239C82.9517 13.4156 80.7864 15.1466 78.1764 16.9094C75.5477 18.6853 72.2542 20.1569 70.4371 22.8137C68.958 24.9763 67.7195 27.4861 66.4135 29.7423C63.2568 35.1954 61.5745 42.1174 62.227 48.4411C62.2804 48.9607 62.3356 49.4681 62.3899 49.9689C64.3371 48.8137 66.6747 48.0199 68.6669 47.3992C70.4381 46.8468 72.4087 46.3928 74.3887 46.1269C74.7145 41.2458 74.7191 36.3834 74.6377 31.4582C74.5899 28.5393 74.9261 25.5061 76.8031 23.5252C76.6842 23.3885 76.5503 23.264 76.4454 23.1142C75.8641 22.282 76.4482 20.9639 77.4069 20.7504C82.5548 19.6027 85.381 23.3286 88.3927 26.9366C89.7052 28.5093 90.7649 30.2225 91.5981 32.033C91.6093 32.0518 91.6178 32.0724 91.629 32.0911C91.5494 31.8149 91.4586 31.5509 91.3425 31.3131C91.2339 31.0913 91.5485 30.9003 91.6768 31.1175C92.1196 31.8683 92.3629 32.7876 92.4734 33.7808C92.5726 34.0037 92.6775 34.2227 92.7674 34.4511C93.5931 36.5491 94.0209 39.0692 93.7644 41.4349C93.8739 43.5123 93.844 45.6954 93.418 47.6875C92.8985 50.1187 91.5139 52.1942 90.6414 54.4962C89.6125 57.2111 87.4462 59.3315 86.5419 62.0829C86.805 62.0407 87.1008 62.1184 87.3245 62.0389C89.1837 61.3798 90.0993 60.9866 91.5345 59.7677C91.9117 59.4476 92.4378 59.7537 92.347 60.2405C91.3931 65.3079 89.8887 70.2518 89.3579 75.4569C88.7494 81.4286 88.7344 87.6129 88.5079 93.6156C88.3562 97.6401 88.6979 101.711 88.9066 105.766C89.1491 102.69 89.6949 99.6257 90.3755 96.6441C91.1507 93.2486 92.5231 90.0422 93.3113 86.6412C94.1801 82.8965 94.944 79.1275 95.8324 75.3876C97.5521 68.1436 99.9796 61.26 101.839 54.0946C103.62 47.2307 106.403 40.7281 109.47 34.3519C110.672 31.8533 112.025 29.5344 113.911 27.4983C116.061 25.1757 117.547 22.429 119.768 20.2009C123.228 16.7296 126.683 11.9037 131.482 10.243C133.541 9.53055 137.036 8.4109 136.318 11.5667C135.679 14.3724 133.168 17.7107 131.521 20.038C129.722 22.5778 127.488 24.6917 125.334 26.9188C120.209 32.2175 115.025 38.9475 111.167 45.2273C103.08 58.3916 98.3029 74.0938 96.3023 89.3738C95.2726 97.2404 94.576 104.853 95.896 112.741C96.1769 114.421 96.5289 116.087 96.9389 117.739C97.1037 118.403 97.2451 119.078 97.3162 119.433C97.275 119.218 97.2085 118.86 97.1055 118.297C96.4371 114.631 97.3181 110.986 97.8573 107.376C98.9236 100.237 99.3682 93.0604 101.242 86.0682C103.127 79.0367 105.129 72.1269 108.189 65.4914C114.769 51.2225 122.353 36.2645 135.257 26.7709C141.123 22.4552 147.718 19.7216 153.868 15.9601C156.921 14.0934 159.875 12.8502 163.373 12.0516C166.771 11.2755 170.215 11.2063 173.589 10.4349C173.401 10.7485 173.248 11.2746 173.002 11.2624C170.933 11.1576 166.765 11.8597 164.84 12.2033C159.885 13.0898 156.041 15.4639 151.712 17.8071C144.082 21.9384 135.444 25.6943 129.402 32.1688C122.74 39.307 117.558 47.5537 113.212 56.2496C108.142 66.3976 103.97 76.5606 101.267 87.596C100.039 92.6092 99.6913 97.7403 98.9957 102.835C98.6418 105.427 98.2112 108.013 97.8208 110.599C97.2422 114.431 97.6429 117.582 97.9359 121.399C97.9603 121.714 97.4838 121.759 97.3995 121.472C95.1143 113.659 93.9825 105.568 94.7998 97.4332C95.6124 89.3495 97.289 81.5176 98.8561 73.5621C99.6556 69.501 101.438 65.7049 102.661 61.7589C103.832 57.9769 105.874 54.9371 107.489 51.3526C110.996 43.574 116.324 37.2858 121.515 30.5867C123.187 28.4288 139.426 11.8092 133.948 10.1409C131.509 9.39761 126.592 14.0878 125.016 15.7757C122.016 18.9904 119.402 22.2483 116.737 25.698C114.528 28.5561 112.175 30.861 110.579 34.1871C108.486 38.5468 106.524 43.0891 105.001 47.6744C103.676 51.6643 103.042 55.82 101.8 59.8145C100.512 63.9608 99.2035 67.8665 98.2477 72.1297C97.1861 76.8658 96.204 81.614 95.1883 86.3603C94.2147 90.9091 92.6289 95.2323 91.8603 99.8261C91.1881 103.842 90.749 107.718 90.9971 111.657C91.8912 114.427 92.4735 117.3 93.8197 119.95C94.5957 121.478 95.6723 122.772 96.5279 124.245C96.5335 124.254 96.7573 124.676 97.0559 125.167C97.6504 123.854 98.1972 122.466 98.7102 121.056C100.289 111.672 101.555 102.444 103.84 93.1849C106.011 84.3888 109.841 77.7252 114.952 70.2705C125.755 54.514 140.653 42.7961 154.966 30.4107C161.175 25.0381 167.346 18.9296 172.851 12.8623C173.326 12.339 174.908 12.0095 174.349 10.8084C174.239 10.5716 174.143 10.4227 174.057 10.33C174.54 10.2093 175.022 10.0745 175.502 9.91812C175.66 9.86663 175.804 10.0033 175.811 10.154C175.864 11.2568 175.39 11.5405 174.585 12.2651C172.558 14.0868 170.473 15.5922 168.627 17.6564C165.015 21.695 161.03 25.728 156.967 29.3257C147.496 37.7118 137.299 45.4885 128.473 54.5674C120.2 63.0799 112.129 73.1951 107.175 84.0433C102.228 94.8747 101.6 107.392 99.4235 119.035C99.7624 118.055 100.095 117.08 100.419 116.137C100.551 115.752 100.933 115.7 101.185 115.863C101.373 114.352 101.762 112.854 102.595 111.58C103.837 109.677 105.758 108.716 107.677 107.621C110.257 106.148 112.616 104.349 115.054 102.653C119.092 99.8448 123.177 95.3465 125.545 90.3699C125.018 90.8492 124.12 90.8221 123.855 89.9252C123.651 89.2353 123.361 86.5401 123.384 83.6707C123.302 83.4835 123.303 83.2626 123.393 83.0622C123.488 79.0639 124.24 74.9803 126.716 75.7003C128.426 76.1974 128.686 80.1143 128.782 81.4034C129.139 86.2152 126.445 91.5392 124 95.516C121.126 100.19 117.5 104.007 113.398 107.615C111.624 109.175 109.864 110.173 107.859 111.392C105.826 112.63 104.934 114.228 104.53 116.12C105.068 116.015 105.625 115.948 106.181 115.911C106.782 115.257 107.412 114.628 108.067 114.026C107.96 113.849 107.823 113.683 107.624 113.54C107.315 113.195 107.701 112.676 108.119 112.898C108.442 113.068 108.747 113.139 109.043 113.162C109.243 112.991 109.444 112.825 109.646 112.659C109.347 112.479 109.054 112.29 108.779 112.075C108.251 111.661 108.832 110.864 109.399 111.01C110.094 111.189 110.718 111.295 111.311 111.347C112.005 110.808 112.7 110.27 113.395 109.729C113.436 109.659 113.475 109.588 113.543 109.523C117.376 105.827 120.963 102.222 124.015 97.8049C126.692 93.9301 128.981 89.2063 131.125 85.0066C133.44 80.4709 136.063 76.4174 138.03 71.6701C139.585 67.917 142.141 64.2276 144.795 61.1561C147.41 58.1285 151.046 55.1375 154.376 52.8898C156.05 51.7598 157.843 50.5756 159.674 49.719C161.311 48.9532 162.97 48.9616 164.599 48.4308C165.442 47.563 166.271 46.6737 167.108 45.7253C168.942 43.6461 171.289 42.034 172.983 39.864C174.368 38.0909 175.336 35.9687 176.6 34.0907C179.469 29.8284 183.511 28.4578 187.188 25.1906C189.84 22.8334 198.053 13.7152 195.708 9.40136C194.273 9.02409 192.804 8.84901 191.32 8.75633C186.031 8.42587 180.604 8.11975 175.305 8.11788C169.327 8.11507 163.155 8.59251 157.198 8.13566ZM125.894 83.4938C125.474 83.4807 124.91 83.7775 124.447 83.9506C124.455 84.5161 124.488 85.0787 124.565 85.6301C124.699 85.3483 124.847 85.0731 125.028 84.81C125.57 84.0209 126.964 83.5266 125.894 83.4938ZM127.502 81.2011C127.447 80.1948 127.35 79.0732 127.156 78.8317C125.955 77.331 125.323 77.8366 124.901 79.693C124.736 80.4185 124.602 81.2077 124.521 82.0231C125.417 81.2676 126.48 80.4906 127.502 81.2011ZM185.268 29.1918C188.459 25.6531 190.885 22.3737 194.674 19.3733C197.071 17.4757 199.654 15.9929 199.279 12.7004C199.012 10.3478 198.743 10.3431 196.804 9.71871C197.821 12.2941 195.788 15.1241 194.433 17.4683C191.604 22.356 188.096 26.0323 183.437 29.1188C180.248 31.2317 178.529 33.7949 177 37.2231C176.998 37.2306 176.994 37.2381 176.99 37.2447C179.847 34.6683 182.673 32.0686 185.268 29.1918ZM143.815 67.3581C145.887 65.0299 148.153 62.9132 150.121 60.4858C151.587 58.6771 153.137 56.6222 155.187 55.4165C157.184 54.2416 158.969 53.6078 160.779 52.0444C161.068 51.7954 161.336 51.5445 161.615 51.2955C160.546 51.6185 159.482 52.0126 158.434 52.6202C152.457 56.083 147.518 60.8471 143.731 66.509C143.054 67.521 142.479 68.5733 141.963 69.6489C142.541 68.8766 143.145 68.1108 143.815 67.3581ZM125.908 104.644C126.043 104.623 126.179 104.602 126.303 104.59C127.14 104.514 127.953 104.645 128.745 104.898C129.707 104.425 130.728 104.1 131.779 103.879C132.13 103.466 132.494 103.059 132.875 102.656C132.971 102.556 133.068 102.455 133.165 102.354C133.288 102.167 133.408 101.978 133.531 101.791C131.06 102.687 128.29 103.423 125.908 104.644ZM156.222 77.6512C156.62 76.7974 158.392 75.0908 157.42 75.0356C153.246 74.7978 154.446 80.6254 154.607 83.8449C154.729 83.5528 154.84 83.2588 154.929 82.9602C155.453 81.2021 155.439 79.3344 156.222 77.6512ZM211.679 51.7289C207.04 49.675 203.007 48.8212 198.01 48.4336C194.491 48.1612 191.128 47.2896 187.554 48.0189C183.982 48.7482 178.475 50.8854 175.41 52.7372C172.921 54.2406 169.545 56.8937 167.305 58.8784C164.276 61.5642 160.563 63.4075 157.623 66.1636C151.181 72.2028 146.608 80.807 142.049 88.316C140.376 91.072 138.783 93.8749 137.178 96.6712C138.272 96.1956 139.356 95.706 140.436 95.193C141.447 94.2756 142.466 93.375 143.501 92.5268C145.255 91.087 147.06 89.694 148.888 88.33C150.344 86.4867 152.664 86.1478 152.659 83.2541C152.655 80.837 151.851 79.7698 153.062 77.3488C153.759 75.953 154.81 75.1704 156.048 74.2473C157.043 73.5059 158.899 71.9257 159.596 73.7905C159.962 74.7697 158.683 75.894 158.277 76.5428C157.054 78.4984 156.983 80.6797 156.749 82.8656C161.907 79.5432 167.283 76.5653 172.832 74.0713C183.537 69.2613 194.815 65.2845 206.418 63.2849C217.524 61.3714 228.469 60.6168 239.176 64.2566C233.25 60.2274 226.995 57.0285 220.132 54.8117C217.242 53.8755 214.455 52.9581 211.679 51.7289ZM141.809 94.5246C143.055 93.9067 144.303 93.2561 145.566 92.553C146.325 92.1308 147.124 91.6421 147.923 91.1001C147.926 90.5618 148.023 90.0301 148.222 89.5096C146.043 91.1132 143.884 92.7758 141.809 94.5246ZM265.77 92.5006C265.76 92.4875 265.75 92.4744 265.739 92.4613C268.292 95.9831 270.71 99.5976 272.326 103.649C273.99 107.823 275.502 110.73 278.685 113.969C280.911 116.234 283.634 118.035 285.675 120.452C285.845 120.654 286.02 120.876 286.197 121.107C281.857 110.238 273.05 101.427 265.77 92.5006ZM277.975 140.363C281.412 140.226 284.649 139.041 286.835 136.26C287.52 135.389 287.967 134.461 288.241 133.5C286.908 135.168 284.871 136.868 283.573 137.928C282.066 139.158 280.818 139.443 278.865 139.443C278.56 139.443 278.569 139 278.865 138.976C281.754 138.741 287.245 134.708 288.581 131.239C288.66 128.861 287.979 126.379 287.267 124.08C287.257 124.045 287.243 124.013 287.231 123.978C285.791 121.638 283.669 119.602 281.834 118.071C277.414 114.381 273.986 110.392 271.933 105.039C269.053 97.5297 263.649 91.3894 259.009 84.9252C253.927 77.8459 248.677 71.1075 241.578 65.9417C241.012 65.5307 240.44 65.1376 239.869 64.7416C225.738 59.7425 210.074 62.1793 195.93 66.0971C182.223 69.8942 168.411 75.3183 156.678 83.4957C156.601 84.0967 156.504 84.6968 156.357 85.2903C155.375 89.239 152.147 92.6785 148.681 94.7642C144.154 97.4885 139.615 99.5078 134.727 101.346C134.399 101.716 134.074 102.087 133.758 102.465C133.491 102.874 133.217 103.279 132.942 103.681C136.582 103.196 140.517 103.886 143.919 104.734C146.345 105.339 148.818 105.794 151.299 106.209C156.947 104.095 162.757 102.385 168.375 100.778C175.68 98.6905 183.828 97.3312 191.44 97.1496C198.817 96.9736 206.201 98.3656 213.433 99.651C228.195 102.275 243.211 106.95 257.063 112.65C263.16 115.159 268.694 117.873 274.194 121.493C277.275 123.521 280.352 125.676 283.394 127.784C285.153 129.002 286.995 130.119 287.95 132.105C287.979 132.165 287.971 132.252 287.904 132.285C286.23 133.096 283.642 131.396 282.083 130.961C277.526 129.689 273.065 128.091 268.474 126.902C259.353 124.539 250.096 122.066 240.692 121.175C231.997 120.351 223.373 118.906 214.736 117.616C204.834 116.137 195.336 116.242 185.386 116.569C181.737 116.69 178.178 116.808 174.591 117.152C175.432 117.446 176.254 117.82 177.002 118.206C180.185 119.486 183.359 121.84 181.087 124.284C179.392 126.107 176.072 124.837 173.266 123.064C171.562 123.777 168.895 123.413 167.46 123.216C164.821 122.856 162.315 122.139 159.774 123.509C157.887 124.527 156.432 126.292 154.735 127.647C154.829 127.672 154.919 127.708 155.011 127.74C158.359 127.319 161.71 126.807 165.06 126.455C182.424 124.627 200.397 125.467 217.339 130.002C234.681 134.645 250.328 142.272 265.039 152.406C264.975 149.452 264.445 145.869 266.377 143.403C269.417 139.52 273.717 140.531 277.975 140.363ZM246.713 160.099C249.408 161.623 250.631 161.499 253.722 161.208C254.627 161.123 255.489 161.271 256.38 161.242C258.45 161.176 259.811 159.997 261.685 159.694C262.667 159.534 265.205 160.334 265.77 159.372C265.98 159.014 265.299 157.553 265.222 157.051C265.02 155.72 265.053 154.332 265.044 152.982C264.938 152.939 264.828 152.894 264.692 152.837C264.038 152.561 263.431 152.159 262.843 151.717C261.874 151.205 260.885 150.715 259.868 150.259C260.716 150.623 261.566 151 262.414 151.385C261.662 150.792 260.932 150.16 260.167 149.666C256.714 147.44 253.149 145.088 249.508 143.179C232.882 134.465 215.238 128.511 196.452 126.589C187.952 125.719 179.544 126.011 171.044 126.347C165.872 126.553 160.491 127.021 155.383 127.814C155.352 127.819 155.313 127.828 155.28 127.833C156.507 128.364 157.371 129.53 156.897 131.21C156.547 132.45 155.554 133.056 154.428 133.381C153.991 134.263 153.869 135.158 154.942 136.059C155.06 136.158 155.097 136.275 155.086 136.389C156.952 136.748 158.799 137.14 160.75 136.913C163.705 136.568 166.6 135.704 169.573 135.436C175.548 134.897 182.116 136.331 188.117 136.44C191.929 136.51 195.41 137.389 198.722 138.885C199.375 138.285 200.352 137.892 201.225 137.642C201.192 137.02 201.25 136.395 201.389 136C201.476 135.754 201.582 135.544 201.702 135.355C197.136 134.884 192.511 134.487 188.213 133.088C188.025 133.027 188.105 132.731 188.294 132.792C192.316 134.079 196.511 134.16 200.666 134.702C201.134 134.763 201.601 134.832 202.069 134.897C202.411 134.543 202.831 134.267 203.32 133.955C204.838 132.985 206.546 132.019 207.526 133.978C207.797 134.52 207.903 135.141 207.886 135.791C209.582 136.079 211.276 136.384 212.959 136.718C221.819 138.475 230.478 140.939 239.2 143.233C244.955 144.747 250.45 146.504 255.876 148.628C252.821 147.479 249.713 146.499 246.771 145.626C240.501 143.765 234.029 141.679 227.625 140.357C221.026 138.995 214.513 137.269 207.862 136.15C207.696 138.003 206.639 140.022 205.661 141.154C205.366 141.495 205.039 141.806 204.688 142.095C206.108 142.838 207.557 143.579 208.768 144.508C211.963 146.958 214.08 149.64 218.486 149.619C223.547 149.594 227.866 145.265 232.449 148.822C234.578 150.474 236.29 152.652 238.206 154.532C240.8 157.079 243.604 158.34 246.713 160.099ZM198.77 177.582C203.342 176.134 207.844 174.605 212.615 173.723C221.115 172.151 229.099 169.353 237.497 167.513C239.117 167.158 241.501 169.103 241.598 165.525C241.424 165.515 241.24 165.459 241.05 165.334C232.021 159.372 219.655 156.449 209.129 154.404C197.553 152.155 185.791 151.954 174.152 150.299C173.955 150.271 173.76 150.238 173.565 150.209C173.943 150.294 174.32 150.376 174.698 150.46C179.997 151.651 185.449 153.005 190.573 154.803C195.322 156.47 200.585 157.979 204.835 160.717C208.38 163.001 211.605 165.393 215.359 167.327C216.608 167.97 218.879 169.137 218.055 170.904C216.573 174.081 209.162 170.033 207.303 169.191C197.873 164.914 187.356 163.05 177.461 160.053C175.018 159.313 172.61 158.455 170.196 157.609C170.287 157.91 170.339 158.235 170.341 158.587C170.345 159.008 169.69 159.009 169.687 158.587C169.684 158.134 169.582 157.716 169.4 157.332C165.936 156.123 162.456 154.968 158.852 154.258C155.458 153.591 151.999 153.493 148.589 152.963C148.358 152.927 146.905 152.705 146.131 152.537C145.998 152.624 145.862 152.706 145.726 152.788C146.197 153.033 146.607 153.242 146.906 153.407C151.077 155.705 155.561 157.303 159.933 159.156C162.526 160.255 165.479 161.608 167.964 163.184C169.063 163.723 170.319 164.293 171.534 164.952C171.856 165.103 172.173 165.246 172.497 165.402C174.291 166.264 176.082 167.128 177.892 167.861C178.017 167.847 178.142 167.835 178.267 167.827C181.091 167.636 192.894 165.513 191.644 171.915C191.13 174.548 188.315 175.318 186.017 175.447C185.133 175.497 184.167 175.52 183.241 175.389C183.696 176.029 184.156 176.612 185.067 177.089C185.606 177.372 186.424 177.325 187.019 177.594C189.301 178.623 190.19 179.919 193.225 179.481C195.103 179.21 196.987 178.146 198.77 177.582ZM236.696 238.982C242.644 236.407 247.741 229.144 249.543 223.111C250.427 220.155 250.082 216.022 249.252 213.094C248.182 209.317 246.295 207.638 242.503 206.585C236.819 205.007 230.707 204.542 225.141 202.619C222.545 201.722 219.838 201.028 217.269 200.081C214.88 199.201 212.847 197.642 210.591 196.503C204.774 193.568 198.733 191.958 193.494 187.896C187.487 183.24 179.508 179.162 172.29 176.793C166.288 174.825 160.265 172.252 154.605 169.431C151.674 167.97 148.914 166.108 146.174 164.327C145.549 163.919 142.349 162.159 141.874 161.11C141.584 161.154 141.293 161.184 140.999 161.204C141.312 161.532 141.646 161.904 142.041 162.327C144.769 165.251 147.322 168.831 150.484 171.279C154.243 174.188 157.369 177.79 161.163 180.634C164.498 183.132 167.733 185.713 170.941 188.375C178.166 194.37 186.112 198.599 194.009 203.526C202.048 208.541 209.571 213.858 218.087 218.085C218.483 218.28 218.205 218.962 217.784 218.805C209.596 215.76 202.442 210.56 195.075 205.986C187.542 201.31 179.328 197.99 172.062 192.821C165.078 187.852 158.584 182.562 152.346 176.733C149.194 173.787 146.166 171.625 143.39 168.251C142.27 166.889 141.014 165.494 140.001 164.065C139.731 163.684 139.449 163.157 139.165 162.612C139.012 162.801 138.87 162.998 138.706 163.178C138.665 163.222 138.598 163.155 138.639 163.111C138.812 162.927 138.96 162.723 139.121 162.529C138.884 162.071 138.645 161.614 138.408 161.21C134.86 161.162 131.31 160.945 128.088 159.334C126.071 158.326 124.058 157.133 122.172 155.776C121.368 155.643 120.685 155.285 120.361 154.498C120.337 154.441 120.326 154.388 120.307 154.333C119.709 153.839 119.126 153.332 118.573 152.802C118.214 152.891 117.856 152.975 117.5 153.08C118.552 154.161 119.699 155.152 121.132 155.893C128.193 159.54 133.382 165.096 138.189 171.097C138.515 170.863 138.899 170.703 139.352 170.645C139.805 170.588 140.276 170.682 140.743 170.882C140.291 169.517 139.811 168.142 139.109 167.215C138.989 167.057 139.256 166.904 139.374 167.059C140.217 168.17 140.718 169.641 141.202 171.113C142.787 172.027 144.236 174.071 144.67 175.757C145.24 176.336 145.704 176.944 145.885 177.279C146.717 178.814 147.317 180.539 148.066 182.139C148.193 182.408 148.318 182.681 148.439 182.957C149.313 183.952 150.22 184.924 151.152 185.873C156.72 191.55 162.879 196.98 168.984 202.075C175.483 207.5 182.044 212.731 188.892 217.724C195.534 222.567 202.268 227.616 208.427 233.056C209.161 233.705 216.726 239.169 215.78 240.555C215.706 240.663 215.604 240.739 215.478 240.789C216.699 241.094 217.923 241.36 219.157 241.484C225.21 242.089 231.174 241.373 236.696 238.982ZM115.058 234.764C116.741 236.29 118.698 236.945 120.069 238.8C121.192 240.321 121.861 241.427 123.518 242.519C124.504 243.169 125.517 243.72 126.432 244.47C129.189 246.73 130.99 249.7 134.941 249.421C138.876 249.143 142.583 249.162 146.455 248.245C152.408 246.836 158.11 244.317 163.953 242.503C169.789 240.69 175.779 240.097 181.866 239.885C188.363 239.659 194.758 238.075 201.279 238.554C204.129 238.764 206.989 239.065 209.818 239.479C210.711 239.609 211.597 239.805 212.481 240.021C209.695 238.662 206.116 236.081 205.385 235.668C190.384 227.193 174.731 219.508 160.082 210.461C153.781 206.569 148.289 201.528 142.647 196.77C136.324 191.439 131.244 185.747 127.104 178.564C123.033 171.5 119.612 163.909 116.264 156.468C116.128 156.347 115.985 156.233 115.852 156.108C115.877 157.21 115.885 158.316 115.904 159.425C117.471 162.418 118.999 165.422 120.437 168.482C122.044 171.905 124.191 174.96 125.726 178.439C127.35 182.123 129.221 185.699 131.285 189.157C135.607 196.401 141.156 202.664 146.693 208.981C152.634 215.756 158.789 222.335 165.562 228.291C166.442 229.065 167.301 229.873 168.158 230.682C169.066 231.107 169.972 231.548 170.864 232.038C173.129 233.284 176.405 234.865 176.946 237.623C176.966 237.725 176.857 237.837 176.756 237.769C173.587 235.649 170.547 233.298 167.615 230.794C167.61 230.791 167.604 230.788 167.598 230.787C152.516 224.217 139.753 212.931 131.326 198.826C126.927 191.464 121.36 185.212 118.633 176.905C117.279 172.783 116.492 168.473 115.794 164.198C115.517 162.499 115.254 160.79 115.149 159.068C114.203 157.525 113.156 155.875 112.607 154.293C111.958 153.865 111.331 153.405 110.764 152.969C110.848 154.306 110.857 155.67 110.982 156.924C111.301 160.118 111.086 163.477 110.621 166.651C109.82 172.106 108.706 177.718 107.466 183.081C106.045 189.223 108.618 195.406 108.217 201.637C107.939 205.944 106.389 210.529 105.959 214.983C106.039 215.357 106.119 215.732 106.199 216.108C106.963 217.955 107.691 219.806 108.346 221.668C109.256 224.254 111.861 228.491 112.614 232.291C113.392 233.153 114.201 233.987 115.058 234.764ZM115.929 160.386C115.968 161.622 116.048 162.856 116.244 164.078C117.047 169.067 117.965 174.102 119.757 178.846C121.652 183.861 124.562 188.412 127.622 192.786C130.611 197.059 133.079 201.867 136.494 205.767C139.551 209.26 142.42 212.881 145.763 216.127C149.474 219.73 153.858 222.297 157.977 225.367C160.705 227.4 163.713 228.669 166.722 230.024C160.785 224.852 155.289 219.072 150.072 213.311C141.846 204.226 133.987 195.215 128.165 184.363C126.818 181.853 125.712 179.271 124.519 176.69C123.23 173.902 121.386 171.47 120.079 168.694C118.867 166.116 117.608 163.583 116.297 161.053C116.184 160.836 116.056 160.611 115.929 160.386ZM168.88 231.365C170.604 232.985 172.355 234.576 174.319 235.88C177.671 238.106 173.987 234.27 172.787 233.485C171.523 232.659 170.227 231.988 168.88 231.365ZM108.964 230.248C108.45 229.639 107.963 229.012 107.524 228.363C107.536 228.514 107.558 228.665 107.563 228.818C107.58 229.253 107.566 229.703 107.539 230.159C109.55 232.025 110.377 233.735 110.352 236.339C110.652 234.445 109.909 232.251 108.964 230.248ZM108.648 234.167C108.396 233.421 107.927 232.708 107.337 232.055C107.182 233.064 106.968 234.082 106.738 235.069C107.167 236.386 107.529 237.72 107.77 239.117C108.82 237.779 109.366 236.282 108.648 234.167ZM106.546 240.455C105.551 238.437 104.386 236.482 103.274 234.505C103.867 236.774 104.811 239.248 105.308 241.687C105.53 241.451 105.754 241.216 105.991 240.992C106.18 240.812 106.365 240.634 106.546 240.455ZM98.9058 247.734C99.4282 247.633 100.368 246.801 101.218 245.972C100.837 245.507 100.529 244.984 100.277 244.425C100.313 244.845 100.337 245.261 100.341 245.667C100.345 245.994 99.9842 246.178 99.709 246.029C97.6092 244.898 97.3115 242.602 96.6338 240.435C96.043 238.545 95.5881 236.621 95.0779 234.71C95.472 237.297 95.6985 239.92 95.8492 242.511C95.9251 243.825 96.2396 245.04 96.2022 246.182C96.8743 247.274 97.7487 247.958 98.9058 247.734ZM92.4538 227.451C93.4433 231.108 93.0052 234.74 93.9217 238.401C94.1875 239.463 94.5442 241.995 95.2876 244.161C95.2099 241.908 94.7745 239.402 94.6491 238.386C94.2868 235.456 93.8468 232.421 93.2177 229.54C93.14 229.187 93.6193 228.811 93.8889 229.15C96.776 232.775 95.853 238.501 98.1653 242.431C99.108 244.034 98.6849 243.811 98.9077 242.625C99.1848 241.151 98.3038 238.617 97.9659 237.155C97.8395 236.609 96.3182 232.457 96.1085 230.27C95.8249 229.53 95.5263 228.799 95.1855 228.093C94.9814 227.67 95.5927 227.297 95.824 227.721C96.9286 229.741 97.5923 232.154 98.1662 234.469C98.3853 235.085 98.5519 235.556 98.6025 235.722C98.8093 236.392 100.525 244.819 101.971 243.422C102.472 242.938 100.45 236.864 100.182 235.818C99.4441 232.93 98.3872 230.342 97.246 227.622C95.5768 227.306 93.8805 227.056 92.2881 226.864C92.3442 227.051 92.3985 227.245 92.4538 227.451ZM86.9735 223.308C91.0252 223.831 94.6023 225.007 98.5192 225.985C101.501 226.729 104.23 227.537 106.625 229.391C106.579 228.28 106.468 227.174 106.296 226.077C106.253 225.967 106.198 225.862 106.16 225.751C105.882 224.947 105.663 224.15 105.491 223.358C104.449 220.908 103.588 218.358 102.635 215.872C102.334 215.363 102.021 214.861 101.687 214.37C97.1065 207.649 93.2748 201.245 91.688 193.214C91.0111 189.786 90.0404 186.672 90.3605 183.127C90.5965 180.508 91.2957 177.585 92.2048 174.884C92.2956 174.153 92.3995 173.435 92.5306 172.76C92.934 170.681 93.9994 168.694 95.0675 166.893C95.1892 166.688 95.2978 166.469 95.4121 166.256C91.2639 169.75 87.2263 173.386 83.5181 177.349C78.3486 182.872 73.3842 188.504 68.0846 193.881C61.89 200.167 56.8375 207.328 50.1356 213.14C44.4315 218.087 39.0373 223.63 33.1105 228.338C34.7057 229.055 36.3159 229.721 37.9327 230.355C38.5094 230.429 39.0926 230.488 39.6899 230.52C42.2241 230.655 44.7489 230.31 47.2728 230.157C50.0139 229.992 52.7072 230.293 55.4389 230.199C58.1613 230.104 60.6758 228.983 63.1866 227.825C63.2446 227.798 63.3008 227.77 63.3588 227.745C65.0608 226.959 66.7637 226.165 68.5293 225.672C75.9231 223.608 84.9355 218.652 92.5212 223.289C92.8591 223.496 92.5605 224.004 92.2113 223.82C87.5923 221.373 81.2021 222.047 76.5035 223.748C75.806 224.001 75.1142 224.234 74.4215 224.467C78.5537 223.442 82.728 222.761 86.9735 223.308ZM55.1871 232.084C56.2197 231.598 57.2064 231.057 58.1809 230.507C57.3309 230.748 56.4294 230.909 55.438 230.941C50.7347 231.091 45.906 231.248 41.198 231.249C40.8769 231.249 40.5455 231.242 40.2141 231.234C45.0363 232.998 50.335 234.369 55.1871 232.084ZM3.46329 192.902C3.8621 197.306 5.79056 202.43 8.07386 206.152C10.5444 210.18 13.234 215.521 16.885 218.542C20.4621 221.501 24.4351 223.995 28.5898 226.149C26.6248 223.711 25.0586 220.922 22.2202 219.171C20.8983 218.355 19.2919 217.971 18.0299 217.076C16.9243 216.291 16.2447 215.129 15.273 214.203C12.2005 211.279 9.64565 209.005 7.96524 204.948C6.79879 202.131 6.39811 199.056 6.14161 196.036C5.79991 192.02 6.62657 190.216 8.26673 186.712C12.4448 177.786 9.98271 166.805 8.1366 157.569C8.07388 157.256 7.99708 156.923 7.91376 156.575C6.78943 159.956 6.71265 163.155 6.4758 166.912C6.22866 170.826 5.18392 174.769 4.67371 178.667C4.35916 181.075 4.48834 183.52 4.1326 185.914C3.78529 188.252 3.24704 190.512 3.46329 192.902Z" fill="#79977F"/>
<path d="M66.1893 58.7274C66.2062 58.6488 66.2287 58.5702 66.2324 58.4934C66.21 58.9961 66.1987 58.9914 66.1893 58.7274Z" fill="#79977F"/>
<path d="M174.057 10.3281C173.901 10.3665 173.745 10.3964 173.589 10.432C173.716 10.2214 173.859 10.1137 174.057 10.3281Z" fill="#79977F"/>
<path d="M259.868 150.26C258.54 149.691 257.209 149.151 255.874 148.628C257.224 149.137 258.56 149.674 259.868 150.26Z" fill="#79977F"/>
<path d="M179.492 191.014C171.628 185.585 163.859 179.842 156.302 174.032C156.235 173.98 156.301 173.864 156.37 173.917C168.491 183.207 180.986 192.153 194.31 199.686C196.478 200.913 228.722 216.468 229.613 209.308C229.65 209.007 230.127 208.998 230.094 209.308C229.322 216.424 205.782 205.786 203.713 204.671C195.543 200.27 187.173 196.316 179.492 191.014Z" fill="#79977F"/>
</svg>
