<svg xmlns="http://www.w3.org/2000/svg" width="401" height="293" fill="none"><path fill="#EBF0EC" fill-rule="evenodd" d="M30.6 1.707q16.75-3.07 36.803 5.431 5.427 2.362 33.501 17.95 7.549 4.251 11.087 6.612 2.597 1.654 5.663 0 23.592-12.752 41.05-17.24 13.919-3.779 28.546-1.653 7.314.945 14.627 5.195 1.416.71 2.359 1.654 5.898 4.725 5.898 11.809.236 6.849-5.662 11.808-9.437 8.03-22.884 9.919-18.638 3.07-41.994-4.959-9.909-3.779-16.514-7.322-3.302-1.416-5.426.472-15.335 10.155-25.244 20.783-5.662 6.378-9.909 15.116-.943 1.653-.707 2.126.472.471 2.124.471 19.345 0 34.68-6.849 4.482-1.889 7.549-4.96.236-.235.708-.471.471-.236.707-.473 1.18-.708 1.888.473.943.708.235 1.89-.236.472-.707.944l-.708.708q-.472.237-.708.473-6.37 4.015-12.74 6.14-15.806 4.96-29.725 4.724h-2.123q-2.124.236-2.831.708-.473.472-.944 2.598-1.415 5.668 1.888 10.628 3.303 4.724 8.021 6.849 5.19 2.361 11.796 3.07 2.064.164 4.259.155 3.864-10.612 11.93-19.694 13.675-15.725 36.59-21.09 13.122-3.146 31.047-1.85 12.567.924 29.753 6.104 9.98 2.962 35.668 13.876 9.24 3.885 26.242 12.025 17.187 8.14 19.774 9.25 19.774 8.88 32.526 13.135 2.771.74 4.804-.37 8.316-4.81 16.263-6.29 8.871-1.295 14.6.925 3.141.925 5.174 2.775 2.403 2.22 2.033 5.18-.185 2.775-2.956 4.255-2.958 1.665-6.654 1.665-10.164.74-23.1-2.775-.555 0-1.664-.37-2.217-.74-4.25.74-7.022 4.255-16.262 13.505-11.643 10.916-29.569 30.71a24780 24780 0 0 0-17.371 19.24q-4.436 4.81-5.36 6.291l.37.37q.74-.555 4.62-3.146 1.478-.924 2.032-1.11 1.108 0 1.479.74.37.555-.74 1.296-8.685 5.735-11.272 6.845-1.48.74-3.512 2.774-4.065 4.44-11.642 13.691-7.578 9.065-11.458 13.505-18.112 20.165-23.47 25.53-.924.924-2.772 2.59l-2.772 2.775q-1.479 1.11.369 1.85 5.544 1.85 15.154 6.475 9.61 4.81 13.306 6.291 23.1 9.99 27.536 11.285 13.305 4.07 20.513 4.625 7.577.925 17.557.37 10.164-.555 21.806-3.516 6.839-1.665 16.263-6.659 8.87-4.44 14.599-8.881 5.913-4.254 15.893-15.17 10.164-10.73 26.242-31.08.74-.555 2.034-1.85 1.478-1.295 2.217-2.035 1.109-.74 1.664-.185.368.37-.37 1.295-1.109 1.11-3.511 3.329-29.2 38.666-46.387 50.322-5.913 4.069-19.958 9.989-10.535 4.44-24.948 6.291-6.654.554-13.121.554-11.828.185-25.319-3.33-11.642-2.96-29.753-10.915-3.326-1.294-23.84-10.914-4.434-2.035-9.794-3.886-2.218-.924-3.881.74-11.273 9.99-20.514 15.54-10.348 5.92-18.294 7.585-4.806 1.11-9.057.37-7.576-1.48-8.5-8.14-.369-2.96 1.662-6.844 4.435-7.585 14.046-12.211 15.339-7.585 34.004-3.145 3.142.74 6.098-1.665 5.175-4.625 22.731-23.495 9.24-10.175 21.807-25.716.923-.924.924-1.294-.37-.37-.924 0-14.23 3.7-27.535 4.81-10.35.924-19.775.37-18.48-1.296-38.439-9.621a138 138 0 0 1-3.096-1.355l-2.791 2.213q-20.524 17.478-33.264 25.272-15.571 9.683-30.198 14.169-27.132 7.794-50.015-5.668-10.852-6.376-16.278-18.421-5.19-11.809-2.36-24.562 3.067-13.226 11.56-25.034 11.796-17.005 32.086-31.411 13.683-9.447 30.67-15.351 4.395-1.51 8.189-2.836a58.6 58.6 0 0 1 1.887-8.568 55.8 55.8 0 0 1-12.2-1.114q-10.38-2.125-16.75-10.627-3.54-4.015-3.54-11.572.001-.71.236-1.181 0-2.126-.471-2.598-.236-.473-2.123-.71-8.965-1.416-13.684-2.597-24.535-5.431-39.87-18.185Q7.714 54.61 3.703 46.108-.54 37.369.874 28.395T9.13 12.57Q17.86 3.832 30.6 1.707m147.662 257.321q-13.12.186-24.209 7.956-5.174 3.515-7.392 8.879-2.402 6.105 3.881 7.955.924.37 2.772.37 3.88.185 11.273-2.774 7.946-3.7 17.556-11.101 10.165-8.51 10.719-9.065-.74-.74-2.588-1.11-5.728-1.11-12.012-1.11M101.71 123.62q-21.324 10.225-42.8 27.347-16.986 13.226-25.951 31.648-5.898 12.28-4.483 25.743 1.887 17.24 18.638 26.214 16.278 8.739 35.387 4.96 15.57-2.833 34.209-14.17 10.616-6.613 29.962-22.2a643 643 0 0 1 5.534-4.53q-14.317-6.825-24.58-16.01-23.1-20.534-25.687-48.47a70.6 70.6 0 0 1-.229-10.532m71.378-58.104q-7.022.37-10.534.926-12.197 1.665-20.513 5.18-19.035 7.77-29.754 24.79a55.3 55.3 0 0 0-4.987 10.026q9.555-.387 21.442-3.886 2.36-.708 6.841-1.889 4.483-1.181 6.607-1.89 1.415-.471 1.887-.471 1.18-.472 1.651.471.472.71-.236 1.89-.943.944-1.415 1.654-2.123 2.125-10.381 7.084-4.955 2.598-21.705 9.684a173 173 0 0 0-8.171 3.538q-.454 6.347.336 13.194 2.957 26.086 24.394 45.141 10.81 9.599 25.238 16.398 12.94-10.426 33.934-26.55 1.888-1.89 2.595-.945.943.945-1.179 2.598-.885.665-32.867 26.026 24.217 10.588 48.973 10.408 7.577 0 17.556-1.296 13.491-2.22 23.471-5.365 2.031-.74 2.771-1.664 1.848-2.035 5.359-6.105 3.696-4.071 5.36-6.105 9.24-10.916 38.254-42.181 14.97-15.54 29.199-24.79l.37-.185.369-.37q-.924-.74-2.402-1.11-14.784-5.18-26.243-10.73-4.99-2.221-25.318-11.655-20.143-9.62-31.231-14.245-22.176-9.435-37.331-13.32-17.187-4.44-32.34-4.256m192.011 49.766q-3.511-1.479-8.686-1.11-8.685.555-18.11 6.475 0 .186.184.37l.185.185q13.675 3.7 24.763 2.775 2.773 0 4.435-1.48 3.327-2.405.186-5.365-.74-.74-2.957-1.85m-226.685-12.73q-2.594.708-7.313 1.889a685 685 0 0 1-8.257 2.126q-3.775.945-7.078 1.654a62 62 0 0 1-9.509 1.272 57 57 0 0 0-1.837 7.886q8.916-3.131 14.178-5.143 12.504-4.488 19.816-9.684m-69.36-91.635Q50.416 2.18 35.554 3.36 18.804 4.777 9.367 15.877.874 26.269 3.47 38.314q1.887 8.738 9.909 17.24 8.73 8.975 22.412 14.879 16.278 6.85 34.444 8.738 2.36.236 3.067-1.653 3.54-11.573 15.099-23.145 8.493-8.502 20.761-17.24 1.888-.945 2.359-2.126-1.416-1.417-7.55-4.723-29.49-16.769-34.916-19.367m117.724 7.322q-7.785-.237-17.222 1.653-19.581 3.778-44.116 16.768-1.416.473-1.416 1.417l.236.472q.236 0 .236.237 7.076 3.306 8.02 3.543 25.716 11.572 48.128 8.738 11.56-1.417 20.526-8.03 1.651-1.181 4.009-4.015 2.832-4.251 1.889-8.738-.708-4.725-4.955-7.558-6.134-3.78-15.335-4.487" clip-rule="evenodd"/></svg>