<svg width="24" height="22" viewBox="0 0 24 22" fill="none" xmlns="http://www.w3.org/2000/svg">
<path d="M0 1.03125C0 0.459766 0.449646 0 1.00855 0H2.9206C3.84511 0 4.66456 0.55 5.04696 1.375H22.3184C23.4236 1.375 24.2305 2.44922 23.9405 3.54063L22.2176 10.0848C21.8604 11.434 20.6627 12.375 19.297 12.375H7.17333L7.40025 13.5996C7.49271 14.0852 7.90873 14.4375 8.392 14.4375H20.5072C21.0661 14.4375 21.5158 14.8973 21.5158 15.4688C21.5158 16.0402 21.0661 16.5 20.5072 16.5H8.392C6.938 16.5 5.68992 15.443 5.42097 13.9863L3.25258 2.3418C3.22317 2.17852 3.08449 2.0625 2.9206 2.0625H1.00855C0.449646 2.0625 0 1.60273 0 1.03125ZM5.37895 19.9375C5.37895 19.6666 5.43112 19.3985 5.53249 19.1482C5.63386 18.898 5.78244 18.6706 5.96974 18.4791C6.15705 18.2876 6.37941 18.1356 6.62414 18.032C6.86887 17.9283 7.13116 17.875 7.39605 17.875C7.66094 17.875 7.92324 17.9283 8.16796 18.032C8.41269 18.1356 8.63506 18.2876 8.82236 18.4791C9.00967 18.6706 9.15825 18.898 9.25961 19.1482C9.36098 19.3985 9.41316 19.6666 9.41316 19.9375C9.41316 20.2084 9.36098 20.4765 9.25961 20.7268C9.15825 20.977 9.00967 21.2044 8.82236 21.3959C8.63506 21.5874 8.41269 21.7394 8.16796 21.843C7.92324 21.9467 7.66094 22 7.39605 22C7.13116 22 6.86887 21.9467 6.62414 21.843C6.37941 21.7394 6.15705 21.5874 5.96974 21.3959C5.78244 21.2044 5.63386 20.977 5.53249 20.7268C5.43112 20.4765 5.37895 20.2084 5.37895 19.9375ZM19.4987 17.875C20.0337 17.875 20.5467 18.0923 20.925 18.4791C21.3033 18.8659 21.5158 19.3905 21.5158 19.9375C21.5158 20.4845 21.3033 21.0091 20.925 21.3959C20.5467 21.7827 20.0337 22 19.4987 22C18.9637 22 18.4507 21.7827 18.0724 21.3959C17.6941 21.0091 17.4816 20.4845 17.4816 19.9375C17.4816 19.3905 17.6941 18.8659 18.0724 18.4791C18.4507 18.0923 18.9637 17.875 19.4987 17.875Z" fill="#F8FAF8"/>
</svg>
