<svg xmlns="http://www.w3.org/2000/svg" width="293" height="253" fill="none"><path fill="#79977F" d="M118.263 171.67c.055 0 .055-.085 0-.085s-.055.085 0 .085"/><path fill="#79977F" d="M291.287 184.005a171 171 0 0 0-1.422-12.452c-.551-3.593-.344-7.199-.959-10.746-.598-3.447-1.75-6.359-3.311-9.448-.134-.264-.259-.537-.385-.809a4.8 4.8 0 0 0-.242-.991 7 7 0 0 0-.81-1.519c-1.925-4.95-3.587-10.376-9.177-12.01-6.871-2.01-13.152-3.544-19.316-7.266-5.547-3.349-11.495-4.98-17.519-7.438-3.128-1.276-3.598-3.824-4.576-6.912-1.304-4.12-4.156-8.205-3.31-12.641.8-4.198 2.652-7.222 6.009-9.81 2.603-2.007 5.197-4.192 7.676-6.358 3.952-3.45 6.168-9.731 3.372-14.728-1.247-2.23-4.096-3.808-6.353-4.755-2.014-.846-4.575-.706-6.452-1.762-2.689-1.513-1.667-3.729-.94-6.076.728-2.356.272-4.198-.836-5.665.263-2.085.498-4.17.543-6.275.116-5.42-.865-11.009-3.15-15.926-.822-1.77-2.132-3.266-3.122-4.939-1.304-2.205-2.241-4.662-4.131-6.46-1.647-1.567-3.848-2.652-5.732-3.894-2.676-1.762-5.073-3.813-8.004-5.125-4.857-2.174-9.947-3.335-14.785-5.575-5.096-2.36-10.933-3.808-16.539-4.149-5.255-.318-10.657.648-15.842 1.482-6.568 1.057-13.115 1.235-19.677 2.192-6.632.967-12.928 1-19.609.997-5.262-.001-10.48.32-15.718.496-.117-.086-.29-.075-.417.012-.91.029-1.82.064-2.732.08-5.953.104-19.518 1.978-13.998 11.118 2.494 4.13 7.258 6.208 10.428 9.712 3.7 4.09 6.88 8.537 11.033 12.244 2.058 1.837 4.551 3.006 6.605 4.869 1.799 1.63 3.277 3.645 5.223 5.109q.37.276.746.508a88 88 0 0 0 6.482 6.051c2.176 1.829 3.995 1.997 6.333 3.49 2.656 1.696 4.869 4.626 7.153 6.793 2.511 2.385 5.041 4.815 7.204 7.523.481.601.918 1.248 1.336 1.912.994 2.639 1.969 5.289 3.434 7.757 3.625 6.104 6.574 12.806 10.682 18.496-1.803-.687-3.74-1.154-5.529-1.84a152 152 0 0 1-5.087-2.051c-3.3-5.708-6.615-11.402-10.16-16.966-3.118-4.895-5.987-9.764-10.047-13.93-4.156-4.264-9.586-7.358-14.209-11.064-4.662-3.736-9.342-6.325-15.154-8.14-5.034-1.574-10.958-.771-16.065-.36-5.917.477-11.715 4.042-17.298 5.833-5.13 1.646-9.714 3.493-14.29 6.09 2.566-1.755 5.111-3.532 7.518-5.53 2.558-2.121 6.122-3.346 9.131-4.72 3.456-1.576 7.066-2.879 10.772-3.729 3.81-.873 7.561-.755 11.393-1.184 3.617-.407 7.558-.981 11.165-.135 3.369.79 5.293 2.793 8.017 4.657 3.503 2.4 7.542 2.775 10.404 6.233.343.414 1.039-.126.744-.575-1.297-1.975-2.618-3.617-4.666-4.852-1.641-.99-3.393-1.642-4.922-2.818-1.353-1.04-2.308-2.499-3.678-3.503-4.371-3.202-10.696-3.09-15.804-2.538-6.898.748-13.276.984-19.897 3.397-5.415 1.972-11.582 4.282-15.901 8.132-4.598 4.099-10.358 7.042-15.26 10.853-5.352 4.162-8.823 9.45-13.489 14.224-4.789 4.901-8.162 11.146-12.398 16.54-3.982 5.072-8.498 9.735-12.149 15.063-5.502 8.03-14.796 23.25-5.521 31.823 3.996 3.694 8.61 3.951 13.764 3.831 2.885-.068 5.4.44 6.445 3.536.908 2.687.883 7.209.455 10.057-.372 2.48-1.025 5.617 2.6 5.226 1.96-.212 2.417-.496 4.28.297.983.418 1.88.883 2.928 1.123 2.387.545 5.527 1.06 8.014.876 2.264-.168 3.776-1.388 5.77-2.433q.395-.207.782-.413c-1.206 1.767-1.633 3.7-.478 5.873 1.784 3.355 6.947 2.652 9.983 3.526 5.749 1.653 10.925 3.911 16.862 5.035 3.082.583 6.205 1.094 9.227 1.948 3.108.877 5.95 2.496 9.05 3.387 2.25.648 4.26 1.567 6.276 1.764-4.459 2.894-8.836 5.9-13.82 7.841-3.137 1.222-6.032 2.422-8.951 4.11-3.398 1.965-7.304 2.908-11.007 4.188-6.71 2.318-14.732 1.959-20.937 5.696-4.856 2.924-5.472 10.446-5.107 15.605.43 6.081 4.93 12.294 9.342 16.188 4.305 3.799 9.187 6.619 15.068 7.133 8.14.713 15.37-1.486 23.404-2.234 8.264-.768 16.368.822 24.616 1.263 8.85.473 17.513 2.936 25.697 6.25 6.232 2.523 13.954 4.16 20.667 2.831 3.311-.655 5.006-3.09 7.32-5.333 2.491-2.415 4.758-3.675 6.72-6.477 1.604-2.29 4.231-3.963 6.373-5.997.069 1.837.836 3.439 2.782 4.522.547 2.107 1.738 3.378 3.359 5.44.34.433.713.905 1.114 1.393.017.132.029.265.052.395.038.219.296.321.495.259 2.913 3.412 7.005 7.009 10.464 2.664 2.511-3.155 3.126-6.804 4.055-10.616.508-2.085.618-3.589.618-5.711 0-.583.023-5.065.536-6.314 3.012-.331 6.165-.693 9.089-.002 3.511.829 6.951 1.882 10.457 2.739 4.341 1.062 7.689 2.854 11.586 4.95 3.208 1.724 6.291 2.778 9.969 2.37 6.815-.756 13.314-3.769 19.528-6.679l.004.905c0 .034.054.034.054 0l.004-.934q1.292-.607 2.568-1.198c6.454-2.983 12.248-7.705 16.082-13.588 4.217-6.47 8.466-12.776 9.656-20.609.577-3.744-.339-7.016-.63-10.705m-10.079-4.408c.3 3.638 1.89 6.619 3.393 9.831 1.886 4.032 1 10.227-.386 14.325-1.683 4.978-5.31 8.204-8.965 11.689-2.557 2.437-6.146 3.368-8.728 5.936-1.364 1.355-2.28 2.966-3.438 4.452-.672-3.51-3.321-6.709-5.006-9.734-2.839-5.097-4.646-10.67-7.494-15.758-5.287-9.441-13.606-16.157-22.086-22.57-4.332-3.275-8.931-6.127-13.328-9.289-2.564-1.844-4.897-3.94-7.238-6.029 6.598 3.158 13.059 6.528 19.777 9.492 8.004 3.531 16.502 6.633 24.072 11.066 7.57 4.432 13.761 10.982 21.168 15.623.095.06.181-.09.087-.15-5.825-3.7-11.282-8.557-16.773-12.745-5.11-3.897-10.96-6.491-16.76-9.205-6.193-2.899-12.574-5.421-18.726-8.39-2.443-1.18-4.609-2.702-7.129-3.72a100 100 0 0 1-7.185-3.272c-1.448-1.276-2.917-2.53-4.465-3.696-3.004-2.264-5.953-4.766-9.056-6.967l.375-.055c.062.009.122.024.184.032a34 34 0 0 0 3.306.287c.631.27 1.262.538 1.899.786 8.027 3.127 16.348 5.454 24.443 8.359 9.91 3.558 20.408 7.625 29.195 13.495 4.85 3.24 9.225 7.31 12.662 12.027 1.235 1.694 2.175 3.606 3.473 5.247 1.126 1.424 3.099 2.691 3.594 4.491.023.082.152.047.129-.036-.632-2.336-3.446-4.282-4.75-6.264-2.338-3.556-4.665-6.893-7.752-9.871-6.502-6.275-14.112-10.28-22.338-13.799-8.754-3.743-17.753-6.538-26.583-9.975-4.069-1.584-8.208-2.904-12.291-4.423a59 59 0 0 0 6.98-.419c5.636-.663 11.083-2.065 16.469-3.72 6.12-.352 12.242-.752 18.38-1.189 4.925-.351 9.832-1.335 14.607-2.725 2.61-.012 5.222-.093 7.84-.367 1.562-.163 8.082-.234 10.563-2.053 1.307.491 2.642 1.295 3.987 1.481q.359.308.683.626a9.2 9.2 0 0 1 1.024 1.782c1.495 3.422 2.764 6.834 4.388 10.218.148.308.264.609.391.912-.727 3.772-1.616 7.548-2.05 11.355-.479 4.205-.891 8.66-.542 12.909m-21.962 48.919c-4.641-3.851-8.844-8.344-13.324-12.358-5.173-4.634-10.154-9.132-14.563-14.523-4.258-5.206-9.199-9.678-13.711-14.626-4.678-5.129-9.291-10.178-14.212-15.067-2.273-2.259-4.649-4.353-7.069-6.395-.633-1.279-1.212-2.604-1.899-3.738-.834-1.378-1.766-1.916-2.875-2.301-1.574-2.414-3.111-4.85-4.411-7.427-.435-.863-.554-1.835-.92-2.599 2.342 1.91 4.801 3.701 7.438 5.118 3.321 1.786 6.414 4.019 9.769 5.725 4.2 3.646 8.138 7.575 12.684 10.84 6.208 4.459 12.677 8.801 18.451 13.829 6.481 5.642 11.926 12.099 16.152 19.581 1.985 3.515 3.65 7.21 5.761 10.651 1.945 3.17 5.389 7.061 6.323 10.911q-.23.285-.478.562c-.23.254-.473.476-.716.701-.794.386-1.596.753-2.4 1.116m-58.978-40.262c-.565 3.408-1.33 6.942-2.308 10.26-1.154 3.916-3.345 7.37-5.526 10.809 3.265-7.805 6.216-15.384 7.553-23.958.134-.86.227-1.777.29-2.72.246 1.826.312 3.67-.009 5.609m-10.978 56.174a21 21 0 0 1-.364-.371c.632-1.552 1.01-3.259 1.527-4.8.017-.05.038-.1.054-.15-.43 1.731-1.006 3.527-1.217 5.321m-.663-2.271c-.321.434-.508.757-.617.905l-.148-.165c-.004-.184.004-.475.005-.891.005-1.097 1.085-3.202 1.348-4.305.46-1.941.905-3.911 1.328-5.874a33 33 0 0 0 1.449-3.322c.66-.169 1.341-.322 2.03-.466q-.345.714-.657 1.436c-.894 1.208-1.434 2.903-1.828 4.642-.842 2.26-1.492 6.114-2.91 8.04m.843-9.768c-.066.162-.125.333-.198.485a150 150 0 0 1-3.534 6.784c-.141.254-.264.468-.377.656a13 13 0 0 1-.622-.681c.165-.759.391-1.66.558-2.425.102-.467.226-.924.359-1.378.137.57.275 1.131.407 1.665.051.209.371.121.322-.088a28 28 0 0 1-.461-2.44c.546-1.65 1.225-3.243 1.791-4.888a11 11 0 0 1 1.764-.82c.266-.094.546-.18.823-.267-.399 1.067-.64 2.314-.832 3.397m-3.634 1.985a29 29 0 0 1-.214-2.791 12 12 0 0 1 1.658-1.245c-.487 1.384-.986 2.713-1.444 4.036m-.008-50.051c-1.663-9.411-4.596-18.881-3.549-28.512.024-.224.038-.947.049-1.66.127 1.16.485 2.372.671 3.362.849 4.521 1.357 9.079 2.326 13.581 2.211 10.277 3.7 20.512 2.945 31.041-.114 1.597-.21 3.259-.327 4.939a116 116 0 0 1-1.175 6.031c-.324-2.031-.764-4.086-1.196-6.199-.953-4.651-.969-9.193-.097-13.839.525-2.806.853-5.914.353-8.744m-107.62 55.961c-1.478-.543 3.48-4.49 3.678-4.677 4.783-4.519 10.115-8.495 15.293-12.553 5.647-4.426 12.03-8.11 17.291-12.992 5.122-4.755 10.662-9.071 15.911-13.716 4.48-3.966 9.072-7.841 13.096-12.277-.3.867-.461 1.764-.239 2.685.054.227.282.492.526.526 1.137.158 2.025-.374 2.739-1.155.856-.366 1.663-1.001 2.258-1.481 1.782-1.439 4.33-3.065 5.671-4.891 1.071-1.458 1.626-5.184.548-7.329 1.904-2.415 3.903-4.732 6.455-6.58 1.791-1.296 3.465-2.902 5.34-4.05 1.763-1.08 3.795-1.724 5.651-2.626.89-.433 1.683-.96 2.433-1.533-.422 1.166-.858 2.329-1.373 3.445-5.693 12.353-11.256 24.812-21.724 33.899-5.162 4.48-10.397 9.097-15.979 13.049-5.125 3.628-10.875 6.648-16.436 9.55-11.9 6.21-23.685 12.761-35.272 19.539-.89.522-4.879 3.53-5.868 3.167m69.527-62.322.05.086q-.202.303-.407.601c.093-.194.215-.429.357-.687m.324 5.522c-.079-.197-.34-.305-.54-.125-.284.255-.769.857-1.269 1.352-.867.484-1.527.619-1.289-.3.097-.372 1.071-.876 1.323-1.132 1.365-1.393 2.415-3.143 3.716-4.632.639-.283.972-.551 1.387-1.267.11-.188.148-.379.156-.565q.589-.728 1.161-1.466c-.003.134-.002.278.016.442.362 3.339-1.361 4.569-3.435 6.691-.069.068-.577.505-1.226 1.002m-.068-5.157c.113.131.238.251.38.344-.654.844-1.319 1.681-1.985 2.517.199-.436.376-.866.538-1.319q.553-.759 1.067-1.542m23.852-25.176a2.5 2.5 0 0 0-.602-.668c.435.082.867.174 1.3.266-.23.144-.464.272-.698.402m-115.268 3.776c1.157-1.085 2.869-2.288 3.46-3.855 1.1-1.053 2.304-1.92 3.749-2.305 2.372-.633 4.63.122 6.953.589q-.85.312-1.695.648c-3.5 1.399-7.178 2.56-10.617 4.063-.863.378-1.672.862-2.44 1.415q.295-.28.59-.555m29.312-20.785q1.495-.217 3.01-.386c.121 1.024-.312 2.6-.484 3.598-1.42-1.005-2.638-2.235-2.526-3.212m.138-.405c.153-.263.428-.501.87-.697 1.138-.506 1.682-.292 1.902.27q-1.388.203-2.772.427m52.303.476c.182-.548.253-1.117.292-1.716a6 6 0 0 0-.046-.723c.497.094.999.151 1.466.194.266.025.541.063.822.106-.218.734.508 1.405 1.206 1.341-.496.191-.991.331-1.201.409-.284.105-.606.275-.893.361q-.514.046-1.022.122c-.214-.018-.411-.055-.624-.094m-8.695-14.19a9 9 0 0 0-1.505-.023c-1.115.083-5.859 1.156-7.671.286a25 25 0 0 0 1.912-1.552 59 59 0 0 1 4.46-.009q1.42.591 2.804 1.298m-19.805-9.69c1.67 3.663 8.918.162 10.461-1.788.053-.068.088-.136.128-.204a10 10 0 0 1 2.399-.133c2.369.181 4.251.823 6.669.418 4.789-.803 9.708-1.387 14.488-2.37a89 89 0 0 1 4.848 2.04c-2.433 1.894-4.344 4.626-5.242 7.375-.307.936-.794 2.421-.87 3.713-2.061-.879-4.169-1.661-6.376-2.279-3.819-1.068-8.884-2.328-13.21-1.648-1.182-.819-2.723-.818-4.282-.438-1.119-.103-2.228-.198-3.315-.294-9.062-.792-18.321-.948-27.392-.41-8.538.507-16.998 2.083-25.444 3.375-9.053 1.384-18.103 2.003-27.05 4.083-8.854 2.057-17.418 5.065-26.198 7.277-.922.232-2.651 1.187-3.304.368-1.07-1.342 2.228-2.781 3.603-3.704 3.644-2.448 7.337-4.841 11.003-7.237 6.524-4.263 14.016-6.804 21.356-9.521 9.564-3.543 19.246-6.643 29.178-9.047 10.188-2.466 21.386-4.731 31.894-3.963 10.884.795 20.679 3.754 30.999 6.943a176 176 0 0 1 5.422 1.763c-1.457.236-2.914.467-4.363.706-1.924.317-3.881.586-5.808.878-2.655.403-4.951-.369-7.56-.573a9.6 9.6 0 0 0-2.438.123c-.895-.697-2.067-.784-3.425-.55-1.451.25-4.367.713-5.227 2.165a4 4 0 0 0-.276.557c-.75.524-1.159 1.297-.668 2.375m56.081-4.433c.408.314.895-.354.542-.703-.28-.276-.57-.529-.867-.768 1.212-.052 2.589.027 3.751.362q.315.229.626.458c-2.132.48-4.658 1.639-6.056 2.282l-.064.032a16 16 0 0 0-.465-1.1c.395-.269.799-.525 1.226-.752a.72.72 0 0 0 .349-.46c.323.2.644.408.958.649m25.321 10.528.058.245a3 3 0 0 0-.059-.154zm2.943 8.349a.7.7 0 0 1-.238.146 2.6 2.6 0 0 0-.317-.586l-.001-.015c-.001-.06-.038-.09-.081-.106a3 3 0 0 0-.309-.334 55 55 0 0 0-.64-1.562c.042-.111.092-.221.123-.334a.54.54 0 0 0-.372-.656c-.085-.025-.146-.06-.22-.09q-.485-1.091-.967-2.174.01-.224.024-.446c.198-.435.298-.887.249-1.356-.003-.031-.012-.058-.017-.088.639 2.588 1.56 5.279 2.766 7.601m21.856-76.826c.483.635 1.656.672 1.993-.027a29.6 29.6 0 0 1 5.58 1.39c1.164.41 3.169.867 4.287 1.432.597.302 1.035.664 1.36 1.064-.004 2.023.274 3.96.243 5.979a9 9 0 0 0-.185 2.19 41 41 0 0 1-.833 4.343c-.167-1.72-.141-3.368-.483-5.106a4.7 4.7 0 0 1-.355-2.417q-.742-1.785.048-3.435c-.049-.417.132-.895-.013-1.31-.694-1.985-3.069-1.88-4.806-1.76q-.427.03-.827.053c0-.313-.026-.616-.13-.88-.129-.326-.098-.21-.498-.672-.188-.218-.463.025-.431.25l.189 1.345c-2.877.113-4.825-.224-7.381-2.574q-.112-.104-.223-.212 1.154.002 2.289.085c.061.087.112.177.176.262m9.984 60.614c-.027 5.692 3.159 11.125 7.568 14.627.418.331.85.635 1.288.927-2.873-.455-10.735 3.682-11.314 3.928-4.293 1.815-8.779 3.237-12.936 5.345-2.985 1.514-5.931 2.905-8.979 4.094.217-.154.444-.298.656-.455 5.13-3.803 8.277-9.857 12.024-14.885 4.161-5.586 8.29-11.215 11.759-17.277l.007-.013c-.124 1.56-.07 3.101-.073 3.709m37.704 25.83c1.239.435 2.485.851 3.731 1.225q.192.056.383.11c-1.173.101-2.32.36-3.447.731-2.472.054-4.956.342-7.405.398-8.374.191-17.242 1.257-25.268 3.716-3.136.961-6.247 1.958-9.373 2.881-9.55.379-19.065.369-28.623.331 3.244-.771 6.418-1.96 9.61-2.859 4.71-1.325 9.33-2.953 13.842-4.844 4.817-2.019 9.536-4.287 13.812-7.305.767-.541 4.971-2.451 4.935-3.61a1.1 1.1 0 0 0-.11-.457c2.124 1.264 4.436 2.184 6.746 3.083 2.726 1.06 6.117 1.928 8.224 4.069.99 1.007 1.583 2.573 2.873 3.281 2.594 1.424 5.905-.687 8.604-.779.474-.017.966-.001 1.466.029m8.603 3.427c-1.289-.484-2.482-.929-3.337-1.077a20 20 0 0 0-2.217-.237 6.5 6.5 0 0 1 2.587-.238c-.155-.016.269.025.801.069a60 60 0 0 1 2.112.556c.263.361.255.667.054.927m-40.462 3.86c-.845.178-1.685.371-2.524.567l1.917-.64c9.013-3.011 18.596-3.772 28.023-4.197 1.017-.046 2.008-.104 2.987-.154-2.011.828-3.999 1.802-6.047 2.452-.689.219-1.382.414-2.076.598-7.455.149-14.928-.178-22.28 1.374m20.575-.956c-6.274 1.415-12.721 1.622-19.122 2.114-2.376.182-4.749.326-7.118.447l.314-.103c4.655-1.201 9.371-2.18 14.134-2.414 3.939-.193 7.864-.079 11.792-.044m12.114-3.374q.234-.096.457-.19c2.38-.034 4.731.131 7.178.809-1.023.918-4.456 1.205-5.325 1.32-2.613.344-5.215.66-7.847.826-.814.052-1.63.089-2.445.119a97 97 0 0 0 7.982-2.884m9.491.203c.917.51 1.779 1.065 2.553 1.657-.99-.214-2.087-.583-3.165-.979a2.5 2.5 0 0 0 .612-.678m-81.317 10.774-.009-.007.023.005zm-23.771 3.302c.869.617-.567.422-1.796.218.188-.243.341-.497.416-.771.521.135 1.021.299 1.38.553m-3.941-.073a19 19 0 0 1-1.189-.17c-2.311-1.893-5.145-2.824-7.879-3.971a27 27 0 0 1-1.356-1.316 36 36 0 0 0 3.728 1.807c2.512 1.052 5.108 1.939 7.699 2.773.048.016.103.03.154.045q-.577.474-1.157.832m-14.899 2.074a8 8 0 0 0-.311-.862c-.359-.261-.462-.392-.483-.471 1.912.64 3.944.851 5.899.484.207-.039.366-.131.495-.246 1.269.676 2.643 1.067 4.167 1.045a40 40 0 0 0-1.556.514c-.947.339-1.767.649-2.564.907-.456.052-.903.087-1.331.089q-2.45.825-4.316-1.46m-3.794-5.504c-1.033-.787-2.235-1.773-2.912-2.897a31 31 0 0 1 1.875.324c1.405 1.273 3.063 2.412 4.63 3.52q-.18.12-.364.237c-.066-.084-.168-.135-.286-.094-.268.094-.539.167-.809.251a13.7 13.7 0 0 1-2.134-1.341m-3.034-24.825c2.135.962 4.237 2.005 6.35 3.074 2.353 1.191 4.347 2.683 6.707 3.695-.266.112-.534.224-.795.344-1.377-.391-2.646-1.203-4.054-1.791-2.383-.995-4.903-1.392-7.379-1.965 1.375-.852.533-2.155-.829-3.357m4.254-9.222.386.073c.908.171 1.43-.802 1.154-1.425.273-.4.68-.858 1.101-1.19-.836 2.667-2.645 7.211-4.023 7.491-3.176.647-.21-5.191.412-6.22.185-.307.401-.616.63-.924a3.1 3.1 0 0 0-.346.987c-.073.491.115 1.1.686 1.208m2.669-5.14q.215.106.43.214c-.56.119-1.131.388-1.657.756.394-.358.807-.677 1.227-.97m14.021 2.045c.076.317.517.173.475-.131-.048-.343-.12-.669-.188-.999 1.555-.871 3.764-1.933 5.53-2.355-1.06.795-2.018 1.769-3.126 2.68-2.053 1.687-4.263 3.072-6.436 4.516-.333-.254-.663-.511-1.002-.756.98-1.087 2.129-2.053 3.253-2.967.214-.174.661-.467 1.247-.812.085.274.178.541.247.824m14.156.611c-2.106 1.25-3.914 2.581-5.877 4.07-3.426 2.598-7.381 5.603-11.797 6.264 1.07-1.87 3.847-3.869 4.933-4.929 1.762-1.72 3.562-3.378 5.803-4.46 2.379-1.15 4.486-1.321 6.653-1.13q.142.094.285.185m-5.855 12.487c1.151.757 2.785.862 4.447.706-.611.088-1.21.192-1.841.379-1.403.416-2.612.892-3.297 2.109-1.188-.166-2.53-.159-3.855-.033l.128-.087c.936-.633 3.199-1.804 4.418-3.074m15.475-5.923.064.062c-.01.391-.034.878-.035 1.397-.21.174-.502.315-.896.413q-1.346.752-2.82 1.16a15.7 15.7 0 0 1-4.471.77c-.771.023-3.124.416-4.694.384 1.696-.776 3.892-1.001 5.458-1.448 2.06-.588 4.108-1.355 6.112-2.11.188-.07.759-.404 1.282-.628m7.77 11.238c.16-.173.314-.355.468-.537.282.92.354 1.827.131 2.768-.051.079-.096.163-.147.241-.692 1.05-1.539 1.586-1.693 2.919-.006.049-.003.095 0 .142l-.535.723c.745-1.902.939-3.764.796-5.595a.71.71 0 0 0 .592-.241l.367-.386c.011-.011.013-.023.021-.034m27.212-74.678c-.282-1.018-.757-1.812-.939-2.861a3 3 0 0 1-.035-.498c2.003-.223 3.697-.225 4.362 2.555-.252-.766-.266 2.256-.294 3.028.095.445.362.914.479 1.328.647 2.281 1.123 3.833 1.101 6.19-.008.824-.128 1.766.031 2.57q.009.037.019.076a93 93 0 0 1-.761 2.385c-2.09 6.273-4.027 12.52-6.589 18.634a91 91 0 0 1-.863 1.984c.485-1.965.939-3.944 1.324-5.948.771-4.003 1.211-8.026 1.57-12.058.292-2.133.477-4.282.544-6.44q.105-1.245.218-2.492c.249-2.739.578-5.765-.167-8.453m3.445 18.85c.39-1.412.849-2.805 1.299-4.198-.74 2.99-1.676 5.922-2.633 8.857-2.243 6.88-4.909 13.6-7.224 20.461-1.212 3.594-2.279 7.346-3.665 10.868-.689 1.752-1.765 2.987-2.982 4.091 2.542-5.611 4.739-11.323 6.52-17.187.083-.176.17-.349.253-.525 3.362-7.172 6.321-14.743 8.432-22.368m-12.214 31.814a260 260 0 0 1-3.92 9.07c-.873.729-1.784 1.443-2.656 2.258 2.824-6.188 6.117-12.087 9.119-18.207a108 108 0 0 1-2.543 6.879m20.389 20.65c-.325.482-2.724 1.683-3.193 2.014-1.628 1.149-3.273 2.235-5.01 3.212-3.902 2.198-8.065 3.983-12.228 5.615-3.829 1.5-7.729 2.779-11.685 3.902-3.465.983-6.886 2.322-10.431 3.003l-.226-.001c.743-.484 1.471-.995 2.205-1.469 1.925-1.244 3.944-2.404 5.883-3.654 5.544-2.044 10.544-5.024 16.13-7.184 3.254-1.258 6.54-2.489 9.715-3.941 1.807-.826 3.486-1.43 5.369-2.022.566-.177 5.414-2.348 3.471.525m-44.251 21.904c.252.171.5.35.749.528a5.3 5.3 0 0 1-1.086-.125c-.231-.055-1.251-.407-1.936-.741a60 60 0 0 0-.678-.637l-.003-.013c.859.245 1.716.499 2.579.733zm-3.793-12.661c-1.935 1.378-5.288 2.166-7.598 2.754-2.255.574-5.744 1.949-8.029 1.723l-.044-.005c.167-.016.328-.024.499-.048.611-.086.873-.935.572-1.407-.06-.093-.137-.165-.202-.253a26 26 0 0 1 2.269-.892c.464-.129 1.765-.258 2.226-.372 3.2-.787 5.911-1.989 9.298-2.051.919-.017 2.175-.118 3.257-.033-.642 1.264-1.496 2.413-2.388 3.58-1.488.74-3.058 1.318-4.143 1.712-.555.201-1.114.369-1.677.522-1.727-.299-3.55-.33-5.388-.252.95-.376 1.887-.746 2.806-1.029 2.875-.883 6.356-1.822 8.723-3.64.181-.135.01-.446-.181-.309m-19.631 5.511q-.558.01-1.101 0a1.1 1.1 0 0 0-.371.061c-1.054-2.109-5.055-3.338-7.243-4.042.624-.021 1.573.141 2.332.171.973.631 2.142.989 3.339 1.43 1.088.402 2.092.76 3.104 1.018-.13.413-.161.866-.06 1.362m-3.619-13.885q.123.057.251.109l-.542.31c-1.423.825-.595.221.291-.419m6.328 2.862c.191-.055.367-.294.283-.499l-.007-.013c2.181.081 5.2.713 1.197 1.381-1.854.31-4.235.775-6.416.649a3.5 3.5 0 0 1-.589-.253c1.834-.449 3.699-.739 5.532-1.265m27.353 4.569c.434.268.292.017 1.157-.54.699-.45 1.142-1.408 1.615-2.057q.418-.57.825-1.138c-.344.66-.714 1.307-1.128 1.936-.199.3-.467.62-.748.951q-.826.631-1.681 1.216a1.2 1.2 0 0 0-.107-.265q.033-.052.067-.103m-20.784-1.799a54 54 0 0 1 4.275-1.339c-1.702.709-3.378 1.459-5.137 1.951-2.392.669-2.003.417.862-.612m7.558-1.157c1.105-.388 3.734-.906 6.066-1.761l.133.014c.001.457-.015.922-.06 1.394-.023.237-.074.454-.113.681-1.373.551-4.752 1.386-6.488 1.918-2.103.233-4.121.628-6.44 1.221-.245.063-.55.13-.895.205 2.842-.983 5.834-2.982 7.797-3.672m4.424-9.954c.101.453.26.855.513 1.14a19.7 19.7 0 0 0-3.324.234c.948-.378 1.92-.845 2.811-1.374m1.012 2.573.007.03c-.697.544-1.359.854-2.269 1.088-1.531.393-3.123.866-4.739 1.26 1.877-.777 5.133-2.305 7.001-2.378m-2.18 2.651c.78-.192 1.658-.576 2.495-1.078q.186.965.308 1.942c-3.807-.442-8.372 1.094-11.715 2.162-.63.201-1.48.413-2.377.681a2.7 2.7 0 0 0-.154-.903c3.873-.384 7.737-1.89 11.443-2.804m-19.333 6.348a35 35 0 0 0 3.795-.469c-.44.483-.733 1.048-.777 1.728-.024.361.222.799.549.958.699.339 1.483.436 2.314.373-1.113.274-2.307.619-3.377 1.074-1.593-.934-3.646-1.261-5.393-1.586l-.483-.09c2.183-.289 4.098-.85 3.372-1.988m.239 5.034-.027.025a16.6 16.6 0 0 1-3.666-.84c1.26.15 2.542.403 3.693.815m30.771-2.357a73 73 0 0 0 5.15-4.251c-1.556 1.642-3.278 3.137-5.266 4.414zm6.953-14.355c.309-.773.634-1.535.962-2.296a46 46 0 0 1 2.922-2.935 230 230 0 0 1-3.165 6.572c-1.307 2.597-2.807 4.98-4.377 7.409 1.362-2.826 2.477-5.793 3.658-8.75m-36.556 2.11c-1.034.883-2.191 1.629-3.372 2.332a14 14 0 0 0-.581-.353c.486-.463 1.073-1.026 1.667-1.551-.06.203.23.282.342.13a4 4 0 0 1 .339-.5c.225-.066.418-.122.553-.164 1.853-.585 2.457-1.096 1.052.106m-7.459 1.608c.01.062.04.11.055.169-.915.696-1.77 1.453-2.445 2.375-.03.042-.043.093-.064.139a12 12 0 0 1-1.302-.504c-.365-.166-.712-.356-1.062-.543.605-.462 1.107-1.348 1.284-2.185.217.182.493.295.821.291.92-.013 1.824-.142 2.709-.353q-.048.296.004.611m-5.797.651.217-.207c.378-.248.039-.844-.358-.612q-.38.24-.788.425a.38.38 0 0 0-.172.188c-.909-.554-1.816-1.113-2.775-1.606l-.757-.389c1.148-.233 2.228-1.011 3.443-.923 1.016.074 2.308.543 2.216 1.73-.058.711-.434 1.713-1.026 1.394m9.976-12.568c1.902-2.121 3.839-4.518 6.213-5.719.415.118.72.353.831.781.052.203.23.392.439.439.535.121 1.022.32 1.49.552a14.2 14.2 0 0 0-3.715.853c-1.977.744-3.675 1.83-5.258 3.094m-12.801-2.743q-.267.246-.536.506c.032-.163.063-.326.085-.471.014-.093.007-.183.004-.273q.224.117.447.238m1.528.851q.496.285.988.577c-.14.147-.279.299-.418.441a45 45 0 0 0-3.492 4.057c-2.313 3.01-.794.184.096-1.429.813-1.474 1.758-2.614 2.826-3.646m4.047 3.804c.199-.275.424-.533.646-.793q.466.331.924.673c-.582.39-1.163.784-1.736 1.191-1.755 1.253-.692.114.166-1.071m-.989-2.557c1.524-2.021 3.103-3.978 5.035-5.479q.25.463.476.937c-2.058 1.125-3.904 2.811-5.511 4.542m4.189-6.928c-2.21 1.643-4.125 3.97-5.97 5.955a71 71 0 0 0-.951-.575c.951-.881 1.992-1.7 3.129-2.597 1.171-.923 2.345-2.139 3.693-2.935q.05.075.099.152m-5.686 2.342c-.649.426-1.655 1.199-2.737 2.169-.341-.19-.687-.372-1.031-.558a.95.95 0 0 0-.475-.326c-.076-.023-.156-.035-.233-.049-.317-.166-.63-.335-.95-.496.088-.054.174-.122.261-.172 1.232-.704 2.469-.745 3.833-1.122.921-.255 2.367-.846 3.87-1.326-.881.678-1.729 1.348-2.538 1.88m-7.536 11.84c.186.263.42.513.718.741.286.219.821.198 1.11 0 1.426-.978 2.657-2.222 3.804-3.581-.181.627-.164 1.301.196 2.04.737 1.511 2.194 1.69 3.57.95 1.164-.628 1.831-1.982 2.905-2.746.488-.347.976-.601 1.461-.881-1.872 1.742-4.368 3.505-4.735 6.075-.56-.698-1.445-1.159-2.317-1.359a4.7 4.7 0 0 0-2.253.042c-.386.101-.821.309-1.261.472-.09-.241-.296-.428-.589-.389-.67.089-1.02.289-1.612.628a.85.85 0 0 0-.441.701q-1.118-.568-2.24-1.117c.594-.38 1.158-.925 1.684-1.576m2.347 9.881c.89.44 1.799 1.112 2.723 1.743q-.24.123-.477.245c-1.69-.323-3.339-.917-4.731-1.569-.819-.383-1.631-.745-2.438-1.101-.714-.822-1.818-1.212-3.01-1.354q-.634-.296-1.261-.605.46.043.88.038c2.771.79 5.648 1.283 8.314 2.603m-5.671 2.728a1 1 0 0 0 .017-.292c.358-.169.694-.409.997-.746.286-.319.387-.673.361-1.04 1.621.907 2.652 1.994 4.383 2.495q-.86.461-1.751.906c-1.757.143-3.515.28-5.283.369.597-.403 1.078-.938 1.276-1.692m14.053 1.374c.173-.001.26-.132.263-.266.111-.051.223-.103.333-.165.12-.036.236-.079.354-.12-.085.236.017.54.332.516l.282-.023c.363-.029.658-.508.328-.791q-.042-.033-.086-.064.257-.138.5-.303c.954.661 3.071.511 3.61 1.194-.256-.324-4.889.174-5.818.246a.85.85 0 0 0-.637.398c-1.189.014-2.272.19-3.001.668-.479.314-.783.657-.956 1.02a6.3 6.3 0 0 0-1.115.037c.935-.539 1.83-1.158 2.819-1.587.804-.35 1.585-.501 2.34-.748.152-.002.298-.011.452-.012m-16.679 9.676c-.168-.558-.249-1.069-.058-1.225.189.385.417.755.667 1.115zm6.1-.373.286-.006c.433.289.875.567 1.335.827q.464.596.959 1.194c-.937-.582-1.832-1.249-2.58-2.015m2.084-2.598c.186-.267.364-.54.561-.8.11.309.257.634.45.981a52 52 0 0 0-1.011-.181m.375-1.477a.3.3 0 0 0-.176.041c-.773.486-.918.565-1.238.848-.37-.56-.751-1.101-1.159-1.592a43 43 0 0 0 2.892-1.098c-.325.463-.455 1.063-.319 1.801m-7.713 4.666.01.012-.042-.008zm8.532 3.22c.053.028.105.06.159.088a3 3 0 0 1-.339.517q-.277-.335-.549-.68.363.044.729.075m-.07 3.726a9 9 0 0 1-.987-.175q.175-.158.337-.318.333.246.65.493m.754-3.386c.29.141.579.285.873.42a37 37 0 0 0 2.747 2.664 11.4 11.4 0 0 0 2.898 1.831c-1.178-.087-2.256-.45-3.258-1.006a1.4 1.4 0 0 0-.189-.319c-.89-1.071-2.036-1.885-3.2-2.679q.132-.443.129-.911m5.453-2.247a20 20 0 0 1-1.484-1.523l-.176-.184c1.458.427 2.567.866 2.602 1.215q1.313.494-.942.492m-5.996-2.778q.419.089.863.19c.222.282.491.613.792.969-.553-.378-1.104-.768-1.655-1.159m-15.518-3.532c-5.716 1.625-11.207 2.93-17.177 3.214-2.491.119-4.961.064-7.424-.081l.076-.001c3.656-.012 7.19.037 10.79-.673 3.888-.769 7.594-2.198 11.448-3.055 1.941-.432 3.887-.373 5.825-.397-1.179.331-2.359.658-3.538.993m-3.103 4.522-.191.092-.134-.004zm7.566-2.123c.054-.012.102-.019.155-.03-.372.462-.506 1.401-.374 2.424-1.84-.071-3.669-.104-5.494-.137 1.845-.919 3.708-1.817 5.713-2.257m22.824 4.665c1.595-.146 3.172-.036 4.761.212q-.42.063-.844.099c-1.38.108-2.655-.056-3.917-.311m3.507-1.482c-1.758-.462-3.671-.344-5.497.042-1.442-1.358-4.524-2.362-7.252-3.026a5.3 5.3 0 0 1-.661-1.096c-.741-1.746-.149-2.236 1.024-2.082 1.603 2.725 7.594 5.55 9.479 5.375.426-.039.817-.25 1.021-.618.095.039.187.082.301.095 3.058.371 5.302.932 8.477.712 2.227-.155 4.417-.401 6.566-.964q.875.2 1.68.529a39 39 0 0 1-.548.6c-.648.024-.978.503-.995 1.007-.882.114-1.83.104-2.943.001-1.416-.132-2.742-.149-4.152.038-.886.118-1.751.322-2.616.529-1.297-.39-2.593-.803-3.884-1.142m11.174 2.942c-.097.097-.2.192-.296.291-.032-.028-.064-.06-.095-.084a3.3 3.3 0 0 0-.47-.292q.43.047.861.085m4.455 2.845.194-.152c.292-.224.569-.452.85-.679 0 1.432.074 2.864.322 4.204a15 15 0 0 1-1.072-1.469 17 17 0 0 0-.294-1.904m1.596 4.412q.194.723.482 1.388c.624 1.43 1.356 1.942 2.186 2.206.34.873.702 1.742 1.148 2.595 1.559 2.976 3.345 6.146 3.517 9.51.354 6.969-1.127 13.442-1.998 20.28q-.282 2.224-.561 4.446a101 101 0 0 0-.611-10.252c-.7-6.317-2.187-12.449-3.388-18.675-.676-3.503-1.082-7.057-1.695-10.572-.13-.745-.202-1.523-.273-2.306.36.47.762.932 1.193 1.38m4.52 2.358c-.961-.336-1.595-.764-2.035-1.311a30 30 0 0 0-.825-1.865c-.119-.51-.206-1.08-.295-1.717a36 36 0 0 1-.31-4.056l.017-.014c.427.362.613 1.995.881 2.546.723 1.485 1.809 2.836 2.633 4.268.512.889 1.042 1.773 1.574 2.656-.51-.151-1.053-.302-1.64-.507m2.176-8.119c2.584 1.876 5.042 4.119 7.601 6.018.481.356.945.731 1.414 1.101-1.7-1.085-3.372-2.219-5.151-3.183-2.011-1.09-3.716-2.1-5.548-3.524a13 13 0 0 1-.825-.733 7.7 7.7 0 0 0 2.509.321m1.117-2.21a39 39 0 0 1-2.008-.569c8.89-.134 17.746-.469 26.602-.934-3.166.802-6.369 1.463-9.649 1.859-1.47.176-2.997.315-4.541.398-1.616-.009-3.296-.106-4.923.025-1.874-.101-3.722-.341-5.481-.779m34.151-47.689c.35-1.692 1.021-3.257 1.873-4.74q.068-.01.14-.017c-.912 2.074-2.032 4.83-2.167 7.121q-.625 1.032-1.269 2.053a117 117 0 0 1-3.276 4.884c1.104-2.091 1.995-4.211 2.514-6.6.57-2.628.692-6.408 3.445-7.3-.76 1.416-1.353 2.905-1.659 4.488-.05.261.345.373.399.111m2.389-5.568-.016-.002.094-.151zm3.203-4.318q.194-.234.389-.467-.065.105-.127.21c-.09.084-.174.172-.262.257m.775-1.722c-1.599 1.894-3.274 3.9-4.584 6.084-3.007.389-4.115 3.131-4.562 6.122-1.052 7.021-5.172 13.082-9.489 18.478-3.54 4.424-7.218 8.412-11.356 12.11 1.965-3.205 3.59-6.721 5.169-9.84a165 165 0 0 0 2.35-4.849c.211-.185.409-.376.624-.558 4.883-4.132 5.837-11.547 7.842-17.385 2.505-7.296 5.257-14.482 7.534-21.855.671-2.173 1.308-4.393 1.828-6.635.173.284.372.552.645.767 1.255.994 2.455.65 3.893.431 3.046-.463 10.849-1.15 8.45 5.192-.543 1.436-2.003 3.368-2.826 4.648-1.589 2.47-3.627 5.05-5.518 7.29m-28.772-45.448c.127.57.265 1.134.432 1.674a.57.57 0 0 1-.502.404l.005-.12c-.1-.633-.063-1.3.065-1.958m6.54-6.018a60 60 0 0 1-.118-4.069c.128.955.243 1.911.325 2.869.269 3.19.366 6.689 1.341 9.74q-.306.026-.618.059c-.263-2.876-.733-5.72-.93-8.599m-2.953 8.92c-.003-2.458-.586-4.957-.836-7.366a94 94 0 0 1-.353-4.799c.305 1.695.66 3.376 1.112 5.026.53 1.945.83 4.865 1.685 7.041-.536.046-1.074.082-1.608.099m6.013-21.454c2.153 3.671.915 9.343.904 13.285-.007 2.28-.396 5.135-.077 7.687-.317-.003-.627.005-.938.017.931-1.444.538-4.822.527-5.976-.042-4.288-.029-8.84-.664-13.031-.071-.471-.716-.449-.934-.122-1.338 2.006-.331 6.11-.178 8.298.025.37.549.37.574 0 .077-1.08-.125-3.154-.076-4.957.459 4.304.582 9.113.209 13.203-.314 3.433-.298.31-.436-1.106-.196-1.999-.57-3.96-.768-5.962-.32-3.234-.958-6.56-1.216-9.814 1.061-.47 2.127-.94 3.073-1.522m-4.129 2.006c.016 3.264-.14 6.538.025 9.794.151 2.979 1.254 6.244.876 9.188.013.1.022.178.03.253l-.054.006a51 51 0 0 1-.189-1.022 26 26 0 0 0-.77-2.93c-.507-1.85-1.113-3.677-1.535-5.551-.576-2.558-.961-5.251-1.32-7.906.401-.312.806-.611 1.215-.887.525-.352 1.113-.656 1.722-.945m-4.222 2.91c.047 2.362.128 4.716.339 7.095.212 2.404 1.196 5.688.956 8.07-.189 1.887-.003 1.525-.617.428a5 5 0 0 1-.263-.555c.064-2.123-.642-4.713-.904-6.846-.274-2.227-.61-4.473-.989-6.698q.702-.79 1.478-1.494m-3.119 3.649c.216 1.21.549 2.364.677 2.982.339 1.632.564 3.698.936 5.74-.361.945-.652 2.05-.792 3.118-.072-.032-.141-.059-.22-.097-.615-.303-1.265-3.095-1.447-3.684a29 29 0 0 1-.905-4.001c.327-1.434.944-2.796 1.751-4.058m-1.739 7.657c.16.626.417 1.78.823 2.923-.449-.663-.781-1.502-.962-2.562a10 10 0 0 1-.126-1.47c.087.392.177.765.265 1.11m1.555 6.706c.408.261.831.484 1.26.69.823 1.84 1.904 1.408 3.333 1.019.982.141 1.982.16 2.981.055.476-.05.943-.084 1.409-.117.809.242 1.607.628 2.45 1.174.753.488 1.257 1.227 2.049 1.7 1.425.852 2.863 1.082 4.516.985.396-.024.787-.066 1.172-.11 1.051 7.831 1.621 15.362.203 23.291-1.363 7.622-3.766 15.86-6.857 22.968-.118.273.285.511.404.236 2.161-4.982 3.606-10.417 5.13-15.626a73 73 0 0 0 1.506-6.113 111 111 0 0 1-2.9 15.429c-2.629 5.657-5.704 11.078-8.584 16.589.942-3.308 1.673-6.691 2.078-10.028.406-3.347.499-6.702.928-10.05.264-2.058.539-4.112.073-6.158-.391-1.712-.73-3.423-1.082-5.128.042-3.515-.431-6.853-2.175-10.22-.568-1.096-1.091-2.375-1.756-3.546-.447-1.509-.923-3.007-1.603-4.375-1.039-2.089-2.797-3.731-3.804-5.851-1.468-3.089-2.582-6.055-3.051-9.18a7.45 7.45 0 0 0 2.32 2.366m4.85 18.966a94 94 0 0 1 .857 4.232q-.07-.097-.136-.204c-.943-1.573-1.129-3.156-1.225-4.906.173.271.338.568.504.878m-.971-1.534a.46.46 0 0 0-.441.43c-.435 4.19 1.795 5.862 2.825 9.684 1.488 5.523.808 11.532.251 17.151-.031.308-.074.612-.11.92-.562 2.33-1.27 4.641-1.953 6.914-.601 2.001-1.309 3.847-2.33 5.63.006-5.522.724-10.836.331-16.382-.374-5.271-.086-10.595-.813-15.839-.345-2.49-.785-5.025-1.206-7.49-.279-1.635-.88-3.13-1.33-4.686.732.744 1.253 1.3 2.488 1.91 1.073.527 1.753 1.092 2.288 1.758m-1.993 49.48c.24-2.256.249-4.464.241-6.702.243-.392.498-.79.772-1.205.718-1.09 1.282-2.264 1.766-3.477-.44 2.135-.876 4.274-1.226 6.445-.373 2.324-1.124 4.422-1.777 6.587.086-.609.174-1.174.224-1.648m2.426-6.214c.607-3.656 1.511-7.21 2.186-10.829.15-.509.3-1.016.458-1.517l.233-.76c-.143 1.914-.282 3.829-.559 5.737-.511 3.507-1.681 6.755-2.654 10.154a40 40 0 0 1-.684 2.136c.369-1.625.744-3.256 1.02-4.921m-6.452 17.666a52 52 0 0 1-1.864 4.118 8.3 8.3 0 0 0-.632-1.319c2.237-3.225 3.828-7.259 4.814-11.041-.028.885.026 1.731.201 2.507-.861 1.894-1.734 3.786-2.519 5.735m-3.541 1.173c-.371-.557-.727-1.116-1.013-1.69 1.31-2.722 3.502-5.109 4.692-7.903.144-.34.269-.689.406-1.033-.762 3.343-2.173 7.364-4.085 10.626m-1.562.482q.322.53.592 1.036-.45.648-.931 1.225a20 20 0 0 0-.487-2.001q.033-.17.037-.346.16.074.371.138a.143.143 0 0 0 .175-.099c.022-.085.05-.168.074-.252.058.097.11.203.169.299m-12.907-11.712c-2.207.459-3.997 1.512-6.153 2.213-1.798.585-3.311.779-4.237 2.579a.872.872 0 0 0 .972 1.266c2.057-.468 4.046-1.663 6.093-2.353 1.916-.646 3.937-1.512 5.621-2.641.076-.013.146-.02.22-.031a31 31 0 0 1 1.848 1.345c-2.639.609-5.191 1.657-7.813 2.296-2.019.494-4.431.843-6.121 2.162a5 5 0 0 0-.607-.34c-.562-.266-1.517-.343-2.624-.259q.632-.473 1.232-.958c2.584-2.087 4.942-4.515 7.682-6.382a13 13 0 0 1 1.537-.876c.673.41 1.351.814 2.026 1.221.031.283.146.535.324.758m-21.397-10.615c-.173.046-.347.094-.533.152-1.297.402-2.625 1.193-3.978 1.625-1.193.381-2.633.426-3.761.824-1.066.375-2.086.929-3.037 1.609a91 91 0 0 0-4.281-1.922c.336-.074.673-.142 1.007-.221 4.577-1.073 9.752-2.901 14.512-2.169q.036.05.071.102m-25.157 16.609c2.24.647 4.39 1.459 6.499 2.363.288.264.534.527.715.784.757 1.078 1.128.124.718 1.86-.129.546-.26.843-.439 1.008a23 23 0 0 1-2.044-.627c-3.878-1.423-7.171-4.783-10.945-6.65 1.855.303 3.688.741 5.496 1.262m2.97 14.92c.507.187.885.4 1.622.227.601-.14 1.229-.352 1.832-.55 1.366.014 2.686.016 4.044-.179.436-.062.857-.11 1.288-.167-3.62 1.465-6.33 1.129-10.115 1.465-2.571.228-5.002 1.116-7.468 1.808-6.45 1.815-12.439 2.328-19.119 2.33-2.931 0-6.051.327-8.966.053-1.296-.123-4.677-.785-7.233-1.723a1.8 1.8 0 0 0-.099-.473 28.3 28.3 0 0 1 6.242-2.046c4.419-.917 9.56-.696 14.105-1.012 4.021-.279 7.688-.586 11.711.043 3.033.475 5.936 1.481 9.015.874 1.083-.215 2.108-.459 3.141-.65m-41.527 8.375c-5.053.792-10.137 1.544-15.14 2.616l.056-.042c2.313-1.896 4.534-3.462 6.987-5.061 2.398 1.44 5.494 2.085 8.097 2.487m-35.739 12.008c3.572-1.371 7.086-2.941 10.687-4.239 8.846-3.189 18.436-4.601 27.72-5.875 3.948-.542 7.901-.231 11.86-.324 4.571.24 9.159.173 13.636-.379q.989.048 1.987.134.89.077 1.78.124c-8.927 3.072-18.554 3.064-27.88 3.927-9.006.833-17.786 2.117-26.53 4.445-4.425 1.179-8.697 2.192-13 3.815-1.937.73-4.029 1.306-6.064 1.985 1.654-1.486 3.472-2.718 5.804-3.613m70.106-10.479q.977.016 1.951.012-2.754.644-5.514 1.256a44 44 0 0 0 3.563-1.268m-3.021 2.199c2.875-.586 5.824-1.448 8.8-2.252 1.166-.03 2.333-.062 3.505-.085.264-.005.521.015.781.023.616 1.502 1.567 2.862 2.742 4.016-1.977-.08-4.025.437-5.942.759-3.591.602-7.157 1.028-10.626 2.199-1.797.607-4.119 1.408-5.095 3.07-5.026 1.641-10.023 3.386-15.076 4.939-6.567 2.018-13.448 3.164-19.844 5.722-2.51 1.003-7.424 4.42-10.222 3.704-4.423-1.133 1.95-3.903 2.902-4.409 2.762-1.469 5.119-3.649 7.741-5.336 5.574-3.588 13.248-5.729 19.614-7.463 6.883-1.873 13.731-3.462 20.72-4.887m9.321 3.191c2.709-.451 4.994-.663 7.554-.552.112.089.231.169.346.254-5.675 1.253-11.622 1.326-17.251 3.008-1.619.484-3.23.995-4.839 1.516 2.663-3.163 11.408-3.763 14.19-4.226m10.768 1.593c.013.075.056.15.139.21 1.062.759.884 2.284 1.611 3.27a53 53 0 0 1-2.722-.391c-2.998-.519-5.897.778-8.743 1.507-.335.086-.656.177-.986.265q-1.147.267-2.284.545c1.81-.739 3.633-1.46 5.463-2.219 1.568-.651 4.815-1.704 7.522-3.187m-40.408 18.551c-.653.042-1.786.177-2.352-.117-1.002-.519-1.135-1.03-.775-1.421 1.185.348 2.401.713 2.606.73 1.16.106 2.351.047 3.549-.122-.898.45-1.833.854-3.028.93m4.685 3.559c1.539-2.135 3.359-2.995 5.3-4.558 1.165-.937 2.202-2.035 3.183-3.183 5.415-2.269 10.449-4.555 16.199-5.946 2.586-.625 5.373-1.886 8.023-2.022 1.342-.069 2.641.283 3.966.563-2.242 1.775-4.972 2.452-7.575 3.77-4.417 2.238-8.981 3.604-13.476 5.6-5.34 2.371-10.825 4.278-16.178 6.62.178-.286.36-.571.558-.844m43.114-18.159q.421-.153.831-.33c.695-.189 1.319-.364 1.787-.458 1.154-.231 4.235-.795 6.541-1.854.47.072.942.143 1.43.222l.225.038c-.063.034-.125.063-.188.098-3.591 1.98-6.421 2.512-10.427 2.295zm18.74-6.807c-.21.194-.426.362-.641.535-2.504-.653-4.948-1.127-7.39-1.739.082.003.161.012.244.013 2.199.015 4.215-.688 6.357-1.088.218-.042.434-.057.649-.082l.022.006c.714.167 2.503.636 3.84 1.296-.68.753-1.336 1.521-2.013 2.266-.315-.147-.622-.293-.91-.413.103-.108.212-.212.313-.32.293-.318-.155-.766-.471-.474m2.682 4.553c.438-.163.883-.371 1.327-.614-.385 1.112-1.014 2.333-1.158 2.603q-.07.134-.139.269c.004-.616-.007-1.23-.028-1.851a14 14 0 0 1-.002-.407m12.11 47.475c.786-5.577 1.45-11.18 2.536-16.692 1.063-5.394 2.119-12.519.531-17.9-.678-2.298-2.13-4.403-3.195-6.544a29 29 0 0 1-.891-1.995c.404.078.826.157 1.265.291.518.389.978.736 1.343 1.028q.551.446 1.102.893c.715 1.307 1.172 3.139 1.699 4.181 1.562 3.097 2.64 5.892 2.861 9.351.366 5.72.059 10.88-1.268 16.484-1.5 6.33-4.189 12.42-6.84 18.495.405-2.506.695-5.043.857-7.592m40.974-88.701c.848 2.161 1.883 5.565 3.717 7.135 1.663 1.423 5.015 2.019 6.964 2.763 3.718 1.419 7.222 2.685 10.298 5.271 2.025 1.702 4.413 3.367 6.934 4.438a96 96 0 0 0 3.81 1.514q-.63.03-1.241.109c-3.716.481-5.827 1.923-8.839-1.646-1.174-1.392-2.023-1.978-3.69-2.806-4.333-2.156-9.203-3.136-13.218-5.949-4.317-3.024-7.985-8.236-8.393-13.587-.066-.867-.211-3.717.073-5.968l.089-.157c.686 3.05 2.427 6.158 3.496 8.883m8.64-45.731c1.93.668 5.132 2.315 5.806 4.374.831 2.54.23 6.445-1.45 8.4-2.636 3.068-6.395 5.213-9.553 7.853.058-.098.106-.203.168-.3.058-.09.009-.188-.068-.238a74 74 0 0 0 2.311-2.837c1.475-1.934 2.904-3.73 4.156-5.814.733-1.221 2.378-2.749 2.759-4.143.577-2.11-1.432-4-3.13-4.767-3.332-1.505-9.444.97-11.001-3.145q.173-.951.307-1.906c.167-.742.317-1.488.421-2.247.018-.128.025-.253.04-.38.245.76.636 1.472 1.214 2.092 2.156 2.315 5.259 2.102 8.02 3.058M135.069 8.354c10.751-.824 21.385-2.557 32.071-3.938 5.501-.71 10.685-1.16 16.169.012 5.156 1.1 9.569 3.448 14.423 5.308 2.815 1.078 5.792 1.576 8.61 2.706 2.973 1.192 5.138 2.923 7.748 4.686 2.629 1.776 5.922 3.247 7.739 5.904 1.48 2.163 2.718 4.673 4.024 6.929 3.157 5.453 4.839 12.375 4.187 18.699q-.082.778-.163 1.528c-1.948-1.156-4.285-1.95-6.277-2.57a35.3 35.3 0 0 0-5.722-1.273c-.326-4.88-.331-9.743-.249-14.668.048-2.92-.288-5.952-2.165-7.933.118-.137.252-.261.357-.411.582-.832-.003-2.15-.961-2.364-5.148-1.148-7.974 2.578-10.986 6.186a22.8 22.8 0 0 0-3.206 5.097q-.015.028-.03.058c.079-.277.17-.54.286-.778.109-.222-.206-.413-.334-.196-.443.75-.686 1.67-.797 2.663-.099.223-.204.442-.294.67-.825 2.099-1.253 4.619-.997 6.984-.109 2.078-.079 4.26.347 6.253.519 2.431 1.904 4.507 2.776 6.809 1.029 2.715 3.195 4.835 4.1 7.586-.263-.042-.559.036-.783-.044-1.859-.659-2.775-1.052-4.21-2.27a.49.49 0 0 0-.812.472c.954 5.067 2.458 10.011 2.989 15.216.608 5.972.623 12.156.85 18.16.151 4.024-.19 8.094-.399 12.149-.243-3.076-.788-6.14-1.469-9.121-.775-3.396-2.147-6.602-2.936-10.003-.868-3.745-1.632-7.514-2.521-11.254-1.72-7.244-4.147-14.127-6.006-21.293-1.782-6.864-4.564-13.366-7.632-19.743-1.202-2.498-2.555-4.817-4.44-6.853-2.15-2.323-3.636-5.07-5.858-7.298-3.46-3.47-6.914-8.297-11.714-9.958-2.058-.712-5.553-1.832-4.835 1.324.638 2.806 3.149 6.144 4.797 8.471 1.798 2.54 4.033 4.654 6.187 6.881 5.125 5.299 10.309 12.029 14.167 18.309 8.086 13.164 12.864 28.866 14.864 44.146 1.03 7.867 1.727 15.48.407 23.368a66 66 0 0 1-1.043 4.998 42 42 0 0 0-.378 1.694c.042-.216.108-.573.211-1.136.668-3.666-.212-7.311-.752-10.921-1.066-7.139-1.511-14.316-3.385-21.308-1.884-7.032-3.887-13.942-6.946-20.577-6.58-14.269-14.164-29.227-27.068-38.72-5.866-4.316-12.462-7.05-18.611-10.811-3.053-1.867-6.008-3.11-9.505-3.909-3.398-.776-6.842-.845-10.216-1.617.188.314.34.84.587.828 2.069-.105 6.236.597 8.162.94 4.954.887 8.799 3.261 13.128 5.605 7.63 4.13 16.267 7.887 22.309 14.361 6.662 7.139 11.845 15.385 16.19 24.081 5.071 10.148 9.242 20.311 11.946 31.347 1.228 5.013 1.575 10.144 2.271 15.238.354 2.593.784 5.178 1.175 7.765.578 3.832.178 6.983-.115 10.799-.025.315.452.361.536.073 2.285-7.813 3.417-15.903 2.6-24.038-.813-8.084-2.489-15.916-4.057-23.871-.799-4.062-2.582-7.858-3.804-11.804-1.171-3.782-3.213-6.821-4.829-10.406-3.507-7.779-8.834-14.067-14.025-20.766-1.672-2.158-17.911-18.777-12.434-20.446 2.44-.743 7.357 3.947 8.932 5.635 3.001 3.215 5.614 6.473 8.28 9.923 2.209 2.858 4.562 5.162 6.158 8.489 2.092 4.36 4.054 8.902 5.577 13.487 1.326 3.99 1.96 8.145 3.201 12.14 1.288 4.146 2.597 8.052 3.553 12.315 1.062 4.736 2.044 9.484 3.059 14.23.974 4.55 2.56 8.873 3.328 13.467.672 4.016 1.112 7.891.863 11.831-.894 2.77-1.476 5.642-2.822 8.292-.776 1.528-1.853 2.823-2.708 4.295-.006.01-.23.431-.528.923a59 59 0 0 1-1.655-4.111c-1.579-9.384-2.845-18.612-5.13-27.872-2.171-8.796-6.001-15.46-11.111-22.914-10.803-15.757-25.701-27.474-40.014-39.86-6.21-5.372-12.38-11.48-17.886-17.548-.474-.524-2.056-.853-1.498-2.054.111-.237.206-.386.293-.478q-.725-.18-1.445-.412c-.158-.052-.302.085-.31.236-.052 1.102.422 1.386 1.227 2.11 2.026 1.822 4.111 3.328 5.957 5.392 3.613 4.038 7.597 8.072 11.66 11.67 9.471 8.385 19.669 16.162 28.494 25.24 8.274 8.513 16.345 18.629 21.299 29.477 4.946 10.831 5.575 23.349 7.751 34.992-.339-.981-.671-1.955-.995-2.899-.132-.384-.514-.437-.767-.274-.187-1.511-.576-3.009-1.41-4.283-1.242-1.902-3.162-2.864-5.081-3.959-2.58-1.473-4.939-3.272-7.377-4.967-4.039-2.809-8.123-7.307-10.492-12.284.527.48 1.425.453 1.69-.444.204-.69.494-3.385.472-6.255a.76.76 0 0 0-.009-.608c-.096-3.999-.848-8.082-3.324-7.362-1.709.497-1.969 4.414-2.066 5.703-.357 4.812 2.338 10.136 4.783 14.112 2.874 4.675 6.5 8.491 10.602 12.099 1.773 1.56 3.533 2.558 5.538 3.778 2.034 1.237 2.926 2.835 3.329 4.727a13 13 0 0 0-1.65-.208 31 31 0 0 0-1.886-1.886c.106-.177.244-.342.442-.486.309-.344-.076-.864-.495-.642a2.3 2.3 0 0 1-.924.264q-.3-.255-.603-.503c.3-.179.593-.368.867-.584.528-.413-.052-1.21-.62-1.064-.694.179-1.319.284-1.911.337q-1.043-.808-2.084-1.619c-.041-.07-.081-.14-.148-.206-3.834-3.696-7.42-7.301-10.472-11.718-2.677-3.874-4.966-8.598-7.11-12.798-2.315-4.536-4.938-8.59-6.905-13.336-1.555-3.754-4.112-7.443-6.765-10.514-2.616-3.028-6.252-6.019-9.582-8.267-1.673-1.13-3.466-2.314-5.297-3.17-1.638-.766-3.296-.758-4.925-1.289a76 76 0 0 1-2.509-2.705c-1.834-2.08-4.181-3.692-5.876-5.861-1.384-1.774-2.352-3.896-3.616-5.774-2.869-4.262-6.912-5.633-10.588-8.9-2.652-2.357-10.865-11.475-8.52-15.79 1.435-.376 2.904-.551 4.388-.644 5.288-.33 10.716-.637 16.015-.639 5.978-.002 12.149.475 18.107.018m31.303 75.358c.421-.013.985.284 1.448.457a14 14 0 0 1-.118 1.68 6 6 0 0 0-.463-.82c-.542-.79-1.937-1.284-.867-1.317m-1.607-2.292c.054-1.007.151-2.128.345-2.37 1.201-1.5 1.833-.995 2.255.862.165.725.299 1.514.381 2.33-.896-.756-1.96-1.533-2.981-.822m-57.766-52.01c-3.191-3.538-5.617-6.818-9.406-9.818-2.397-1.898-4.98-3.38-4.605-6.673.266-2.353.536-2.357 2.475-2.982-1.018 2.576 1.016 5.406 2.371 7.75 2.828 4.887 6.337 8.564 10.995 11.65 3.19 2.113 4.909 4.676 6.437 8.105l.011.021c-2.858-2.576-5.684-5.176-8.278-8.053m41.452 38.167c-2.071-2.329-4.337-4.445-6.306-6.873-1.466-1.808-3.015-3.863-5.065-5.069-1.997-1.175-3.782-1.809-5.593-3.372-.288-.25-.557-.5-.835-.749 1.068.323 2.133.717 3.18 1.325 5.978 3.462 10.917 8.227 14.704 13.889a25.5 25.5 0 0 1 1.768 3.14 35 35 0 0 0-1.853-2.291m17.907 37.285a7 7 0 0 0-.395-.053c-.837-.076-1.649.055-2.441.308a12.9 12.9 0 0 0-3.034-1.02q-.527-.62-1.097-1.222l-.289-.303c-.124-.186-.243-.375-.366-.562 2.471.895 5.241 1.631 7.622 2.852M136.044 77.87c-.397-.854-2.17-2.56-1.197-2.616 4.173-.238 2.973 5.59 2.812 8.81a9 9 0 0 1-.322-.885c-.523-1.758-.509-3.626-1.293-5.31M80.588 51.947c4.639-2.053 8.672-2.907 13.669-3.295 3.519-.272 6.882-1.144 10.456-.415 3.571.73 9.079 2.867 12.144 4.719 2.488 1.503 5.865 4.156 8.104 6.14 3.03 2.687 6.742 4.53 9.683 7.286 6.442 6.04 11.015 14.643 15.574 22.152 1.673 2.756 3.265 5.56 4.871 8.356a105 105 0 0 1-3.258-1.478 82 82 0 0 0-3.065-2.667 148 148 0 0 0-5.388-4.196c-1.455-1.844-3.775-2.183-3.771-5.076.004-2.418.808-3.485-.402-5.906-.698-1.395-1.748-2.178-2.987-3.101-.995-.742-2.85-2.322-3.548-.457-.366.98.913 2.104 1.32 2.752 1.223 1.956 1.293 4.137 1.527 6.323-5.157-3.322-10.533-6.3-16.082-8.794-10.705-4.81-21.984-8.787-33.587-10.787-11.105-1.913-22.05-2.668-32.758.972 5.927-4.03 12.182-7.228 19.045-9.445 2.89-.936 5.676-1.853 8.453-3.083m69.87 42.796a88 88 0 0 1-3.757-1.971c-.76-.423-1.558-.911-2.358-1.453a4.5 4.5 0 0 0-.298-1.59c2.178 1.603 4.338 3.265 6.413 5.014M26.497 92.72l.03-.04c-2.552 3.523-4.97 7.137-6.586 11.189-1.665 4.173-3.177 7.08-6.36 10.319-2.226 2.266-4.948 4.067-6.99 6.484-.17.201-.344.423-.521.654 4.34-10.868 13.146-19.68 20.427-28.606m-12.205 47.862c-3.438-.136-6.675-1.322-8.86-4.103a7.9 7.9 0 0 1-1.406-2.76c1.332 1.669 3.37 3.369 4.668 4.428 1.507 1.23 2.755 1.516 4.708 1.516.305 0 .296-.444 0-.467-2.89-.235-8.38-4.268-9.717-7.738-.078-2.377.602-4.859 1.315-7.158q.017-.052.035-.102c1.441-2.341 3.562-4.376 5.397-5.908 4.42-3.689 7.849-7.679 9.902-13.032 2.88-7.509 8.284-13.65 12.924-20.113 5.081-7.08 10.331-13.818 17.431-18.984.565-.41 1.137-.804 1.709-1.2 14.13-4.999 29.795-2.562 43.938 1.356 13.707 3.797 27.52 9.22 39.252 17.398.077.601.175 1.201.322 1.795.982 3.948 4.209 7.388 7.675 9.474 4.527 2.724 9.067 4.743 13.955 6.582.327.37.653.74.968 1.119.267.409.542.813.817 1.216-3.64-.485-7.576.205-10.978 1.053-2.425.605-4.899 1.06-7.379 1.474-5.648-2.114-11.458-3.824-17.076-5.43-7.306-2.088-15.453-3.447-23.065-3.629-7.377-.176-14.761 1.216-21.993 2.502-14.763 2.624-29.779 7.299-43.63 12.998-6.097 2.509-11.632 5.224-17.132 8.844-3.08 2.028-6.158 4.183-9.2 6.29-1.758 1.219-3.6 2.336-4.556 4.321-.029.06-.02.147.047.18 1.674.812 4.261-.888 5.82-1.324 4.557-1.272 9.018-2.87 13.61-4.059 9.12-2.363 18.378-4.835 27.782-5.726 8.695-.824 17.319-2.27 25.956-3.56 9.901-1.479 19.4-1.374 29.35-1.046 3.648.121 7.208.239 10.795.582-.842.295-1.664.669-2.412 1.054-3.183 1.281-6.356 3.634-4.084 6.079 1.694 1.822 5.015.553 7.821-1.22 1.703.712 4.371.348 5.806.152 2.639-.361 5.145-1.077 7.686.293 1.887 1.017 3.342 2.783 5.039 4.137-.095.026-.184.061-.276.093-3.348-.42-6.699-.932-10.049-1.284-17.365-1.829-35.337-.989-52.279 3.547-17.342 4.642-32.99 12.269-47.7 22.404.063-2.955.593-6.537-1.338-9.003-3.04-3.883-7.34-2.872-11.598-3.041m31.261 19.736c-2.694 1.524-3.918 1.401-7.009 1.11-.904-.085-1.766.062-2.658.033-2.07-.065-3.43-1.245-5.305-1.548-.982-.159-3.52.64-4.084-.321-.21-.359.47-1.819.547-2.322.203-1.331.17-2.718.178-4.068l.352-.145c.655-.277 1.261-.678 1.85-1.121a52 52 0 0 1 2.974-1.458q-1.272.549-2.545 1.127c.752-.594 1.482-1.226 2.247-1.719 3.452-2.226 7.017-4.579 10.659-6.488 16.626-8.714 34.27-14.668 53.056-16.589 8.499-.87 16.908-.578 25.407-.242 5.172.205 10.553.673 15.662 1.467l.102.019c-1.226.53-2.09 1.696-1.617 3.376.351 1.241 1.344 1.847 2.47 2.171.436.882.559 1.777-.515 2.679a.37.37 0 0 0-.143.329c-1.867.36-3.714.752-5.665.525-2.954-.346-5.849-1.209-8.822-1.478-5.976-.539-12.544.895-18.545 1.005-3.812.07-7.292.948-10.604 2.445-.654-.6-1.63-.993-2.504-1.243.034-.623-.024-1.247-.164-1.642a3.2 3.2 0 0 0-.312-.645c4.565-.471 9.191-.868 13.489-2.268.187-.06.108-.356-.082-.295-4.021 1.287-8.216 1.367-12.37 1.909-.469.061-.936.13-1.404.195-.343-.354-.762-.629-1.25-.942-1.52-.97-3.227-1.936-4.207.024-.272.542-.377 1.162-.36 1.812-1.697.288-3.39.594-5.074.928-8.86 1.757-17.519 4.22-26.24 6.515-5.756 1.513-11.25 3.27-16.676 5.395 3.055-1.15 6.163-2.129 9.104-3.003 6.27-1.861 12.742-3.947 19.146-5.268 6.6-1.362 13.112-3.089 19.764-4.207.165 1.852 1.222 3.872 2.2 5.003q.445.51.973.941c-1.42.743-2.868 1.485-4.08 2.414-3.195 2.45-5.311 5.132-9.718 5.11-5.06-.024-9.379-4.354-13.962-.797-2.13 1.653-3.842 3.83-5.758 5.71-2.593 2.547-5.398 3.808-8.507 5.567M93.497 177.8c-4.572-1.447-9.074-2.977-13.845-3.859-8.5-1.571-16.484-4.37-24.882-6.209-1.62-.355-4.004 1.589-4.102-1.989.175-.01.359-.065.549-.191 9.028-5.961 21.395-8.885 31.92-10.929 11.577-2.25 23.339-2.45 34.978-4.105.197-.028.391-.061.587-.09q-.566.125-1.134.251c-5.298 1.191-10.751 2.544-15.874 4.343-4.75 1.667-10.012 3.176-14.263 5.913-3.545 2.285-6.77 4.676-10.524 6.611-1.249.643-3.52 1.809-2.695 3.577 1.482 3.177 8.892-.871 10.752-1.714 9.43-4.277 19.946-6.141 29.842-9.137 2.442-.74 4.851-1.598 7.264-2.445a3.5 3.5 0 0 0-.145.979c-.004.421.652.422.655 0a2.9 2.9 0 0 1 .287-1.256c3.464-1.208 6.943-2.364 10.548-3.073 3.393-.668 6.852-.765 10.263-1.296.231-.036 1.684-.257 2.457-.426q.2.13.406.252c-.471.244-.881.454-1.181.619-4.17 2.298-8.655 3.895-13.027 5.749-2.593 1.099-5.545 2.451-8.03 4.028-1.099.538-2.355 1.108-3.57 1.767-.323.151-.64.294-.964.451-1.793.861-3.584 1.725-5.395 2.458a9 9 0 0 0-.374-.034c-2.825-.191-14.627-2.314-13.377 4.089.514 2.632 3.329 3.403 5.626 3.532.885.049 1.851.073 2.777-.058-.455.639-.916 1.222-1.827 1.7-.538.283-1.356.236-1.952.504-2.281 1.029-3.17 2.326-6.205 1.888-1.878-.272-3.763-1.335-5.545-1.9M55.57 239.2c-5.947-2.574-11.045-9.837-12.847-15.871-.883-2.956-.538-7.088.291-10.016 1.07-3.778 2.958-5.456 6.75-6.51 5.683-1.578 11.796-2.042 17.361-3.965 2.596-.897 5.304-1.592 7.872-2.538 2.39-.88 4.423-2.44 6.679-3.578 5.816-2.936 11.857-4.545 17.097-8.607 6.006-4.657 13.985-8.735 21.204-11.103 6.002-1.969 12.025-4.541 17.685-7.363 2.93-1.46 5.691-3.322 8.43-5.104.626-.407 3.825-2.167 4.301-3.217q.433.065.874.094c-.312.329-.647.7-1.042 1.123-2.728 2.924-5.281 6.505-8.442 8.952-3.76 2.91-6.885 6.511-10.68 9.355a253 253 0 0 0-9.778 7.741c-7.224 5.995-15.17 10.225-23.067 15.151-8.04 5.016-15.563 10.332-24.079 14.559-.395.196-.118.877.303.72 8.189-3.044 15.342-8.245 22.71-12.819 7.532-4.676 15.747-7.995 23.013-13.164a190 190 0 0 0 19.715-16.089c3.152-2.946 6.181-5.108 8.956-8.482 1.121-1.362 2.376-2.756 3.389-4.185.271-.381.553-.908.836-1.453.154.188.296.386.46.565.04.044.108-.022.066-.066-.172-.184-.321-.389-.482-.582.238-.458.477-.916.714-1.319 3.548-.048 7.098-.265 10.32-1.876a43.4 43.4 0 0 0 5.915-3.559c.805-.133 1.488-.49 1.812-1.278.023-.057.035-.109.053-.164a32 32 0 0 0 1.735-1.531c.358.089.717.172 1.073.277-1.052 1.081-2.199 2.073-3.633 2.813-7.06 3.648-12.249 9.204-17.056 15.204a2.5 2.5 0 0 0-1.163-.452c-.453-.057-.924.038-1.391.237.452-1.365.931-2.739 1.633-3.667.12-.157-.147-.311-.265-.155-.842 1.111-1.343 2.582-1.827 4.053-1.586.914-3.034 2.959-3.468 4.645-.571.578-1.034 1.187-1.216 1.522-.832 1.534-1.432 3.26-2.181 4.859a31 31 0 0 0-.372.819 72 72 0 0 1-2.713 2.916c-5.569 5.677-11.728 11.106-17.832 16.202-6.499 5.425-13.061 10.655-19.909 15.649-6.642 4.843-13.376 9.891-19.535 15.331-.734.649-8.299 6.113-7.352 7.5a.65.65 0 0 0 .301.234c-1.22.304-2.444.571-3.679.695-6.052.604-12.016-.112-17.539-2.503m121.638-4.217c-1.682 1.526-3.639 2.18-5.01 4.036-1.123 1.521-1.793 2.626-3.45 3.719-.986.65-1.999 1.2-2.913 1.951-2.757 2.26-4.558 5.229-8.51 4.95-3.935-.278-7.642-.259-11.514-1.175-5.953-1.409-11.654-3.929-17.497-5.743-5.836-1.812-11.826-2.406-17.914-2.617-6.497-.226-12.892-1.811-19.412-1.332-2.85.21-5.71.511-8.54.925-.892.13-1.778.326-2.662.542 2.786-1.358 6.365-3.94 7.096-4.353 15.001-8.475 30.654-16.16 45.303-25.207 6.301-3.892 11.792-8.933 17.435-13.69 6.322-5.332 11.403-11.024 15.543-18.207 4.07-7.063 7.492-14.654 10.84-22.095.135-.122.278-.236.411-.36-.025 1.101-.032 2.208-.051 3.316-1.567 2.993-3.095 5.997-4.533 9.058-1.607 3.422-3.754 6.477-5.289 9.957a99 99 0 0 1-5.559 10.718c-4.322 7.244-9.871 13.507-15.408 19.823-5.941 6.776-12.097 13.354-18.87 19.31-.88.774-1.738 1.582-2.596 2.391a46 46 0 0 0-2.705 1.357c-2.266 1.246-5.541 2.827-6.082 5.585-.02.102.089.213.19.146 3.169-2.121 6.208-4.471 9.14-6.975l.018-.008c15.082-6.57 27.844-17.855 36.272-31.96 4.399-7.362 9.966-13.614 12.693-21.922 1.354-4.122 2.141-8.432 2.838-12.706.278-1.699.541-3.409.645-5.13.947-1.543 1.994-3.194 2.542-4.776.65-.427 1.277-.887 1.843-1.323-.084 1.336-.092 2.7-.218 3.955-.319 3.193-.104 6.552.362 9.727.8 5.455 1.914 11.067 3.155 16.429 1.421 6.142-1.153 12.326-.751 18.557.278 4.306 1.827 8.891 2.258 13.346q-.12.56-.241 1.124a111 111 0 0 0-2.146 5.561c-.91 2.586-3.516 6.823-4.268 10.622a34 34 0 0 1-2.445 2.474m-.87-74.378c-.04 1.236-.119 2.469-.316 3.691-.802 4.99-1.721 10.024-3.512 14.768-1.895 5.016-4.806 9.567-7.865 13.94-2.989 4.274-5.458 9.081-8.872 12.981-3.057 3.493-5.927 7.114-9.27 10.361-3.711 3.603-8.094 6.17-12.213 9.24-2.728 2.033-5.737 3.301-8.746 4.657 5.938-5.172 11.434-10.952 16.651-16.713 8.226-9.086 16.085-18.096 21.907-28.948 1.346-2.51 2.453-5.092 3.645-7.673 1.29-2.789 3.134-5.22 4.441-7.997 1.212-2.578 2.47-5.11 3.782-7.641.112-.217.24-.442.368-.666m-52.951 70.979c-1.725 1.619-3.475 3.211-5.44 4.515-3.351 2.226.333-1.611 1.533-2.396 1.264-.826 2.559-1.497 3.907-2.119m59.916-1.117c.514-.61 1-1.237 1.44-1.886-.013.152-.034.303-.04.455-.017.436-.003.886.025 1.342-2.011 1.866-2.838 3.576-2.814 6.179-.299-1.893.443-4.088 1.389-6.09m.315 3.918c.253-.746.722-1.459 1.312-2.111.154 1.009.369 2.026.599 3.014-.43 1.316-.791 2.65-1.033 4.048-1.049-1.339-1.595-2.836-.878-4.951m2.103 6.289c.995-2.019 2.159-3.973 3.272-5.951-.594 2.27-1.538 4.743-2.035 7.183a17 17 0 0 0-.682-.696q-.284-.269-.555-.536m7.64 7.278c-.523-.101-1.462-.933-2.312-1.761.381-.466.689-.988.94-1.548a17 17 0 0 0-.063 1.242c-.004.328.356.511.632.363 2.099-1.131 2.397-3.428 3.075-5.595.591-1.889 1.046-3.814 1.556-5.725-.394 2.587-.621 5.21-.772 7.802-.075 1.314-.39 2.528-.353 3.67-.672 1.093-1.546 1.776-2.703 1.552m6.452-20.283c-.99 3.657-.552 7.289-1.468 10.951-.266 1.061-.623 3.594-1.366 5.759.078-2.252.513-4.758.639-5.774.362-2.93.802-5.965 1.431-8.846.078-.354-.402-.729-.671-.39-2.887 3.624-1.964 9.351-4.277 13.281-.942 1.603-.519 1.38-.742.194-.277-1.475.604-4.009.942-5.47.126-.547 1.647-4.699 1.857-6.886.284-.739.582-1.47.923-2.176.204-.423-.407-.796-.638-.373-1.105 2.02-1.769 4.434-2.343 6.749a53 53 0 0 0-.436 1.252c-.207.671-1.923 9.097-3.368 7.7-.501-.484 1.521-6.557 1.789-7.603.738-2.888 1.794-5.477 2.936-8.196a74 74 0 0 1 4.958-.758q-.084.28-.166.586m5.48-4.142c-4.052.522-7.629 1.698-11.546 2.676-2.981.745-5.71 1.553-8.106 3.406q.07-1.667.33-3.314c.043-.109.097-.214.136-.326.278-.804.497-1.6.669-2.392 1.042-2.45 1.903-5 2.855-7.487.302-.508.614-1.011.948-1.501 4.581-6.721 8.413-13.125 10-21.157.676-3.427 1.647-6.542 1.327-10.087-.236-2.618-.935-5.542-1.844-8.243a32 32 0 0 0-.326-2.123c-.403-2.079-1.469-4.067-2.537-5.868-.122-.205-.23-.424-.344-.636 4.148 3.493 8.185 7.129 11.893 11.092 5.17 5.523 10.134 11.155 15.434 16.533 6.195 6.285 11.247 13.447 17.949 19.258 5.704 4.947 11.098 10.49 17.025 15.198a106 106 0 0 1-4.822 2.017 24 24 0 0 1-1.757.165c-2.534.136-5.059-.209-7.583-.362-2.741-.166-5.435.136-8.166.041-2.723-.094-5.237-1.215-7.748-2.374l-.172-.08c-1.702-.786-3.405-1.58-5.171-2.072-7.393-2.064-16.406-7.02-23.992-2.384-.338.207-.039.716.31.531 4.619-2.447 11.01-1.772 15.708-.071.698.253 1.389.486 2.082.719-4.132-1.025-8.306-1.707-12.552-1.159m31.787 8.776a45 45 0 0 1-2.994-1.578c.85.242 1.751.403 2.743.435 4.703.149 9.532.307 14.24.307.321 0 .652-.006.983-.014-4.822 1.763-10.12 3.135-14.972.85m51.723-39.183c-.398 4.404-2.327 9.529-4.61 13.251-2.471 4.027-5.16 9.369-8.811 12.389-3.577 2.959-7.551 5.453-11.705 7.607 1.965-2.437 3.531-5.226 6.369-6.978 1.322-.815 2.929-1.199 4.191-2.095 1.105-.784 1.785-1.946 2.757-2.872 3.072-2.925 5.627-5.199 7.307-9.256 1.167-2.817 1.567-5.891 1.824-8.911.342-4.016-.485-5.82-2.125-9.324-4.178-8.927-1.716-19.908.13-29.143q.096-.472.223-.994c1.124 3.38 1.201 6.58 1.438 10.337.247 3.914 1.292 7.857 1.802 11.754.314 2.408.185 4.853.541 7.247.347 2.339.886 4.598.669 6.988"/><path fill="#79977F" d="M226.076 58.946c-.017-.078-.039-.157-.043-.234.023.503.034.498.043.234M118.209 10.547c.155.038.312.068.468.104-.127-.21-.27-.319-.468-.104M32.398 150.479c1.329-.57 2.66-1.11 3.995-1.632a71 71 0 0 0-3.995 1.632M112.774 191.232c7.864-5.429 15.633-11.172 23.189-16.982.068-.051.001-.167-.067-.115-12.121 9.291-24.616 18.237-37.94 25.77-2.169 1.226-34.412 16.781-35.303 9.622-.038-.302-.514-.31-.481 0 .772 7.115 24.312-3.522 26.38-4.637 8.17-4.402 16.541-8.355 24.222-13.658"/></svg>