<svg width="292" height="253" viewBox="0 0 292 253" fill="none" xmlns="http://www.w3.org/2000/svg">
<path d="M173.84 171.457C173.785 171.457 173.785 171.371 173.84 171.371C173.896 171.371 173.896 171.457 173.84 171.457Z" fill="#506956"/>
<path d="M0.816523 183.791C1.14699 179.608 1.60194 175.498 2.23853 171.339C2.789 167.746 2.58209 164.14 3.19715 160.593C3.79536 157.146 4.94782 154.234 6.5084 151.145C6.64227 150.881 6.76767 150.608 6.89311 150.336C6.94273 149.991 7.01952 149.659 7.13561 149.345C7.32471 148.831 7.60649 148.324 7.94538 147.826C9.87012 142.876 11.5327 137.45 17.1225 135.816C23.993 133.806 30.2747 132.272 36.4383 128.55C41.9851 125.201 47.9335 123.57 53.9577 121.112C57.0854 119.836 57.5554 117.288 58.5337 114.2C59.8377 110.08 62.6892 105.995 61.8439 101.559C61.0435 97.3611 59.1918 94.3373 55.8347 91.7488C53.2313 89.7417 50.6371 87.5567 48.1582 85.3913C44.2066 81.9407 41.9908 75.66 44.7861 70.6637C46.0331 68.4337 48.8828 66.8554 51.1398 65.908C53.1535 65.0626 55.7148 65.2021 57.5919 64.1461C60.2805 62.6333 59.2582 60.4174 58.5318 58.0704C57.8035 55.7141 58.2594 53.8718 59.3678 52.4048C59.1047 50.32 58.8697 48.2361 58.8248 46.1307C58.7087 40.7093 59.6898 35.1214 61.975 30.2037C62.7969 28.4344 64.1066 26.9384 65.0961 25.2655C66.4002 23.0599 67.3373 20.6034 69.2274 18.805C70.8741 17.2379 73.075 16.1529 74.9595 14.9116C77.6351 13.1488 80.0326 11.0986 82.9637 9.78607C87.8205 7.6123 92.9104 6.45148 97.7485 4.21124C102.844 1.85118 108.682 0.402937 114.288 0.0621743C119.542 -0.25612 124.945 0.709991 130.129 1.54411C136.697 2.60104 143.244 2.77891 149.806 3.73567C156.438 4.70272 162.735 4.73549 169.415 4.73362C174.678 4.73175 179.896 5.05378 185.133 5.22884C185.25 5.14272 185.424 5.15395 185.55 5.24101C186.461 5.27003 187.371 5.30561 188.283 5.32152C194.236 5.42544 207.801 7.2987 202.28 16.4394C199.786 20.5688 195.022 22.647 191.852 26.1511C188.153 30.2402 184.972 34.688 180.82 38.3952C178.762 40.2319 176.269 41.4012 174.214 43.2641C172.416 44.894 170.938 46.9095 168.991 48.3727C168.744 48.5581 168.495 48.7247 168.245 48.8811C166.167 51.023 163.982 53.0676 161.763 54.9324C159.588 56.7607 157.769 56.9293 155.43 58.4224C152.774 60.1178 150.561 63.048 148.278 65.2152C145.766 67.5996 143.237 70.0299 141.073 72.7382C140.593 73.3392 140.156 73.9861 139.737 74.6498C138.744 77.2889 137.768 79.9392 136.303 82.4069C132.679 88.5106 129.73 95.2126 125.622 100.904C127.425 100.216 129.362 99.7492 131.151 99.063C132.902 98.3909 134.585 97.715 136.238 97.0119C139.538 91.3041 142.853 85.6104 146.398 80.0459C149.515 75.1516 152.385 70.2817 156.445 66.1167C160.6 61.8525 166.03 58.7585 170.654 55.0523C175.315 51.316 179.996 48.7276 185.808 46.9114C190.841 45.3377 196.765 46.1409 201.873 46.5528C207.789 47.0294 213.587 50.5943 219.17 52.3851C224.301 54.0309 228.884 55.8779 233.461 58.4749C230.895 56.7205 228.349 54.9427 225.943 52.9459C223.385 50.8236 219.82 49.5991 216.811 48.2258C213.356 46.6493 209.745 45.3461 206.04 44.4961C202.23 43.6227 198.478 43.7416 194.647 43.3119C191.029 42.9056 187.088 42.3308 183.481 43.1771C180.113 43.9672 178.188 45.9696 175.465 47.8345C171.962 50.2338 167.922 50.6092 165.06 54.0674C164.718 54.4812 164.021 53.941 164.316 53.4926C165.614 51.5173 166.934 49.8753 168.983 48.6405C170.624 47.651 172.375 46.9985 173.904 45.8226C175.258 44.7816 176.213 43.3231 177.582 42.3195C181.953 39.1169 188.278 39.2283 193.387 39.7816C200.284 40.5287 206.662 40.7655 213.284 43.178C218.699 45.1505 224.865 47.46 229.185 51.3104C233.783 55.4089 239.542 58.3522 244.444 62.1633C249.797 66.3255 253.267 71.6129 257.933 76.3874C262.722 81.2882 266.095 87.5333 270.332 92.9274C274.314 97.9996 278.829 102.663 282.48 107.99C287.983 116.02 297.276 131.24 288.002 139.813C284.005 143.507 279.392 143.764 274.237 143.644C271.353 143.577 268.838 144.084 267.793 147.18C266.885 149.867 266.91 154.389 267.338 157.237C267.709 159.717 268.363 162.854 264.738 162.463C262.777 162.251 262.321 161.967 260.457 162.76C259.475 163.178 258.577 163.643 257.53 163.883C255.142 164.429 252.002 164.943 249.515 164.759C247.251 164.591 245.74 163.371 243.746 162.326C243.482 162.187 243.222 162.051 242.964 161.913C244.17 163.681 244.597 165.613 243.441 167.786C241.658 171.141 236.495 170.438 233.458 171.312C227.71 172.965 222.534 175.223 216.596 176.347C213.514 176.93 210.391 177.441 207.369 178.295C204.262 179.172 201.419 180.791 198.32 181.682C196.069 182.33 194.06 183.249 192.043 183.446C196.502 186.34 200.88 189.346 205.864 191.287C209.001 192.509 211.896 193.709 214.814 195.397C218.213 197.362 222.118 198.305 225.822 199.585C232.531 201.903 240.553 201.545 246.758 205.281C251.615 208.205 252.231 215.727 251.866 220.886C251.435 226.967 246.936 233.18 242.524 237.074C238.218 240.874 233.336 243.693 227.455 244.207C219.316 244.92 212.086 242.721 204.051 241.974C195.787 241.205 187.684 242.796 179.435 243.236C170.586 243.709 161.922 246.172 153.738 249.486C147.506 252.009 139.785 253.647 133.072 252.317C129.76 251.662 128.065 249.227 125.752 246.984C123.261 244.569 120.993 243.309 119.031 240.507C117.428 238.217 114.801 236.544 112.659 234.511C112.589 236.347 111.823 237.949 109.876 239.032C109.33 241.139 108.139 242.41 106.518 244.472C106.178 244.905 105.804 245.377 105.403 245.865C105.387 245.997 105.374 246.13 105.352 246.26C105.314 246.479 105.055 246.581 104.857 246.519C101.943 249.931 97.8514 253.529 94.3923 249.183C91.8815 246.028 91.2665 242.379 90.3378 238.567C89.8295 236.482 89.719 234.979 89.72 232.856C89.72 232.273 89.6966 227.791 89.1836 226.542C86.1719 226.211 83.018 225.849 80.0944 226.54C76.5838 227.37 73.1434 228.422 69.6374 229.279C65.2965 230.341 61.9488 232.134 58.0515 234.229C54.8433 235.953 51.7605 237.007 48.0824 236.599C41.2671 235.843 34.7683 232.83 28.555 229.921C28.5531 230.222 28.5522 230.523 28.5503 230.825C28.5503 230.86 28.4969 230.86 28.4969 230.825C28.495 230.514 28.4941 230.202 28.4922 229.892C27.631 229.488 26.7753 229.086 25.9244 228.693C19.4705 225.711 13.6766 220.989 9.84204 215.105C5.62557 208.635 1.37631 202.329 0.186454 194.496C-0.390221 190.753 0.525377 187.48 0.816523 183.791ZM10.8952 179.383C10.5956 183.021 9.00509 186.002 7.50255 189.214C5.61619 193.246 6.50278 199.441 7.8883 203.54C9.57151 208.517 13.1982 211.743 16.8539 215.228C19.4105 217.665 22.9998 218.596 25.5817 221.164C26.9457 222.519 27.8612 224.13 29.0193 225.616C29.6914 222.106 32.3408 218.908 34.0259 215.882C36.8643 210.785 38.6711 205.212 41.5199 200.124C46.8064 190.683 55.1251 183.967 63.6058 177.555C67.9374 174.279 72.5367 171.427 76.9339 168.265C79.4971 166.421 81.83 164.325 84.1714 162.236C77.5733 165.394 71.1128 168.764 64.395 171.728C56.3908 175.259 47.8923 178.361 40.3225 182.794C32.7527 187.226 26.5619 193.776 19.155 198.417C19.0595 198.477 18.9734 198.327 19.067 198.267C24.8927 194.567 30.3496 189.71 35.8402 185.522C40.9507 181.625 46.8008 179.031 52.6003 176.317C58.7939 173.419 65.1748 170.897 71.3263 167.927C73.7697 166.747 75.935 165.225 78.4551 164.207C80.8255 163.248 83.2698 162.122 85.6402 160.935C87.0884 159.659 88.5573 158.405 90.1057 157.239C93.1098 154.975 96.0587 152.473 99.1611 150.272C99.0366 150.254 98.9121 150.236 98.7867 150.217C98.7249 150.226 98.664 150.241 98.6023 150.25C97.5341 150.4 96.4229 150.488 95.2967 150.536C94.6657 150.807 94.0347 151.074 93.3972 151.322C85.3706 154.449 77.049 156.776 68.955 159.681C59.0448 163.239 48.5467 167.306 39.7599 173.176C34.9096 176.416 30.5349 180.487 27.0974 185.203C25.8626 186.897 24.9226 188.809 23.6242 190.45C22.4989 191.874 20.5255 193.141 20.0303 194.941C20.0078 195.023 19.8786 194.989 19.9011 194.905C20.5339 192.57 23.3471 190.623 24.6511 188.641C26.9897 185.085 29.317 181.749 32.4035 178.77C38.9051 172.495 46.5152 168.491 54.7413 164.972C63.4953 161.228 72.4946 158.433 81.3245 154.996C85.393 153.412 89.5328 152.092 93.6154 150.573C91.2516 150.581 88.8587 150.415 86.6353 150.154C80.9997 149.491 75.5521 148.089 70.1664 146.434C64.0467 146.082 57.9242 145.682 51.7867 145.245C46.8616 144.894 41.9543 143.91 37.1798 142.521C34.5698 142.508 31.9579 142.427 29.3395 142.154C27.777 141.99 21.2576 141.92 18.7768 140.101C17.4699 140.591 16.1349 141.395 14.7896 141.581C14.55 141.786 14.3234 141.995 14.1062 142.207C13.7252 142.724 13.3798 143.309 13.0821 143.989C11.587 147.411 10.3185 150.823 8.69429 154.208C8.54638 154.516 8.43033 154.816 8.30301 155.119C9.03041 158.891 9.91976 162.667 10.3532 166.474C10.8325 170.679 11.2444 175.135 10.8952 179.383ZM32.8576 228.302C37.4981 224.451 41.7015 219.958 46.181 215.945C51.3542 211.311 56.3356 206.812 60.7449 201.421C65.0025 196.215 69.9436 191.743 74.4559 186.795C79.1339 181.666 83.7463 176.617 88.6677 171.728C90.9407 169.469 93.3167 167.375 95.7367 165.333C96.3695 164.054 96.9481 162.729 97.6352 161.595C98.4694 160.217 99.4018 159.679 100.51 159.294C102.085 156.88 103.621 154.444 104.921 151.867C105.357 151.004 105.476 150.032 105.842 149.268C103.499 151.178 101.041 152.969 98.4038 154.386C95.0823 156.172 91.9892 158.405 88.635 160.111C84.4344 163.757 80.4969 167.686 75.9509 170.951C69.7423 175.41 63.2734 179.753 57.4992 184.78C51.0181 190.422 45.5734 196.879 41.3476 204.361C39.3629 207.876 37.6975 211.571 35.5865 215.012C33.6411 218.182 30.1979 222.074 29.2636 225.923C29.4181 226.113 29.5754 226.301 29.7411 226.485C29.9714 226.739 30.2148 226.961 30.4572 227.186C31.2511 227.572 32.0534 227.94 32.8576 228.302ZM91.8357 188.04C92.4002 191.448 93.166 194.982 94.1433 198.3C95.2976 202.216 97.4882 205.67 99.6695 209.109C96.4042 201.304 93.4534 193.725 92.1166 185.151C91.9827 184.291 91.8891 183.374 91.8263 182.431C91.5801 184.257 91.5146 186.101 91.8357 188.04ZM102.813 244.214C102.937 244.092 103.057 243.968 103.177 243.843C102.545 242.291 102.167 240.584 101.65 239.043C101.634 238.993 101.613 238.943 101.596 238.893C102.027 240.624 102.602 242.42 102.813 244.214ZM103.477 241.943C103.797 242.377 103.984 242.7 104.094 242.848C104.142 242.793 104.193 242.738 104.242 242.683C104.245 242.499 104.238 242.209 104.236 241.792C104.231 240.695 103.151 238.59 102.889 237.488C102.428 235.546 101.984 233.576 101.561 231.613C101.019 230.529 100.527 229.426 100.111 228.292C99.4513 228.122 98.7708 227.97 98.0818 227.825C98.3111 228.301 98.5302 228.779 98.7389 229.261C99.633 230.469 100.172 232.165 100.566 233.903C101.409 236.163 102.059 240.017 103.477 241.943ZM102.633 232.175C102.7 232.337 102.759 232.508 102.832 232.66C103.939 234.933 105.141 237.23 106.366 239.444C106.506 239.698 106.63 239.912 106.742 240.1C106.961 239.876 107.169 239.649 107.365 239.419C107.199 238.661 106.973 237.759 106.807 236.994C106.705 236.527 106.58 236.07 106.447 235.616C106.311 236.186 106.172 236.747 106.041 237.282C105.989 237.49 105.669 237.402 105.719 237.193C105.912 236.386 106.06 235.57 106.18 234.753C105.634 233.103 104.954 231.51 104.389 229.865C103.785 229.52 103.181 229.241 102.624 229.045C102.358 228.952 102.078 228.865 101.801 228.778C102.201 229.845 102.441 231.092 102.633 232.175ZM106.268 234.16C106.385 233.233 106.456 232.3 106.481 231.369C105.967 230.905 105.401 230.486 104.823 230.125C105.311 231.508 105.81 232.838 106.268 234.16ZM106.275 184.11C107.939 174.698 110.872 165.228 109.825 155.597C109.801 155.373 109.787 154.65 109.775 153.937C109.649 155.097 109.29 156.309 109.104 157.299C108.255 161.82 107.748 166.378 106.779 170.88C104.567 181.157 103.079 191.392 103.834 201.921C103.948 203.518 104.043 205.181 104.16 206.86C104.501 208.878 104.887 210.887 105.335 212.891C105.66 210.86 106.099 208.805 106.532 206.693C107.485 202.041 107.5 197.499 106.629 192.853C106.104 190.047 105.775 186.94 106.275 184.11ZM213.896 240.07C215.373 239.527 210.416 235.581 210.218 235.393C205.434 230.874 200.103 226.899 194.925 222.84C189.278 218.414 182.894 214.73 177.634 209.848C172.511 205.094 166.972 200.777 161.723 196.132C157.242 192.166 152.651 188.291 148.627 183.855C148.927 184.722 149.088 185.62 148.866 186.54C148.811 186.767 148.584 187.032 148.34 187.066C147.202 187.224 146.315 186.692 145.6 185.912C144.745 185.545 143.938 184.91 143.342 184.43C141.561 182.991 139.013 181.366 137.671 179.539C136.6 178.082 136.046 174.355 137.123 172.21C135.219 169.795 133.221 167.479 130.669 165.631C128.878 164.334 127.204 162.729 125.329 161.58C123.566 160.5 121.534 159.856 119.677 158.954C118.788 158.521 117.995 157.994 117.245 157.421C117.666 158.587 118.102 159.751 118.617 160.867C124.31 173.219 129.874 185.679 140.342 194.765C145.504 199.245 150.739 203.862 156.32 207.814C161.446 211.443 167.196 214.462 172.756 217.364C184.656 223.574 196.441 230.126 208.028 236.903C208.919 237.425 212.907 240.434 213.896 240.07ZM144.368 177.748C144.352 177.777 144.336 177.805 144.319 177.834C144.453 178.037 144.589 178.236 144.726 178.435C144.632 178.241 144.511 178.006 144.368 177.748ZM144.044 183.27C144.123 183.073 144.384 182.966 144.585 183.145C144.868 183.4 145.353 184.002 145.853 184.497C146.721 184.981 147.38 185.116 147.142 184.198C147.046 183.825 146.071 183.321 145.819 183.065C144.454 181.672 143.404 179.922 142.104 178.434C141.464 178.15 141.131 177.882 140.716 177.166C140.607 176.978 140.568 176.787 140.561 176.601C140.168 176.117 139.781 175.627 139.399 175.135C139.403 175.269 139.401 175.414 139.383 175.577C139.021 178.917 140.744 180.146 142.819 182.268C142.887 182.336 143.396 182.773 144.044 183.27ZM144.113 178.113C144 178.244 143.874 178.364 143.733 178.457C144.386 179.301 145.052 180.138 145.717 180.974C145.519 180.538 145.341 180.108 145.179 179.655C144.81 179.149 144.455 178.635 144.113 178.113ZM120.26 152.937C120.408 152.685 120.619 152.464 120.862 152.269C120.428 152.351 119.995 152.443 119.563 152.535C119.792 152.679 120.026 152.807 120.26 152.937ZM235.529 156.713C234.372 155.628 232.66 154.425 232.068 152.858C230.969 151.805 229.765 150.939 228.319 150.553C225.947 149.92 223.69 150.675 221.367 151.143C221.934 151.35 222.498 151.566 223.061 151.79C226.561 153.189 230.24 154.35 233.678 155.853C234.541 156.231 235.351 156.715 236.119 157.268C235.922 157.083 235.725 156.896 235.529 156.713ZM206.217 135.928C205.221 135.783 204.217 135.655 203.206 135.542C203.085 136.567 203.519 138.142 203.69 139.14C205.11 138.135 206.328 136.905 206.217 135.928ZM206.078 135.523C205.926 135.26 205.65 135.022 205.209 134.826C204.07 134.32 203.526 134.534 203.306 135.096C204.231 135.231 205.155 135.374 206.078 135.523ZM153.776 135.999C153.593 135.451 153.522 134.882 153.484 134.283C153.475 134.147 153.497 133.873 153.53 133.561C153.033 133.654 152.531 133.711 152.064 133.754C151.798 133.779 151.522 133.817 151.242 133.86C151.46 134.594 150.733 135.265 150.036 135.201C150.531 135.393 151.026 135.532 151.236 135.61C151.521 135.716 151.843 135.885 152.129 135.971C152.473 136.001 152.812 136.043 153.151 136.093C153.366 136.075 153.562 136.038 153.776 135.999ZM162.471 121.809C162.944 121.765 163.434 121.747 163.975 121.786C165.09 121.869 169.835 122.942 171.646 122.072C170.918 121.537 170.265 121 169.735 120.52C168.04 120.441 166.026 120.478 165.275 120.511C164.327 120.905 163.392 121.339 162.471 121.809ZM182.275 112.119C180.605 115.782 173.358 112.281 171.815 110.331C171.761 110.263 171.727 110.195 171.686 110.128C170.909 109.997 170.115 109.932 169.287 109.995C166.919 110.175 165.037 110.817 162.619 110.412C157.829 109.609 152.911 109.025 148.131 108.042C146.494 108.677 144.875 109.353 143.282 110.082C145.715 111.976 147.626 114.708 148.525 117.457C148.831 118.393 149.319 119.879 149.395 121.17C151.455 120.291 153.563 119.509 155.771 118.891C159.589 117.823 164.655 116.563 168.98 117.243C170.162 116.424 171.703 116.425 173.263 116.805C174.382 116.702 175.49 116.607 176.578 116.511C185.64 115.719 194.899 115.563 203.97 116.101C212.508 116.608 220.968 118.184 229.414 119.476C238.467 120.861 247.516 121.479 256.464 123.559C265.318 125.616 273.882 128.624 282.662 130.836C283.584 131.069 285.313 132.023 285.965 131.204C287.036 129.862 283.737 128.423 282.362 127.5C278.719 125.052 275.026 122.659 271.36 120.263C264.835 116 257.343 113.459 250.004 110.742C240.439 107.199 230.757 104.099 220.826 101.696C210.637 99.2297 199.44 96.9642 188.931 97.7318C178.048 98.5276 168.253 101.486 157.932 104.675C156.123 105.234 154.311 105.817 152.51 106.438C153.968 106.674 155.424 106.905 156.874 107.144C158.797 107.461 160.755 107.73 162.682 108.022C165.337 108.425 167.633 107.653 170.241 107.449C171.106 107.382 171.89 107.434 172.68 107.572C173.575 106.875 174.747 106.788 176.104 107.022C177.555 107.272 180.471 107.735 181.332 109.188C181.449 109.384 181.536 109.568 181.608 109.744C182.358 110.268 182.767 111.041 182.275 112.119ZM126.195 107.686C125.786 108 125.3 107.332 125.653 106.983C125.933 106.707 126.223 106.454 126.519 106.215C125.307 106.163 123.93 106.242 122.768 106.578C122.56 106.73 122.349 106.882 122.142 107.035C124.275 107.515 126.8 108.674 128.199 109.317C128.22 109.327 128.241 109.339 128.263 109.35C128.406 108.976 128.558 108.607 128.728 108.249C128.333 107.98 127.928 107.724 127.502 107.497C127.308 107.393 127.205 107.223 127.152 107.037C126.829 107.237 126.508 107.445 126.195 107.686ZM100.873 118.214C100.855 118.296 100.834 118.378 100.815 118.459C100.833 118.407 100.854 118.355 100.874 118.305C100.874 118.274 100.873 118.244 100.873 118.214ZM97.9301 126.563C98.0162 126.638 98.0967 126.689 98.1688 126.709C98.2493 126.494 98.3598 126.303 98.4852 126.123C98.4852 126.116 98.4862 126.113 98.4862 126.108C98.4871 126.048 98.5246 126.018 98.5676 126.002C98.6612 125.883 98.7642 125.772 98.8766 125.668C99.0807 125.145 99.295 124.625 99.5169 124.106C99.4747 123.995 99.4242 123.885 99.3933 123.772C99.3166 123.492 99.4878 123.194 99.7659 123.116C99.8501 123.091 99.912 123.056 99.9859 123.026C100.307 122.299 100.633 121.574 100.953 120.852C100.945 120.703 100.937 120.554 100.929 120.406C100.73 119.971 100.631 119.519 100.68 119.05C100.682 119.019 100.692 118.992 100.696 118.962C100.057 121.551 99.1368 124.241 97.9301 126.563ZM76.0745 49.7367C75.5915 50.3724 74.4184 50.4089 74.0814 49.7105C72.2353 49.9839 70.3929 50.4314 68.5019 51.0998C67.3373 51.5108 65.3321 51.9667 64.2143 52.5321C63.618 52.8345 63.1798 53.1958 62.854 53.5965C62.8587 55.6196 62.5807 57.5565 62.6115 59.5748C62.7585 60.2994 62.8297 61.039 62.796 61.7655C63.001 63.2624 63.28 64.6985 63.6292 66.1083C63.7968 64.3877 63.7705 62.74 64.1122 61.0025C64.439 60.2536 64.5579 59.4475 64.468 58.5853C64.9623 57.3955 64.9454 56.2505 64.4193 55.1506C64.4689 54.733 64.2873 54.2546 64.4324 53.8409C65.1261 51.8553 67.5012 51.9601 69.2387 52.0799C69.5242 52.0996 69.7975 52.1174 70.0653 52.1333C70.0653 51.8197 70.0915 51.5173 70.1954 51.2533C70.3246 50.9266 70.2937 51.0427 70.6934 50.5812C70.8816 50.363 71.1568 50.6064 71.125 50.832C71.0604 51.2814 70.9977 51.7289 70.9359 52.1764C73.8127 52.2887 75.7609 51.9517 78.3166 49.6019C78.3915 49.5336 78.4655 49.4615 78.5394 49.3904C77.7699 49.3894 77.0079 49.4213 76.2505 49.4756C76.1896 49.5617 76.1382 49.6525 76.0745 49.7367ZM66.0903 110.351C66.1175 116.043 62.9317 121.476 58.5224 124.978C58.1049 125.309 57.6724 125.614 57.2343 125.906C60.1074 125.45 67.9692 129.588 68.5487 129.833C72.841 131.648 77.3271 133.07 81.4846 135.178C84.47 136.692 87.4152 138.083 90.4633 139.272C90.2461 139.119 90.0196 138.974 89.8071 138.817C84.6778 135.014 81.5304 128.96 77.7839 123.932C73.6227 118.346 69.4933 112.717 66.0248 106.655C66.022 106.651 66.0201 106.647 66.0173 106.642C66.1418 108.202 66.0875 109.743 66.0903 110.351ZM28.3865 136.181C27.147 136.616 25.9019 137.032 24.6558 137.406C24.5276 137.445 24.4003 137.479 24.272 137.516C25.446 137.617 26.5928 137.876 27.7199 138.247C30.1914 138.301 32.675 138.589 35.125 138.645C43.4989 138.836 52.3662 139.902 60.3928 142.361C63.5281 143.322 66.6399 144.319 69.7657 145.242C79.3155 145.621 88.8306 145.611 98.3888 145.573C95.1441 144.802 91.9705 143.613 88.7782 142.714C84.0683 141.389 79.4484 139.761 74.9361 137.87C70.1196 135.851 65.4004 133.583 61.124 130.565C60.3573 130.024 56.153 128.114 56.1895 126.955C56.1951 126.776 56.2372 126.629 56.299 126.498C54.1758 127.762 51.8635 128.682 49.553 129.581C46.8279 130.641 43.4362 131.509 41.3298 133.65C40.3394 134.657 39.7467 136.223 38.4567 136.931C35.8626 138.355 32.5514 136.245 29.8525 136.152C29.3788 136.135 28.8864 136.151 28.3865 136.181ZM19.7831 139.608C21.0722 139.124 22.2658 138.68 23.1206 138.532C23.8554 138.404 24.5959 138.337 25.3374 138.294C24.5594 138.068 23.7496 137.954 22.7508 138.056C22.9052 138.04 22.4811 138.081 21.9494 138.125C21.2304 138.304 20.5246 138.483 19.8374 138.681C19.5744 139.042 19.5828 139.348 19.7831 139.608ZM60.2459 143.468C61.0903 143.646 61.931 143.839 62.7698 144.035C62.1304 143.822 61.4919 143.608 60.8525 143.395C51.8392 140.384 42.2566 139.623 32.8295 139.198C31.8128 139.152 30.8214 139.094 29.8422 139.044C31.8531 139.872 33.8414 140.846 35.8898 141.496C36.5788 141.715 37.2716 141.91 37.9653 142.094C45.4208 142.243 52.8933 141.916 60.2459 143.468ZM39.6709 142.512C45.9441 143.928 52.3915 144.135 58.7921 144.626C61.169 144.809 63.5412 144.952 65.9106 145.073C65.8058 145.039 65.7009 145.005 65.596 144.97C60.9414 143.769 56.226 142.79 51.4628 142.556C47.5234 142.363 43.5981 142.477 39.6709 142.512ZM27.5561 139.138C27.3997 139.074 27.249 139.011 27.0992 138.948C24.7195 138.914 22.3688 139.079 19.9217 139.757C20.944 140.675 24.3778 140.962 25.2466 141.077C27.8594 141.422 30.4619 141.737 33.0934 141.904C33.9079 141.955 34.7233 141.992 35.5387 142.023C32.822 141.173 30.1511 140.206 27.5561 139.138ZM18.0653 139.341C17.1488 139.852 16.2866 140.406 15.5124 140.998C16.5028 140.784 17.5991 140.415 18.6775 140.019C18.4191 139.815 18.2132 139.589 18.0653 139.341ZM99.3821 150.115C99.3849 150.113 99.3886 150.11 99.3915 150.108C99.384 150.109 99.3765 150.112 99.368 150.113C99.3727 150.113 99.3774 150.114 99.3821 150.115ZM123.153 153.417C122.284 154.034 123.72 153.839 124.95 153.636C124.761 153.392 124.609 153.139 124.533 152.864C124.012 152.999 123.513 153.163 123.153 153.417ZM127.094 153.344C127.502 153.298 127.899 153.242 128.283 153.174C130.595 151.281 133.428 150.351 136.163 149.203C136.622 148.79 137.072 148.349 137.518 147.887C136.315 148.564 135.072 149.158 133.791 149.694C131.279 150.747 128.682 151.633 126.092 152.467C126.043 152.483 125.989 152.497 125.937 152.512C126.323 152.83 126.708 153.104 127.094 153.344ZM141.993 155.418C142.079 155.124 142.183 154.837 142.304 154.556C142.664 154.296 142.767 154.165 142.787 154.085C140.876 154.725 138.843 154.936 136.888 154.569C136.682 154.53 136.522 154.438 136.393 154.323C135.125 154.999 133.75 155.39 132.226 155.368C132.729 155.525 133.246 155.69 133.782 155.882C134.73 156.221 135.55 156.531 136.346 156.79C136.802 156.841 137.25 156.877 137.678 156.878C139.31 157.428 140.749 156.941 141.993 155.418ZM145.788 149.914C146.82 149.127 148.022 148.141 148.7 147.017C148.068 147.105 147.444 147.215 146.825 147.341C145.42 148.614 143.762 149.753 142.195 150.861C142.314 150.941 142.436 151.02 142.559 151.099C142.624 151.014 142.726 150.963 142.844 151.004C143.112 151.098 143.383 151.171 143.653 151.255C144.402 150.877 145.119 150.424 145.788 149.914ZM148.822 125.089C146.686 126.051 144.585 127.095 142.472 128.164C140.118 129.354 138.124 130.846 135.764 131.858C136.031 131.97 136.299 132.082 136.56 132.202C137.937 131.811 139.205 130.999 140.613 130.411C142.997 129.416 145.516 129.019 147.992 128.446C146.618 127.594 147.46 126.291 148.822 125.089ZM144.568 115.867C144.439 115.891 144.31 115.916 144.181 115.94C143.274 116.111 142.752 115.138 143.028 114.515C142.754 114.116 142.347 113.657 141.927 113.325C142.763 115.993 144.571 120.536 145.95 120.817C149.126 121.464 146.159 115.625 145.538 114.596C145.352 114.289 145.136 113.98 144.908 113.672C145.083 114.004 145.206 114.339 145.253 114.659C145.326 115.15 145.139 115.759 144.568 115.867ZM141.899 110.727C141.755 110.796 141.612 110.87 141.468 110.941C142.029 111.06 142.6 111.33 143.125 111.697C142.732 111.339 142.318 111.021 141.899 110.727ZM127.878 112.772C127.801 113.09 127.36 112.945 127.402 112.641C127.45 112.298 127.522 111.972 127.59 111.642C126.036 110.772 123.826 109.709 122.061 109.287C123.12 110.083 124.079 111.056 125.186 111.967C127.239 113.654 129.45 115.04 131.623 116.483C131.956 116.229 132.285 115.972 132.624 115.727C131.644 114.64 130.495 113.674 129.372 112.76C129.158 112.586 128.71 112.293 128.124 111.948C128.04 112.222 127.946 112.489 127.878 112.772ZM113.721 113.383C115.828 114.633 117.635 115.965 119.599 117.453C123.025 120.051 126.979 123.056 131.395 123.717C130.326 121.847 127.548 119.849 126.462 118.788C124.701 117.068 122.9 115.41 120.659 114.328C118.28 113.178 116.173 113.007 114.007 113.198C113.912 113.26 113.817 113.323 113.721 113.383ZM119.577 125.87C118.425 126.627 116.792 126.732 115.129 126.576C115.741 126.664 116.34 126.768 116.971 126.955C118.373 127.371 119.583 127.847 120.268 129.064C121.456 128.898 122.797 128.905 124.122 129.031C124.081 129.003 124.034 128.972 123.995 128.944C123.059 128.312 120.796 127.14 119.577 125.87ZM104.101 119.947C104.08 119.968 104.059 119.988 104.038 120.009C104.048 120.4 104.071 120.887 104.072 121.406C104.283 121.581 104.575 121.721 104.968 121.819C105.866 122.32 106.806 122.707 107.789 122.979C109.262 123.46 110.715 123.701 112.26 123.749C113.03 123.772 115.384 124.165 116.954 124.133C115.258 123.357 113.061 123.132 111.495 122.685C109.436 122.097 107.387 121.33 105.384 120.575C105.196 120.505 104.625 120.172 104.101 119.947ZM96.3312 131.186C96.1711 131.012 96.0175 130.83 95.8631 130.648C95.5813 131.568 95.5092 132.475 95.7329 133.416C95.7835 133.495 95.8284 133.579 95.8799 133.657C96.5718 134.707 97.418 135.243 97.5725 136.576C97.5781 136.626 97.5753 136.671 97.5725 136.718C97.7504 136.959 97.9292 137.2 98.107 137.441C97.3628 135.539 97.1681 133.678 97.3113 131.846C97.1138 131.864 96.9041 131.799 96.7196 131.605L96.3526 131.219C96.3414 131.208 96.3396 131.196 96.3312 131.186ZM69.1198 56.5071C69.4015 55.4894 69.8762 54.6946 70.0587 53.6461C70.0859 53.4898 70.0933 53.3213 70.0933 53.1481C68.0909 52.9253 66.3965 52.9234 65.7318 55.7029C65.9836 54.9371 65.9977 57.959 66.0258 58.7314C65.9303 59.176 65.6634 59.6451 65.5464 60.0588C64.8995 62.3403 64.4231 63.8924 64.4455 66.2497C64.454 67.0735 64.5738 68.0153 64.4146 68.8185C64.4099 68.8438 64.4015 68.869 64.3959 68.8953C64.6346 69.6816 64.8874 70.4727 65.156 71.2797C67.2465 77.5529 69.1834 83.7999 71.7457 89.9139C72.0247 90.5805 72.3149 91.2405 72.6088 91.8986C72.1239 89.9327 71.6699 87.9546 71.2842 85.9502C70.5137 81.9472 70.0737 77.9245 69.7142 73.8925C69.4221 71.759 69.2377 69.6105 69.1703 67.4517C69.1001 66.6213 69.0289 65.791 68.9522 64.9596C68.7032 62.2214 68.3746 59.1948 69.1198 56.5071ZM65.6747 75.3566C65.2843 73.9449 64.8256 72.5519 64.3753 71.1589C65.1158 74.149 66.052 77.0811 67.0087 80.0159C69.2518 86.8958 71.9179 93.6165 74.2321 100.477C75.4445 104.071 76.5117 107.824 77.8972 111.345C78.5862 113.097 79.6628 114.332 80.8798 115.436C78.3372 109.825 76.141 104.113 74.3594 98.2486C74.2761 98.0726 74.189 97.9003 74.1067 97.7243C70.7449 90.5524 67.7857 82.9817 65.6747 75.3566ZM77.8888 107.171C79.1451 110.237 80.4483 113.252 81.8085 116.242C82.6819 116.97 83.5928 117.684 84.4644 118.5C81.6409 112.311 78.3475 106.412 75.3452 100.292C76.1222 102.631 76.9704 104.929 77.8888 107.171ZM57.4992 127.821C57.825 128.303 60.2234 129.504 60.6924 129.836C62.3204 130.984 63.9652 132.07 65.7027 133.048C69.6047 135.245 73.7678 137.03 77.9309 138.662C81.7598 140.162 85.6599 141.441 89.6151 142.564C93.0808 143.548 96.5015 144.886 100.047 145.567C100.122 145.567 100.197 145.566 100.272 145.566C99.529 145.082 98.8017 144.571 98.0677 144.097C96.143 142.853 94.1237 141.693 92.1849 140.443C86.6409 138.4 81.6409 135.419 76.0549 133.259C72.8008 132.001 69.5148 130.77 66.3393 129.318C64.5325 128.492 62.8531 127.888 60.9705 127.296C60.4041 127.119 55.5566 124.948 57.4992 127.821ZM101.751 149.725C101.499 149.896 101.251 150.075 101.002 150.253C101.363 150.245 101.724 150.212 102.088 150.128C102.319 150.074 103.338 149.722 104.024 149.387C104.245 149.176 104.473 148.961 104.701 148.75C104.701 148.746 104.703 148.741 104.704 148.738C103.846 148.982 102.988 149.236 102.126 149.471C101.986 149.564 101.857 149.652 101.751 149.725ZM105.544 137.064C107.478 138.442 110.831 139.23 113.142 139.818C115.396 140.392 118.885 141.767 121.17 141.541C121.186 141.539 121.198 141.538 121.214 141.536C121.048 141.52 120.887 141.512 120.715 141.488C120.105 141.402 119.843 140.553 120.143 140.081C120.203 139.988 120.281 139.916 120.346 139.828C119.3 139.354 118.176 138.964 118.076 138.936C117.613 138.807 116.312 138.678 115.85 138.564C112.65 137.777 109.939 136.575 106.552 136.513C105.634 136.496 104.377 136.395 103.295 136.48C103.937 137.744 104.791 138.893 105.683 140.06C107.172 140.8 108.742 141.378 109.827 141.772C110.381 141.973 110.941 142.141 111.503 142.294C113.231 141.995 115.053 141.964 116.891 142.042C115.942 141.666 115.005 141.296 114.085 141.013C111.21 140.131 107.73 139.192 105.362 137.374C105.182 137.238 105.352 136.927 105.544 137.064ZM125.174 142.575C125.546 142.581 125.915 142.583 126.275 142.575C126.417 142.571 126.535 142.601 126.647 142.636C127.7 140.527 131.701 139.298 133.89 138.594C133.266 138.573 132.316 138.735 131.558 138.765C130.584 139.396 129.415 139.754 128.219 140.195C127.131 140.597 126.126 140.955 125.114 141.213C125.244 141.627 125.275 142.079 125.174 142.575ZM128.793 128.69C128.711 128.728 128.628 128.765 128.543 128.799C128.723 128.902 128.906 129.006 129.085 129.109C130.508 129.934 129.679 129.33 128.793 128.69ZM122.466 131.552C122.274 131.497 122.098 131.259 122.182 131.054C122.184 131.05 122.188 131.044 122.19 131.04C120.008 131.121 116.989 131.753 120.992 132.421C122.847 132.731 125.228 133.196 127.409 133.07C127.646 132.988 127.849 132.903 127.998 132.817C126.164 132.368 124.298 132.079 122.466 131.552ZM95.1123 136.121C94.6788 136.389 94.8202 136.138 93.9552 135.581C93.2568 135.131 92.8131 134.173 92.3403 133.524C92.0623 133.143 91.787 132.765 91.5155 132.386C91.8591 133.046 92.2298 133.694 92.6436 134.322C92.8421 134.622 93.1108 134.942 93.3916 135.273C93.9421 135.694 94.5019 136.099 95.073 136.489C95.0964 136.396 95.1338 136.308 95.1796 136.224C95.1581 136.189 95.1347 136.156 95.1123 136.121ZM115.897 134.322C114.501 133.82 113.068 133.371 111.621 132.983C113.323 133.693 114.999 134.442 116.758 134.934C119.151 135.603 118.762 135.351 115.897 134.322ZM108.338 133.166C107.234 132.777 104.605 132.259 102.273 131.404C102.227 131.408 102.184 131.413 102.139 131.418C102.138 131.875 102.154 132.34 102.2 132.813C102.222 133.049 102.274 133.267 102.312 133.493C103.686 134.044 107.064 134.879 108.801 135.411C110.903 135.644 112.922 136.04 115.241 136.632C115.486 136.695 115.79 136.762 116.136 136.837C113.293 135.854 110.301 133.855 108.338 133.166ZM103.914 123.211C103.814 123.664 103.655 124.066 103.402 124.352C104.642 124.326 105.851 124.448 106.725 124.585C105.777 124.207 104.805 123.74 103.914 123.211ZM102.902 125.784C102.9 125.794 102.898 125.804 102.895 125.814C103.593 126.358 104.255 126.669 105.165 126.903C106.695 127.295 108.288 127.769 109.904 128.162C108.027 127.385 104.771 125.857 102.902 125.784ZM105.082 128.435C104.303 128.243 103.424 127.859 102.588 127.358C102.465 128.001 102.359 128.647 102.28 129.299C106.087 128.857 110.652 130.394 113.995 131.461C114.625 131.662 115.475 131.875 116.372 132.142C116.377 131.815 116.423 131.509 116.525 131.239C112.652 130.855 108.789 129.349 105.082 128.435ZM124.416 134.783C123.137 134.705 121.848 134.528 120.621 134.314C121.061 134.797 121.354 135.362 121.398 136.042C121.421 136.403 121.176 136.841 120.848 137C120.15 137.339 119.365 137.436 118.535 137.374C119.647 137.647 120.842 137.992 121.912 138.447C123.504 137.513 125.557 137.186 127.304 136.861C127.454 136.833 127.617 136.803 127.787 136.771C125.605 136.482 123.69 135.921 124.416 134.783ZM124.176 139.817C124.186 139.825 124.194 139.834 124.203 139.842C125.375 139.718 126.664 139.427 127.869 139.002C126.609 139.152 125.328 139.405 124.176 139.817ZM93.4057 137.46C91.6569 136.147 89.9268 134.721 88.2558 133.21C89.8117 134.852 91.5333 136.346 93.5217 137.624C93.4824 137.569 93.445 137.514 93.4057 137.46ZM86.4528 123.106C86.1439 122.332 85.8181 121.57 85.4904 120.809C84.572 119.797 83.5975 118.82 82.5686 117.874C83.59 120.073 84.6348 122.263 85.7338 124.446C87.0407 127.043 88.5404 129.427 90.1104 131.855C88.7482 129.029 87.6333 126.062 86.4528 123.106ZM123.009 125.215C124.042 126.098 125.2 126.845 126.381 127.547C126.589 127.415 126.786 127.293 126.961 127.194C126.476 126.731 125.889 126.168 125.294 125.643C125.355 125.846 125.065 125.925 124.952 125.774C124.849 125.593 124.736 125.427 124.614 125.273C124.389 125.207 124.195 125.151 124.06 125.109C122.208 124.524 121.604 124.014 123.009 125.215ZM130.467 126.823C130.457 126.885 130.427 126.934 130.412 126.992C131.328 127.688 132.182 128.445 132.857 129.368C132.887 129.409 132.9 129.46 132.922 129.506C133.316 129.38 133.734 129.225 134.223 129.002C134.588 128.836 134.936 128.646 135.286 128.459C134.681 127.997 134.178 127.111 134.001 126.274C133.784 126.456 133.509 126.569 133.18 126.565C132.26 126.552 131.357 126.423 130.471 126.212C130.503 126.41 130.504 126.613 130.467 126.823ZM136.265 127.474C136.193 127.405 136.121 127.336 136.048 127.267C135.67 127.019 136.008 126.423 136.405 126.655C136.658 126.816 136.921 126.957 137.194 127.08C137.278 127.123 137.329 127.191 137.366 127.268C138.275 126.714 139.181 126.156 140.141 125.662C140.394 125.532 140.645 125.403 140.898 125.273C139.749 125.04 138.669 124.263 137.455 124.351C136.438 124.425 135.146 124.893 135.239 126.08C135.296 126.791 135.672 127.793 136.265 127.474ZM126.288 114.907C124.386 112.785 122.449 110.388 120.076 109.188C119.66 109.305 119.355 109.541 119.245 109.968C119.192 110.172 119.014 110.361 118.806 110.407C118.271 110.528 117.783 110.728 117.315 110.959C118.589 111.071 119.851 111.37 121.031 111.813C123.007 112.556 124.705 113.642 126.288 114.907ZM139.089 112.163C139.267 112.327 139.447 112.496 139.626 112.669C139.594 112.506 139.562 112.343 139.541 112.198C139.527 112.105 139.533 112.015 139.537 111.925C139.388 112.004 139.238 112.082 139.089 112.163ZM137.562 113.014C137.231 113.204 136.901 113.396 136.574 113.591C136.713 113.738 136.853 113.89 136.991 114.032C138.242 115.313 139.393 116.669 140.483 118.089C142.797 121.099 141.277 118.273 140.388 116.66C139.574 115.187 138.63 114.046 137.562 113.014ZM133.515 116.818C133.315 116.543 133.09 116.286 132.869 116.025C132.559 116.247 132.249 116.469 131.945 116.698C132.527 117.088 133.107 117.482 133.68 117.889C135.436 119.142 134.372 118.003 133.515 116.818ZM134.503 114.262C132.98 112.24 131.401 110.283 129.468 108.782C129.301 109.09 129.145 109.403 128.993 109.719C131.051 110.844 132.897 112.53 134.503 114.262ZM130.315 107.333C132.524 108.976 134.439 111.303 136.285 113.288C136.6 113.094 136.917 112.902 137.236 112.713C136.285 111.832 135.244 111.013 134.106 110.116C132.935 109.193 131.761 107.977 130.414 107.181C130.381 107.232 130.347 107.282 130.315 107.333ZM136.001 109.675C136.65 110.101 137.655 110.875 138.737 111.844C139.078 111.654 139.424 111.472 139.769 111.287C139.886 111.144 140.032 111.023 140.244 110.96C140.319 110.937 140.399 110.925 140.477 110.911C140.793 110.745 141.107 110.576 141.426 110.415C141.339 110.361 141.253 110.293 141.166 110.243C139.934 109.539 138.696 109.498 137.332 109.121C136.412 108.867 134.966 108.275 133.462 107.796C134.344 108.473 135.191 109.143 136.001 109.675ZM143.536 121.515C143.351 121.778 143.117 122.028 142.818 122.256C142.533 122.475 141.997 122.454 141.709 122.256C140.283 121.278 139.052 120.034 137.904 118.675C138.086 119.302 138.069 119.976 137.709 120.716C136.972 122.226 135.514 122.405 134.139 121.665C132.974 121.038 132.308 119.683 131.233 118.919C130.745 118.572 130.258 118.318 129.773 118.038C131.645 119.78 134.141 121.543 134.508 124.113C135.068 123.415 135.952 122.954 136.825 122.754C137.57 122.584 138.341 122.603 139.077 122.796C139.464 122.897 139.898 123.106 140.338 123.268C140.428 123.027 140.634 122.841 140.928 122.879C141.597 122.968 141.947 123.168 142.539 123.507C142.829 123.674 142.964 123.936 142.98 124.208C143.726 123.83 144.472 123.457 145.22 123.091C144.627 122.711 144.062 122.167 143.536 121.515ZM141.189 131.396C140.3 131.836 139.391 132.508 138.467 133.139C138.625 133.222 138.785 133.301 138.943 133.385C140.633 133.061 142.283 132.467 143.675 131.816C144.494 131.432 145.305 131.07 146.112 130.714C146.827 129.892 147.93 129.502 149.122 129.36C149.545 129.164 149.966 128.96 150.383 128.755C150.078 128.783 149.782 128.797 149.503 128.793C146.732 129.583 143.855 130.076 141.189 131.396ZM146.86 134.124C146.834 134.026 146.839 133.928 146.844 133.832C146.485 133.664 146.15 133.423 145.847 133.086C145.56 132.768 145.46 132.413 145.485 132.046C143.865 132.953 142.834 134.04 141.103 134.541C141.677 134.848 142.258 135.151 142.854 135.447C144.611 135.59 146.369 135.727 148.136 135.816C147.539 135.413 147.059 134.878 146.86 134.124ZM132.808 135.498C132.635 135.498 132.547 135.366 132.545 135.233C132.433 135.181 132.322 135.129 132.211 135.067C132.092 135.031 131.975 134.988 131.857 134.947C131.943 135.183 131.841 135.487 131.525 135.463L131.243 135.44C130.88 135.411 130.585 134.932 130.916 134.649C130.944 134.626 130.973 134.607 131.002 134.585C130.83 134.494 130.664 134.391 130.502 134.282C129.547 134.943 127.43 134.793 126.891 135.476C127.148 135.152 131.781 135.65 132.709 135.722C132.952 135.741 133.218 135.898 133.346 136.12C134.536 136.134 135.618 136.31 136.347 136.788C136.827 137.102 137.131 137.446 137.303 137.808C137.702 137.785 138.069 137.805 138.418 137.845C137.484 137.306 136.589 136.687 135.599 136.258C134.795 135.908 134.014 135.757 133.26 135.511C133.107 135.508 132.961 135.499 132.808 135.498ZM149.486 145.175C149.655 144.616 149.735 144.105 149.544 143.949C149.355 144.334 149.128 144.704 148.878 145.064C149.079 145.101 149.281 145.137 149.486 145.175ZM143.386 144.801C143.291 144.798 143.196 144.797 143.101 144.795C142.667 145.084 142.225 145.362 141.766 145.622C141.456 146.019 141.137 146.417 140.806 146.816C141.743 146.234 142.638 145.567 143.386 144.801ZM141.302 142.203C141.116 141.936 140.938 141.663 140.742 141.403C140.631 141.712 140.484 142.038 140.291 142.384C140.668 142.313 141.006 142.253 141.302 142.203ZM140.928 140.726C140.988 140.723 141.048 140.732 141.104 140.767C141.876 141.253 142.021 141.333 142.342 141.615C142.711 141.055 143.092 140.514 143.501 140.023C142.525 139.686 141.556 139.332 140.609 138.925C140.934 139.388 141.064 139.988 140.928 140.726ZM148.64 145.392C148.637 145.396 148.633 145.4 148.631 145.404C148.645 145.402 148.659 145.398 148.673 145.396C148.662 145.395 148.65 145.394 148.64 145.392ZM140.109 148.612C140.055 148.64 140.003 148.672 139.95 148.7C140.034 148.872 140.152 149.045 140.289 149.217C140.474 148.995 140.656 148.767 140.837 148.537C140.596 148.567 140.352 148.591 140.109 148.612ZM140.178 152.338C140.51 152.3 140.84 152.237 141.166 152.163C141.049 152.058 140.936 151.952 140.829 151.845C140.607 152.01 140.39 152.174 140.178 152.338ZM139.424 148.952C139.134 149.093 138.846 149.238 138.552 149.372C137.635 150.348 136.702 151.261 135.804 152.036C134.859 152.851 133.896 153.432 132.907 153.867C134.085 153.78 135.162 153.417 136.165 152.861C136.215 152.746 136.275 152.637 136.354 152.542C137.243 151.471 138.389 150.657 139.554 149.863C139.466 149.567 139.423 149.264 139.424 148.952ZM133.971 146.705C134.493 146.224 134.987 145.716 135.455 145.182C135.511 145.122 135.572 145.058 135.631 144.998C134.174 145.425 133.064 145.865 133.03 146.213C132.154 146.542 132.469 146.707 133.971 146.705ZM139.967 143.927C139.688 143.987 139.401 144.05 139.104 144.117C138.882 144.399 138.614 144.73 138.312 145.086C138.866 144.708 139.416 144.318 139.967 143.927ZM155.485 140.395C161.201 142.02 166.692 143.325 172.663 143.609C175.153 143.728 177.624 143.673 180.087 143.528C180.061 143.528 180.036 143.527 180.011 143.527C176.354 143.515 172.82 143.564 169.221 142.854C165.333 142.085 161.626 140.656 157.772 139.799C155.832 139.368 153.885 139.427 151.948 139.402C153.126 139.733 154.307 140.06 155.485 140.395ZM158.589 144.917C158.652 144.948 158.716 144.979 158.78 145.009C158.825 145.008 158.869 145.006 158.913 145.005C158.805 144.976 158.696 144.947 158.589 144.917ZM151.023 142.794C150.968 142.782 150.921 142.775 150.867 142.764C151.24 143.226 151.374 144.165 151.242 145.189C153.081 145.117 154.91 145.084 156.736 145.051C154.891 144.132 153.028 143.234 151.023 142.794ZM128.198 147.459C126.604 147.313 125.026 147.423 123.438 147.671C123.718 147.713 123.998 147.747 124.281 147.77C125.661 147.878 126.936 147.714 128.198 147.459ZM124.691 145.977C126.449 145.515 128.363 145.633 130.188 146.019C131.631 144.662 134.713 143.657 137.441 142.993C137.708 142.637 137.943 142.272 138.102 141.897C138.842 140.151 138.251 139.662 137.078 139.815C135.475 142.54 129.483 145.366 127.599 145.191C127.173 145.151 126.782 144.941 126.578 144.572C126.482 144.611 126.39 144.654 126.276 144.667C123.219 145.038 120.975 145.599 117.799 145.379C115.573 145.224 113.382 144.978 111.234 144.415C110.651 144.548 110.091 144.725 109.553 144.944C109.734 145.147 109.917 145.346 110.101 145.544C110.75 145.568 111.079 146.047 111.096 146.551C111.978 146.665 112.926 146.656 114.04 146.553C115.456 146.421 116.782 146.403 118.191 146.59C119.077 146.708 119.943 146.912 120.807 147.119C122.105 146.73 123.4 146.316 124.691 145.977ZM113.517 148.919C113.615 149.017 113.718 149.111 113.814 149.21C113.846 149.182 113.878 149.15 113.909 149.126C114.048 149.018 114.21 148.924 114.378 148.834C114.092 148.865 113.805 148.894 113.517 148.919ZM109.062 151.764C108.997 151.714 108.928 151.658 108.868 151.613C108.576 151.388 108.3 151.16 108.018 150.933C108.018 152.365 107.944 153.798 107.696 155.137C108.033 154.73 108.42 154.218 108.768 153.668C108.837 153.023 108.925 152.384 109.062 151.764ZM107.467 156.176C107.337 156.658 107.178 157.122 106.985 157.564C106.36 158.994 105.628 159.506 104.799 159.77C104.459 160.643 104.097 161.512 103.65 162.365C102.091 165.341 100.305 168.511 100.134 171.875C99.779 178.845 101.261 185.317 102.132 192.155C102.321 193.637 102.505 195.12 102.692 196.601C102.721 193.13 102.933 189.688 103.304 186.349C104.004 180.033 105.491 173.9 106.692 167.674C107.368 164.171 107.774 160.618 108.386 157.102C108.516 156.357 108.588 155.579 108.659 154.796C108.3 155.266 107.897 155.728 107.467 156.176ZM102.947 158.535C103.907 158.198 104.541 157.77 104.981 157.223C105.237 156.596 105.505 155.973 105.807 155.358C105.926 154.848 106.013 154.278 106.102 153.641C106.294 152.272 106.376 150.93 106.412 149.585C106.406 149.58 106.401 149.575 106.395 149.571C105.967 149.933 105.782 151.566 105.513 152.117C104.79 153.602 103.704 154.953 102.881 156.385C102.368 157.274 101.839 158.158 101.307 159.041C101.816 158.89 102.36 158.74 102.947 158.535ZM100.77 150.415C98.1866 152.291 95.7283 154.534 93.1697 156.433C92.6885 156.79 92.2242 157.164 91.7552 157.534C93.4553 156.449 95.1272 155.315 96.9069 154.351C98.9178 153.261 100.622 152.251 102.455 150.827C102.67 150.66 102.956 150.399 103.279 150.094C102.441 150.352 101.615 150.437 100.77 150.415ZM99.6535 148.205C100.334 148.036 101 147.839 101.662 147.636C92.7718 147.502 83.9158 147.167 75.0597 146.702C78.2258 147.504 81.4284 148.166 84.7087 148.561C86.1785 148.738 87.7054 148.876 89.2491 148.959C90.8659 148.95 92.5453 148.853 94.1723 148.984C96.0465 148.883 97.8945 148.643 99.6535 148.205ZM65.5024 100.516C65.1523 98.8243 64.4811 97.2591 63.6292 95.7753C63.5843 95.7687 63.5365 95.765 63.4897 95.7593C64.4015 97.8329 65.5211 100.589 65.6569 102.88C66.0735 103.568 66.4957 104.252 66.9254 104.933C67.9711 106.589 69.0711 108.213 70.202 109.817C69.0973 107.726 68.206 105.606 67.6874 103.217C67.1173 100.589 66.9956 96.8088 64.2423 95.9166C65.0025 97.333 65.5951 98.8225 65.9012 100.406C65.9518 100.666 65.5567 100.778 65.5024 100.516ZM63.1133 94.9486C63.119 94.9486 63.1237 94.9458 63.1293 94.9458C63.0974 94.8962 63.0675 94.8456 63.0356 94.7951C63.0609 94.8466 63.0881 94.8971 63.1133 94.9486ZM59.9107 90.6301C59.7806 90.4747 59.6524 90.3174 59.5213 90.163C59.5634 90.2332 59.6084 90.3024 59.6486 90.3727C59.7385 90.4569 59.8227 90.5449 59.9107 90.6301ZM59.1356 88.9085C60.7346 90.8024 62.4094 92.8076 63.72 94.9917C66.726 95.3811 67.8344 98.1231 68.2819 101.114C69.3332 108.135 73.4532 114.196 77.7708 119.592C81.3104 124.016 84.9886 128.004 89.1264 131.702C87.1614 128.497 85.5363 124.982 83.9579 121.862C83.1434 120.254 82.3636 118.636 81.6072 117.013C81.3966 116.829 81.1981 116.637 80.9837 116.455C76.1007 112.323 75.1468 104.908 73.1415 99.0696C70.6364 91.7741 67.885 84.5881 65.6073 77.2149C64.936 75.0421 64.2995 72.8225 63.7799 70.5804C63.6067 70.864 63.4073 71.1317 63.1349 71.3471C61.8795 72.3413 60.6793 71.9977 59.2414 71.7786C56.1951 71.3152 48.3922 70.629 50.7916 76.9706C51.3346 78.4057 52.794 80.338 53.6179 81.6186C55.2065 84.0882 57.2446 86.6683 59.1356 88.9085ZM87.9075 43.4598C87.7802 44.0299 87.6426 44.5944 87.476 45.1346C87.5555 45.3546 87.711 45.5053 87.9778 45.5381C87.9768 45.4978 87.9731 45.4575 87.9722 45.4173C88.0723 44.7854 88.0358 44.1179 87.9075 43.4598ZM81.3676 37.4421C81.4602 36.0894 81.4846 34.7319 81.4855 33.3736C81.3572 34.3285 81.2421 35.2843 81.1607 36.242C80.891 39.4315 80.7946 42.9308 79.8192 45.9818C80.0232 46.0005 80.2291 46.0192 80.4379 46.0408C80.701 43.1649 81.171 40.3218 81.3676 37.4421ZM84.3202 46.3628C84.3239 43.9044 84.9062 41.4049 85.1562 38.9962C85.3228 37.3916 85.4268 35.7945 85.5091 34.1974C85.2049 35.8919 84.8491 37.5732 84.3979 39.2237C83.8671 41.1681 83.5675 44.0879 82.7128 46.2645C83.2483 46.3104 83.7866 46.346 84.3202 46.3628ZM78.3072 24.9079C76.154 28.5795 77.3926 34.2508 77.4038 38.1929C77.4104 40.4734 77.7998 43.3278 77.4806 45.8798C77.797 45.8769 78.1078 45.8854 78.4186 45.8966C77.4871 44.4531 77.8803 41.0754 77.8916 39.9211C77.9337 35.6335 77.9206 31.0819 78.5553 26.8897C78.6265 26.4188 79.2715 26.4413 79.4896 26.768C80.8274 28.7742 79.82 32.8774 79.6675 35.0662C79.6422 35.4359 79.1189 35.4359 79.0936 35.0662C79.0168 33.9868 79.2181 31.9122 79.1694 30.1092C78.7107 34.4127 78.5871 39.2218 78.9606 43.3119C79.2743 46.7448 79.2583 43.6217 79.3969 42.2063C79.5926 40.2076 79.9661 38.2463 80.1646 36.2439C80.4847 33.0104 81.1223 29.6842 81.3806 26.4301C80.32 25.9611 79.2537 25.4892 78.3072 24.9079ZM82.4366 26.9141C82.4207 30.1785 82.5761 33.4522 82.4114 36.7082C82.2606 39.6871 81.1578 42.9524 81.5351 45.8957C81.5229 45.9958 81.5136 46.0745 81.5051 46.1494C81.5229 46.1512 81.5416 46.1531 81.5594 46.155C81.6044 45.9312 81.6652 45.5998 81.7486 45.1327C81.947 44.1413 82.2036 43.1649 82.5181 42.2034C83.0255 40.3527 83.6312 38.5262 84.0534 36.652C84.6291 34.0944 85.0148 31.4011 85.3734 28.7461C84.9727 28.4344 84.5673 28.1348 84.1582 27.8596C83.634 27.5067 83.0451 27.2033 82.4366 26.9141ZM86.6587 29.8237C86.6119 32.1865 86.5305 34.54 86.3198 36.9188C86.1073 39.3229 85.1234 42.6069 85.3631 44.9885C85.5522 46.8758 85.3668 46.5145 85.9809 45.4173C86.0783 45.2432 86.1635 45.0569 86.2431 44.8621C86.1794 42.7389 86.8853 40.1495 87.1474 38.016C87.4217 35.7889 87.7578 33.543 88.1369 31.3178C87.6698 30.7926 87.1745 30.2927 86.6587 29.8237ZM89.7771 33.4728C89.5617 34.6833 89.2285 35.8376 89.1003 36.4554C88.7614 38.0872 88.5367 40.1533 88.1641 42.195C88.5255 43.1405 88.8165 44.2452 88.956 45.3134C89.0281 45.2816 89.0974 45.2544 89.1761 45.216C89.7911 44.9127 90.4417 42.1211 90.6233 41.5322C90.9454 40.4856 91.2993 39.0458 91.5287 37.5311C91.201 36.0969 90.585 34.7348 89.7771 33.4728ZM91.5165 41.1306C91.3564 41.756 91.0999 42.9093 90.6936 44.0533C91.142 43.3905 91.4744 42.5508 91.655 41.491C91.7393 40.9958 91.772 40.5071 91.7814 40.0213C91.6943 40.4135 91.6045 40.7861 91.5165 41.1306ZM89.9615 47.8363C89.5533 48.0975 89.1302 48.3203 88.7014 48.5253C87.8785 50.3668 86.7973 49.9343 85.3687 49.5448C84.3867 49.6862 83.3868 49.7049 82.387 49.6001C81.9115 49.5504 81.4443 49.5158 80.9781 49.483C80.1693 49.7255 79.3716 50.1112 78.5282 50.657C77.7755 51.1447 77.2718 51.8843 76.4799 52.357C75.0541 53.2089 73.6161 53.4392 71.9638 53.3419C71.5678 53.3185 71.1765 53.2764 70.7918 53.2314C69.7404 61.0633 69.1703 68.5938 70.5886 76.5231C71.9516 84.1453 74.3548 92.3826 77.445 99.4909C77.5639 99.7642 77.1604 100.002 77.0415 99.7268C74.8809 94.7455 73.4355 89.3101 71.9114 84.1013C71.3216 82.0839 70.817 80.0449 70.4051 77.9882C70.9996 83.1614 71.976 88.3506 73.3053 93.4171C75.9341 99.0743 79.0094 104.495 81.889 110.006C80.9472 106.698 80.2161 103.315 79.8117 99.9786C79.4054 96.6309 79.3127 93.2757 78.883 89.928C78.619 87.8703 78.3447 85.8164 78.8109 83.7699C79.2013 82.0586 79.5402 80.3473 79.8922 78.6416C79.8501 75.1273 80.3237 71.7889 82.0678 68.4216C82.6351 67.3263 83.1584 66.0475 83.8231 64.8763C84.2706 63.3672 84.7462 61.8694 85.4267 60.5017C86.4659 58.4121 88.2231 56.7701 89.2304 54.6497C90.6983 51.5613 91.8123 48.5946 92.2813 45.4707C91.7084 46.389 90.9529 47.2016 89.9615 47.8363ZM85.1112 66.802C84.7911 68.21 84.5037 69.6433 84.2547 71.0344C84.3005 70.9689 84.3474 70.9024 84.3904 70.8303C85.3331 69.2566 85.5194 67.6745 85.6158 65.9239C85.4426 66.1954 85.2779 66.4921 85.1112 66.802ZM86.0821 65.2686C86.289 65.2779 86.4949 65.4212 86.5239 65.6973C86.9583 69.8876 84.7284 71.5605 83.6986 75.3819C82.2101 80.9053 82.8907 86.9145 83.4477 92.5333C83.4786 92.8413 83.5217 93.1456 83.5572 93.4526C84.1199 95.7827 84.8276 98.0941 85.5101 100.367C86.1111 102.368 86.8198 104.214 87.8402 105.997C87.8346 100.475 87.1165 95.1611 87.5097 89.6153C87.8832 84.3438 87.5958 79.0198 88.3223 73.7764C88.6677 71.2853 89.1077 68.7511 89.5281 66.2852C89.807 64.6516 90.4081 63.1557 90.8584 61.5998C90.1263 62.344 89.6058 62.9001 88.37 63.5095C87.2972 64.0375 86.6176 64.602 86.0821 65.2686ZM88.0751 114.748C87.8355 112.492 87.8261 110.284 87.8345 108.046C87.5911 107.654 87.3365 107.256 87.0622 106.841C86.3442 105.751 85.7806 104.577 85.2966 103.364C85.7366 105.499 86.1729 107.638 86.522 109.809C86.8956 112.133 87.6464 114.231 88.2998 116.396C88.2137 115.788 88.1257 115.222 88.0751 114.748ZM85.6495 108.534C85.0429 104.878 84.1386 101.324 83.4636 97.7056C83.3138 97.1963 83.1631 96.6889 83.0058 96.1881C82.9272 95.9363 82.8504 95.6816 82.7727 95.4279C82.915 97.3424 83.0545 99.2568 83.3316 101.165C83.8427 104.673 85.012 107.92 85.9856 111.319C86.1925 112.042 86.4247 112.752 86.669 113.455C86.3002 111.83 85.9257 110.2 85.6495 108.534ZM92.1016 126.2C92.6549 127.573 93.2764 128.963 93.9654 130.318C94.1321 129.865 94.3483 129.426 94.5973 128.999C92.3609 125.775 90.7694 121.741 89.7836 117.959C89.8117 118.843 89.7574 119.689 89.5823 120.466C90.4436 122.359 91.3161 124.251 92.1016 126.2ZM95.6421 127.373C96.0138 126.816 96.3695 126.258 96.655 125.683C95.3453 122.961 93.1538 120.574 91.9639 117.78C91.8198 117.44 91.6944 117.091 91.5577 116.747C92.3197 120.09 93.7305 124.111 95.6421 127.373ZM97.2046 127.856C96.9902 128.209 96.7917 128.553 96.612 128.891C96.9125 129.324 97.2233 129.731 97.5435 130.116C97.6708 129.445 97.8337 128.778 98.0303 128.115C98.0088 128.003 97.9966 127.887 97.9938 127.769C97.8852 127.818 97.7644 127.864 97.6221 127.907C97.5491 127.929 97.4657 127.881 97.447 127.808C97.4255 127.723 97.3974 127.64 97.3731 127.556C97.316 127.653 97.2636 127.759 97.2046 127.856ZM110.111 116.143C112.319 116.602 114.109 117.655 116.265 118.356C118.062 118.941 119.575 119.135 120.502 120.936C120.851 121.612 120.277 122.372 119.529 122.201C117.472 121.733 115.483 120.538 113.437 119.848C111.52 119.202 109.499 118.336 107.816 117.207C107.739 117.195 107.67 117.187 107.596 117.176C106.965 117.602 106.348 118.048 105.748 118.521C108.387 119.13 110.938 120.178 113.56 120.818C115.58 121.311 117.991 121.66 119.682 122.979C119.857 122.863 120.054 122.75 120.288 122.639C120.85 122.373 121.805 122.296 122.912 122.38C122.491 122.065 122.08 121.745 121.681 121.422C119.097 119.335 116.738 116.907 113.998 115.041C113.51 114.707 112.99 114.427 112.461 114.164C111.788 114.574 111.11 114.978 110.435 115.385C110.404 115.668 110.289 115.92 110.111 116.143ZM131.508 105.528C131.682 105.574 131.856 105.622 132.042 105.68C133.339 106.082 134.667 106.873 136.02 107.305C137.212 107.686 138.652 107.731 139.78 108.129C140.847 108.504 141.867 109.058 142.817 109.738C144.223 109.061 145.652 108.423 147.098 107.816C146.762 107.742 146.425 107.674 146.092 107.595C141.514 106.522 136.34 104.694 131.579 105.426C131.555 105.46 131.532 105.494 131.508 105.528ZM156.666 122.138C154.426 122.784 152.275 123.596 150.166 124.5C149.879 124.764 149.632 125.027 149.452 125.284C148.694 126.362 148.324 125.408 148.734 127.144C148.863 127.69 148.994 127.988 149.173 128.152C149.861 127.971 150.544 127.772 151.216 127.525C155.095 126.102 158.387 122.742 162.162 120.876C160.306 121.178 158.473 121.616 156.666 122.138ZM153.695 137.057C153.189 137.244 152.811 137.457 152.074 137.285C151.473 137.144 150.845 136.932 150.242 136.734C148.876 136.748 147.555 136.75 146.198 136.555C145.761 136.493 145.34 136.445 144.909 136.388C148.53 137.853 151.24 137.517 155.025 137.853C157.595 138.081 160.027 138.969 162.492 139.662C168.943 141.476 174.931 141.989 181.612 141.991C184.543 141.991 187.662 142.318 190.577 142.044C191.874 141.921 195.254 141.26 197.811 140.322C197.821 140.154 197.859 139.999 197.909 139.848C195.971 138.954 193.971 138.28 191.668 137.802C187.248 136.885 182.108 137.106 177.563 136.79C173.542 136.511 169.874 136.204 165.851 136.833C162.818 137.308 159.915 138.314 156.836 137.707C155.753 137.492 154.729 137.248 153.695 137.057ZM195.222 145.432C200.276 146.224 205.359 146.976 210.362 148.049C210.344 148.035 210.325 148.021 210.307 148.006C207.994 146.11 205.772 144.545 203.319 142.946C200.922 144.385 197.825 145.03 195.222 145.432ZM230.961 157.44C227.389 156.069 223.876 154.499 220.274 153.201C211.428 150.012 201.838 148.6 192.554 147.326C188.607 146.784 184.653 147.096 180.694 147.002C176.124 147.242 171.536 147.175 167.058 146.623C166.398 146.657 165.737 146.699 165.072 146.757C164.477 146.809 163.884 146.849 163.292 146.881C172.218 149.953 181.846 149.945 191.172 150.808C200.178 151.642 208.958 152.925 217.702 155.253C222.127 156.432 226.399 157.445 230.702 159.068C232.639 159.798 234.73 160.374 236.766 161.053C235.111 159.567 233.293 158.335 230.961 157.44ZM160.855 146.961C160.204 146.972 159.554 146.976 158.904 146.973C160.741 147.403 162.579 147.821 164.418 148.229C163.215 147.857 162.027 147.436 160.855 146.961ZM163.876 149.16C161.001 148.574 158.052 147.713 155.076 146.908C153.911 146.878 152.743 146.846 151.571 146.823C151.307 146.818 151.051 146.838 150.79 146.846C150.174 148.348 149.223 149.708 148.048 150.862C150.026 150.782 152.074 151.299 153.99 151.621C157.581 152.223 161.147 152.649 164.617 153.82C166.414 154.427 168.736 155.228 169.711 156.89C174.737 158.531 179.735 160.276 184.787 161.829C191.354 163.847 198.235 164.993 204.632 167.551C207.142 168.554 212.056 171.971 214.854 171.255C219.276 170.122 212.903 167.352 211.952 166.846C209.189 165.377 206.833 163.198 204.211 161.51C198.637 157.922 190.963 155.781 184.596 154.048C177.713 152.174 170.865 150.586 163.876 149.16ZM154.556 152.351C151.846 151.9 149.561 151.688 147.002 151.799C146.889 151.888 146.771 151.968 146.655 152.053C152.33 153.306 158.278 153.379 163.906 155.061C165.526 155.545 167.137 156.057 168.746 156.577C166.083 153.414 157.338 152.815 154.556 152.351ZM143.788 153.945C143.775 154.019 143.732 154.094 143.648 154.154C142.587 154.913 142.765 156.438 142.037 157.424C142.933 157.316 143.835 157.193 144.76 157.033C147.757 156.514 150.657 157.811 153.502 158.54C153.838 158.626 154.159 158.717 154.488 158.805C155.253 158.983 156.014 159.165 156.772 159.35C154.963 158.611 153.139 157.89 151.31 157.131C149.742 156.481 146.494 155.427 143.788 153.945ZM184.195 172.496C184.849 172.538 185.982 172.672 186.548 172.378C187.55 171.859 187.683 171.348 187.322 170.957C186.138 171.305 184.922 171.67 184.717 171.688C183.556 171.793 182.365 171.734 181.168 171.565C182.066 172.015 183.001 172.419 184.195 172.496ZM179.511 176.054C177.972 173.919 176.152 173.059 174.21 171.497C173.046 170.56 172.009 169.461 171.027 168.313C165.613 166.044 160.579 163.758 154.828 162.367C152.242 161.742 149.455 160.481 146.805 160.345C145.464 160.276 144.164 160.628 142.84 160.909C145.082 162.684 147.812 163.36 150.414 164.679C154.832 166.916 159.396 168.282 163.89 170.278C169.231 172.649 174.716 174.556 180.069 176.898C179.89 176.612 179.708 176.327 179.511 176.054ZM136.396 157.895C136.115 157.793 135.839 157.683 135.566 157.566C134.87 157.377 134.247 157.201 133.779 157.107C132.624 156.876 129.543 156.312 127.238 155.253C126.768 155.325 126.296 155.397 125.807 155.475C125.737 155.486 125.659 155.499 125.582 155.514C125.645 155.547 125.708 155.576 125.771 155.611C129.362 157.591 132.192 158.124 136.198 157.906C136.265 157.904 136.329 157.899 136.396 157.895ZM117.657 151.088C117.867 151.282 118.083 151.451 118.297 151.623C120.801 150.97 123.246 150.496 125.687 149.884C125.606 149.887 125.526 149.897 125.444 149.898C123.245 149.912 121.228 149.209 119.086 148.809C118.868 148.768 118.653 148.753 118.438 148.727C118.43 148.729 118.423 148.731 118.415 148.733C117.702 148.901 115.913 149.37 114.575 150.03C115.256 150.782 115.912 151.55 116.589 152.295C116.903 152.148 117.21 152.002 117.499 151.882C117.396 151.775 117.286 151.671 117.186 151.562C116.893 151.244 117.34 150.796 117.657 151.088ZM114.975 155.641C114.537 155.478 114.092 155.27 113.647 155.027C114.032 156.139 114.661 157.36 114.805 157.63C114.853 157.719 114.897 157.809 114.945 157.899C114.94 157.283 114.951 156.669 114.973 156.048C114.975 155.997 114.976 155.846 114.975 155.641ZM102.865 203.116C102.078 197.539 101.414 191.936 100.329 186.424C99.266 181.03 98.2091 173.905 99.7978 168.524C100.476 166.226 101.927 164.122 102.993 161.981C103.322 161.319 103.611 160.653 103.883 159.986C103.48 160.063 103.057 160.142 102.618 160.276C102.101 160.665 101.64 161.013 101.276 161.305C100.907 161.6 100.541 161.9 100.173 162.197C99.4589 163.504 99.0011 165.336 98.4749 166.379C96.9125 169.475 95.835 172.27 95.6131 175.729C95.2471 181.449 95.5541 186.609 96.8816 192.213C98.3813 198.543 101.071 204.633 103.721 210.708C103.317 208.203 103.027 205.666 102.865 203.116ZM61.8907 114.415C61.0426 116.576 60.0072 119.981 58.1732 121.551C56.5106 122.974 53.1582 123.569 51.2091 124.313C47.4916 125.732 43.9876 126.998 40.9113 129.584C38.8864 131.287 36.4983 132.951 33.9772 134.022C32.7265 134.553 31.4514 135.055 30.167 135.536C30.5864 135.557 31.0011 135.592 31.4084 135.645C35.1249 136.127 37.235 137.568 40.2476 133.999C41.4216 132.608 42.2706 132.022 43.937 131.193C48.2705 129.037 53.1404 128.057 57.1556 125.244C61.4722 122.22 65.1401 117.008 65.5483 111.657C65.6148 110.79 65.7599 107.94 65.4753 105.689C65.4453 105.637 65.4153 105.584 65.3863 105.532C64.7001 108.582 62.9598 111.69 61.8907 114.415ZM53.2509 68.6837C51.3205 69.3521 48.1188 70.9988 47.4448 73.0584C46.6135 75.5982 47.2145 79.5029 48.894 81.4576C51.5302 84.5263 55.2898 86.6711 58.4475 89.3111C58.3895 89.2128 58.3418 89.1079 58.28 89.0115C58.2219 88.9207 58.2706 88.8233 58.3473 88.7728C57.5469 87.8254 56.7605 86.8845 56.0369 85.9362C54.5615 84.0021 53.1329 82.2056 51.8804 80.1217C51.1474 78.9009 49.5025 77.3731 49.1215 75.9792C48.5448 73.8691 50.5538 71.9799 52.2511 71.2123C55.5838 69.7069 61.695 72.1821 63.2528 68.0668C63.1367 67.433 63.0356 66.7973 62.9457 66.1617C62.7782 65.4193 62.6284 64.6732 62.5245 63.9139C62.5067 63.7857 62.4992 63.6612 62.4842 63.5339C62.2399 64.294 61.8486 65.0065 61.271 65.6262C59.114 67.9413 56.0116 67.7279 53.2509 68.6837ZM157.035 8.1403C146.284 7.31648 135.65 5.58271 124.964 4.20187C119.463 3.49133 114.278 3.04291 108.794 4.21404C103.639 5.31497 99.2258 7.66192 94.3718 9.52207C91.5567 10.6005 88.5797 11.0986 85.7619 12.2285C82.7886 13.4203 80.6233 15.1512 78.0133 16.914C75.3845 18.6899 72.0911 20.1615 70.274 22.8184C68.7949 24.9809 67.5564 27.4907 66.2504 29.7469C63.0937 35.2 61.4114 42.122 62.0639 48.4458C62.1173 48.9653 62.1725 49.4727 62.2268 49.9736C64.174 48.8184 66.5116 48.0245 68.5037 47.4038C70.275 46.8515 72.2456 46.3974 74.2256 46.1316C74.5513 41.2504 74.556 36.388 74.4746 31.4629C74.4268 28.5439 74.763 25.5108 76.64 23.5298C76.5211 23.3932 76.3872 23.2687 76.2823 23.1189C75.701 22.2866 76.2851 20.9685 77.2437 20.7551C82.3917 19.6073 85.2179 23.3333 88.2296 26.9412C89.5421 28.514 90.6018 30.2272 91.435 32.0377C91.4462 32.0564 91.4547 32.077 91.4659 32.0957C91.3863 31.8196 91.2955 31.5556 91.1794 31.3178C91.0708 31.0959 91.3854 30.9049 91.5137 31.1221C91.9565 31.8729 92.1998 32.7922 92.3103 33.7855C92.4095 34.0083 92.5144 34.2274 92.6043 34.4558C93.43 36.5537 93.8578 39.0739 93.6013 41.4395C93.7108 43.5169 93.6809 45.7 93.2549 47.6922C92.7354 50.1234 91.3508 52.1988 90.4783 54.5009C89.4494 57.2157 87.2831 59.3361 86.3788 62.0875C86.6419 62.0454 86.9377 62.1231 87.1614 62.0435C89.0206 61.3844 89.9362 60.9913 91.3713 59.7724C91.7486 59.4522 92.2747 59.7583 92.1839 60.2451C91.23 65.3126 89.7256 70.2564 89.1948 75.4615C88.5863 81.4333 88.5713 87.6175 88.3448 93.6202C88.1931 97.6448 88.5348 101.715 88.7435 105.771C88.986 102.694 89.5318 99.6304 90.2124 96.6487C90.9875 93.2532 92.3599 90.0469 93.1482 86.6458C94.0169 82.9012 94.7808 79.1322 95.6693 75.3922C97.389 68.1482 99.8165 61.2646 101.676 54.0992C103.457 47.2353 106.239 40.7327 109.307 34.3565C110.509 31.8579 111.862 29.5391 113.747 27.5029C115.898 25.1803 117.384 22.4336 119.605 20.2055C123.065 16.7343 126.519 11.9084 131.319 10.2476C133.378 9.53519 136.873 8.41554 136.155 11.5713C135.516 14.377 133.005 17.7154 131.358 20.0427C129.559 22.5825 127.325 24.6963 125.17 26.9234C120.046 32.2221 114.862 38.9522 111.004 45.2319C102.917 58.3962 98.1398 74.0984 96.1392 89.3785C95.1095 97.245 94.4129 104.858 95.7329 112.746C96.0138 114.425 96.3658 116.092 96.7758 117.744C96.9406 118.408 97.082 119.083 97.1531 119.438C97.1119 119.222 97.0454 118.865 96.9424 118.302C96.274 114.636 97.155 110.991 97.6942 107.381C98.7605 100.242 99.2051 93.0651 101.079 86.0729C102.964 79.0414 104.966 72.1316 108.026 65.4961C114.606 51.2271 122.19 36.2691 135.094 26.7755C140.96 22.4598 147.555 19.7262 153.705 15.9647C156.757 14.098 159.712 12.8548 163.21 12.0563C166.608 11.2802 170.052 11.2109 173.426 10.4395C173.238 10.7531 173.085 11.2792 172.839 11.2671C170.77 11.1622 166.602 11.8644 164.676 12.2079C159.722 13.0945 155.878 15.4686 151.549 17.8118C143.919 21.9431 135.281 25.6989 129.239 32.1734C122.577 39.3116 117.395 47.5583 113.049 56.2543C107.979 66.4023 103.807 76.5652 101.104 87.6007C99.8754 92.6138 99.5281 97.7449 98.8326 102.84C98.4787 105.432 98.0481 108.017 97.6577 110.604C97.0791 114.436 97.4798 117.587 97.7728 121.404C97.7972 121.718 97.3207 121.764 97.2364 121.477C94.9512 113.663 93.8194 105.573 94.6367 97.4379C95.4493 89.3541 97.1259 81.5222 98.693 73.5667C99.4925 69.5056 101.275 65.7095 102.498 61.7636C103.669 57.9815 105.711 54.9418 107.326 51.3572C110.833 43.5787 116.161 37.2905 121.352 30.5913C123.024 28.4335 139.263 11.8138 133.785 10.1456C131.345 9.40225 126.429 14.0924 124.853 15.7803C121.853 18.9951 119.239 22.2529 116.574 25.7027C114.364 28.5608 112.012 30.8656 110.416 34.1918C108.323 38.5515 106.361 43.0937 104.838 47.6791C103.512 51.669 102.879 55.8246 101.637 59.8192C100.349 63.9654 99.0404 67.8711 98.0846 72.1344C97.023 76.8704 96.0409 81.6186 95.0252 86.365C94.0516 90.9138 92.4657 95.237 91.6972 99.8307C91.025 103.847 90.5859 107.723 90.834 111.662C91.728 114.432 92.3104 117.304 93.6566 119.954C94.4326 121.482 95.5092 122.777 96.3648 124.25C96.3704 124.259 96.5942 124.68 96.8928 125.172C97.4873 123.858 98.034 122.471 98.5471 121.061C100.126 111.677 101.392 102.449 103.677 93.1896C105.848 84.3934 109.678 77.7298 114.789 70.2752C125.592 54.5187 140.49 42.8007 154.803 30.4153C161.012 25.0427 167.183 18.9342 172.688 12.867C173.163 12.3437 174.745 12.0141 174.186 10.813C174.076 10.5762 173.98 10.4274 173.894 10.3347C174.377 10.2139 174.859 10.0791 175.338 9.92276C175.497 9.87127 175.641 10.0079 175.648 10.1587C175.701 11.2615 175.227 11.5451 174.422 12.2697C172.395 14.0915 170.31 15.5968 168.464 17.6611C164.852 21.6997 160.867 25.7326 156.804 29.3303C147.333 37.7164 137.136 45.4931 128.31 54.572C120.037 63.0845 111.966 73.1997 107.012 84.048C102.065 94.8793 101.437 107.397 99.2604 119.04C99.5993 118.06 99.9316 117.085 100.256 116.141C100.388 115.757 100.769 115.704 101.022 115.867C101.209 114.356 101.599 112.858 102.432 111.584C103.674 109.682 105.594 108.72 107.514 107.625C110.094 106.153 112.453 104.353 114.891 102.658C118.929 99.8494 123.014 95.3512 125.382 90.3745C124.855 90.8538 123.957 90.8267 123.692 89.9299C123.488 89.2399 123.198 86.5447 123.22 83.6754C123.139 83.4881 123.14 83.2672 123.23 83.0669C123.325 79.0685 124.077 74.985 126.553 75.7049C128.263 76.202 128.523 80.1189 128.619 81.408C128.976 86.2199 126.282 91.5438 123.836 95.5206C120.962 100.195 117.337 104.012 113.234 107.62C111.461 109.179 109.701 110.177 107.696 111.397C105.663 112.635 104.771 114.233 104.367 116.125C104.905 116.02 105.462 115.952 106.018 115.916C106.619 115.261 107.249 114.632 107.904 114.03C107.797 113.853 107.66 113.688 107.461 113.545C107.152 113.2 107.538 112.68 107.956 112.902C108.279 113.073 108.584 113.144 108.88 113.166C109.08 112.996 109.281 112.829 109.483 112.664C109.184 112.484 108.891 112.295 108.616 112.079C108.088 111.666 108.669 110.869 109.236 111.015C109.931 111.194 110.555 111.3 111.148 111.352C111.842 110.813 112.537 110.275 113.232 109.733C113.273 109.663 113.312 109.593 113.38 109.527C117.213 105.831 120.8 102.226 123.851 97.8095C126.529 93.9348 128.818 89.2109 130.962 85.0113C133.277 80.4756 135.9 76.422 137.867 71.6747C139.422 67.9217 141.978 64.2322 144.631 61.1607C147.247 58.1332 150.883 55.1421 154.213 52.8944C155.887 51.7645 157.68 50.5802 159.511 49.7236C161.148 48.9579 162.807 48.9663 164.436 48.4355C165.279 47.5676 166.108 46.6783 166.945 45.73C168.779 43.6508 171.126 42.0387 172.82 39.8687C174.205 38.0956 175.173 35.9733 176.437 34.0954C179.306 29.833 183.348 28.4625 187.025 25.1953C189.677 22.838 197.89 13.7198 195.545 9.406C194.109 9.02872 192.641 8.85365 191.157 8.76097C185.868 8.43051 180.441 8.12439 175.142 8.12252C169.164 8.11971 162.992 8.59715 157.035 8.1403ZM125.731 83.4984C125.311 83.4853 124.746 83.7821 124.284 83.9553C124.292 84.5207 124.325 85.0834 124.402 85.6348C124.536 85.353 124.684 85.0777 124.864 84.8147C125.406 84.0255 126.801 83.5312 125.731 83.4984ZM127.339 81.2058C127.284 80.1994 127.187 79.0779 126.993 78.8364C125.792 77.3357 125.16 77.8412 124.738 79.6976C124.573 80.4231 124.439 81.2123 124.358 82.0277C125.254 81.2722 126.317 80.4952 127.339 81.2058ZM185.104 29.1964C188.296 25.6577 190.721 22.3784 194.511 19.378C196.908 17.4804 199.49 15.9975 199.116 12.705C198.849 10.3525 198.58 10.3478 196.641 9.72335C197.658 12.2987 195.625 15.1288 194.269 17.4729C191.441 22.3606 187.933 26.0369 183.274 29.1234C180.085 31.2363 178.366 33.7995 176.837 37.2278C176.834 37.2352 176.831 37.2427 176.827 37.2493C179.684 34.673 182.51 32.0733 185.104 29.1964ZM143.652 67.3628C145.724 65.0345 147.989 62.9179 149.958 60.4904C151.424 58.6817 152.974 56.6269 155.024 55.4211C157.021 54.2462 158.806 53.6124 160.616 52.0491C160.905 51.8 161.173 51.5491 161.451 51.3001C160.383 51.6231 159.319 52.0172 158.271 52.6248C152.294 56.0877 147.355 60.8518 143.568 66.5137C142.891 67.5257 142.316 68.5779 141.8 69.6536C142.378 68.8812 142.982 68.1154 143.652 67.3628ZM125.745 104.648C125.88 104.628 126.016 104.607 126.14 104.595C126.977 104.519 127.79 104.65 128.582 104.903C129.544 104.43 130.565 104.104 131.616 103.883C131.967 103.47 132.331 103.063 132.712 102.661C132.808 102.561 132.905 102.459 133.001 102.358C133.125 102.172 133.245 101.983 133.368 101.796C130.897 102.692 128.127 103.427 125.745 104.648ZM156.059 77.6559C156.457 76.8021 158.229 75.0955 157.256 75.0402C153.083 74.8024 154.283 80.63 154.444 83.8495C154.566 83.5574 154.677 83.2635 154.766 82.9648C155.29 81.2067 155.276 79.3391 156.059 77.6559ZM211.515 51.7336C206.877 49.6796 202.844 48.8259 197.847 48.4383C194.328 48.1659 190.965 47.2943 187.391 48.0236C183.819 48.7528 178.312 50.8901 175.247 52.7418C172.758 54.2453 169.382 56.8984 167.142 58.883C164.113 61.5689 160.4 63.4122 157.46 66.1682C151.018 72.2074 146.445 80.8116 141.886 88.3206C140.213 91.0767 138.62 93.8795 137.015 96.6758C138.109 96.2003 139.193 95.7107 140.273 95.1976C141.284 94.2802 142.303 93.3796 143.338 92.5314C145.092 91.0916 146.897 89.6986 148.725 88.3346C150.181 86.4913 152.501 86.1524 152.496 83.2588C152.492 80.8416 151.688 79.7744 152.899 77.3535C153.596 75.9577 154.646 75.175 155.885 74.252C156.88 73.5105 158.736 71.9303 159.433 73.7951C159.799 74.7744 158.52 75.8987 158.114 76.5474C156.89 78.5031 156.82 80.6843 156.586 82.8703C161.743 79.5478 167.12 76.5699 172.668 74.076C183.373 69.266 194.652 65.2892 206.255 63.2895C217.361 61.376 228.305 60.6215 239.013 64.2613C233.086 60.232 226.832 57.0332 219.969 54.8163C217.079 53.8802 214.292 52.9627 211.515 51.7336ZM141.646 94.5292C142.892 93.9113 144.14 93.2607 145.403 92.5577C146.162 92.1354 146.961 91.6468 147.76 91.1047C147.763 90.5665 147.86 90.0347 148.059 89.5142C145.88 91.1179 143.721 92.7805 141.646 94.5292ZM265.607 92.5052C265.596 92.4921 265.587 92.479 265.576 92.4659C268.129 95.9878 270.547 99.6023 272.163 103.654C273.827 107.827 275.339 110.734 278.522 113.973C280.748 116.239 283.471 118.04 285.512 120.457C285.682 120.658 285.857 120.88 286.034 121.112C281.694 110.243 272.887 101.432 265.607 92.5052ZM277.812 140.367C281.249 140.231 284.486 139.046 286.672 136.264C287.357 135.394 287.804 134.466 288.077 133.504C286.745 135.173 284.708 136.873 283.41 137.932C281.903 139.163 280.655 139.448 278.702 139.448C278.397 139.448 278.406 139.004 278.702 138.981C281.591 138.746 287.082 134.713 288.418 131.244C288.497 128.866 287.816 126.384 287.104 124.085C287.094 124.05 287.08 124.017 287.068 123.983C285.628 121.642 283.506 119.607 281.671 118.076C277.251 114.386 273.823 110.396 271.77 105.043C268.89 97.5343 263.485 91.394 258.846 84.9298C253.764 77.8506 248.514 71.1121 241.415 65.9464C240.849 65.5354 240.277 65.1422 239.706 64.7462C225.575 59.7471 209.911 62.1839 195.767 66.1018C182.06 69.8988 168.248 75.323 156.515 83.5003C156.438 84.1013 156.341 84.7014 156.194 85.2949C155.212 89.2437 151.984 92.6831 148.518 94.7689C143.991 97.4931 139.452 99.5124 134.564 101.351C134.236 101.721 133.911 102.092 133.595 102.47C133.328 102.879 133.054 103.283 132.779 103.686C136.418 103.201 140.354 103.891 143.756 104.739C146.182 105.344 148.655 105.799 151.136 106.213C156.784 104.1 162.594 102.389 168.211 100.783C175.517 98.6951 183.665 97.3358 191.277 97.1542C198.654 96.9782 206.038 98.3703 213.27 99.6556C228.032 102.28 243.048 106.955 256.9 112.654C262.997 115.163 268.531 117.878 274.031 121.498C277.112 123.526 280.189 125.681 283.231 127.788C284.99 129.007 286.832 130.124 287.787 132.11C287.816 132.169 287.808 132.257 287.74 132.289C286.067 133.101 283.479 131.401 281.92 130.966C277.363 129.693 272.902 128.095 268.311 126.906C259.19 124.543 249.933 122.071 240.529 121.18C231.834 120.356 223.21 118.911 214.573 117.621C204.671 116.141 195.173 116.246 185.222 116.574C181.574 116.695 178.015 116.813 174.428 117.156C175.269 117.451 176.091 117.825 176.839 118.21C180.022 119.491 183.196 121.845 180.924 124.289C179.229 126.112 175.909 124.842 173.103 123.069C171.399 123.781 168.732 123.417 167.297 123.221C164.658 122.86 162.152 122.144 159.611 123.514C157.724 124.531 156.269 126.297 154.572 127.652C154.666 127.677 154.756 127.712 154.848 127.744C158.195 127.324 161.547 126.812 164.896 126.46C182.261 124.631 200.234 125.471 217.175 130.007C234.518 134.649 250.165 142.276 264.876 152.411C264.812 149.457 264.282 145.874 266.213 143.408C269.254 139.525 273.554 140.536 277.812 140.367ZM246.55 160.104C249.245 161.628 250.468 161.504 253.559 161.213C254.464 161.128 255.326 161.276 256.217 161.247C258.287 161.181 259.648 160.001 261.522 159.698C262.504 159.539 265.042 160.339 265.607 159.377C265.816 159.019 265.136 157.558 265.059 157.055C264.857 155.724 264.89 154.337 264.881 152.987C264.775 152.944 264.665 152.899 264.529 152.842C263.875 152.566 263.268 152.164 262.68 151.721C261.71 151.21 260.722 150.719 259.705 150.264C260.553 150.628 261.402 151.005 262.251 151.39C261.499 150.796 260.769 150.164 260.004 149.671C256.551 147.445 252.986 145.092 249.345 143.183C232.719 134.47 215.075 128.516 196.289 126.594C187.789 125.724 179.381 126.016 170.881 126.352C165.709 126.557 160.328 127.025 155.219 127.819C155.189 127.824 155.15 127.832 155.117 127.838C156.344 128.369 157.208 129.534 156.734 131.215C156.384 132.455 155.391 133.061 154.265 133.386C153.828 134.267 153.706 135.162 154.779 136.064C154.897 136.162 154.934 136.28 154.923 136.393C156.789 136.753 158.636 137.145 160.587 136.918C163.542 136.572 166.436 135.709 169.41 135.44C175.385 134.901 181.953 136.335 187.954 136.445C191.766 136.515 195.247 137.393 198.559 138.89C199.212 138.29 200.189 137.897 201.062 137.647C201.029 137.024 201.087 136.4 201.226 136.005C201.313 135.759 201.419 135.549 201.539 135.36C196.973 134.889 192.348 134.492 188.05 133.092C187.862 133.032 187.942 132.736 188.131 132.797C192.153 134.084 196.348 134.164 200.502 134.706C200.97 134.767 201.438 134.837 201.906 134.901C202.248 134.547 202.668 134.272 203.156 133.959C204.675 132.99 206.382 132.023 207.363 133.983C207.634 134.525 207.74 135.145 207.723 135.795C209.419 136.084 211.113 136.389 212.796 136.723C221.656 138.48 230.315 140.943 239.037 143.238C244.792 144.751 250.287 146.509 255.712 148.633C252.658 147.483 249.55 146.504 246.608 145.631C240.338 143.769 233.866 141.684 227.462 140.362C220.863 139 214.35 137.273 207.699 136.155C207.533 138.007 206.476 140.027 205.498 141.158C205.203 141.499 204.876 141.811 204.525 142.099C205.945 142.843 207.394 143.584 208.605 144.513C211.8 146.963 213.917 149.645 218.323 149.623C223.384 149.599 227.703 145.269 232.286 148.827C234.415 150.479 236.127 152.656 238.043 154.536C240.637 157.083 243.441 158.344 246.55 160.104ZM198.607 177.586C203.179 176.139 207.681 174.609 212.452 173.727C220.952 172.156 228.936 169.357 237.334 167.518C238.954 167.163 241.338 169.108 241.435 165.53C241.261 165.519 241.077 165.464 240.887 165.339C231.858 159.377 219.492 156.453 208.966 154.409C197.39 152.159 185.628 151.959 173.989 150.304C173.792 150.276 173.597 150.243 173.402 150.214C173.78 150.298 174.157 150.381 174.535 150.465C179.834 151.656 185.286 153.009 190.41 154.808C195.159 156.475 200.422 157.984 204.672 160.721C208.217 163.006 211.442 165.398 215.196 167.332C216.445 167.975 218.716 169.141 217.892 170.909C216.41 174.086 208.999 170.038 207.14 169.196C197.71 164.918 187.193 163.054 177.298 160.058C174.855 159.318 172.447 158.46 170.033 157.613C170.124 157.915 170.176 158.24 170.178 158.592C170.182 159.013 169.527 159.014 169.524 158.592C169.521 158.139 169.419 157.721 169.237 157.336C165.773 156.128 162.293 154.972 158.689 154.263C155.295 153.595 151.836 153.498 148.426 152.967C148.194 152.932 146.742 152.71 145.968 152.541C145.835 152.628 145.699 152.711 145.563 152.793C146.034 153.037 146.444 153.247 146.743 153.412C150.914 155.71 155.398 157.307 159.77 159.161C162.363 160.26 165.316 161.613 167.8 163.189C168.899 163.727 170.156 164.298 171.371 164.957C171.693 165.107 172.01 165.251 172.334 165.407C174.128 166.268 175.919 167.132 177.729 167.865C177.854 167.851 177.978 167.84 178.104 167.832C180.928 167.641 192.73 165.517 191.481 171.92C190.967 174.552 188.152 175.323 185.854 175.452C184.97 175.502 184.004 175.525 183.078 175.394C183.533 176.033 183.993 176.616 184.904 177.094C185.442 177.377 186.261 177.33 186.856 177.599C189.137 178.627 190.027 179.924 193.062 179.486C194.94 179.214 196.824 178.151 198.607 177.586ZM236.533 238.986C242.481 236.412 247.578 229.149 249.38 223.116C250.264 220.159 249.919 216.027 249.089 213.099C248.019 209.321 246.132 207.643 242.339 206.59C236.656 205.011 230.544 204.547 224.978 202.624C222.382 201.727 219.675 201.032 217.106 200.086C214.717 199.206 212.684 197.646 210.428 196.508C204.611 193.572 198.57 191.963 193.33 187.901C187.324 183.244 179.345 179.167 172.126 176.798C166.125 174.829 160.101 172.257 154.441 169.435C151.511 167.975 148.751 166.113 146.011 164.331C145.386 163.924 142.186 162.164 141.711 161.115C141.421 161.159 141.13 161.189 140.836 161.208C141.149 161.537 141.483 161.908 141.878 162.332C144.606 165.255 147.159 168.836 150.32 171.283C154.08 174.193 157.206 177.794 161 180.638C164.335 183.137 167.57 185.718 170.778 188.379C178.003 194.375 185.949 198.604 193.845 203.53C201.885 208.546 209.408 213.863 217.924 218.089C218.319 218.285 218.042 218.967 217.621 218.809C209.432 215.765 202.279 210.564 194.912 205.99C187.379 201.314 179.164 197.995 171.899 192.826C164.915 187.857 158.421 182.567 152.183 176.737C149.031 173.791 146.003 171.63 143.227 168.256C142.107 166.894 140.851 165.499 139.838 164.07C139.568 163.689 139.286 163.162 139.002 162.617C138.849 162.805 138.706 163.003 138.543 163.183C138.502 163.227 138.435 163.16 138.476 163.116C138.648 162.932 138.797 162.728 138.958 162.534C138.721 162.076 138.482 161.618 138.245 161.215C134.697 161.167 131.147 160.95 127.925 159.339C125.908 158.33 123.894 157.138 122.009 155.78C121.205 155.647 120.522 155.29 120.198 154.502C120.174 154.445 120.163 154.393 120.144 154.338C119.546 153.843 118.963 153.337 118.41 152.807C118.051 152.896 117.692 152.979 117.337 153.084C118.389 154.165 119.536 155.157 120.969 155.897C128.03 159.545 133.219 165.101 138.026 171.102C138.352 170.868 138.735 170.707 139.189 170.649C139.642 170.592 140.113 170.687 140.58 170.886C140.128 169.521 139.648 168.147 138.946 167.219C138.826 167.062 139.093 166.908 139.211 167.064C140.054 168.175 140.554 169.646 141.038 171.117C142.624 172.031 144.073 174.076 144.507 175.762C145.077 176.34 145.54 176.949 145.722 177.284C146.554 178.818 147.154 180.544 147.903 182.144C148.03 182.412 148.155 182.686 148.276 182.962C149.15 183.957 150.056 184.929 150.989 185.878C156.557 191.555 162.716 196.985 168.821 202.08C175.32 207.505 181.881 212.735 188.729 217.729C195.371 222.572 202.105 227.62 208.264 233.06C208.998 233.709 216.563 239.174 215.617 240.56C215.543 240.668 215.441 240.743 215.315 240.794C216.536 241.098 217.76 241.365 218.994 241.489C225.047 242.093 231.011 241.377 236.533 238.986ZM114.895 234.769C116.577 236.295 118.535 236.949 119.906 238.805C121.029 240.326 121.698 241.432 123.355 242.524C124.341 243.174 125.354 243.724 126.269 244.475C129.026 246.735 130.827 249.704 134.778 249.425C138.713 249.147 142.42 249.166 146.292 248.25C152.245 246.841 157.946 244.322 163.79 242.507C169.626 240.695 175.616 240.101 181.703 239.89C188.2 239.664 194.595 238.079 201.116 238.558C203.966 238.768 206.826 239.07 209.655 239.483C210.547 239.614 211.434 239.809 212.318 240.025C209.532 238.667 205.953 236.085 205.222 235.672C190.221 227.197 174.568 219.512 159.919 210.465C153.618 206.574 148.126 201.532 142.484 196.775C136.161 191.443 131.08 185.752 126.941 178.568C122.87 171.505 119.449 163.914 116.101 156.473C115.965 156.351 115.822 156.237 115.689 156.113C115.714 157.215 115.722 158.321 115.741 159.43C117.308 162.422 118.835 165.427 120.273 168.487C121.881 171.909 124.027 174.964 125.563 178.444C127.187 182.128 129.058 185.704 131.122 189.162C135.444 196.406 140.993 202.669 146.53 208.985C152.471 215.761 158.626 222.34 165.399 228.295C166.279 229.07 167.138 229.877 167.995 230.686C168.903 231.111 169.809 231.552 170.701 232.043C172.966 233.289 176.242 234.87 176.783 237.628C176.803 237.73 176.694 237.841 176.593 237.774C173.424 235.654 170.384 233.303 167.452 230.799C167.447 230.796 167.441 230.793 167.434 230.791C152.353 224.221 139.59 212.936 131.163 198.831C126.764 191.469 121.196 185.217 118.469 176.909C117.116 172.788 116.328 168.477 115.631 164.203C115.354 162.504 115.091 160.794 114.986 159.073C114.04 157.53 112.993 155.88 112.444 154.297C111.795 153.87 111.167 153.41 110.601 152.974C110.685 154.311 110.694 155.675 110.819 156.929C111.138 160.122 110.923 163.481 110.458 166.656C109.657 172.111 108.543 177.723 107.303 183.085C105.882 189.228 108.455 195.411 108.054 201.642C107.776 205.948 106.226 210.534 105.796 214.988C105.876 215.361 105.956 215.737 106.036 216.112C106.8 217.959 107.528 219.811 108.183 221.673C109.093 224.259 111.698 228.496 112.451 232.296C113.229 233.158 114.038 233.992 114.895 234.769ZM115.766 160.391C115.805 161.627 115.885 162.861 116.081 164.082C116.884 169.072 117.802 174.107 119.594 178.85C121.489 183.866 124.399 188.417 127.459 192.791C130.448 197.064 132.916 201.871 136.33 205.771C139.388 209.264 142.257 212.885 145.6 216.132C149.311 219.735 153.694 222.302 157.814 225.372C160.541 227.405 163.55 228.674 166.559 230.029C160.622 224.857 155.126 219.077 149.909 213.316C141.682 204.23 133.823 195.22 128.001 184.368C126.655 181.858 125.549 179.276 124.356 176.695C123.067 173.906 121.223 171.475 119.916 168.698C118.704 166.12 117.445 163.588 116.134 161.058C116.021 160.84 115.893 160.616 115.766 160.391ZM168.717 231.37C170.441 232.989 172.192 234.581 174.156 235.885C177.507 238.111 173.824 234.275 172.624 233.489C171.36 232.663 170.064 231.992 168.717 231.37ZM108.801 230.253C108.287 229.643 107.8 229.016 107.361 228.367C107.373 228.519 107.395 228.67 107.4 228.822C107.417 229.258 107.403 229.708 107.376 230.164C109.387 232.03 110.213 233.74 110.189 236.344C110.489 234.45 109.746 232.255 108.801 230.253ZM108.485 234.172C108.233 233.426 107.764 232.712 107.174 232.06C107.019 233.069 106.805 234.086 106.575 235.074C107.004 236.39 107.366 237.724 107.607 239.122C108.657 237.783 109.202 236.286 108.485 234.172ZM106.383 240.46C105.388 238.441 104.223 236.487 103.111 234.51C103.704 236.779 104.648 239.252 105.145 241.692C105.367 241.456 105.591 241.221 105.828 240.996C106.017 240.817 106.202 240.639 106.383 240.46ZM98.7427 247.738C99.2651 247.637 100.205 246.805 101.055 245.977C100.674 245.511 100.366 244.989 100.114 244.429C100.15 244.849 100.174 245.265 100.178 245.671C100.182 245.999 99.8211 246.183 99.5459 246.034C97.4461 244.903 97.1484 242.606 96.4706 240.439C95.8799 238.55 95.425 236.625 94.9147 234.715C95.3089 237.301 95.5354 239.924 95.6861 242.516C95.7619 243.83 96.0765 245.044 96.0391 246.186C96.7112 247.279 97.5856 247.962 98.7427 247.738ZM92.2907 227.456C93.2802 231.112 92.842 234.745 93.7585 238.406C94.0244 239.468 94.3811 242 95.1244 244.165C95.0467 241.913 94.6114 239.407 94.486 238.391C94.1237 235.461 93.6837 232.426 93.0546 229.545C92.9769 229.191 93.4562 228.816 93.7258 229.155C96.6129 232.78 95.6899 238.506 98.0022 242.436C98.9449 244.039 98.5218 243.816 98.7446 242.63C99.0217 241.155 98.1407 238.621 97.8028 237.16C97.6764 236.613 96.1551 232.461 95.9454 230.274C95.6618 229.535 95.3632 228.804 95.0224 228.098C94.8183 227.675 95.4296 227.302 95.6609 227.725C96.7655 229.745 97.4292 232.159 98.0031 234.474C98.2222 235.09 98.3888 235.561 98.4393 235.727C98.6462 236.397 100.362 244.823 101.808 243.427C102.309 242.943 100.286 236.869 100.019 235.823C99.281 232.935 98.2241 230.346 97.0829 227.627C95.4137 227.311 93.7174 227.061 92.1249 226.869C92.1811 227.056 92.2354 227.25 92.2907 227.456ZM86.8104 223.313C90.8621 223.835 94.4391 225.011 98.356 225.99C101.338 226.734 104.067 227.542 106.462 229.395C106.416 228.285 106.305 227.179 106.133 226.081C106.09 225.972 106.035 225.867 105.997 225.756C105.719 224.951 105.5 224.155 105.328 223.363C104.286 220.913 103.424 218.363 102.472 215.876C102.171 215.368 101.858 214.865 101.524 214.375C96.9434 207.654 93.1117 201.25 91.5249 193.218C90.848 189.791 89.8773 186.676 90.1974 183.131C90.4333 180.513 91.1326 177.589 92.0416 174.888C92.1324 174.157 92.2364 173.44 92.3674 172.765C92.7709 170.686 93.8362 168.698 94.9044 166.897C95.0261 166.692 95.1347 166.473 95.249 166.261C91.1008 169.754 87.0631 173.39 83.355 177.353C78.1855 182.877 73.2211 188.509 67.9214 193.886C61.7269 200.171 56.6744 207.333 49.9724 213.145C44.2684 218.091 38.8742 223.634 32.9474 228.342C34.5426 229.059 36.1528 229.726 37.7696 230.36C38.3462 230.434 38.9295 230.493 39.5267 230.524C42.0609 230.66 44.5858 230.315 47.1097 230.162C49.8508 229.996 52.5441 230.298 55.2758 230.203C57.9981 230.109 60.5127 228.988 63.0235 227.829C63.0815 227.803 63.1377 227.775 63.1957 227.75C64.8977 226.963 66.6006 226.169 68.3662 225.677C75.76 223.613 84.7724 218.657 92.3581 223.293C92.696 223.5 92.3974 224.009 92.0482 223.824C87.4292 221.377 81.039 222.052 76.3404 223.753C75.6429 224.006 74.9511 224.239 74.2584 224.472C78.3906 223.447 82.5649 222.765 86.8104 223.313ZM55.024 232.089C56.0566 231.603 57.0433 231.062 58.0178 230.511C57.1678 230.753 56.2663 230.914 55.2749 230.946C50.5716 231.095 45.7429 231.253 41.0349 231.254C40.7138 231.254 40.3824 231.247 40.051 231.239C44.8732 233.002 50.1719 234.374 55.024 232.089ZM3.30017 192.907C3.69898 197.31 5.62746 202.435 7.91075 206.157C10.3813 210.184 13.0709 215.526 16.7219 218.546C20.299 221.505 24.272 223.999 28.4267 226.153C26.4617 223.716 24.8955 220.927 22.057 219.175C20.7352 218.36 19.1288 217.976 17.8668 217.08C16.7612 216.296 16.0816 215.134 15.1098 214.208C12.0374 211.283 9.48254 209.01 7.80213 204.952C6.63567 202.135 6.235 199.061 5.97849 196.041C5.63679 192.025 6.46344 190.221 8.10359 186.717C12.2817 177.79 9.8196 166.809 7.97349 157.574C7.91077 157.26 7.83397 156.927 7.75065 156.58C6.62632 159.96 6.54954 163.16 6.3127 166.917C6.06555 170.831 5.02081 174.774 4.5106 178.671C4.19605 181.079 4.32524 183.524 3.96949 185.918C3.62218 188.257 3.08392 190.517 3.30017 192.907Z" fill="#506956"/>
<path d="M66.0272 58.7325C66.0441 58.6538 66.0666 58.5752 66.0703 58.4984C66.0478 59.0011 66.0366 58.9965 66.0272 58.7325Z" fill="#506956"/>
<path d="M173.895 10.333C173.739 10.3714 173.583 10.4013 173.426 10.4369C173.554 10.2263 173.697 10.1186 173.895 10.333Z" fill="#506956"/>
<path d="M259.705 150.265C258.377 149.696 257.045 149.155 255.71 148.633C257.06 149.141 258.397 149.679 259.705 150.265Z" fill="#506956"/>
<path d="M179.33 191.018C171.466 185.59 163.697 179.846 156.14 174.036C156.073 173.985 156.139 173.869 156.207 173.921C168.329 183.212 180.824 192.158 194.148 199.691C196.316 200.917 228.56 216.473 229.451 209.313C229.488 209.011 229.965 209.003 229.932 209.313C229.16 216.429 205.62 205.791 203.551 204.676C195.381 200.274 187.011 196.321 179.33 191.018Z" fill="#506956"/>
</svg>
