<svg width="293" height="253" viewBox="0 0 293 253" fill="none" xmlns="http://www.w3.org/2000/svg">
<path d="M118.263 171.67C118.318 171.67 118.318 171.585 118.263 171.585C118.208 171.585 118.208 171.67 118.263 171.67Z" fill="#79977F"/>
<path d="M291.287 184.005C290.956 179.821 290.502 175.712 289.865 171.553C289.314 167.96 289.521 164.354 288.906 160.807C288.308 157.36 287.156 154.448 285.595 151.359C285.461 151.095 285.336 150.822 285.21 150.55C285.161 150.205 285.084 149.873 284.968 149.559C284.779 149.045 284.497 148.538 284.158 148.04C282.233 143.09 280.571 137.664 274.981 136.03C268.11 134.02 261.829 132.486 255.665 128.764C250.118 125.415 244.17 123.784 238.146 121.326C235.018 120.05 234.548 117.502 233.57 114.414C232.266 110.294 229.414 106.209 230.26 101.773C231.06 97.575 232.912 94.5512 236.269 91.9627C238.872 89.9556 241.466 87.7706 243.945 85.6052C247.897 82.1545 250.113 75.8738 247.317 70.8775C246.07 68.6476 243.221 67.0692 240.964 66.1218C238.95 65.2765 236.389 65.416 234.512 64.36C231.823 62.8471 232.845 60.6313 233.572 58.2843C234.3 55.928 233.844 54.0856 232.736 52.6187C232.999 50.5338 233.234 48.4499 233.279 46.3445C233.395 40.9232 232.414 35.3353 230.129 30.4176C229.307 28.6483 227.997 27.1523 227.007 25.4794C225.703 23.2738 224.766 20.8173 222.876 19.0189C221.229 17.4518 219.028 16.3668 217.144 15.1254C214.468 13.3626 212.071 11.3124 209.14 9.99994C204.283 7.82617 199.193 6.66534 194.355 4.42511C189.259 2.06505 183.422 0.616804 177.816 0.276041C172.561 -0.0422532 167.159 0.923858 161.974 1.75798C155.406 2.8149 148.859 2.99278 142.297 3.94953C135.665 4.91659 129.369 4.94936 122.688 4.94749C117.426 4.94562 112.208 5.26765 106.97 5.44271C106.853 5.35658 106.68 5.36782 106.553 5.45488C105.643 5.4839 104.733 5.51947 103.821 5.53539C97.8677 5.6393 84.3028 7.51257 89.8233 16.6532C92.3173 20.7826 97.0814 22.8609 100.251 26.365C103.951 30.4541 107.131 34.9018 111.284 38.609C113.342 40.4458 115.835 41.615 117.889 43.478C119.688 45.1078 121.166 47.1234 123.112 48.5866C123.359 48.772 123.608 48.9386 123.858 49.0949C125.937 51.2369 128.122 53.2815 130.34 55.1463C132.516 56.9746 134.335 57.1431 136.673 58.6363C139.329 60.3317 141.542 63.2619 143.826 65.4291C146.337 67.8135 148.867 70.2438 151.03 72.9521C151.511 73.5531 151.948 74.2 152.366 74.8637C153.36 77.5027 154.335 80.153 155.8 82.6207C159.425 88.7245 162.374 95.4265 166.482 101.117C164.679 100.43 162.742 99.9631 160.953 99.2769C159.201 98.6047 157.518 97.9288 155.866 97.2258C152.566 91.518 149.251 85.8243 145.706 80.2597C142.588 75.3655 139.719 70.4956 135.659 66.3306C131.503 62.0664 126.073 58.9724 121.45 55.2661C116.788 51.5299 112.108 48.9414 106.296 47.1253C101.262 45.5516 95.3383 46.3548 90.2306 46.7667C84.314 47.2432 78.5163 50.8081 72.9331 52.599C67.8029 54.2448 63.2195 56.0918 58.6426 58.6887C61.2086 56.9344 63.7541 55.1566 66.1609 53.1598C68.7185 51.0375 72.2834 49.813 75.2922 48.4396C78.7476 46.8631 82.3583 45.56 86.0637 44.71C89.8738 43.8365 93.6251 43.9554 97.4568 43.5257C101.074 43.1194 105.015 42.5446 108.622 43.3909C111.991 44.181 113.915 46.1835 116.639 48.0483C120.142 50.4477 124.181 50.8231 127.043 54.2813C127.386 54.6951 128.082 54.1549 127.787 53.7065C126.49 51.7312 125.169 50.0892 123.121 48.8544C121.48 47.8648 119.728 47.2123 118.199 46.0365C116.846 44.9955 115.891 43.537 114.521 42.5334C110.15 39.3308 103.825 39.4422 98.7169 39.9955C91.8192 40.7425 85.4411 40.9794 78.8197 43.3919C73.4049 45.3644 67.2384 47.6739 62.919 51.5243C58.3206 55.6228 52.5613 58.5661 47.6596 62.3772C42.3066 66.5394 38.8363 71.8268 34.1704 76.6012C29.381 81.502 26.0081 87.7472 21.7719 93.1413C17.7895 98.2134 13.2744 102.876 9.62336 108.204C4.1206 116.234 -5.17264 131.454 4.1019 140.027C8.09837 143.721 12.7118 143.978 17.8663 143.858C20.7506 143.79 23.2651 144.298 24.3108 147.394C25.2189 150.081 25.1936 154.603 24.7658 157.451C24.3941 159.931 23.7407 163.068 27.3655 162.677C29.3268 162.465 29.7827 162.181 31.6466 162.974C32.6286 163.392 33.5264 163.857 34.5739 164.097C36.9611 164.642 40.101 165.157 42.5884 164.973C44.852 164.805 46.3639 163.585 48.3579 162.54C48.6219 162.401 48.8813 162.265 49.1396 162.127C47.9339 163.894 47.507 165.827 48.6622 168C50.4456 171.355 55.6085 170.652 58.6454 171.526C64.3935 173.179 69.5695 175.437 75.5075 176.561C78.5894 177.144 81.7124 177.655 84.7343 178.509C87.8415 179.386 90.6846 181.005 93.7833 181.896C96.0347 182.544 98.0438 183.463 100.06 183.66C95.6013 186.554 91.2238 189.56 86.2397 191.501C83.1026 192.723 80.208 193.923 77.289 195.611C73.8908 197.576 69.9851 198.519 66.2817 199.799C59.5722 202.117 51.5503 201.758 45.3454 205.495C40.4886 208.419 39.8726 215.941 40.2377 221.1C40.6683 227.181 45.1675 233.394 49.5796 237.288C53.885 241.087 58.7671 243.907 64.6481 244.421C72.788 245.134 80.018 242.935 88.0521 242.187C96.3165 241.419 104.42 243.009 112.668 243.45C121.518 243.923 130.181 246.386 138.365 249.7C144.597 252.223 152.319 253.86 159.032 252.531C162.343 251.876 164.038 249.441 166.352 247.198C168.843 244.783 171.11 243.523 173.072 240.721C174.676 238.431 177.303 236.758 179.445 234.724C179.514 236.561 180.281 238.163 182.227 239.246C182.774 241.353 183.965 242.624 185.586 244.686C185.926 245.119 186.299 245.591 186.7 246.079C186.717 246.211 186.729 246.344 186.752 246.474C186.79 246.693 187.048 246.795 187.247 246.733C190.16 250.145 194.252 253.742 197.711 249.397C200.222 246.242 200.837 242.593 201.766 238.781C202.274 236.696 202.384 235.192 202.384 233.07C202.384 232.487 202.407 228.005 202.92 226.756C205.932 226.425 209.085 226.063 212.009 226.754C215.52 227.583 218.96 228.636 222.466 229.493C226.807 230.555 230.155 232.347 234.052 234.443C237.26 236.167 240.343 237.221 244.021 236.813C250.836 236.057 257.335 233.044 263.549 230.134C263.55 230.436 263.551 230.737 263.553 231.039C263.553 231.073 263.607 231.073 263.607 231.039C263.608 230.728 263.609 230.416 263.611 230.105C264.473 229.702 265.328 229.3 266.179 228.907C272.633 225.924 278.427 221.202 282.261 215.319C286.478 208.849 290.727 202.543 291.917 194.71C292.494 190.966 291.578 187.694 291.287 184.005ZM281.208 179.597C281.508 183.235 283.098 186.216 284.601 189.428C286.487 193.46 285.601 199.655 284.215 203.753C282.532 208.731 278.905 211.957 275.25 215.442C272.693 217.879 269.104 218.81 266.522 221.378C265.158 222.733 264.242 224.344 263.084 225.83C262.412 222.32 259.763 219.121 258.078 216.096C255.239 210.999 253.432 205.426 250.584 200.338C245.297 190.897 236.978 184.181 228.498 177.768C224.166 174.493 219.567 171.641 215.17 168.479C212.606 166.635 210.273 164.539 207.932 162.45C214.53 165.608 220.991 168.978 227.709 171.942C235.713 175.473 244.211 178.575 251.781 183.008C259.351 187.44 265.542 193.99 272.949 198.631C273.044 198.691 273.13 198.541 273.036 198.481C267.211 194.781 261.754 189.924 256.263 185.736C251.153 181.839 245.303 179.245 239.503 176.531C233.31 173.632 226.929 171.11 220.777 168.141C218.334 166.961 216.168 165.439 213.648 164.421C211.278 163.462 208.834 162.336 206.463 161.149C205.015 159.873 203.546 158.619 201.998 157.453C198.994 155.189 196.045 152.687 192.942 150.486C193.067 150.468 193.191 150.45 193.317 150.431C193.379 150.44 193.439 150.455 193.501 150.463C194.569 150.614 195.681 150.702 196.807 150.75C197.438 151.02 198.069 151.288 198.706 151.536C206.733 154.663 215.054 156.99 223.149 159.895C233.059 163.453 243.557 167.52 252.344 173.39C257.194 176.63 261.569 180.7 265.006 185.417C266.241 187.111 267.181 189.023 268.479 190.664C269.605 192.088 271.578 193.355 272.073 195.155C272.096 195.237 272.225 195.202 272.202 195.119C271.57 192.783 268.756 190.837 267.452 188.855C265.114 185.299 262.787 181.962 259.7 178.984C253.198 172.709 245.588 168.704 237.362 165.185C228.608 161.442 219.609 158.647 210.779 155.21C206.71 153.626 202.571 152.306 198.488 150.787C200.852 150.795 203.245 150.629 205.468 150.368C211.104 149.705 216.551 148.303 221.937 146.648C228.057 146.296 234.179 145.896 240.317 145.459C245.242 145.108 250.149 144.124 254.924 142.734C257.534 142.722 260.146 142.641 262.764 142.367C264.326 142.204 270.846 142.133 273.327 140.314C274.634 140.805 275.969 141.609 277.314 141.795C277.554 142 277.78 142.209 277.997 142.421C278.378 142.938 278.724 143.523 279.021 144.203C280.516 147.625 281.785 151.037 283.409 154.421C283.557 154.729 283.673 155.03 283.8 155.333C283.073 159.105 282.184 162.881 281.75 166.688C281.271 170.893 280.859 175.348 281.208 179.597ZM259.246 228.516C254.605 224.665 250.402 220.172 245.922 216.158C240.749 211.524 235.768 207.026 231.359 201.635C227.101 196.429 222.16 191.957 217.648 187.009C212.97 181.88 208.357 176.831 203.436 171.942C201.163 169.683 198.787 167.589 196.367 165.547C195.734 164.268 195.155 162.943 194.468 161.809C193.634 160.431 192.702 159.893 191.593 159.508C190.019 157.094 188.482 154.658 187.182 152.081C186.747 151.218 186.628 150.246 186.262 149.482C188.604 151.392 191.063 153.183 193.7 154.6C197.021 156.386 200.114 158.619 203.469 160.325C207.669 163.971 211.607 167.9 216.153 171.165C222.361 175.624 228.83 179.966 234.604 184.994C241.085 190.636 246.53 197.093 250.756 204.575C252.741 208.09 254.406 211.785 256.517 215.226C258.462 218.396 261.906 222.287 262.84 226.137C262.685 226.327 262.528 226.515 262.362 226.699C262.132 226.953 261.889 227.175 261.646 227.4C260.852 227.786 260.05 228.153 259.246 228.516ZM200.268 188.254C199.703 191.662 198.938 195.196 197.96 198.514C196.806 202.43 194.615 205.884 192.434 209.323C195.699 201.518 198.65 193.939 199.987 185.365C200.121 184.505 200.214 183.588 200.277 182.645C200.523 184.471 200.589 186.315 200.268 188.254ZM189.29 244.428C189.167 244.306 189.046 244.182 188.926 244.057C189.558 242.505 189.936 240.798 190.453 239.257C190.47 239.207 190.491 239.157 190.507 239.107C190.077 240.838 189.501 242.634 189.29 244.428ZM188.627 242.157C188.306 242.591 188.119 242.914 188.01 243.062C187.961 243.007 187.911 242.952 187.862 242.897C187.858 242.713 187.866 242.422 187.867 242.006C187.872 240.909 188.952 238.804 189.215 237.701C189.675 235.76 190.12 233.79 190.543 231.827C191.084 230.743 191.576 229.64 191.992 228.505C192.652 228.336 193.333 228.183 194.022 228.039C193.792 228.515 193.573 228.993 193.365 229.475C192.471 230.683 191.931 232.378 191.537 234.117C190.695 236.377 190.045 240.231 188.627 242.157ZM189.47 232.389C189.404 232.551 189.345 232.722 189.272 232.874C188.164 235.147 186.962 237.444 185.738 239.658C185.597 239.912 185.474 240.126 185.361 240.314C185.142 240.09 184.934 239.863 184.739 239.633C184.904 238.874 185.13 237.973 185.297 237.208C185.399 236.741 185.523 236.284 185.656 235.83C185.793 236.4 185.931 236.961 186.063 237.495C186.114 237.704 186.434 237.616 186.385 237.407C186.192 236.6 186.044 235.784 185.924 234.967C186.47 233.317 187.149 231.724 187.715 230.079C188.319 229.734 188.922 229.455 189.479 229.259C189.745 229.165 190.025 229.079 190.302 228.992C189.903 230.059 189.662 231.306 189.47 232.389ZM185.836 234.374C185.719 233.447 185.648 232.514 185.622 231.583C186.136 231.119 186.703 230.7 187.28 230.338C186.793 231.722 186.294 233.051 185.836 234.374ZM185.828 184.323C184.165 174.912 181.232 165.442 182.279 155.811C182.303 155.587 182.317 154.864 182.328 154.151C182.455 155.311 182.813 156.523 182.999 157.513C183.848 162.034 184.356 166.592 185.325 171.094C187.536 181.371 189.025 191.606 188.27 202.135C188.156 203.732 188.06 205.394 187.943 207.074C187.602 209.091 187.217 211.101 186.768 213.105C186.444 211.074 186.004 209.019 185.572 206.906C184.619 202.255 184.603 197.713 185.475 193.067C186 190.261 186.328 187.153 185.828 184.323ZM78.2074 240.284C76.7302 239.741 81.6872 235.794 81.8856 235.607C86.6694 231.088 92.0008 227.112 97.1787 223.054C102.826 218.628 109.209 214.944 114.47 210.062C119.592 205.307 125.132 200.991 130.381 196.346C134.861 192.38 139.453 188.505 143.477 184.069C143.177 184.936 143.016 185.833 143.238 186.754C143.292 186.981 143.52 187.246 143.764 187.28C144.901 187.438 145.789 186.906 146.503 186.125C147.359 185.759 148.166 185.124 148.761 184.644C150.543 183.205 153.091 181.579 154.432 179.753C155.503 178.295 156.058 174.569 154.98 172.424C156.884 170.009 158.883 167.692 161.435 165.844C163.226 164.548 164.9 162.942 166.775 161.794C168.538 160.714 170.57 160.07 172.426 159.168C173.316 158.735 174.109 158.208 174.859 157.635C174.437 158.801 174.001 159.964 173.486 161.08C167.793 173.433 162.23 185.892 151.762 194.979C146.6 199.459 141.365 204.076 135.783 208.028C130.658 211.656 124.908 214.676 119.347 217.578C107.447 223.788 95.6622 230.339 84.0753 237.117C83.1841 237.639 79.196 240.647 78.2074 240.284ZM147.735 177.962C147.751 177.991 147.767 178.019 147.785 178.048C147.651 178.251 147.514 178.45 147.378 178.649C147.471 178.455 147.593 178.22 147.735 177.962ZM148.059 183.484C147.98 183.287 147.719 183.179 147.519 183.359C147.235 183.614 146.75 184.216 146.25 184.711C145.383 185.195 144.723 185.33 144.961 184.411C145.058 184.039 146.032 183.535 146.284 183.279C147.649 181.886 148.699 180.136 150 178.647C150.639 178.364 150.972 178.096 151.387 177.38C151.497 177.192 151.535 177.001 151.543 176.815C151.936 176.33 152.322 175.841 152.704 175.349C152.701 175.483 152.702 175.627 152.72 175.791C153.082 179.13 151.359 180.36 149.285 182.482C149.216 182.55 148.708 182.987 148.059 183.484ZM147.991 178.327C148.104 178.458 148.229 178.578 148.371 178.671C147.717 179.515 147.052 180.352 146.386 181.188C146.585 180.752 146.762 180.322 146.924 179.869C147.293 179.363 147.648 178.849 147.991 178.327ZM171.843 153.151C171.695 152.899 171.485 152.678 171.241 152.483C171.676 152.565 172.108 152.657 172.541 152.749C172.311 152.893 172.077 153.021 171.843 153.151ZM56.5746 156.927C57.7317 155.842 59.444 154.639 60.0356 153.072C61.1347 152.019 62.3386 151.152 63.784 150.767C66.1563 150.134 68.4133 150.889 70.7369 151.356C70.1696 151.564 69.6051 151.78 69.0424 152.004C65.5421 153.403 61.864 154.564 58.4254 156.067C57.5623 156.445 56.7525 156.929 55.9849 157.482C56.1815 157.296 56.378 157.11 56.5746 156.927ZM85.8868 136.142C86.8828 135.997 87.8864 135.869 88.8975 135.756C89.0182 136.78 88.5848 138.356 88.4134 139.354C86.9933 138.349 85.7754 137.119 85.8868 136.142ZM86.0253 135.737C86.1779 135.474 86.4531 135.236 86.8941 135.04C88.0334 134.534 88.5773 134.748 88.7973 135.31C87.8724 135.445 86.9484 135.588 86.0253 135.737ZM138.328 136.213C138.51 135.665 138.581 135.096 138.62 134.497C138.628 134.36 138.607 134.087 138.574 133.774C139.071 133.868 139.573 133.925 140.04 133.968C140.306 133.993 140.581 134.031 140.862 134.074C140.644 134.808 141.37 135.479 142.068 135.415C141.572 135.606 141.077 135.746 140.867 135.824C140.583 135.929 140.261 136.099 139.974 136.185C139.631 136.215 139.291 136.257 138.952 136.307C138.738 136.289 138.541 136.252 138.328 136.213ZM129.633 122.023C129.16 121.979 128.669 121.961 128.128 122C127.013 122.083 122.269 123.156 120.457 122.286C121.186 121.751 121.838 121.214 122.369 120.734C124.063 120.655 126.077 120.692 126.829 120.725C127.776 121.118 128.711 121.553 129.633 122.023ZM109.828 112.333C111.498 115.996 118.746 112.495 120.289 110.545C120.342 110.477 120.377 110.409 120.417 110.341C121.194 110.211 121.989 110.146 122.816 110.208C125.185 110.389 127.067 111.031 129.485 110.626C134.274 109.823 139.193 109.239 143.973 108.256C145.609 108.891 147.229 109.567 148.821 110.296C146.388 112.19 144.477 114.922 143.579 117.671C143.272 118.607 142.785 120.092 142.709 121.384C140.648 120.505 138.54 119.723 136.333 119.105C132.514 118.037 127.449 116.777 123.123 117.457C121.941 116.638 120.4 116.639 118.841 117.019C117.722 116.916 116.613 116.821 115.526 116.725C106.464 115.933 97.2049 115.777 88.1335 116.315C79.5957 116.822 71.1357 118.398 62.6896 119.69C53.637 121.074 44.5871 121.693 35.6393 123.773C26.786 125.83 18.222 128.838 9.44174 131.05C8.51962 131.282 6.79054 132.237 6.13804 131.418C5.06707 130.076 8.3661 128.637 9.74132 127.714C13.3849 125.266 17.078 122.873 20.744 120.477C27.2681 116.214 34.7602 113.673 42.0997 110.956C51.6645 107.413 61.3463 104.313 71.278 101.909C81.4662 99.4435 92.6636 97.178 103.172 97.9457C114.056 98.7414 123.851 101.7 134.171 104.889C135.981 105.448 137.792 106.031 139.593 106.652C138.136 106.888 136.679 107.119 135.23 107.358C133.306 107.675 131.349 107.944 129.422 108.236C126.767 108.639 124.471 107.867 121.862 107.663C120.997 107.596 120.214 107.648 119.424 107.786C118.529 107.089 117.357 107.002 115.999 107.236C114.548 107.486 111.632 107.949 110.772 109.401C110.655 109.598 110.568 109.782 110.496 109.958C109.746 110.482 109.337 111.255 109.828 112.333ZM165.909 107.9C166.317 108.214 166.804 107.546 166.451 107.197C166.171 106.921 165.881 106.668 165.584 106.429C166.796 106.377 168.173 106.456 169.335 106.791C169.544 106.944 169.755 107.096 169.961 107.249C167.829 107.729 165.303 108.888 163.905 109.531C163.883 109.541 163.862 109.553 163.841 109.563C163.698 109.19 163.546 108.821 163.376 108.463C163.771 108.194 164.175 107.938 164.602 107.711C164.796 107.607 164.899 107.436 164.951 107.251C165.274 107.451 165.595 107.659 165.909 107.9ZM191.23 118.428C191.249 118.509 191.269 118.592 191.288 118.673C191.27 118.621 191.25 118.569 191.229 118.519C191.229 118.488 191.23 118.458 191.23 118.428ZM194.173 126.777C194.087 126.852 194.007 126.903 193.935 126.923C193.854 126.707 193.744 126.516 193.618 126.337C193.618 126.33 193.617 126.327 193.617 126.322C193.616 126.262 193.579 126.232 193.536 126.216C193.442 126.097 193.339 125.986 193.227 125.882C193.023 125.359 192.808 124.839 192.587 124.32C192.629 124.209 192.679 124.099 192.71 123.986C192.787 123.706 192.616 123.408 192.338 123.33C192.253 123.305 192.192 123.27 192.118 123.24C191.796 122.512 191.471 121.788 191.151 121.066C191.158 120.917 191.166 120.768 191.175 120.62C191.373 120.185 191.473 119.733 191.424 119.264C191.421 119.233 191.412 119.206 191.407 119.176C192.046 121.764 192.967 124.455 194.173 126.777ZM216.029 49.9506C216.512 50.5863 217.685 50.6228 218.022 49.9244C219.868 50.1977 221.711 50.6452 223.602 51.3137C224.766 51.7246 226.771 52.1805 227.889 52.746C228.486 53.0484 228.924 53.4097 229.249 53.8104C229.245 55.8334 229.523 57.7704 229.492 59.7887C229.345 60.5133 229.274 61.2529 229.307 61.9793C229.102 63.4762 228.823 64.9123 228.474 66.3222C228.307 64.6015 228.333 62.9539 227.991 61.2164C227.665 60.4674 227.546 59.6614 227.636 58.7992C227.141 57.6093 227.158 56.4644 227.684 55.3644C227.635 54.9469 227.816 54.4685 227.671 54.0547C226.977 52.0691 224.602 52.174 222.865 52.2938C222.579 52.3135 222.306 52.3313 222.038 52.3472C222.038 52.0336 222.012 51.7312 221.908 51.4672C221.779 51.1405 221.81 51.2566 221.41 50.795C221.222 50.5769 220.947 50.8203 220.979 51.0459C221.043 51.4953 221.106 51.9428 221.168 52.3902C218.291 52.5026 216.343 52.1656 213.787 49.8158C213.712 49.7475 213.638 49.6754 213.564 49.6042C214.334 49.6033 215.096 49.6351 215.853 49.6894C215.914 49.7755 215.965 49.8663 216.029 49.9506ZM226.013 110.565C225.986 116.257 229.172 121.69 233.581 125.192C233.999 125.523 234.431 125.827 234.869 126.119C231.996 125.664 224.134 129.801 223.555 130.047C219.262 131.862 214.776 133.284 210.619 135.392C207.634 136.906 204.688 138.297 201.64 139.486C201.857 139.332 202.084 139.188 202.296 139.031C207.426 135.228 210.573 129.174 214.32 124.146C218.481 118.56 222.61 112.931 226.079 106.869C226.082 106.864 226.083 106.861 226.086 106.856C225.962 108.416 226.016 109.957 226.013 110.565ZM263.717 136.395C264.956 136.83 266.202 137.246 267.448 137.62C267.576 137.659 267.703 137.693 267.831 137.73C266.658 137.831 265.511 138.09 264.384 138.461C261.912 138.515 259.428 138.803 256.979 138.859C248.605 139.05 239.737 140.116 231.711 142.575C228.575 143.536 225.464 144.533 222.338 145.456C212.788 145.835 203.273 145.825 193.715 145.787C196.959 145.016 200.133 143.827 203.325 142.928C208.035 141.603 212.655 139.975 217.167 138.084C221.984 136.065 226.703 133.797 230.979 130.779C231.746 130.238 235.95 128.328 235.914 127.169C235.908 126.99 235.866 126.843 235.804 126.712C237.928 127.976 240.24 128.896 242.55 129.795C245.276 130.855 248.667 131.723 250.774 133.864C251.764 134.871 252.357 136.437 253.647 137.145C256.241 138.569 259.552 136.458 262.251 136.366C262.725 136.349 263.217 136.365 263.717 136.395ZM272.32 139.822C271.031 139.338 269.838 138.893 268.983 138.745C268.248 138.618 267.508 138.551 266.766 138.508C267.544 138.282 268.354 138.168 269.353 138.27C269.198 138.254 269.622 138.295 270.154 138.339C270.873 138.518 271.579 138.697 272.266 138.895C272.529 139.256 272.521 139.562 272.32 139.822ZM231.858 143.682C231.013 143.86 230.173 144.053 229.334 144.249C229.973 144.036 230.612 143.822 231.251 143.609C240.264 140.598 249.847 139.837 259.274 139.412C260.291 139.366 261.282 139.308 262.261 139.258C260.25 140.086 258.262 141.06 256.214 141.71C255.525 141.929 254.832 142.124 254.138 142.308C246.683 142.457 239.21 142.13 231.858 143.682ZM252.433 142.726C246.159 144.141 239.712 144.348 233.311 144.84C230.935 145.022 228.562 145.166 226.193 145.287C226.298 145.253 226.403 145.219 226.507 145.184C231.162 143.983 235.878 143.004 240.641 142.77C244.58 142.577 248.505 142.691 252.433 142.726ZM264.547 139.352C264.704 139.288 264.854 139.225 265.004 139.162C267.384 139.128 269.735 139.293 272.182 139.971C271.159 140.889 267.726 141.176 266.857 141.291C264.244 141.635 261.642 141.951 259.01 142.117C258.196 142.169 257.38 142.206 256.565 142.236C259.282 141.387 261.952 140.42 264.547 139.352ZM274.038 139.555C274.955 140.065 275.817 140.62 276.591 141.212C275.601 140.998 274.504 140.629 273.426 140.233C273.684 140.029 273.89 139.803 274.038 139.555ZM192.721 150.329C192.719 150.327 192.715 150.324 192.712 150.322C192.72 150.323 192.727 150.326 192.735 150.327C192.731 150.327 192.726 150.328 192.721 150.329ZM168.95 153.631C169.819 154.248 168.383 154.053 167.154 153.849C167.342 153.606 167.495 153.352 167.57 153.078C168.091 153.213 168.591 153.377 168.95 153.631ZM165.009 153.558C164.602 153.512 164.204 153.456 163.82 153.388C161.509 151.495 158.675 150.564 155.941 149.417C155.482 149.004 155.032 148.563 154.585 148.101C155.788 148.778 157.031 149.372 158.313 149.908C160.825 150.96 163.421 151.847 166.012 152.681C166.06 152.697 166.115 152.711 166.166 152.726C165.781 153.043 165.396 153.318 165.009 153.558ZM150.11 155.632C150.024 155.338 149.92 155.051 149.799 154.77C149.44 154.509 149.337 154.378 149.316 154.299C151.228 154.939 153.26 155.15 155.215 154.783C155.422 154.744 155.581 154.652 155.71 154.537C156.979 155.213 158.353 155.604 159.877 155.582C159.374 155.739 158.858 155.904 158.321 156.096C157.374 156.435 156.554 156.745 155.757 157.003C155.301 157.055 154.854 157.09 154.426 157.092C152.793 157.642 151.354 157.155 150.11 155.632ZM146.316 150.128C145.283 149.341 144.081 148.355 143.404 147.231C144.035 147.319 144.66 147.429 145.279 147.555C146.684 148.828 148.342 149.967 149.909 151.075C149.789 151.155 149.667 151.234 149.545 151.312C149.479 151.228 149.377 151.177 149.259 151.218C148.991 151.312 148.72 151.385 148.45 151.469C147.701 151.091 146.984 150.638 146.316 150.128ZM143.282 125.303C145.417 126.265 147.519 127.308 149.632 128.377C151.985 129.568 153.979 131.06 156.339 132.072C156.073 132.184 155.805 132.296 155.544 132.416C154.167 132.025 152.898 131.213 151.49 130.625C149.107 129.63 146.587 129.233 144.111 128.66C145.486 127.808 144.644 126.505 143.282 125.303ZM147.536 116.081C147.665 116.105 147.793 116.13 147.922 116.154C148.83 116.325 149.352 115.352 149.076 114.729C149.349 114.329 149.756 113.871 150.177 113.539C149.341 116.206 147.532 120.75 146.154 121.03C142.978 121.677 145.944 115.839 146.566 114.81C146.751 114.503 146.967 114.194 147.196 113.886C147.021 114.218 146.897 114.553 146.85 114.873C146.777 115.364 146.965 115.973 147.536 116.081ZM150.205 110.941C150.349 111.01 150.491 111.084 150.635 111.155C150.075 111.274 149.504 111.543 148.978 111.911C149.372 111.553 149.785 111.234 150.205 110.941ZM164.226 112.986C164.302 113.303 164.743 113.159 164.701 112.855C164.653 112.512 164.581 112.186 164.513 111.856C166.068 110.985 168.277 109.923 170.043 109.501C168.983 110.296 168.025 111.27 166.917 112.181C164.864 113.868 162.654 115.253 160.481 116.697C160.148 116.443 159.818 116.186 159.479 115.941C160.459 114.854 161.608 113.888 162.732 112.974C162.946 112.8 163.393 112.507 163.979 112.162C164.064 112.436 164.157 112.703 164.226 112.986ZM178.382 113.597C176.276 114.847 174.468 116.178 172.505 117.667C169.079 120.265 165.124 123.27 160.708 123.931C161.778 122.061 164.555 120.062 165.641 119.002C167.403 117.282 169.203 115.624 171.444 114.542C173.823 113.392 175.93 113.221 178.097 113.412C178.191 113.474 178.287 113.537 178.382 113.597ZM172.527 126.084C173.678 126.841 175.312 126.946 176.974 126.79C176.363 126.878 175.764 126.982 175.133 127.169C173.73 127.585 172.521 128.061 171.836 129.278C170.648 129.112 169.306 129.119 167.981 129.245C168.023 129.217 168.069 129.185 168.109 129.158C169.045 128.525 171.308 127.354 172.527 126.084ZM188.002 120.161C188.024 120.181 188.044 120.202 188.066 120.223C188.056 120.614 188.032 121.101 188.031 121.62C187.821 121.794 187.529 121.935 187.135 122.033C186.238 122.534 185.298 122.921 184.315 123.193C182.841 123.674 181.388 123.915 179.844 123.963C179.073 123.986 176.72 124.379 175.15 124.347C176.846 123.571 179.042 123.346 180.608 122.899C182.668 122.311 184.716 121.544 186.72 120.789C186.908 120.719 187.479 120.385 188.002 120.161ZM195.772 131.399C195.932 131.226 196.086 131.044 196.24 130.862C196.522 131.782 196.594 132.689 196.371 133.63C196.32 133.709 196.275 133.793 196.224 133.871C195.532 134.921 194.685 135.457 194.531 136.79C194.525 136.839 194.528 136.885 194.531 136.932C194.353 137.173 194.174 137.414 193.996 137.655C194.741 135.753 194.935 133.891 194.792 132.06C194.99 132.078 195.199 132.013 195.384 131.819L195.751 131.433C195.762 131.422 195.764 131.41 195.772 131.399ZM222.984 56.7209C222.702 55.7033 222.227 54.9085 222.045 53.86C222.018 53.7037 222.01 53.5352 222.01 53.362C224.013 53.1392 225.707 53.1373 226.372 55.9168C226.12 55.151 226.106 58.1729 226.078 58.9452C226.173 59.3899 226.44 59.8589 226.557 60.2727C227.204 62.5541 227.68 64.1063 227.658 66.4635C227.65 67.2874 227.53 68.2291 227.689 69.0324C227.694 69.0576 227.702 69.0829 227.708 69.1091C227.469 69.8955 227.216 70.6866 226.947 71.4935C224.857 77.7668 222.92 84.0137 220.358 90.1278C220.079 90.7944 219.789 91.4544 219.495 92.1125C219.98 90.1465 220.434 88.1684 220.819 86.1641C221.59 82.1611 222.03 78.1384 222.389 74.1064C222.681 71.9729 222.866 69.8244 222.933 67.6656C223.003 66.8352 223.075 66.0048 223.151 65.1735C223.4 62.4352 223.729 59.4086 222.984 56.7209ZM226.429 75.5705C226.819 74.1588 227.278 72.7658 227.728 71.3728C226.988 74.3629 226.052 77.2949 225.095 80.2298C222.852 87.1096 220.186 93.8303 217.871 100.691C216.659 104.285 215.592 108.037 214.206 111.559C213.517 113.311 212.441 114.546 211.224 115.65C213.766 110.039 215.963 104.327 217.744 98.4625C217.827 98.2865 217.914 98.1142 217.997 97.9382C221.359 90.7663 224.318 83.1955 226.429 75.5705ZM214.215 107.385C212.958 110.451 211.655 113.466 210.295 116.455C209.422 117.184 208.511 117.898 207.639 118.713C210.463 112.525 213.756 106.626 216.758 100.506C215.981 102.845 215.133 105.143 214.215 107.385ZM234.604 128.035C234.279 128.517 231.88 129.718 231.411 130.049C229.783 131.198 228.138 132.284 226.401 133.261C222.499 135.459 218.336 137.244 214.173 138.876C210.344 140.376 206.444 141.655 202.488 142.778C199.023 143.761 195.602 145.1 192.057 145.781C191.982 145.781 191.906 145.78 191.831 145.78C192.574 145.296 193.302 144.785 194.036 144.311C195.961 143.067 197.98 141.907 199.919 140.657C205.463 138.613 210.463 135.633 216.049 133.473C219.303 132.215 222.589 130.984 225.764 129.532C227.571 128.706 229.25 128.102 231.133 127.51C231.699 127.333 236.547 125.162 234.604 128.035ZM190.353 149.939C190.605 150.11 190.853 150.289 191.102 150.467C190.741 150.459 190.379 150.426 190.016 150.342C189.785 150.287 188.765 149.935 188.08 149.601C187.858 149.39 187.631 149.175 187.402 148.964C187.402 148.96 187.4 148.955 187.399 148.951C188.258 149.196 189.115 149.45 189.978 149.684C190.118 149.778 190.246 149.866 190.353 149.939ZM186.56 137.278C184.625 138.656 181.272 139.444 178.962 140.032C176.707 140.606 173.218 141.981 170.933 141.755C170.917 141.753 170.905 141.751 170.889 141.75C171.056 141.734 171.217 141.726 171.388 141.702C171.999 141.616 172.261 140.767 171.96 140.295C171.9 140.202 171.823 140.13 171.758 140.042C172.804 139.568 173.927 139.178 174.027 139.15C174.491 139.021 175.792 138.892 176.253 138.778C179.453 137.991 182.164 136.789 185.551 136.727C186.47 136.71 187.726 136.609 188.808 136.694C188.166 137.958 187.312 139.107 186.42 140.274C184.932 141.014 183.362 141.592 182.277 141.986C181.722 142.187 181.163 142.355 180.6 142.508C178.873 142.209 177.05 142.178 175.212 142.256C176.162 141.88 177.099 141.51 178.018 141.227C180.893 140.344 184.374 139.405 186.741 137.587C186.922 137.452 186.751 137.141 186.56 137.278ZM166.929 142.789C166.558 142.795 166.189 142.797 165.828 142.789C165.686 142.785 165.568 142.815 165.457 142.85C164.403 140.741 160.402 139.512 158.214 138.808C158.838 138.787 159.787 138.949 160.546 138.979C161.519 139.61 162.688 139.968 163.885 140.409C164.973 140.811 165.977 141.169 166.989 141.427C166.859 141.84 166.828 142.293 166.929 142.789ZM163.31 128.904C163.392 128.942 163.476 128.978 163.561 129.013C163.38 129.116 163.198 129.22 163.019 129.323C161.596 130.148 162.424 129.544 163.31 128.904ZM169.638 131.766C169.829 131.711 170.005 131.472 169.921 131.267C169.919 131.264 169.916 131.258 169.914 131.254C172.095 131.335 175.114 131.967 171.111 132.635C169.257 132.945 166.876 133.41 164.695 133.284C164.458 133.202 164.255 133.117 164.106 133.031C165.94 132.582 167.805 132.292 169.638 131.766ZM196.991 136.335C197.425 136.603 197.283 136.352 198.148 135.795C198.847 135.345 199.29 134.387 199.763 133.738C200.041 133.357 200.317 132.979 200.588 132.6C200.244 133.26 199.874 133.907 199.46 134.536C199.261 134.836 198.993 135.156 198.712 135.487C198.161 135.908 197.602 136.313 197.031 136.703C197.007 136.61 196.97 136.522 196.924 136.438C196.945 136.403 196.969 136.369 196.991 136.335ZM176.207 134.536C177.602 134.034 179.036 133.585 180.482 133.197C178.78 133.906 177.104 134.656 175.345 135.148C172.953 135.817 173.342 135.565 176.207 134.536ZM183.765 133.379C184.87 132.991 187.499 132.473 189.831 131.618C189.876 131.622 189.919 131.627 189.964 131.632C189.965 132.089 189.949 132.554 189.904 133.026C189.881 133.263 189.83 133.48 189.791 133.707C188.418 134.258 185.039 135.093 183.303 135.625C181.2 135.858 179.182 136.253 176.863 136.846C176.618 136.909 176.313 136.976 175.968 137.051C178.81 136.068 181.802 134.069 183.765 133.379ZM188.189 123.425C188.29 123.878 188.449 124.28 188.702 124.565C187.461 124.54 186.253 124.662 185.378 124.799C186.326 124.421 187.298 123.954 188.189 123.425ZM189.201 125.998C189.203 126.008 189.205 126.017 189.208 126.028C188.511 126.572 187.849 126.882 186.939 127.116C185.408 127.509 183.816 127.982 182.2 128.376C184.077 127.599 187.333 126.071 189.201 125.998ZM187.021 128.649C187.801 128.457 188.679 128.073 189.516 127.571C189.639 128.215 189.744 128.861 189.824 129.513C186.017 129.071 181.452 130.607 178.109 131.675C177.479 131.876 176.629 132.088 175.732 132.356C175.726 132.028 175.68 131.723 175.578 131.453C179.451 131.069 183.315 129.563 187.021 128.649ZM167.688 134.997C168.966 134.918 170.255 134.741 171.483 134.528C171.043 135.011 170.75 135.576 170.706 136.256C170.682 136.617 170.928 137.055 171.255 137.214C171.954 137.553 172.738 137.65 173.569 137.587C172.456 137.861 171.262 138.206 170.192 138.661C168.599 137.727 166.546 137.4 164.799 137.075C164.65 137.047 164.487 137.017 164.316 136.985C166.499 136.696 168.414 136.135 167.688 134.997ZM167.927 140.031C167.918 140.039 167.909 140.048 167.9 140.056C166.728 139.932 165.44 139.641 164.234 139.216C165.494 139.366 166.776 139.619 167.927 140.031ZM198.698 137.674C200.447 136.361 202.177 134.935 203.848 133.423C202.292 135.065 200.57 136.56 198.582 137.837C198.621 137.783 198.659 137.728 198.698 137.674ZM205.651 123.319C205.96 122.546 206.285 121.784 206.613 121.023C207.531 120.011 208.506 119.034 209.535 118.088C208.514 120.287 207.469 122.477 206.37 124.66C205.063 127.257 203.563 129.64 201.993 132.069C203.355 129.243 204.47 126.276 205.651 123.319ZM169.095 125.429C168.061 126.312 166.904 127.058 165.723 127.761C165.515 127.629 165.317 127.507 165.142 127.408C165.628 126.945 166.215 126.382 166.809 125.857C166.749 126.06 167.039 126.139 167.151 125.987C167.254 125.807 167.367 125.641 167.49 125.487C167.715 125.421 167.908 125.365 168.043 125.323C169.896 124.738 170.5 124.227 169.095 125.429ZM161.636 127.037C161.646 127.099 161.676 127.147 161.691 127.206C160.776 127.902 159.921 128.659 159.246 129.581C159.216 129.623 159.203 129.674 159.182 129.72C158.787 129.594 158.37 129.439 157.88 129.216C157.515 129.05 157.168 128.86 156.818 128.673C157.423 128.211 157.925 127.325 158.102 126.488C158.319 126.67 158.595 126.783 158.923 126.779C159.843 126.766 160.747 126.637 161.632 126.426C161.601 126.624 161.6 126.827 161.636 127.037ZM155.839 127.688C155.911 127.619 155.983 127.55 156.056 127.481C156.434 127.233 156.095 126.637 155.698 126.869C155.445 127.029 155.182 127.171 154.91 127.294C154.826 127.336 154.774 127.405 154.738 127.482C153.829 126.928 152.922 126.369 151.963 125.876C151.709 125.746 151.458 125.617 151.206 125.487C152.354 125.254 153.434 124.476 154.649 124.564C155.665 124.638 156.957 125.107 156.865 126.294C156.807 127.005 156.431 128.007 155.839 127.688ZM165.815 115.12C167.717 112.999 169.654 110.602 172.028 109.401C172.443 109.519 172.748 109.754 172.859 110.182C172.911 110.385 173.089 110.574 173.298 110.621C173.833 110.742 174.32 110.941 174.788 111.173C173.514 111.285 172.252 111.584 171.073 112.026C169.096 112.77 167.398 113.856 165.815 115.12ZM153.014 112.377C152.836 112.54 152.657 112.71 152.478 112.883C152.51 112.72 152.541 112.557 152.563 112.412C152.577 112.319 152.57 112.229 152.567 112.139C152.716 112.217 152.865 112.296 153.014 112.377ZM154.542 113.228C154.872 113.418 155.203 113.61 155.53 113.805C155.39 113.952 155.251 114.104 155.112 114.246C153.861 115.527 152.711 116.883 151.62 118.303C149.307 121.313 150.826 118.487 151.716 116.874C152.529 115.4 153.474 114.26 154.542 113.228ZM158.589 117.032C158.788 116.757 159.013 116.499 159.235 116.239C159.545 116.461 159.855 116.683 160.159 116.912C159.577 117.302 158.996 117.696 158.423 118.103C156.668 119.356 157.731 118.217 158.589 117.032ZM157.6 114.475C159.124 112.454 160.703 110.497 162.635 108.996C162.803 109.304 162.959 109.617 163.111 109.933C161.053 111.058 159.207 112.744 157.6 114.475ZM161.789 107.547C159.579 109.19 157.664 111.517 155.819 113.502C155.503 113.308 155.187 113.116 154.868 112.927C155.819 112.046 156.86 111.227 157.997 110.33C159.168 109.407 160.342 108.191 161.69 107.395C161.722 107.446 161.757 107.495 161.789 107.547ZM156.103 109.889C155.454 110.315 154.448 111.088 153.366 112.058C153.025 111.868 152.679 111.686 152.335 111.5C152.217 111.358 152.071 111.236 151.86 111.174C151.784 111.151 151.704 111.139 151.627 111.125C151.31 110.959 150.997 110.79 150.677 110.629C150.765 110.575 150.851 110.507 150.938 110.457C152.17 109.753 153.407 109.712 154.771 109.335C155.692 109.08 157.138 108.489 158.641 108.009C157.76 108.687 156.912 109.357 156.103 109.889ZM148.567 121.729C148.753 121.992 148.987 122.242 149.285 122.47C149.571 122.689 150.106 122.668 150.395 122.47C151.821 121.492 153.052 120.248 154.199 118.889C154.018 119.516 154.035 120.19 154.395 120.929C155.132 122.44 156.589 122.619 157.965 121.879C159.129 121.251 159.796 119.897 160.87 119.133C161.358 118.786 161.846 118.532 162.331 118.252C160.459 119.994 157.963 121.757 157.596 124.327C157.036 123.629 156.151 123.168 155.279 122.968C154.534 122.798 153.762 122.817 153.026 123.01C152.64 123.111 152.205 123.319 151.765 123.482C151.675 123.241 151.469 123.054 151.176 123.093C150.506 123.182 150.156 123.382 149.564 123.721C149.274 123.888 149.139 124.15 149.123 124.422C148.377 124.044 147.631 123.67 146.883 123.305C147.477 122.925 148.041 122.38 148.567 121.729ZM150.914 131.61C151.804 132.05 152.713 132.722 153.637 133.353C153.478 133.436 153.318 133.515 153.16 133.598C151.47 133.275 149.821 132.681 148.429 132.029C147.61 131.646 146.798 131.284 145.991 130.928C145.277 130.106 144.173 129.716 142.981 129.574C142.558 129.378 142.138 129.174 141.72 128.969C142.026 128.997 142.321 129.011 142.6 129.007C145.371 129.797 148.248 130.29 150.914 131.61ZM145.243 134.338C145.269 134.24 145.265 134.142 145.26 134.046C145.618 133.877 145.954 133.637 146.257 133.3C146.543 132.981 146.644 132.627 146.618 132.26C148.239 133.167 149.27 134.254 151.001 134.755C150.427 135.062 149.845 135.365 149.25 135.661C147.493 135.804 145.735 135.941 143.967 136.03C144.564 135.627 145.045 135.092 145.243 134.338ZM159.296 135.712C159.469 135.711 159.556 135.58 159.559 135.446C159.67 135.395 159.782 135.343 159.892 135.281C160.012 135.245 160.128 135.202 160.246 135.161C160.161 135.397 160.263 135.701 160.578 135.677L160.86 135.654C161.223 135.625 161.518 135.146 161.188 134.863C161.16 134.84 161.131 134.821 161.102 134.799C161.274 134.708 161.44 134.605 161.602 134.496C162.556 135.157 164.673 135.007 165.212 135.69C164.956 135.366 160.323 135.864 159.394 135.936C159.152 135.955 158.886 136.112 158.757 136.334C157.568 136.348 156.485 136.524 155.756 137.002C155.277 137.316 154.973 137.659 154.8 138.022C154.402 137.998 154.035 138.019 153.685 138.059C154.62 137.52 155.515 136.901 156.504 136.472C157.308 136.122 158.089 135.971 158.844 135.724C158.996 135.722 159.142 135.713 159.296 135.712ZM142.617 145.388C142.449 144.83 142.368 144.319 142.559 144.163C142.748 144.548 142.976 144.918 143.226 145.278C143.024 145.314 142.822 145.351 142.617 145.388ZM148.717 145.015C148.813 145.012 148.907 145.011 149.003 145.009C149.436 145.298 149.878 145.576 150.338 145.836C150.648 146.233 150.967 146.631 151.297 147.03C150.36 146.448 149.465 145.781 148.717 145.015ZM150.801 142.417C150.987 142.15 151.165 141.877 151.362 141.617C151.472 141.926 151.619 142.251 151.812 142.598C151.436 142.527 151.098 142.467 150.801 142.417ZM151.176 140.94C151.116 140.937 151.056 140.945 151 140.981C150.227 141.467 150.082 141.546 149.762 141.829C149.392 141.269 149.011 140.728 148.603 140.237C149.578 139.9 150.547 139.546 151.495 139.139C151.17 139.602 151.04 140.202 151.176 140.94ZM143.463 145.606C143.466 145.61 143.47 145.614 143.473 145.618C143.459 145.616 143.445 145.612 143.431 145.61C143.442 145.608 143.453 145.608 143.463 145.606ZM151.995 148.826C152.048 148.854 152.1 148.886 152.154 148.914C152.07 149.086 151.952 149.259 151.815 149.431C151.63 149.209 151.448 148.98 151.266 148.751C151.508 148.781 151.751 148.805 151.995 148.826ZM151.925 152.552C151.593 152.514 151.264 152.451 150.938 152.377C151.055 152.272 151.167 152.166 151.275 152.059C151.497 152.223 151.714 152.388 151.925 152.552ZM152.679 149.166C152.969 149.307 153.258 149.451 153.552 149.586C154.469 150.562 155.401 151.475 156.299 152.25C157.245 153.065 158.207 153.646 159.197 154.081C158.019 153.994 156.941 153.631 155.939 153.075C155.888 152.96 155.828 152.851 155.75 152.756C154.86 151.685 153.714 150.871 152.55 150.077C152.638 149.781 152.681 149.478 152.679 149.166ZM158.132 146.919C157.611 146.438 157.116 145.93 156.648 145.396C156.592 145.336 156.531 145.272 156.472 145.212C157.93 145.639 159.039 146.078 159.074 146.427C159.949 146.756 159.635 146.921 158.132 146.919ZM152.136 144.141C152.416 144.2 152.702 144.264 152.999 144.331C153.221 144.613 153.49 144.944 153.791 145.3C153.238 144.922 152.687 144.532 152.136 144.141ZM136.618 140.609C130.902 142.234 125.411 143.539 119.441 143.823C116.95 143.942 114.48 143.887 112.017 143.742C112.042 143.742 112.067 143.741 112.093 143.741C115.749 143.729 119.283 143.778 122.883 143.068C126.771 142.299 130.477 140.87 134.331 140.013C136.272 139.581 138.218 139.64 140.156 139.616C138.977 139.947 137.797 140.274 136.618 140.609ZM133.515 145.131C133.451 145.162 133.388 145.193 133.324 145.223C133.279 145.222 133.234 145.22 133.19 145.219C133.299 145.19 133.407 145.161 133.515 145.131ZM141.081 143.008C141.135 142.996 141.183 142.989 141.236 142.978C140.864 143.44 140.73 144.379 140.862 145.402C139.022 145.331 137.193 145.298 135.368 145.265C137.213 144.346 139.076 143.448 141.081 143.008ZM163.905 147.673C165.5 147.527 167.077 147.637 168.666 147.885C168.386 147.926 168.105 147.961 167.822 147.984C166.442 148.092 165.167 147.928 163.905 147.673ZM167.412 146.191C165.654 145.729 163.741 145.847 161.915 146.233C160.473 144.875 157.391 143.871 154.663 143.207C154.395 142.851 154.161 142.485 154.002 142.111C153.261 140.365 153.853 139.875 155.026 140.029C156.629 142.754 162.62 145.579 164.505 145.404C164.931 145.365 165.322 145.154 165.526 144.786C165.621 144.825 165.713 144.868 165.827 144.881C168.885 145.252 171.129 145.813 174.304 145.593C176.531 145.438 178.721 145.192 180.87 144.629C181.453 144.762 182.013 144.939 182.55 145.158C182.369 145.36 182.187 145.56 182.002 145.758C181.354 145.782 181.024 146.261 181.007 146.765C180.125 146.879 179.177 146.869 178.064 146.766C176.648 146.634 175.322 146.617 173.912 146.804C173.026 146.922 172.161 147.126 171.296 147.333C169.999 146.943 168.703 146.53 167.412 146.191ZM178.586 149.133C178.489 149.23 178.386 149.325 178.29 149.424C178.258 149.396 178.226 149.364 178.195 149.34C178.055 149.232 177.894 149.138 177.725 149.048C178.012 149.079 178.299 149.108 178.586 149.133ZM183.041 151.978C183.106 151.928 183.175 151.872 183.235 151.826C183.527 151.602 183.804 151.374 184.085 151.147C184.085 152.579 184.159 154.011 184.407 155.351C184.07 154.944 183.684 154.432 183.335 153.882C183.266 153.237 183.178 152.598 183.041 151.978ZM184.637 156.39C184.767 156.871 184.926 157.336 185.119 157.778C185.743 159.208 186.475 159.72 187.305 159.984C187.645 160.857 188.007 161.726 188.453 162.579C190.012 165.555 191.798 168.725 191.97 172.089C192.324 179.058 190.843 185.531 189.972 192.369C189.783 193.851 189.598 195.334 189.411 196.815C189.382 193.344 189.171 189.902 188.8 186.563C188.1 180.246 186.613 174.114 185.412 167.888C184.736 164.385 184.33 160.831 183.717 157.316C183.587 156.571 183.515 155.793 183.444 155.01C183.804 155.48 184.206 155.942 184.637 156.39ZM189.157 158.748C188.196 158.412 187.562 157.984 187.122 157.437C186.867 156.81 186.598 156.187 186.297 155.572C186.178 155.062 186.091 154.492 186.002 153.855C185.81 152.485 185.727 151.144 185.692 149.799C185.697 149.794 185.703 149.789 185.709 149.785C186.136 150.147 186.322 151.78 186.59 152.331C187.313 153.816 188.399 155.167 189.223 156.599C189.735 157.488 190.265 158.372 190.797 159.255C190.287 159.104 189.744 158.953 189.157 158.748ZM191.333 150.629C193.917 152.505 196.375 154.748 198.934 156.647C199.415 157.003 199.879 157.378 200.348 157.748C198.648 156.663 196.976 155.529 195.197 154.565C193.186 153.475 191.481 152.465 189.649 151.041C189.434 150.873 189.147 150.613 188.824 150.308C189.662 150.566 190.489 150.651 191.333 150.629ZM192.45 148.419C191.769 148.249 191.104 148.053 190.442 147.85C199.332 147.716 208.188 147.381 217.044 146.916C213.878 147.718 210.675 148.379 207.395 148.775C205.925 148.951 204.398 149.09 202.854 149.173C201.238 149.164 199.558 149.067 197.931 149.198C196.057 149.097 194.209 148.857 192.45 148.419ZM226.601 100.73C226.951 99.0382 227.622 97.4729 228.474 95.9891C228.519 95.9826 228.567 95.9788 228.614 95.9732C227.702 98.0468 226.582 100.803 226.447 103.094C226.03 103.782 225.608 104.466 225.178 105.147C224.132 106.803 223.032 108.427 221.902 110.031C223.006 107.94 223.897 105.82 224.416 103.431C224.986 100.803 225.108 97.0226 227.861 96.1305C227.101 97.5469 226.508 99.0363 226.202 100.619C226.152 100.88 226.547 100.992 226.601 100.73ZM228.99 95.1625C228.985 95.1625 228.98 95.1597 228.974 95.1597C229.006 95.1101 229.036 95.0595 229.068 95.0089C229.043 95.0604 229.015 95.111 228.99 95.1625ZM232.193 90.844C232.323 90.6886 232.451 90.5313 232.582 90.3768C232.54 90.447 232.495 90.5163 232.455 90.5865C232.365 90.6708 232.281 90.7588 232.193 90.844ZM232.968 89.1224C231.369 91.0162 229.694 93.0215 228.384 95.2056C225.377 95.595 224.269 98.337 223.822 101.328C222.77 108.349 218.65 114.41 214.333 119.806C210.793 124.23 207.115 128.218 202.977 131.916C204.942 128.711 206.567 125.195 208.146 122.076C208.96 120.468 209.74 118.85 210.496 117.227C210.707 117.042 210.905 116.851 211.12 116.669C216.003 112.537 216.957 105.122 218.962 99.2835C221.467 91.988 224.219 84.802 226.496 77.4288C227.167 75.256 227.804 73.0363 228.324 70.7942C228.497 71.0779 228.696 71.3456 228.969 71.5609C230.224 72.5551 231.424 72.2116 232.862 71.9925C235.908 71.5291 243.711 70.8429 241.312 77.1845C240.769 78.6196 239.309 80.5518 238.486 81.8325C236.897 84.3021 234.859 86.8821 232.968 89.1224ZM204.196 43.6736C204.323 44.2438 204.461 44.8083 204.628 45.3484C204.548 45.5684 204.393 45.7192 204.126 45.7519C204.127 45.7117 204.13 45.6714 204.131 45.6312C204.031 44.9992 204.068 44.3318 204.196 43.6736ZM210.736 37.656C210.643 36.3033 210.619 34.9458 210.618 33.5874C210.746 34.5423 210.861 35.4982 210.943 36.4558C211.212 39.6453 211.309 43.1447 212.284 46.1957C212.08 46.2144 211.874 46.2331 211.666 46.2546C211.403 43.3788 210.933 40.5356 210.736 37.656ZM207.783 46.5767C207.78 44.1183 207.197 41.6188 206.947 39.21C206.781 37.6055 206.677 36.0084 206.594 34.4113C206.899 36.1057 207.254 37.7871 207.706 39.4375C208.236 41.3819 208.536 44.3018 209.391 46.4784C208.855 46.5243 208.317 46.5598 207.783 46.5767ZM213.796 25.1217C215.949 28.7934 214.711 34.4646 214.7 38.4068C214.693 40.6873 214.304 43.5416 214.623 46.0936C214.306 46.0908 213.996 46.0992 213.685 46.1105C214.616 44.6669 214.223 41.2892 214.212 40.135C214.17 35.8473 214.183 31.2957 213.548 27.1036C213.477 26.6327 212.832 26.6552 212.614 26.9819C211.276 28.9881 212.283 33.0913 212.436 35.28C212.461 35.6498 212.985 35.6498 213.01 35.28C213.087 34.2006 212.885 32.1261 212.934 30.323C213.393 34.6266 213.516 39.4357 213.143 43.5257C212.829 46.9586 212.845 43.8356 212.707 42.4201C212.511 40.4214 212.137 38.4602 211.939 36.4577C211.619 33.2242 210.981 29.898 210.723 26.6439C211.784 26.1749 212.85 25.7031 213.796 25.1217ZM209.667 27.1279C209.683 30.3923 209.527 33.6661 209.692 36.9221C209.843 39.9009 210.946 43.1662 210.568 46.1095C210.581 46.2097 210.59 46.2883 210.598 46.3632C210.581 46.3651 210.562 46.367 210.544 46.3688C210.499 46.1451 210.438 45.8137 210.355 45.3466C210.156 44.3552 209.9 43.3788 209.585 42.4173C209.078 40.5665 208.472 38.7401 208.05 36.8659C207.474 34.3083 207.089 31.615 206.73 28.96C207.131 28.6483 207.536 28.3487 207.945 28.0735C208.47 27.7205 209.058 27.4172 209.667 27.1279ZM205.445 30.0375C205.492 32.4004 205.573 34.7539 205.784 37.1327C205.996 39.5367 206.98 42.8208 206.74 45.2024C206.551 47.0897 206.737 46.7283 206.123 45.6312C206.025 45.457 205.94 45.2707 205.86 45.076C205.924 42.9528 205.218 40.3634 204.956 38.2299C204.682 36.0027 204.346 33.7569 203.967 31.5316C204.434 31.0064 204.929 30.5065 205.445 30.0375ZM202.326 33.6867C202.542 34.8971 202.875 36.0514 203.003 36.6693C203.342 38.301 203.567 40.3671 203.939 42.4089C203.578 43.3544 203.287 44.4591 203.147 45.5272C203.075 45.4954 203.006 45.4683 202.927 45.4299C202.312 45.1266 201.662 42.3349 201.48 41.7461C201.158 40.6995 200.804 39.2596 200.575 37.7449C200.902 36.3107 201.519 34.9486 202.326 33.6867ZM200.587 41.3445C200.747 41.9698 201.004 43.1232 201.41 44.2672C200.961 43.6044 200.629 42.7646 200.448 41.7049C200.364 41.2097 200.331 40.721 200.322 40.2351C200.409 40.6274 200.499 41 200.587 41.3445ZM202.142 48.0502C202.55 48.3114 202.973 48.5342 203.402 48.7392C204.225 50.5806 205.306 50.1481 206.735 49.7587C207.717 49.9 208.717 49.9188 209.716 49.8139C210.192 49.7643 210.659 49.7297 211.125 49.6969C211.934 49.9394 212.732 50.3251 213.575 50.8708C214.328 51.3586 214.832 52.0981 215.624 52.5709C217.049 53.4228 218.487 53.6531 220.14 53.5558C220.536 53.5323 220.927 53.4902 221.312 53.4453C222.363 61.2772 222.933 68.8077 221.515 76.737C220.152 84.3592 217.749 92.5965 214.658 99.7047C214.54 99.9781 214.943 100.216 215.062 99.9407C217.223 94.9593 218.668 89.524 220.192 84.3152C220.782 82.2978 221.286 80.2588 221.698 78.2021C221.104 83.3753 220.127 88.5644 218.798 93.6309C216.169 99.2881 213.094 104.709 210.214 110.22C211.156 106.912 211.887 103.529 212.292 100.192C212.698 96.8448 212.791 93.4896 213.22 90.1419C213.484 88.0842 213.759 86.0302 213.293 83.9838C212.902 82.2725 212.563 80.5612 212.211 78.8555C212.253 75.3412 211.78 72.0028 210.036 68.6354C209.468 67.5401 208.945 66.2613 208.28 65.0902C207.833 63.5811 207.357 62.0832 206.677 60.7155C205.638 58.626 203.88 56.984 202.873 54.8636C201.405 51.7752 200.291 48.8085 199.822 45.6845C200.395 46.6029 201.151 47.4155 202.142 48.0502ZM206.992 67.0159C207.312 68.4239 207.6 69.8571 207.849 71.2483C207.803 71.1827 207.756 71.1163 207.713 71.0442C206.77 69.4705 206.584 67.8884 206.488 66.1378C206.661 66.4092 206.826 66.706 206.992 67.0159ZM206.021 65.4824C205.815 65.4918 205.609 65.635 205.58 65.9112C205.145 70.1015 207.375 71.7744 208.405 75.5958C209.893 81.1191 209.213 87.1283 208.656 92.7472C208.625 93.0552 208.582 93.3594 208.546 93.6665C207.984 95.9966 207.276 98.308 206.593 100.581C205.992 102.582 205.284 104.428 204.263 106.211C204.269 100.689 204.987 95.375 204.594 89.8292C204.22 84.5577 204.508 79.2337 203.781 73.9903C203.436 71.4991 202.996 68.965 202.575 66.4991C202.296 64.8655 201.695 63.3695 201.245 61.8136C201.977 62.5579 202.498 63.114 203.733 63.7234C204.806 64.2514 205.486 64.8159 206.021 65.4824ZM204.028 114.962C204.268 112.706 204.277 110.498 204.269 108.26C204.512 107.868 204.767 107.47 205.041 107.055C205.759 105.965 206.323 104.791 206.807 103.578C206.367 105.713 205.931 107.852 205.581 110.023C205.208 112.347 204.457 114.445 203.804 116.61C203.89 116.001 203.978 115.436 204.028 114.962ZM206.454 108.748C207.061 105.092 207.965 101.538 208.64 97.9195C208.79 97.4102 208.94 96.9028 209.098 96.402C209.176 96.1501 209.253 95.8955 209.331 95.6418C209.188 97.5562 209.049 99.4707 208.772 101.379C208.261 104.886 207.091 108.134 206.118 111.533C205.911 112.256 205.679 112.965 205.434 113.669C205.803 112.044 206.178 110.413 206.454 108.748ZM200.002 126.414C199.449 127.787 198.827 129.177 198.138 130.532C197.971 130.078 197.755 129.64 197.506 129.213C199.743 125.988 201.334 121.954 202.32 118.172C202.292 119.057 202.346 119.903 202.521 120.679C201.66 122.573 200.787 124.465 200.002 126.414ZM196.461 127.587C196.09 127.03 195.734 126.471 195.448 125.897C196.758 123.175 198.95 120.788 200.14 117.994C200.284 117.654 200.409 117.305 200.546 116.961C199.784 120.304 198.373 124.325 196.461 127.587ZM194.899 128.069C195.113 128.422 195.312 128.767 195.491 129.105C195.191 129.537 194.88 129.945 194.56 130.33C194.433 129.659 194.27 128.992 194.073 128.329C194.095 128.216 194.107 128.101 194.11 127.983C194.218 128.032 194.339 128.078 194.481 128.121C194.554 128.143 194.638 128.095 194.656 128.022C194.678 127.937 194.706 127.854 194.73 127.77C194.788 127.867 194.84 127.973 194.899 128.069ZM181.992 116.357C179.785 116.816 177.995 117.869 175.839 118.57C174.041 119.155 172.528 119.349 171.602 121.149C171.252 121.826 171.826 122.585 172.574 122.415C174.631 121.947 176.62 120.752 178.667 120.062C180.583 119.416 182.604 118.55 184.288 117.421C184.364 117.408 184.434 117.401 184.508 117.39C185.139 117.816 185.755 118.262 186.356 118.735C183.717 119.344 181.165 120.392 178.543 121.031C176.524 121.525 174.112 121.874 172.422 123.193C172.247 123.077 172.049 122.964 171.815 122.853C171.253 122.587 170.298 122.51 169.191 122.594C169.612 122.279 170.023 121.959 170.423 121.636C173.007 119.549 175.365 117.121 178.105 115.254C178.594 114.921 179.113 114.641 179.642 114.378C180.315 114.788 180.993 115.192 181.668 115.599C181.699 115.882 181.814 116.134 181.992 116.357ZM160.595 105.742C160.422 105.788 160.248 105.836 160.062 105.894C158.765 106.296 157.437 107.087 156.084 107.519C154.891 107.9 153.451 107.945 152.323 108.343C151.257 108.718 150.237 109.272 149.286 109.952C147.88 109.275 146.452 108.637 145.005 108.03C145.341 107.956 145.678 107.888 146.012 107.809C150.589 106.736 155.764 104.908 160.524 105.64C160.548 105.674 160.572 105.707 160.595 105.742ZM135.438 122.351C137.678 122.998 139.828 123.81 141.937 124.714C142.225 124.978 142.471 125.241 142.652 125.498C143.409 126.576 143.78 125.622 143.37 127.358C143.241 127.904 143.11 128.201 142.931 128.366C142.243 128.185 141.559 127.986 140.887 127.739C137.009 126.316 133.716 122.956 129.942 121.089C131.797 121.392 133.63 121.83 135.438 122.351ZM138.408 137.271C138.915 137.458 139.293 137.671 140.03 137.498C140.631 137.358 141.259 137.146 141.862 136.948C143.228 136.962 144.548 136.964 145.906 136.769C146.342 136.707 146.763 136.659 147.194 136.602C143.574 138.067 140.864 137.731 137.079 138.067C134.508 138.295 132.077 139.183 129.611 139.875C123.161 141.69 117.172 142.203 110.492 142.205C107.561 142.205 104.441 142.532 101.526 142.258C100.23 142.135 96.8492 141.473 94.2926 140.535C94.2823 140.368 94.2448 140.212 94.1942 140.062C96.1321 139.168 98.1327 138.494 100.436 138.016C104.855 137.099 109.996 137.32 114.541 137.004C118.562 136.725 122.229 136.418 126.252 137.047C129.285 137.522 132.188 138.528 135.267 137.921C136.35 137.706 137.375 137.462 138.408 137.271ZM96.8811 145.646C91.8277 146.438 86.7443 147.19 81.7415 148.262C81.7593 148.248 81.7789 148.234 81.7967 148.22C84.1099 146.324 86.3314 144.758 88.7842 143.159C91.1817 144.599 94.2785 145.244 96.8811 145.646ZM61.1422 157.654C64.7145 156.283 68.228 154.713 71.8294 153.415C80.6752 150.226 90.2652 148.814 99.5491 147.54C103.497 146.998 107.45 147.309 111.409 147.216C115.98 147.456 120.568 147.389 125.045 146.837C125.705 146.87 126.366 146.913 127.032 146.971C127.626 147.023 128.219 147.063 128.812 147.095C119.885 150.167 110.258 150.159 100.932 151.022C91.9259 151.855 83.1457 153.139 74.4019 155.467C69.9767 156.646 65.705 157.659 61.4015 159.282C59.4645 160.012 57.3732 160.588 55.338 161.267C56.9921 159.781 58.8102 158.549 61.1422 157.654ZM131.248 147.175C131.899 147.186 132.55 147.19 133.199 147.187C131.363 147.617 129.525 148.035 127.685 148.443C128.888 148.071 130.076 147.65 131.248 147.175ZM128.227 149.374C131.102 148.788 134.051 147.926 137.027 147.122C138.193 147.092 139.36 147.06 140.532 147.037C140.796 147.032 141.053 147.052 141.313 147.06C141.929 148.562 142.88 149.922 144.055 151.076C142.078 150.996 140.03 151.513 138.113 151.835C134.522 152.437 130.956 152.863 127.487 154.034C125.69 154.641 123.368 155.442 122.392 157.104C117.366 158.745 112.369 160.49 107.316 162.043C100.749 164.061 93.8685 165.207 87.4717 167.765C84.9618 168.768 80.0479 172.185 77.2497 171.469C72.8273 170.336 79.2007 167.566 80.1518 167.06C82.9144 165.591 85.2708 163.411 87.893 161.724C93.4669 158.136 101.141 155.995 107.507 154.261C114.39 152.388 121.238 150.799 128.227 149.374ZM137.548 152.565C140.257 152.114 142.542 151.902 145.102 152.013C145.214 152.102 145.333 152.182 145.448 152.267C139.773 153.52 133.826 153.593 128.197 155.275C126.578 155.759 124.967 156.27 123.358 156.791C126.021 153.628 134.766 153.028 137.548 152.565ZM148.316 154.158C148.329 154.233 148.372 154.308 148.455 154.368C149.517 155.127 149.339 156.652 150.066 157.638C149.17 157.53 148.269 157.407 147.344 157.247C144.346 156.728 141.447 158.025 138.601 158.754C138.266 158.84 137.945 158.931 137.615 159.019C136.85 159.197 136.089 159.378 135.331 159.564C137.141 158.825 138.964 158.104 140.794 157.345C142.362 156.694 145.609 155.641 148.316 154.158ZM107.908 172.709C107.255 172.751 106.122 172.886 105.556 172.592C104.554 172.073 104.421 171.562 104.781 171.171C105.966 171.519 107.182 171.884 107.387 171.901C108.547 172.007 109.738 171.948 110.936 171.779C110.038 172.229 109.103 172.633 107.908 172.709ZM112.593 176.268C114.132 174.133 115.952 173.273 117.893 171.71C119.058 170.773 120.095 169.675 121.076 168.527C126.491 166.258 131.525 163.972 137.275 162.581C139.861 161.956 142.648 160.695 145.298 160.559C146.64 160.49 147.939 160.842 149.264 161.122C147.022 162.897 144.292 163.574 141.689 164.892C137.272 167.13 132.708 168.496 128.213 170.492C122.873 172.863 117.388 174.77 112.035 177.112C112.213 176.826 112.395 176.541 112.593 176.268ZM155.707 158.109C155.988 158.007 156.265 157.897 156.538 157.779C157.233 157.59 157.857 157.415 158.325 157.321C159.479 157.09 162.56 156.526 164.866 155.467C165.336 155.539 165.808 155.61 166.296 155.689C166.367 155.7 166.444 155.713 166.521 155.727C166.458 155.761 166.396 155.79 166.333 155.825C162.742 157.805 159.912 158.337 155.906 158.12C155.839 158.117 155.775 158.113 155.707 158.109ZM174.447 151.302C174.237 151.496 174.021 151.664 173.806 151.837C171.302 151.184 168.858 150.71 166.416 150.098C166.498 150.101 166.577 150.11 166.66 150.111C168.859 150.126 170.875 149.423 173.017 149.023C173.235 148.981 173.451 148.966 173.666 148.941C173.673 148.943 173.681 148.945 173.688 148.947C174.402 149.114 176.191 149.583 177.528 150.243C176.848 150.996 176.192 151.764 175.515 152.509C175.2 152.362 174.893 152.216 174.605 152.096C174.708 151.988 174.817 151.884 174.918 151.776C175.211 151.458 174.763 151.01 174.447 151.302ZM177.129 155.855C177.567 155.692 178.012 155.484 178.456 155.241C178.071 156.353 177.442 157.574 177.298 157.844C177.25 157.933 177.206 158.023 177.159 158.113C177.163 157.497 177.152 156.883 177.131 156.262C177.129 156.21 177.128 156.06 177.129 155.855ZM189.239 203.33C190.025 197.753 190.689 192.15 191.775 186.638C192.838 181.244 193.894 174.119 192.306 168.738C191.628 166.44 190.176 164.335 189.111 162.194C188.781 161.533 188.493 160.867 188.22 160.199C188.624 160.277 189.046 160.356 189.485 160.49C190.003 160.879 190.463 161.226 190.828 161.518C191.196 161.814 191.562 162.114 191.93 162.411C192.645 163.718 193.102 165.55 193.629 166.592C195.191 169.689 196.269 172.484 196.49 175.943C196.856 181.663 196.549 186.823 195.222 192.427C193.722 198.757 191.033 204.847 188.382 210.922C188.787 208.416 189.077 205.879 189.239 203.33ZM230.213 114.629C231.061 116.79 232.096 120.194 233.93 121.764C235.593 123.187 238.945 123.783 240.894 124.527C244.612 125.946 248.116 127.212 251.192 129.798C253.217 131.5 255.605 133.165 258.126 134.236C259.377 134.767 260.652 135.269 261.936 135.75C261.517 135.771 261.102 135.806 260.695 135.859C256.979 136.34 254.868 137.782 251.856 134.213C250.682 132.821 249.833 132.235 248.166 131.407C243.833 129.251 238.963 128.271 234.948 125.458C230.631 122.434 226.963 117.222 226.555 111.871C226.489 111.004 226.344 108.154 226.628 105.903C226.658 105.851 226.688 105.798 226.717 105.746C227.403 108.796 229.144 111.904 230.213 114.629ZM238.853 68.8976C240.783 69.566 243.985 71.2127 244.659 73.2722C245.49 75.812 244.889 79.7168 243.209 81.6715C240.573 84.7402 236.814 86.885 233.656 89.5249C233.714 89.4266 233.762 89.3218 233.824 89.2254C233.882 89.1345 233.833 89.0372 233.756 88.9866C234.557 88.0392 235.343 87.0984 236.067 86.1501C237.542 84.216 238.971 82.4195 240.223 80.3356C240.956 79.1148 242.601 77.587 242.982 76.1931C243.559 74.0829 241.55 72.1938 239.852 71.4261C236.52 69.9208 230.408 72.396 228.851 68.2806C228.967 67.6469 229.068 67.0112 229.158 66.3755C229.325 65.6332 229.475 64.887 229.579 64.1278C229.597 63.9996 229.604 63.8751 229.619 63.7477C229.864 64.5079 230.255 65.2203 230.833 65.8401C232.989 68.1552 236.092 67.9417 238.853 68.8976ZM135.069 8.35417C145.82 7.53035 156.454 5.79658 167.14 4.41574C172.641 3.7052 177.825 3.25677 183.309 4.42791C188.465 5.52884 192.878 7.87579 197.732 9.73594C200.547 10.8144 203.524 11.3124 206.342 12.4424C209.315 13.6341 211.48 15.3651 214.09 17.1279C216.719 18.9038 220.012 20.3754 221.829 23.0322C223.309 25.1948 224.547 27.7046 225.853 29.9608C229.01 35.4139 230.692 42.3359 230.04 48.6596C229.986 49.1792 229.931 49.6866 229.877 50.1875C227.929 49.0322 225.592 48.2384 223.6 47.6177C221.829 47.0653 219.858 46.6113 217.878 46.3454C217.552 41.4643 217.547 36.6019 217.629 31.6767C217.677 28.7578 217.341 25.7246 215.464 23.7437C215.582 23.607 215.716 23.4825 215.821 23.3327C216.403 22.5005 215.818 21.1824 214.86 20.9689C209.712 19.8212 206.886 23.5471 203.874 27.1551C202.561 28.7278 201.502 30.441 200.668 32.2516C200.657 32.2703 200.649 32.2909 200.638 32.3096C200.717 32.0334 200.808 31.7694 200.924 31.5316C201.033 31.3098 200.718 31.1188 200.59 31.336C200.147 32.0868 199.904 33.0061 199.793 33.9994C199.694 34.2222 199.589 34.4412 199.499 34.6697C198.674 36.7676 198.246 39.2877 198.502 41.6534C198.393 43.7308 198.423 45.9139 198.849 47.906C199.368 50.3372 200.753 52.4127 201.625 54.7147C202.654 57.4296 204.82 59.55 205.725 62.3014C205.462 62.2592 205.166 62.3369 204.942 62.2574C203.083 61.5983 202.167 61.2051 200.732 59.9862C200.355 59.6661 199.829 59.9722 199.92 60.459C200.874 65.5264 202.378 70.4703 202.909 75.6754C203.517 81.6471 203.532 87.8314 203.759 93.8341C203.91 97.8586 203.569 101.929 203.36 105.984C203.117 102.908 202.572 99.8442 201.891 96.8626C201.116 93.4671 199.744 90.2608 198.955 86.8597C198.087 83.115 197.323 79.346 196.434 75.6061C194.714 68.3621 192.287 61.4785 190.428 54.3131C188.646 47.4492 185.864 40.9466 182.796 34.5704C181.594 32.0718 180.241 29.7529 178.356 27.7168C176.206 25.3942 174.72 22.6475 172.498 20.4194C169.038 16.9481 165.584 12.1222 160.784 10.4615C158.726 9.74906 155.231 8.62941 155.949 11.7852C156.587 14.5909 159.098 17.9292 160.746 20.2565C162.544 22.7963 164.779 24.9102 166.933 27.1373C172.058 32.436 177.242 39.166 181.1 45.4458C189.186 58.6101 193.964 74.3123 195.964 89.5923C196.994 97.4589 197.691 105.072 196.371 112.96C196.09 114.639 195.738 116.306 195.328 117.958C195.163 118.622 195.022 119.297 194.95 119.652C194.992 119.436 195.058 119.079 195.161 118.516C195.829 114.85 194.949 111.205 194.409 107.595C193.343 100.456 192.898 93.2789 191.024 86.2868C189.14 79.2552 187.137 72.3454 184.078 65.7099C177.498 51.441 169.914 36.483 157.01 26.9894C151.144 22.6737 144.548 19.9401 138.399 16.1786C135.346 14.3119 132.391 13.0687 128.894 12.2701C125.496 11.4941 122.052 11.4248 118.678 10.6534C118.866 10.967 119.018 11.4931 119.265 11.4809C121.334 11.3761 125.501 12.0782 127.427 12.4218C132.381 13.3083 136.226 15.6824 140.555 18.0257C148.185 22.1569 156.822 25.9128 162.864 32.3873C169.526 39.5255 174.709 47.7722 179.054 56.4682C184.125 66.6161 188.296 76.7791 191 87.8146C192.228 92.8277 192.575 97.9588 193.271 103.053C193.625 105.646 194.055 108.231 194.446 110.818C195.024 114.65 194.624 117.801 194.331 121.617C194.306 121.932 194.783 121.978 194.867 121.69C197.152 113.877 198.284 105.787 197.467 97.6517C196.654 89.568 194.978 81.7361 193.41 73.7806C192.611 69.7195 190.828 65.9234 189.606 61.9775C188.435 58.1954 186.393 55.1557 184.777 51.5711C181.27 43.7925 175.943 37.5043 170.752 30.8052C169.08 28.6473 152.841 12.0277 158.318 10.3594C160.758 9.61611 165.675 14.3063 167.25 15.9942C170.251 19.209 172.864 22.4668 175.53 25.9165C177.739 28.7746 180.092 31.0795 181.688 34.4057C183.78 38.7654 185.742 43.3076 187.265 47.8929C188.591 51.8828 189.225 56.0385 190.466 60.0331C191.754 64.1793 193.063 68.085 194.019 72.3483C195.081 77.0843 196.063 81.8325 197.078 86.5788C198.052 91.1276 199.638 95.4508 200.406 100.045C201.078 104.061 201.518 107.936 201.269 111.876C200.375 114.646 199.793 117.518 198.447 120.168C197.671 121.696 196.594 122.991 195.739 124.463C195.733 124.473 195.509 124.894 195.211 125.386C194.616 124.072 194.069 122.685 193.556 121.275C191.977 111.891 190.711 102.663 188.426 93.4034C186.255 84.6073 182.425 77.9437 177.315 70.489C166.512 54.7325 151.614 43.0146 137.301 30.6292C131.091 25.2566 124.921 19.1481 119.415 13.0808C118.941 12.5575 117.359 12.228 117.917 11.0269C118.028 10.7901 118.123 10.6412 118.21 10.5485C117.727 10.4278 117.244 10.293 116.765 10.1366C116.607 10.0851 116.463 10.2218 116.455 10.3725C116.403 11.4753 116.877 11.759 117.682 12.4836C119.708 14.3053 121.793 15.8107 123.639 17.8749C127.252 21.9135 131.236 25.9465 135.299 29.5442C144.77 37.9303 154.968 45.707 163.793 54.7859C172.067 63.2984 180.138 73.4136 185.092 84.2618C190.038 95.0932 190.667 107.611 192.843 119.254C192.504 118.273 192.172 117.299 191.848 116.355C191.716 115.971 191.334 115.918 191.081 116.081C190.894 114.57 190.505 113.072 189.671 111.798C188.429 109.896 186.509 108.934 184.59 107.839C182.01 106.366 179.651 104.567 177.213 102.872C173.174 100.063 169.09 95.565 166.721 90.5884C167.248 91.0677 168.146 91.0406 168.411 90.1437C168.615 89.4538 168.905 86.7586 168.883 83.8892C168.964 83.702 168.964 83.4811 168.874 83.2807C168.778 79.2824 168.026 75.1989 165.55 75.9188C163.841 76.4159 163.581 80.3328 163.484 81.6219C163.127 86.4337 165.822 91.7577 168.267 95.7345C171.141 100.409 174.767 104.225 178.869 107.833C180.642 109.393 182.402 110.391 184.407 111.611C186.441 112.848 187.333 114.446 187.736 116.338C187.199 116.234 186.642 116.166 186.086 116.13C185.485 115.475 184.855 114.846 184.2 114.244C184.306 114.067 184.444 113.902 184.642 113.758C184.951 113.414 184.566 112.894 184.147 113.116C183.824 113.287 183.52 113.358 183.223 113.38C183.024 113.21 182.822 113.043 182.62 112.877C182.92 112.698 183.213 112.509 183.487 112.293C184.015 111.88 183.435 111.083 182.867 111.229C182.173 111.408 181.548 111.513 180.956 111.566C180.261 111.027 179.566 110.488 178.872 109.947C178.831 109.877 178.791 109.807 178.724 109.741C174.89 106.045 171.304 102.44 168.252 98.0234C165.575 94.1486 163.286 89.4248 161.142 85.2251C158.827 80.6894 156.204 76.6359 154.237 71.8886C152.682 68.1355 150.125 64.4461 147.472 61.3746C144.856 58.347 141.22 55.356 137.89 53.1083C136.217 51.9783 134.424 50.7941 132.593 49.9375C130.955 49.1717 129.297 49.1801 127.668 48.6493C126.824 47.7815 125.996 46.8922 125.159 45.9438C123.325 43.8646 120.978 42.2525 119.283 40.0825C117.899 38.3094 116.931 36.1872 115.667 34.3092C112.798 30.0469 108.755 28.6764 105.079 25.4091C102.427 23.0519 94.2139 13.9337 96.559 9.61986C97.9941 9.24259 99.4629 9.06752 100.947 8.97484C106.235 8.64437 111.663 8.33826 116.962 8.33639C122.94 8.33358 129.111 8.81102 135.069 8.35417ZM166.372 83.7123C166.793 83.6992 167.357 83.996 167.82 84.1692C167.811 84.7346 167.778 85.2972 167.702 85.8486C167.568 85.5668 167.42 85.2916 167.239 85.0285C166.697 84.2394 165.302 83.7451 166.372 83.7123ZM164.765 81.4196C164.819 80.4133 164.916 79.2917 165.11 79.0502C166.311 77.5496 166.943 78.0551 167.365 79.9115C167.53 80.637 167.664 81.4262 167.746 82.2416C166.85 81.4861 165.786 80.7091 164.765 81.4196ZM106.999 29.4103C103.808 25.8716 101.382 22.5922 97.5925 19.5918C95.1959 17.6942 92.6131 16.2114 92.9876 12.9189C93.2544 10.5663 93.524 10.5616 95.4628 9.93721C94.4452 12.5126 96.4785 15.3426 97.834 17.6868C100.662 22.5745 104.171 26.2508 108.829 29.3373C112.019 31.4502 113.738 34.0134 115.266 37.4416C115.269 37.4491 115.273 37.4566 115.277 37.4632C112.419 34.8868 109.593 32.2871 106.999 29.4103ZM148.451 67.5766C146.38 65.2484 144.114 63.1317 142.145 60.7043C140.679 58.8956 139.13 56.8407 137.08 55.635C135.083 54.4601 133.298 53.8263 131.487 52.2629C131.199 52.0139 130.93 51.763 130.652 51.514C131.72 51.837 132.785 52.2311 133.832 52.8387C139.81 56.3015 144.749 61.0656 148.536 66.7275C149.212 67.7395 149.787 68.7918 150.304 69.8674C149.725 69.0951 149.122 68.3293 148.451 67.5766ZM166.358 104.862C166.223 104.841 166.088 104.821 165.963 104.809C165.126 104.733 164.314 104.864 163.522 105.117C162.559 104.644 161.539 104.318 160.488 104.097C160.136 103.684 159.772 103.277 159.391 102.875C159.296 102.774 159.198 102.673 159.102 102.572C158.978 102.386 158.859 102.197 158.736 102.01C161.207 102.905 163.977 103.641 166.358 104.862ZM136.044 77.8697C135.647 77.0159 133.874 75.3093 134.847 75.2541C139.02 75.0163 137.82 80.8439 137.659 84.0634C137.538 83.7713 137.426 83.4773 137.337 83.1787C136.814 81.4206 136.828 79.5529 136.044 77.8697ZM80.5881 51.9474C85.2267 49.8935 89.2597 49.0397 94.257 48.6521C97.776 48.3797 101.139 47.5082 104.713 48.2374C108.284 48.9667 113.792 51.104 116.857 52.9557C119.345 54.4592 122.722 57.1122 124.961 59.0969C127.991 61.7827 131.703 63.626 134.644 66.3821C141.086 72.4213 145.659 81.0255 150.218 88.5345C151.891 91.2905 153.483 94.0934 155.089 96.8897C153.994 96.4141 152.91 95.9245 151.831 95.4115C150.82 94.4941 149.8 93.5935 148.766 92.7453C147.011 91.3055 145.207 89.9125 143.378 88.5485C141.923 86.7052 139.603 86.3663 139.607 83.4726C139.611 81.0555 140.415 79.9883 139.205 77.5673C138.507 76.1715 137.457 75.3889 136.218 74.4658C135.223 73.7244 133.368 72.1442 132.67 74.009C132.304 74.9882 133.583 76.1126 133.99 76.7613C135.213 78.717 135.283 80.8982 135.517 83.0841C130.36 79.7617 124.984 76.7838 119.435 74.2898C108.73 69.4799 97.4511 65.503 85.8484 63.5034C74.7427 61.5899 63.798 60.8353 53.0902 64.4751C59.0171 60.4459 65.2716 57.247 72.1346 55.0302C75.0245 54.0941 77.8114 53.1766 80.5881 51.9474ZM150.458 94.7431C149.211 94.1252 147.964 93.4746 146.701 92.7715C145.941 92.3493 145.143 91.8607 144.343 91.3186C144.341 90.7803 144.243 90.2486 144.045 89.7281C146.223 91.3317 148.383 92.9943 150.458 94.7431ZM26.4967 92.7191C26.507 92.706 26.5164 92.6929 26.5276 92.6798C23.9747 96.2016 21.5566 99.8161 19.9408 103.868C18.2763 108.041 16.7644 110.948 13.5814 114.187C11.3553 116.453 8.63291 118.254 6.59115 120.671C6.4217 120.872 6.24663 121.094 6.0697 121.325C10.4097 110.457 19.2162 101.645 26.4967 92.7191ZM14.292 140.581C10.8544 140.445 7.61717 139.259 5.43123 136.478C4.7469 135.607 4.29944 134.68 4.02608 133.718C5.35823 135.387 7.39531 137.087 8.69377 138.146C10.201 139.376 11.4489 139.662 13.4017 139.662C13.7069 139.662 13.6975 139.218 13.4017 139.195C10.5127 138.96 5.0212 134.927 3.6853 131.457C3.60666 129.08 4.28725 126.598 4.99966 124.299C5.00996 124.264 5.024 124.231 5.03523 124.197C6.47598 121.856 8.59734 119.821 10.4322 118.289C14.8528 114.6 18.281 110.61 20.334 105.257C23.2136 97.7482 28.6181 91.6079 33.2577 85.1437C38.3392 78.0644 43.5891 71.326 50.689 66.1602C51.2544 65.7493 51.8264 65.3561 52.3975 64.9601C66.5288 59.961 82.1927 62.3978 96.3362 66.3156C110.043 70.1127 123.856 75.5368 135.588 83.7142C135.665 84.3152 135.763 84.9153 135.91 85.5088C136.892 89.4575 140.119 92.897 143.585 94.9827C148.112 97.707 152.652 99.7263 157.54 101.565C157.867 101.935 158.193 102.305 158.508 102.684C158.775 103.093 159.05 103.497 159.325 103.9C155.685 103.415 151.749 104.105 148.347 104.953C145.922 105.558 143.448 106.013 140.968 106.427C135.32 104.313 129.51 102.603 123.892 100.997C116.586 98.909 108.439 97.5497 100.827 97.3681C93.45 97.1921 86.0656 98.5842 78.8337 99.8695C64.0714 102.494 49.0554 107.169 35.204 112.868C29.1067 115.377 23.5722 118.092 18.0722 121.712C14.9913 123.74 11.9141 125.895 8.87255 128.002C7.11351 129.221 5.27117 130.338 4.31628 132.323C4.28726 132.383 4.29568 132.47 4.36308 132.503C6.03694 133.315 8.62449 131.615 10.1832 131.179C14.7404 129.907 19.2012 128.309 23.7922 127.12C32.9132 124.757 42.1709 122.285 51.5746 121.394C60.2697 120.57 68.8936 119.124 77.5306 117.834C87.4323 116.355 96.9306 116.46 106.881 116.788C110.529 116.909 114.089 117.027 117.676 117.37C116.834 117.665 116.012 118.039 115.264 118.424C112.081 119.705 108.908 122.058 111.18 124.503C112.874 126.325 116.195 125.056 119.001 123.283C120.704 123.995 123.372 123.631 124.807 123.435C127.446 123.074 129.952 122.358 132.493 123.728C134.38 124.745 135.835 126.511 137.532 127.865C137.437 127.891 137.348 127.926 137.256 127.958C133.908 127.538 130.557 127.026 127.207 126.674C109.842 124.845 91.8698 125.685 74.9281 130.221C57.5857 134.863 41.9387 142.49 27.2279 152.625C27.2915 149.67 27.8214 146.088 25.8901 143.622C22.8494 139.739 18.5496 140.75 14.292 140.581ZM45.5532 160.317C42.8589 161.841 41.6354 161.718 38.5442 161.427C37.6398 161.342 36.7776 161.489 35.8864 161.46C33.8166 161.395 32.4554 160.215 30.5812 159.912C29.5992 159.753 27.0612 160.552 26.4967 159.591C26.287 159.232 26.9676 157.772 27.0444 157.269C27.2466 155.938 27.2138 154.551 27.2223 153.201C27.329 153.158 27.4385 153.113 27.5743 153.056C28.2286 152.779 28.8353 152.378 29.4232 151.935C30.393 151.424 31.3816 150.933 32.3983 150.477C31.5501 150.842 30.701 151.219 29.8529 151.604C30.6046 151.01 31.3348 150.378 32.0996 149.885C35.5522 147.659 39.1171 145.306 42.7588 143.397C59.385 134.683 77.0288 128.729 95.8147 126.808C104.314 125.938 112.723 126.23 121.222 126.566C126.394 126.771 131.775 127.239 136.884 128.033C136.915 128.038 136.953 128.046 136.986 128.052C135.76 128.582 134.896 129.748 135.369 131.428C135.72 132.669 136.713 133.275 137.839 133.599C138.275 134.481 138.398 135.376 137.324 136.278C137.206 136.376 137.17 136.494 137.181 136.607C135.314 136.967 133.467 137.359 131.516 137.132C128.562 136.786 125.667 135.923 122.694 135.654C116.718 135.115 110.15 136.549 104.149 136.659C100.337 136.729 96.8567 137.607 93.5446 139.104C92.8911 138.504 91.9147 138.111 91.0412 137.861C91.075 137.238 91.0169 136.614 90.8774 136.219C90.7904 135.973 90.6846 135.763 90.5648 135.574C95.1304 135.103 99.756 134.706 104.054 133.306C104.241 133.246 104.162 132.95 103.972 133.011C99.9507 134.298 95.7558 134.378 91.6011 134.92C91.133 134.981 90.6658 135.05 90.1978 135.115C89.8551 134.761 89.4357 134.486 88.9471 134.173C87.4286 133.203 85.7211 132.237 84.7409 134.197C84.4694 134.739 84.3636 135.359 84.3805 136.009C82.6842 136.297 80.9906 136.603 79.3074 136.937C70.4476 138.694 61.7881 141.157 53.0669 143.452C47.3113 144.965 41.817 146.722 36.391 148.847C39.4457 147.697 42.5538 146.718 45.4952 145.844C51.7656 143.983 58.2372 141.897 64.6415 140.576C71.2405 139.214 77.7534 137.487 84.4048 136.369C84.5705 138.221 85.6275 140.241 86.6057 141.372C86.9006 141.713 87.2274 142.025 87.5784 142.313C86.1583 143.056 84.71 143.798 83.4986 144.727C80.3035 147.177 78.1868 149.859 73.7803 149.837C68.7194 149.813 64.401 145.483 59.8175 149.04C57.6887 150.693 55.9764 152.87 54.0601 154.75C51.4669 157.297 48.6622 158.558 45.5532 160.317ZM93.4968 177.8C88.9246 176.353 84.4226 174.823 79.6519 173.941C71.1516 172.37 63.168 169.571 54.7697 167.732C53.1492 167.377 50.7658 169.321 50.6684 165.743C50.8425 165.733 51.027 165.678 51.217 165.552C60.2453 159.591 72.612 156.667 83.1373 154.623C94.7138 152.373 106.476 152.173 118.115 150.518C118.312 150.49 118.506 150.457 118.702 150.428C118.324 150.512 117.947 150.594 117.568 150.679C112.27 151.87 106.817 153.223 101.694 155.022C96.9447 156.689 91.6816 158.198 87.4314 160.935C83.8862 163.22 80.6611 165.611 76.9071 167.546C75.6583 168.189 73.3871 169.355 74.2119 171.123C75.6938 174.3 83.1045 170.252 84.9637 169.409C94.3936 165.132 104.91 163.268 114.806 160.272C117.248 159.532 119.657 158.674 122.07 157.827C121.98 158.129 121.928 158.454 121.925 158.806C121.921 159.227 122.577 159.228 122.58 158.806C122.582 158.352 122.684 157.935 122.867 157.55C126.331 156.342 129.81 155.186 133.415 154.477C136.808 153.809 140.267 153.712 143.678 153.181C143.909 153.145 145.362 152.924 146.135 152.755C146.268 152.842 146.405 152.925 146.541 153.007C146.07 153.251 145.66 153.461 145.36 153.626C141.19 155.924 136.705 157.521 132.333 159.375C129.74 160.474 126.788 161.826 124.303 163.403C123.204 163.941 121.948 164.511 120.733 165.17C120.41 165.321 120.093 165.464 119.769 165.621C117.976 166.482 116.185 167.346 114.374 168.079C114.25 168.065 114.125 168.054 114 168.045C111.175 167.854 99.3731 165.731 100.623 172.134C101.137 174.766 103.952 175.537 106.249 175.666C107.134 175.715 108.1 175.739 109.026 175.608C108.571 176.247 108.11 176.83 107.199 177.308C106.661 177.591 105.843 177.544 105.247 177.812C102.966 178.841 102.077 180.138 99.0417 179.7C97.1638 179.428 95.2792 178.365 93.4968 177.8ZM55.5701 239.2C49.6227 236.626 44.5253 229.363 42.7232 223.329C41.8395 220.373 42.1849 216.241 43.0143 213.313C44.0844 209.535 45.9717 207.857 49.7641 206.803C55.4475 205.225 61.5597 204.761 67.1252 202.838C69.7211 201.941 72.4285 201.246 74.9973 200.3C77.3864 199.42 79.4198 197.86 81.6759 196.722C87.4923 193.786 93.5333 192.177 98.773 188.115C104.779 183.458 112.758 179.38 119.977 177.012C125.979 175.043 132.002 172.471 137.662 169.649C140.592 168.189 143.353 166.327 146.092 164.545C146.718 164.138 149.917 162.378 150.393 161.328C150.682 161.372 150.973 161.402 151.267 161.422C150.955 161.751 150.62 162.122 150.225 162.545C147.497 165.469 144.944 169.05 141.783 171.497C138.023 174.407 134.898 178.008 131.103 180.852C127.769 183.351 124.533 185.932 121.325 188.593C114.101 194.588 106.155 198.818 98.2581 203.744C90.2184 208.76 82.6954 214.076 74.1792 218.303C73.7841 218.499 74.0612 219.18 74.4825 219.023C82.671 215.979 89.8242 210.778 97.1918 206.204C104.724 201.528 112.939 198.209 120.205 193.04C127.188 188.071 133.682 182.781 139.92 176.951C143.072 174.005 146.101 171.843 148.876 168.469C149.997 167.107 151.252 165.713 152.265 164.284C152.536 163.903 152.818 163.376 153.101 162.831C153.255 163.019 153.397 163.217 153.561 163.396C153.601 163.44 153.669 163.374 153.627 163.33C153.455 163.146 153.306 162.941 153.145 162.748C153.383 162.29 153.622 161.832 153.859 161.429C157.407 161.381 160.957 161.164 164.179 159.553C166.195 158.544 168.209 157.352 170.094 155.994C170.899 155.861 171.582 155.504 171.906 154.716C171.929 154.659 171.941 154.607 171.959 154.552C172.557 154.057 173.141 153.551 173.694 153.021C174.052 153.11 174.411 153.193 174.767 153.298C173.715 154.379 172.568 155.371 171.134 156.111C164.074 159.759 158.885 165.315 154.078 171.315C153.752 171.081 153.368 170.921 152.915 170.863C152.462 170.806 151.991 170.901 151.524 171.1C151.976 169.735 152.455 168.361 153.157 167.433C153.277 167.276 153.01 167.122 152.892 167.278C152.05 168.389 151.549 169.86 151.065 171.331C149.479 172.245 148.031 174.29 147.597 175.976C147.026 176.554 146.563 177.163 146.381 177.498C145.549 179.032 144.949 180.758 144.2 182.357C144.074 182.626 143.948 182.899 143.828 183.176C142.953 184.171 142.047 185.143 141.115 186.092C135.546 191.769 129.387 197.198 123.283 202.294C116.784 207.719 110.222 212.949 103.374 217.943C96.7322 222.786 89.9984 227.834 83.8394 233.274C83.1054 233.923 75.5403 239.387 76.4868 240.774C76.5607 240.882 76.6628 240.957 76.7882 241.008C75.5675 241.312 74.3439 241.579 73.1091 241.703C67.0568 242.307 61.0925 241.591 55.5701 239.2ZM177.208 234.983C175.526 236.509 173.569 237.163 172.198 239.019C171.075 240.54 170.405 241.645 168.748 242.738C167.762 243.388 166.749 243.938 165.835 244.689C163.078 246.949 161.277 249.918 157.325 249.639C153.39 249.361 149.683 249.38 145.811 248.464C139.858 247.055 134.157 244.535 128.314 242.721C122.478 240.909 116.488 240.315 110.4 240.104C103.903 239.878 97.5082 238.293 90.9879 238.772C88.1373 238.982 85.2773 239.283 82.4482 239.697C81.5561 239.827 80.6695 240.023 79.7858 240.239C82.5718 238.881 86.1508 236.299 86.8819 235.886C101.883 227.411 117.536 219.726 132.185 210.679C138.486 206.787 143.977 201.746 149.62 196.989C155.942 191.657 161.023 185.965 165.163 178.782C169.233 171.719 172.655 164.128 176.003 156.687C176.138 156.565 176.281 156.451 176.414 156.327C176.389 157.428 176.382 158.535 176.363 159.643C174.796 162.636 173.268 165.64 171.83 168.701C170.223 172.123 168.076 175.178 166.541 178.658C164.916 182.342 163.045 185.918 160.982 189.376C156.66 196.62 151.111 202.883 145.574 209.199C139.633 215.975 133.477 222.553 126.704 228.509C125.824 229.283 124.966 230.091 124.108 230.9C123.2 231.325 122.295 231.766 121.403 232.257C119.137 233.503 115.862 235.084 115.321 237.842C115.301 237.944 115.41 238.055 115.511 237.988C118.68 235.867 121.719 233.517 124.651 231.013C124.657 231.01 124.663 231.007 124.669 231.005C139.751 224.435 152.513 213.15 160.941 199.045C165.34 191.683 170.907 185.431 173.634 177.123C174.988 173.001 175.775 168.691 176.472 164.417C176.75 162.718 177.013 161.008 177.117 159.287C178.064 157.744 179.111 156.093 179.659 154.511C180.309 154.084 180.936 153.624 181.502 153.188C181.418 154.524 181.41 155.888 181.284 157.143C180.965 160.336 181.18 163.695 181.646 166.87C182.446 172.325 183.56 177.937 184.801 183.299C186.222 189.441 183.648 195.625 184.05 201.856C184.328 206.162 185.877 210.747 186.308 215.202C186.227 215.575 186.148 215.951 186.067 216.326C185.303 218.173 184.576 220.025 183.921 221.887C183.011 224.473 180.405 228.71 179.653 232.509C178.875 233.372 178.066 234.206 177.208 234.983ZM176.338 160.605C176.298 161.841 176.219 163.074 176.022 164.296C175.22 169.286 174.301 174.32 172.51 179.064C170.615 184.08 167.704 188.631 164.645 193.004C161.656 197.278 159.187 202.085 155.773 205.985C152.716 209.478 149.846 213.099 146.503 216.346C142.792 219.949 138.409 222.516 134.29 225.586C131.562 227.619 128.553 228.887 125.544 230.243C131.482 225.071 136.978 219.291 142.195 213.53C150.421 204.444 158.28 195.434 164.102 184.582C165.448 182.072 166.555 179.49 167.747 176.909C169.037 174.12 170.881 171.689 172.188 168.912C173.4 166.334 174.658 163.802 175.97 161.271C176.082 161.054 176.21 160.829 176.338 160.605ZM123.387 231.584C121.662 233.203 119.912 234.795 117.947 236.099C114.596 238.325 118.28 234.488 119.48 233.703C120.744 232.877 122.039 232.206 123.387 231.584ZM183.303 230.467C183.817 229.857 184.303 229.23 184.743 228.581C184.73 228.733 184.709 228.884 184.703 229.036C184.686 229.472 184.7 229.922 184.728 230.378C182.717 232.244 181.89 233.954 181.914 236.557C181.615 234.664 182.357 232.469 183.303 230.467ZM183.618 234.385C183.871 233.639 184.34 232.926 184.93 232.274C185.084 233.283 185.299 234.3 185.529 235.288C185.099 236.604 184.738 237.938 184.496 239.336C183.447 237.997 182.901 236.5 183.618 234.385ZM185.721 240.674C186.716 238.655 187.88 236.701 188.993 234.723C188.399 236.993 187.455 239.466 186.958 241.906C186.737 241.67 186.513 241.435 186.276 241.21C186.087 241.03 185.901 240.853 185.721 240.674ZM193.361 247.952C192.838 247.851 191.899 247.019 191.049 246.191C191.43 245.725 191.738 245.203 191.989 244.643C191.954 245.063 191.929 245.479 191.926 245.885C191.922 246.213 192.282 246.396 192.558 246.248C194.657 245.117 194.955 242.82 195.633 240.653C196.224 238.764 196.679 236.839 197.189 234.928C196.795 237.515 196.568 240.138 196.417 242.73C196.342 244.044 196.027 245.258 196.064 246.4C195.392 247.493 194.518 248.176 193.361 247.952ZM199.813 227.669C198.823 231.326 199.261 234.958 198.345 238.62C198.079 239.681 197.722 242.214 196.979 244.379C197.057 242.127 197.492 239.621 197.618 238.605C197.98 235.675 198.42 232.64 199.049 229.759C199.127 229.405 198.647 229.03 198.378 229.369C195.491 232.993 196.414 238.72 194.101 242.65C193.159 244.253 193.582 244.03 193.359 242.844C193.082 241.369 193.963 238.835 194.301 237.374C194.427 236.827 195.948 232.675 196.158 230.488C196.442 229.749 196.74 229.018 197.081 228.312C197.285 227.889 196.674 227.516 196.443 227.939C195.338 229.959 194.674 232.373 194.1 234.688C193.881 235.304 193.715 235.775 193.664 235.94C193.457 236.611 191.741 245.037 190.296 243.64C189.795 243.156 191.817 237.083 192.085 236.037C192.823 233.149 193.879 230.56 195.021 227.841C196.69 227.524 198.386 227.274 199.979 227.083C199.922 227.27 199.868 227.464 199.813 227.669ZM205.293 223.527C201.241 224.049 197.664 225.225 193.747 226.203C190.766 226.948 188.037 227.756 185.641 229.609C185.687 228.499 185.799 227.392 185.971 226.295C186.014 226.186 186.068 226.081 186.107 225.969C186.385 225.165 186.604 224.369 186.776 223.577C187.818 221.127 188.679 218.577 189.631 216.09C189.933 215.582 190.245 215.079 190.579 214.589C195.16 207.868 198.992 201.464 200.579 193.432C201.255 190.005 202.226 186.89 201.906 183.345C201.67 180.727 200.971 177.803 200.062 175.102C199.971 174.371 199.867 173.654 199.736 172.979C199.333 170.9 198.267 168.912 197.199 167.111C197.077 166.906 196.969 166.687 196.855 166.475C201.003 169.968 205.04 173.604 208.748 177.567C213.918 183.09 218.882 188.722 224.182 194.1C230.377 200.385 235.429 207.547 242.131 213.358C247.835 218.305 253.229 223.848 259.156 228.556C257.561 229.273 255.951 229.94 254.334 230.573C253.757 230.647 253.174 230.706 252.577 230.738C250.043 230.874 247.518 230.529 244.994 230.376C242.253 230.21 239.559 230.512 236.828 230.417C234.105 230.323 231.591 229.202 229.08 228.043C229.022 228.017 228.966 227.989 228.908 227.963C227.206 227.177 225.503 226.383 223.737 225.891C216.344 223.827 207.331 218.871 199.745 223.507C199.407 223.714 199.706 224.223 200.055 224.038C204.674 221.591 211.065 222.266 215.763 223.967C216.461 224.22 217.152 224.453 217.845 224.686C213.713 223.661 209.539 222.979 205.293 223.527ZM237.08 232.303C236.047 231.817 235.06 231.276 234.086 230.725C234.936 230.967 235.837 231.128 236.829 231.16C241.532 231.309 246.361 231.467 251.069 231.467C251.39 231.467 251.721 231.461 252.052 231.453C247.23 233.216 241.932 234.588 237.08 232.303ZM288.803 193.12C288.405 197.524 286.476 202.649 284.193 206.371C281.722 210.398 279.033 215.74 275.382 218.76C271.805 221.719 267.831 224.213 263.677 226.367C265.642 223.93 267.208 221.141 270.046 219.389C271.368 218.574 272.975 218.19 274.237 217.294C275.342 216.51 276.022 215.348 276.994 214.422C280.066 211.497 282.621 209.223 284.301 205.166C285.468 202.349 285.868 199.275 286.125 196.255C286.467 192.239 285.64 190.435 284 186.931C279.822 178.004 282.284 167.023 284.13 157.788C284.193 157.474 284.27 157.141 284.353 156.794C285.477 160.174 285.554 163.374 285.791 167.131C286.038 171.045 287.083 174.988 287.593 178.885C287.907 181.293 287.778 183.738 288.134 186.132C288.481 188.471 289.02 190.73 288.803 193.12Z" fill="#79977F"/>
<path d="M226.076 58.9462C226.059 58.8676 226.037 58.7889 226.033 58.7122C226.056 59.2149 226.067 59.2102 226.076 58.9462Z" fill="#79977F"/>
<path d="M118.209 10.5468C118.364 10.5852 118.521 10.6152 118.677 10.6508C118.55 10.4401 118.407 10.3325 118.209 10.5468Z" fill="#79977F"/>
<path d="M32.3984 150.479C33.7268 149.909 35.0581 149.369 36.393 148.847C35.0431 149.355 33.7063 149.893 32.3984 150.479Z" fill="#79977F"/>
<path d="M112.774 191.232C120.638 185.803 128.407 180.06 135.963 174.25C136.031 174.199 135.964 174.083 135.896 174.135C123.775 183.426 111.28 192.372 97.9553 199.905C95.7872 201.131 63.544 216.686 62.6528 209.527C62.6153 209.225 62.1388 209.217 62.1715 209.527C62.9439 216.642 86.4836 206.005 88.5525 204.89C96.7224 200.488 105.093 196.535 112.774 191.232Z" fill="#79977F"/>
</svg>
