<svg width="292" height="253" viewBox="0 0 292 253" fill="none" xmlns="http://www.w3.org/2000/svg">
<path d="M118.1 171.457C118.155 171.457 118.155 171.371 118.1 171.371C118.045 171.371 118.045 171.457 118.1 171.457Z" fill="#506956"/>
<path d="M291.124 183.791C290.793 179.608 290.338 175.498 289.702 171.339C289.151 167.746 289.358 164.14 288.743 160.593C288.145 157.146 286.993 154.234 285.432 151.145C285.298 150.881 285.173 150.608 285.047 150.336C284.998 149.991 284.921 149.659 284.805 149.345C284.616 148.831 284.334 148.324 283.995 147.826C282.07 142.876 280.408 137.45 274.818 135.816C267.947 133.806 261.666 132.272 255.502 128.55C249.955 125.201 244.007 123.57 237.983 121.112C234.855 119.836 234.385 117.288 233.407 114.2C232.103 110.08 229.251 105.995 230.097 101.559C230.897 97.3611 232.749 94.3373 236.106 91.7488C238.709 89.7417 241.303 87.5567 243.782 85.3913C247.734 81.9407 249.95 75.66 247.154 70.6637C245.907 68.4337 243.058 66.8554 240.801 65.908C238.787 65.0626 236.226 65.2021 234.349 64.1461C231.66 62.6333 232.682 60.4174 233.409 58.0704C234.137 55.7141 233.681 53.8718 232.573 52.4048C232.836 50.32 233.071 48.2361 233.116 46.1307C233.232 40.7093 232.251 35.1214 229.965 30.2037C229.144 28.4344 227.834 26.9384 226.844 25.2655C225.54 23.0599 224.603 20.6034 222.713 18.805C221.066 17.2379 218.865 16.1529 216.981 14.9116C214.305 13.1488 211.908 11.0986 208.977 9.78607C204.12 7.6123 199.03 6.45148 194.192 4.21124C189.096 1.85118 183.259 0.402937 177.653 0.0621743C172.398 -0.25612 166.996 0.709991 161.811 1.54411C155.243 2.60104 148.696 2.77891 142.134 3.73567C135.502 4.70272 129.206 4.73549 122.525 4.73362C117.263 4.73175 112.045 5.05378 106.807 5.22884C106.69 5.14272 106.517 5.15395 106.39 5.24101C105.479 5.27003 104.57 5.30561 103.658 5.32152C97.7047 5.42544 84.1397 7.2987 89.6603 16.4394C92.1542 20.5688 96.9183 22.647 100.088 26.1511C103.788 30.2402 106.968 34.688 111.121 38.3952C113.178 40.2319 115.671 41.4012 117.726 43.2641C119.525 44.894 121.003 46.9095 122.949 48.3727C123.196 48.5581 123.445 48.7247 123.695 48.8811C125.774 51.023 127.959 53.0676 130.177 54.9324C132.353 56.7607 134.172 56.9293 136.51 58.4224C139.166 60.1178 141.379 63.048 143.663 65.2152C146.174 67.5996 148.704 70.0299 150.867 72.7382C151.348 73.3392 151.785 73.9861 152.203 74.6498C153.197 77.2889 154.172 79.9392 155.637 82.4069C159.262 88.5106 162.211 95.2126 166.319 100.904C164.516 100.216 162.579 99.7492 160.79 99.063C159.038 98.3909 157.355 97.715 155.703 97.0119C152.403 91.3041 149.088 85.6104 145.542 80.0459C142.425 75.1516 139.556 70.2817 135.496 66.1167C131.34 61.8525 125.91 58.7585 121.287 55.0523C116.625 51.316 111.945 48.7276 106.133 46.9114C101.099 45.3377 95.1752 46.1409 90.0675 46.5528C84.151 47.0294 78.3533 50.5943 72.77 52.3851C67.6398 54.0309 63.0564 55.8779 58.4795 58.4749C61.0456 56.7205 63.591 54.9427 65.9979 52.9459C68.5555 50.8236 72.1203 49.5991 75.1291 48.2258C78.5845 46.6493 82.1953 45.3461 85.9006 44.4961C89.7108 43.6227 93.462 43.7416 97.2937 43.3119C100.911 42.9056 104.852 42.3308 108.459 43.1771C111.828 43.9672 113.752 45.9696 116.476 47.8345C119.979 50.2338 124.018 50.6092 126.88 54.0674C127.223 54.4812 127.919 53.941 127.624 53.4926C126.327 51.5173 125.006 49.8753 122.958 48.6405C121.317 47.651 119.565 46.9985 118.036 45.8226C116.683 44.7816 115.728 43.3231 114.358 42.3195C109.987 39.1169 103.662 39.2283 98.5538 39.7816C91.6562 40.5287 85.2781 40.7655 78.6566 43.178C73.2418 45.1505 67.0754 47.46 62.7559 51.3104C58.1575 55.4089 52.3982 58.3522 47.4965 62.1633C42.1435 66.3255 38.6732 71.6129 34.0074 76.3874C29.218 81.2882 25.845 87.5333 21.6088 92.9274C17.6264 97.9996 13.1113 102.663 9.46027 107.99C3.95752 116.02 -5.33573 131.24 3.93881 139.813C7.93528 143.507 12.5487 143.764 17.7032 143.644C20.5875 143.577 23.102 144.084 24.1477 147.18C25.0558 149.867 25.0305 154.389 24.6027 157.237C24.231 159.717 23.5776 162.854 27.2024 162.463C29.1637 162.251 29.6196 161.967 31.4835 162.76C32.4655 163.178 33.3633 163.643 34.4108 163.883C36.798 164.429 39.9379 164.943 42.4253 164.759C44.6889 164.591 46.2008 163.371 48.1949 162.326C48.4589 162.187 48.7182 162.051 48.9766 161.913C47.7708 163.681 47.3439 165.613 48.4991 167.786C50.2825 171.141 55.4454 170.438 58.4823 171.312C64.2304 172.965 69.4064 175.223 75.3444 176.347C78.4263 176.93 81.5493 177.441 84.5713 178.295C87.6784 179.172 90.5215 180.791 93.6202 181.682C95.8717 182.33 97.8807 183.249 99.8972 183.446C95.4382 186.34 91.0608 189.346 86.0766 191.287C82.9396 192.509 80.0449 193.709 77.126 195.397C73.7277 197.362 69.822 198.305 66.1186 199.585C59.4091 201.903 51.3872 201.545 45.1823 205.281C40.3255 208.205 39.7095 215.727 40.0746 220.886C40.5053 226.967 45.0044 233.18 49.4165 237.074C53.722 240.874 58.604 243.693 64.485 244.207C72.6249 244.92 79.8549 242.721 87.889 241.974C96.1534 241.205 104.257 242.796 112.505 243.236C121.355 243.709 130.018 246.172 138.202 249.486C144.434 252.009 152.156 253.647 158.869 252.317C162.18 251.662 163.875 249.227 166.189 246.984C168.68 244.569 170.947 243.309 172.909 240.507C174.513 238.217 177.14 236.544 179.282 234.511C179.351 236.347 180.118 237.949 182.064 239.032C182.611 241.139 183.801 242.41 185.423 244.472C185.763 244.905 186.136 245.377 186.537 245.865C186.554 245.997 186.566 246.13 186.588 246.26C186.627 246.479 186.885 246.581 187.084 246.519C189.997 249.931 194.089 253.529 197.548 249.183C200.059 246.028 200.674 242.379 201.603 238.567C202.111 236.482 202.221 234.979 202.22 232.856C202.22 232.273 202.244 227.791 202.757 226.542C205.768 226.211 208.922 225.849 211.846 226.54C215.357 227.37 218.797 228.422 222.303 229.279C226.644 230.341 229.992 232.134 233.889 234.229C237.097 235.953 240.18 237.007 243.858 236.599C250.673 235.843 257.172 232.83 263.385 229.921C263.387 230.222 263.388 230.523 263.39 230.825C263.39 230.86 263.444 230.86 263.444 230.825C263.445 230.514 263.446 230.202 263.448 229.892C264.309 229.488 265.165 229.086 266.016 228.693C272.47 225.711 278.264 220.989 282.098 215.105C286.315 208.635 290.564 202.329 291.754 194.496C292.331 190.753 291.415 187.48 291.124 183.791ZM281.045 179.383C281.345 183.021 282.935 186.002 284.438 189.214C286.324 193.246 285.438 199.441 284.052 203.54C282.369 208.517 278.742 211.743 275.087 215.228C272.53 217.665 268.941 218.596 266.359 221.164C264.995 222.519 264.079 224.13 262.921 225.616C262.249 222.106 259.6 218.908 257.915 215.882C255.076 210.785 253.269 205.212 250.421 200.124C245.134 190.683 236.815 183.967 228.335 177.555C224.003 174.279 219.404 171.427 215.007 168.265C212.443 166.421 210.11 164.325 207.769 162.236C214.367 165.394 220.828 168.764 227.545 171.728C235.55 175.259 244.048 178.361 251.618 182.794C259.188 187.226 265.379 193.776 272.785 198.417C272.881 198.477 272.967 198.327 272.873 198.267C267.048 194.567 261.591 189.71 256.1 185.522C250.99 181.625 245.14 179.031 239.34 176.317C233.147 173.419 226.766 170.897 220.614 167.927C218.171 166.747 216.005 165.225 213.485 164.207C211.115 163.248 208.671 162.122 206.3 160.935C204.852 159.659 203.383 158.405 201.835 157.239C198.831 154.975 195.882 152.473 192.779 150.272C192.904 150.254 193.028 150.236 193.154 150.217C193.216 150.226 193.276 150.241 193.338 150.25C194.406 150.4 195.518 150.488 196.644 150.536C197.275 150.807 197.906 151.074 198.543 151.322C206.57 154.449 214.891 156.776 222.985 159.681C232.896 163.239 243.394 167.306 252.181 173.176C257.031 176.416 261.405 180.487 264.843 185.203C266.078 186.897 267.018 188.809 268.316 190.45C269.442 191.874 271.415 193.141 271.91 194.941C271.933 195.023 272.062 194.989 272.039 194.905C271.407 192.57 268.593 190.623 267.289 188.641C264.951 185.085 262.623 181.749 259.537 178.77C253.035 172.495 245.425 168.491 237.199 164.972C228.445 161.228 219.446 158.433 210.616 154.996C206.547 153.412 202.408 152.092 198.325 150.573C200.689 150.581 203.082 150.415 205.305 150.154C210.941 149.491 216.388 148.089 221.774 146.434C227.894 146.082 234.016 145.682 240.154 145.245C245.079 144.894 249.986 143.91 254.761 142.521C257.371 142.508 259.983 142.427 262.601 142.154C264.163 141.99 270.683 141.92 273.164 140.101C274.471 140.591 275.806 141.395 277.151 141.581C277.39 141.786 277.617 141.995 277.834 142.207C278.215 142.724 278.561 143.309 278.858 143.989C280.353 147.411 281.622 150.823 283.246 154.208C283.394 154.516 283.51 154.816 283.637 155.119C282.91 158.891 282.021 162.667 281.587 166.474C281.108 170.679 280.696 175.135 281.045 179.383ZM259.083 228.302C254.442 224.451 250.239 219.958 245.759 215.945C240.586 211.311 235.605 206.812 231.196 201.421C226.938 196.215 221.997 191.743 217.485 186.795C212.807 181.666 208.194 176.617 203.273 171.728C201 169.469 198.624 167.375 196.204 165.333C195.571 164.054 194.992 162.729 194.305 161.595C193.471 160.217 192.539 159.679 191.43 159.294C189.856 156.88 188.319 154.444 187.019 151.867C186.584 151.004 186.465 150.032 186.099 149.268C188.441 151.178 190.899 152.969 193.537 154.386C196.858 156.172 199.951 158.405 203.305 160.111C207.506 163.757 211.444 167.686 215.99 170.951C222.198 175.41 228.667 179.753 234.441 184.78C240.922 190.422 246.367 196.879 250.593 204.361C252.578 207.876 254.243 211.571 256.354 215.012C258.299 218.182 261.743 222.074 262.677 225.923C262.522 226.113 262.365 226.301 262.199 226.485C261.969 226.739 261.726 226.961 261.483 227.186C260.689 227.572 259.887 227.94 259.083 228.302ZM200.105 188.04C199.54 191.448 198.774 194.982 197.797 198.3C196.643 202.216 194.452 205.67 192.271 209.109C195.536 201.304 198.487 193.725 199.824 185.151C199.958 184.291 200.051 183.374 200.114 182.431C200.36 184.257 200.426 186.101 200.105 188.04ZM189.127 244.214C189.004 244.092 188.883 243.968 188.763 243.843C189.395 242.291 189.773 240.584 190.29 239.043C190.307 238.993 190.327 238.943 190.344 238.893C189.914 240.624 189.338 242.42 189.127 244.214ZM188.464 241.943C188.143 242.377 187.956 242.7 187.847 242.848C187.798 242.793 187.747 242.738 187.699 242.683C187.695 242.499 187.702 242.209 187.704 241.792C187.709 240.695 188.789 238.59 189.051 237.488C189.512 235.546 189.957 233.576 190.38 231.613C190.921 230.529 191.413 229.426 191.829 228.292C192.489 228.122 193.17 227.97 193.859 227.825C193.629 228.301 193.41 228.779 193.202 229.261C192.307 230.469 191.768 232.165 191.374 233.903C190.532 236.163 189.882 240.017 188.464 241.943ZM189.307 232.175C189.241 232.337 189.182 232.508 189.109 232.66C188.001 234.933 186.799 237.23 185.575 239.444C185.434 239.698 185.311 239.912 185.198 240.1C184.979 239.876 184.771 239.649 184.576 239.419C184.741 238.661 184.967 237.759 185.134 236.994C185.236 236.527 185.36 236.07 185.493 235.616C185.63 236.186 185.768 236.747 185.899 237.282C185.951 237.49 186.271 237.402 186.221 237.193C186.029 236.386 185.881 235.57 185.761 234.753C186.307 233.103 186.986 231.51 187.552 229.865C188.156 229.52 188.759 229.241 189.316 229.045C189.582 228.952 189.862 228.865 190.139 228.778C189.74 229.845 189.499 231.092 189.307 232.175ZM185.673 234.16C185.556 233.233 185.485 232.3 185.459 231.369C185.973 230.905 186.54 230.486 187.117 230.125C186.63 231.508 186.131 232.838 185.673 234.16ZM185.665 184.11C184.002 174.698 181.069 165.228 182.115 155.597C182.14 155.373 182.154 154.65 182.165 153.937C182.291 155.097 182.65 156.309 182.836 157.299C183.685 161.82 184.193 166.378 185.162 170.88C187.373 181.157 188.861 191.392 188.107 201.921C187.993 203.518 187.897 205.181 187.78 206.86C187.439 208.878 187.054 210.887 186.605 212.891C186.28 210.86 185.841 208.805 185.409 206.693C184.456 202.041 184.44 197.499 185.312 192.853C185.837 190.047 186.165 186.94 185.665 184.11ZM78.0444 240.07C76.5671 239.527 81.5241 235.581 81.7226 235.393C86.5063 230.874 91.8378 226.899 97.0157 222.84C102.663 218.414 109.046 214.73 114.307 209.848C119.429 205.094 124.968 200.777 130.218 196.132C134.698 192.166 139.29 188.291 143.313 183.855C143.014 184.722 142.853 185.62 143.075 186.54C143.129 186.767 143.357 187.032 143.601 187.066C144.738 187.224 145.626 186.692 146.34 185.912C147.196 185.545 148.003 184.91 148.598 184.43C150.38 182.991 152.928 181.366 154.269 179.539C155.34 178.082 155.895 174.355 154.817 172.21C156.721 169.795 158.72 167.479 161.272 165.631C163.063 164.334 164.737 162.729 166.612 161.58C168.375 160.5 170.407 159.856 172.263 158.954C173.153 158.521 173.946 157.994 174.695 157.421C174.274 158.587 173.838 159.751 173.323 160.867C167.63 173.219 162.067 185.679 151.599 194.765C146.437 199.245 141.202 203.862 135.62 207.814C130.495 211.443 124.745 214.462 119.184 217.364C107.284 223.574 95.4991 230.126 83.9122 236.903C83.021 237.425 79.0329 240.434 78.0444 240.07ZM147.572 177.748C147.588 177.777 147.604 177.805 147.622 177.834C147.488 178.037 147.351 178.236 147.214 178.435C147.308 178.241 147.43 178.006 147.572 177.748ZM147.896 183.27C147.817 183.073 147.556 182.966 147.356 183.145C147.072 183.4 146.587 184.002 146.087 184.497C145.219 184.981 144.56 185.116 144.798 184.198C144.895 183.825 145.869 183.321 146.121 183.065C147.486 181.672 148.536 179.922 149.837 178.434C150.476 178.15 150.809 177.882 151.224 177.166C151.334 176.978 151.372 176.787 151.379 176.601C151.773 176.117 152.159 175.627 152.541 175.135C152.537 175.269 152.539 175.414 152.557 175.577C152.919 178.917 151.196 180.146 149.121 182.268C149.053 182.336 148.545 182.773 147.896 183.27ZM147.828 178.113C147.941 178.244 148.066 178.364 148.208 178.457C147.554 179.301 146.889 180.138 146.223 180.974C146.422 180.538 146.599 180.108 146.761 179.655C147.13 179.149 147.485 178.635 147.828 178.113ZM171.68 152.937C171.532 152.685 171.322 152.464 171.078 152.269C171.513 152.351 171.945 152.443 172.378 152.535C172.148 152.679 171.914 152.807 171.68 152.937ZM56.4115 156.713C57.5686 155.628 59.2809 154.425 59.8725 152.858C60.9716 151.805 62.1755 150.939 63.6209 150.553C65.9932 149.92 68.2503 150.675 70.5738 151.143C70.0065 151.35 69.442 151.566 68.8794 151.79C65.3791 153.189 61.7009 154.35 58.2624 155.853C57.3992 156.231 56.5895 156.715 55.8218 157.268C56.0184 157.083 56.2149 156.896 56.4115 156.713ZM85.7237 135.928C86.7198 135.783 87.7233 135.655 88.7344 135.542C88.8551 136.567 88.4217 138.142 88.2504 139.14C86.8302 138.135 85.6123 136.905 85.7237 135.928ZM85.8623 135.523C86.0148 135.26 86.2901 135.022 86.731 134.826C87.8703 134.32 88.4142 134.534 88.6342 135.096C87.7093 135.231 86.7853 135.374 85.8623 135.523ZM138.165 135.999C138.347 135.451 138.418 134.882 138.457 134.283C138.465 134.147 138.444 133.873 138.411 133.561C138.908 133.654 139.41 133.711 139.877 133.754C140.143 133.779 140.418 133.817 140.699 133.86C140.481 134.594 141.207 135.265 141.905 135.201C141.409 135.393 140.914 135.532 140.704 135.61C140.42 135.716 140.098 135.885 139.811 135.971C139.468 136.001 139.128 136.043 138.789 136.093C138.575 136.075 138.378 136.038 138.165 135.999ZM129.47 121.809C128.997 121.765 128.506 121.747 127.965 121.786C126.85 121.869 122.106 122.942 120.294 122.072C121.023 121.537 121.675 121 122.206 120.52C123.9 120.441 125.914 120.478 126.666 120.511C127.613 120.905 128.548 121.339 129.47 121.809ZM109.665 112.119C111.335 115.782 118.583 112.281 120.126 110.331C120.179 110.263 120.214 110.195 120.254 110.128C121.031 109.997 121.826 109.932 122.653 109.995C125.022 110.175 126.904 110.817 129.322 110.412C134.111 109.609 139.03 109.025 143.81 108.042C145.446 108.677 147.066 109.353 148.658 110.082C146.225 111.976 144.314 114.708 143.416 117.457C143.109 118.393 142.622 119.879 142.546 121.17C140.485 120.291 138.377 119.509 136.17 118.891C132.351 117.823 127.285 116.563 122.96 117.243C121.778 116.424 120.237 116.425 118.677 116.805C117.559 116.702 116.45 116.607 115.363 116.511C106.3 115.719 97.0418 115.563 87.9704 116.101C79.4327 116.608 70.9726 118.184 62.5266 119.476C53.4739 120.861 44.424 121.479 35.4762 123.559C26.6229 125.616 18.0589 128.624 9.27866 130.836C8.35654 131.069 6.62746 132.023 5.97495 131.204C4.90398 129.862 8.20301 128.423 9.57823 127.5C13.2218 125.052 16.9149 122.659 20.5809 120.263C27.105 116 34.5971 113.459 41.9366 110.742C51.5014 107.199 61.1832 104.099 71.1149 101.696C81.3032 99.2297 92.5005 96.9642 103.009 97.7318C113.893 98.5276 123.688 101.486 134.008 104.675C135.818 105.234 137.629 105.817 139.43 106.438C137.973 106.674 136.516 106.905 135.067 107.144C133.143 107.461 131.185 107.73 129.259 108.022C126.604 108.425 124.308 107.653 121.699 107.449C120.834 107.382 120.051 107.434 119.261 107.572C118.366 106.875 117.194 106.788 115.836 107.022C114.385 107.272 111.469 107.735 110.609 109.188C110.492 109.384 110.405 109.568 110.333 109.744C109.583 110.268 109.174 111.041 109.665 112.119ZM165.746 107.686C166.154 108 166.641 107.332 166.288 106.983C166.008 106.707 165.718 106.454 165.421 106.215C166.633 106.163 168.01 106.242 169.172 106.578C169.381 106.73 169.592 106.882 169.798 107.035C167.666 107.515 165.14 108.674 163.741 109.317C163.72 109.327 163.699 109.339 163.678 109.35C163.535 108.976 163.383 108.607 163.213 108.249C163.608 107.98 164.012 107.724 164.439 107.497C164.633 107.393 164.736 107.223 164.788 107.037C165.111 107.237 165.432 107.445 165.746 107.686ZM191.067 118.214C191.086 118.296 191.106 118.378 191.125 118.459C191.107 118.407 191.087 118.355 191.066 118.305C191.066 118.274 191.067 118.244 191.067 118.214ZM194.01 126.563C193.924 126.638 193.844 126.689 193.772 126.709C193.691 126.494 193.581 126.303 193.455 126.123C193.455 126.116 193.454 126.113 193.454 126.108C193.453 126.048 193.416 126.018 193.373 126.002C193.279 125.883 193.176 125.772 193.064 125.668C192.86 125.145 192.645 124.625 192.424 124.106C192.466 123.995 192.516 123.885 192.547 123.772C192.624 123.492 192.453 123.194 192.175 123.116C192.09 123.091 192.028 123.056 191.955 123.026C191.633 122.299 191.308 121.574 190.987 120.852C190.995 120.703 191.003 120.554 191.012 120.406C191.21 119.971 191.31 119.519 191.261 119.05C191.258 119.019 191.249 118.992 191.244 118.962C191.883 121.551 192.804 124.241 194.01 126.563ZM215.866 49.7367C216.349 50.3724 217.522 50.4089 217.859 49.7105C219.705 49.9839 221.548 50.4314 223.439 51.0998C224.603 51.5108 226.608 51.9667 227.726 52.5321C228.322 52.8345 228.761 53.1958 229.086 53.5965C229.082 55.6196 229.36 57.5565 229.329 59.5748C229.182 60.2994 229.111 61.039 229.144 61.7655C228.939 63.2624 228.66 64.6985 228.311 66.1083C228.144 64.3877 228.17 62.74 227.828 61.0025C227.501 60.2536 227.383 59.4475 227.472 58.5853C226.978 57.3955 226.995 56.2505 227.521 55.1506C227.472 54.733 227.653 54.2546 227.508 53.8409C226.814 51.8553 224.439 51.9601 222.702 52.0799C222.416 52.0996 222.143 52.1174 221.875 52.1333C221.875 51.8197 221.849 51.5173 221.745 51.2533C221.616 50.9266 221.647 51.0427 221.247 50.5812C221.059 50.363 220.784 50.6064 220.815 50.832C220.88 51.2814 220.943 51.7289 221.005 52.1764C218.128 52.2887 216.18 51.9517 213.624 49.6019C213.549 49.5336 213.475 49.4615 213.401 49.3904C214.171 49.3894 214.933 49.4213 215.69 49.4756C215.751 49.5617 215.802 49.6525 215.866 49.7367ZM225.85 110.351C225.823 116.043 229.009 121.476 233.418 124.978C233.836 125.309 234.268 125.614 234.706 125.906C231.833 125.45 223.971 129.588 223.392 129.833C219.099 131.648 214.613 133.07 210.456 135.178C207.47 136.692 204.525 138.083 201.477 139.272C201.694 139.119 201.921 138.974 202.133 138.817C207.263 135.014 210.41 128.96 214.156 123.932C218.318 118.346 222.447 112.717 225.916 106.655C225.918 106.651 225.92 106.647 225.923 106.642C225.799 108.202 225.853 109.743 225.85 110.351ZM263.554 136.181C264.793 136.616 266.039 137.032 267.285 137.406C267.413 137.445 267.54 137.479 267.668 137.516C266.494 137.617 265.348 137.876 264.221 138.247C261.749 138.301 259.265 138.589 256.815 138.645C248.442 138.836 239.574 139.902 231.548 142.361C228.412 143.322 225.301 144.319 222.175 145.242C212.625 145.621 203.11 145.611 193.552 145.573C196.796 144.802 199.97 143.613 203.162 142.714C207.872 141.389 212.492 139.761 217.004 137.87C221.821 135.851 226.54 133.583 230.816 130.565C231.583 130.024 235.787 128.114 235.751 126.955C235.745 126.776 235.703 126.629 235.641 126.498C237.765 127.762 240.077 128.682 242.387 129.581C245.113 130.641 248.504 131.509 250.611 133.65C251.601 134.657 252.194 136.223 253.484 136.931C256.078 138.355 259.389 136.245 262.088 136.152C262.562 136.135 263.054 136.151 263.554 136.181ZM272.157 139.608C270.868 139.124 269.675 138.68 268.82 138.532C268.085 138.404 267.344 138.337 266.603 138.294C267.381 138.068 268.191 137.954 269.19 138.056C269.035 138.04 269.459 138.081 269.991 138.125C270.71 138.304 271.416 138.483 272.103 138.681C272.366 139.042 272.358 139.348 272.157 139.608ZM231.695 143.468C230.85 143.646 230.009 143.839 229.171 144.035C229.81 143.822 230.449 143.608 231.088 143.395C240.101 140.384 249.684 139.623 259.111 139.198C260.128 139.152 261.119 139.094 262.098 139.044C260.087 139.872 258.099 140.846 256.051 141.496C255.362 141.715 254.669 141.91 253.975 142.094C246.52 142.243 239.047 141.916 231.695 143.468ZM252.27 142.512C245.996 143.928 239.549 144.135 233.148 144.626C230.771 144.809 228.399 144.952 226.03 145.073C226.135 145.039 226.24 145.005 226.344 144.97C230.999 143.769 235.714 142.79 240.478 142.556C244.417 142.363 248.342 142.477 252.27 142.512ZM264.384 139.138C264.541 139.074 264.691 139.011 264.841 138.948C267.221 138.914 269.572 139.079 272.019 139.757C270.996 140.675 267.563 140.962 266.694 141.077C264.081 141.422 261.479 141.737 258.847 141.904C258.033 141.955 257.217 141.992 256.402 142.023C259.118 141.173 261.789 140.206 264.384 139.138ZM273.875 139.341C274.792 139.852 275.654 140.406 276.428 140.998C275.438 140.784 274.341 140.415 273.263 140.019C273.521 139.815 273.727 139.589 273.875 139.341ZM192.558 150.115C192.556 150.113 192.552 150.11 192.549 150.108C192.556 150.109 192.564 150.112 192.572 150.113C192.568 150.113 192.563 150.114 192.558 150.115ZM168.787 153.417C169.656 154.034 168.22 153.839 166.991 153.636C167.179 153.392 167.332 153.139 167.407 152.864C167.928 152.999 168.428 153.163 168.787 153.417ZM164.846 153.344C164.439 153.298 164.041 153.242 163.657 153.174C161.346 151.281 158.512 150.351 155.778 149.203C155.319 148.79 154.869 148.349 154.422 147.887C155.625 148.564 156.868 149.158 158.15 149.694C160.661 150.747 163.258 151.633 165.849 152.467C165.897 152.483 165.952 152.497 166.003 152.512C165.617 152.83 165.233 153.104 164.846 153.344ZM149.947 155.418C149.861 155.124 149.757 154.837 149.636 154.556C149.277 154.296 149.174 154.165 149.153 154.085C151.065 154.725 153.097 154.936 155.052 154.569C155.259 154.53 155.418 154.438 155.547 154.323C156.816 154.999 158.19 155.39 159.714 155.368C159.211 155.525 158.695 155.69 158.158 155.882C157.211 156.221 156.391 156.531 155.594 156.79C155.138 156.841 154.691 156.877 154.263 156.878C152.63 157.428 151.191 156.941 149.947 155.418ZM146.153 149.914C145.12 149.127 143.918 148.141 143.24 147.017C143.872 147.105 144.497 147.215 145.116 147.341C146.521 148.614 148.179 149.753 149.746 150.861C149.626 150.941 149.504 151.02 149.382 151.099C149.316 151.014 149.214 150.963 149.096 151.004C148.828 151.098 148.557 151.171 148.287 151.255C147.538 150.877 146.821 150.424 146.153 149.914ZM143.119 125.089C145.254 126.051 147.356 127.095 149.469 128.164C151.822 129.354 153.816 130.846 156.176 131.858C155.91 131.97 155.642 132.082 155.381 132.202C154.003 131.811 152.735 130.999 151.327 130.411C148.944 129.416 146.424 129.019 143.948 128.446C145.322 127.594 144.481 126.291 143.119 125.089ZM147.373 115.867C147.502 115.891 147.63 115.916 147.759 115.94C148.666 116.111 149.189 115.138 148.913 114.515C149.186 114.116 149.593 113.657 150.014 113.325C149.178 115.993 147.369 120.536 145.991 120.817C142.815 121.464 145.781 115.625 146.403 114.596C146.588 114.289 146.804 113.98 147.033 113.672C146.858 114.004 146.734 114.339 146.687 114.659C146.614 115.15 146.802 115.759 147.373 115.867ZM150.042 110.727C150.186 110.796 150.328 110.87 150.472 110.941C149.912 111.06 149.34 111.33 148.815 111.697C149.208 111.339 149.622 111.021 150.042 110.727ZM164.063 112.772C164.139 113.09 164.58 112.945 164.538 112.641C164.49 112.298 164.418 111.972 164.35 111.642C165.905 110.772 168.114 109.709 169.88 109.287C168.82 110.083 167.861 111.056 166.754 111.967C164.701 113.654 162.491 115.04 160.318 116.483C159.985 116.229 159.655 115.972 159.316 115.727C160.296 114.64 161.445 113.674 162.568 112.76C162.783 112.586 163.23 112.293 163.816 111.948C163.901 112.222 163.994 112.489 164.063 112.772ZM178.219 113.383C176.113 114.633 174.305 115.965 172.342 117.453C168.916 120.051 164.961 123.056 160.545 123.717C161.615 121.847 164.392 119.849 165.478 118.788C167.24 117.068 169.04 115.41 171.281 114.328C173.66 113.178 175.767 113.007 177.934 113.198C178.028 113.26 178.124 113.323 178.219 113.383ZM172.363 125.87C173.515 126.627 175.149 126.732 176.811 126.576C176.2 126.664 175.601 126.768 174.97 126.955C173.567 127.371 172.358 127.847 171.673 129.064C170.485 128.898 169.143 128.905 167.818 129.031C167.86 129.003 167.906 128.972 167.946 128.944C168.882 128.312 171.145 127.14 172.363 125.87ZM187.839 119.947C187.861 119.968 187.881 119.988 187.903 120.009C187.893 120.4 187.869 120.887 187.868 121.406C187.658 121.581 187.365 121.721 186.972 121.819C186.075 122.32 185.135 122.707 184.152 122.979C182.678 123.46 181.225 123.701 179.681 123.749C178.91 123.772 176.557 124.165 174.987 124.133C176.683 123.357 178.879 123.132 180.445 122.685C182.505 122.097 184.553 121.33 186.557 120.575C186.745 120.505 187.316 120.172 187.839 119.947ZM195.609 131.186C195.769 131.012 195.923 130.83 196.077 130.648C196.359 131.568 196.431 132.475 196.208 133.416C196.157 133.495 196.112 133.579 196.06 133.657C195.369 134.707 194.522 135.243 194.368 136.576C194.362 136.626 194.365 136.671 194.368 136.718C194.19 136.959 194.011 137.2 193.833 137.441C194.578 135.539 194.772 133.678 194.629 131.846C194.827 131.864 195.036 131.799 195.221 131.605L195.588 131.219C195.599 131.208 195.601 131.196 195.609 131.186ZM222.821 56.5071C222.539 55.4894 222.064 54.6946 221.882 53.6461C221.855 53.4898 221.847 53.3213 221.847 53.1481C223.85 52.9253 225.544 52.9234 226.209 55.7029C225.957 54.9371 225.943 57.959 225.915 58.7314C226.01 59.176 226.277 59.6451 226.394 60.0588C227.041 62.3403 227.517 63.8924 227.495 66.2497C227.486 67.0735 227.367 68.0153 227.526 68.8185C227.53 68.8438 227.539 68.869 227.545 68.8953C227.306 69.6816 227.053 70.4727 226.784 71.2797C224.694 77.5529 222.757 83.7999 220.195 89.9139C219.916 90.5805 219.626 91.2405 219.332 91.8986C219.817 89.9327 220.271 87.9546 220.656 85.9502C221.427 81.9472 221.867 77.9245 222.226 73.8925C222.518 71.759 222.703 69.6105 222.77 67.4517C222.84 66.6213 222.911 65.791 222.988 64.9596C223.237 62.2214 223.566 59.1948 222.821 56.5071ZM226.266 75.3566C226.656 73.9449 227.115 72.5519 227.565 71.1589C226.825 74.149 225.888 77.0811 224.932 80.0159C222.689 86.8958 220.022 93.6165 217.708 100.477C216.496 104.071 215.429 107.824 214.043 111.345C213.354 113.097 212.278 114.332 211.061 115.436C213.603 109.825 215.799 104.113 217.581 98.2486C217.664 98.0726 217.751 97.9003 217.834 97.7243C221.196 90.5524 224.155 82.9817 226.266 75.3566ZM214.052 107.171C212.795 110.237 211.492 113.252 210.132 116.242C209.258 116.97 208.348 117.684 207.476 118.5C210.3 112.311 213.593 106.412 216.595 100.292C215.818 102.631 214.97 104.929 214.052 107.171ZM234.441 127.821C234.115 128.303 231.717 129.504 231.248 129.836C229.62 130.984 227.975 132.07 226.238 133.048C222.336 135.245 218.173 137.03 214.01 138.662C210.181 140.162 206.281 141.441 202.325 142.564C198.86 143.548 195.439 144.886 191.894 145.567C191.819 145.567 191.743 145.566 191.668 145.566C192.411 145.082 193.139 144.571 193.873 144.097C195.797 142.853 197.817 141.693 199.756 140.443C205.299 138.4 210.3 135.419 215.886 133.259C219.14 132.001 222.426 130.77 225.601 129.318C227.408 128.492 229.087 127.888 230.97 127.296C231.536 127.119 236.384 124.948 234.441 127.821ZM190.19 149.725C190.442 149.896 190.69 150.075 190.939 150.253C190.577 150.245 190.216 150.212 189.853 150.128C189.622 150.074 188.602 149.722 187.917 149.387C187.695 149.176 187.467 148.961 187.239 148.75C187.239 148.746 187.237 148.741 187.236 148.738C188.095 148.982 188.952 149.236 189.814 149.471C189.955 149.564 190.083 149.652 190.19 149.725ZM186.397 137.064C184.462 138.442 181.109 139.23 178.799 139.818C176.544 140.392 173.055 141.767 170.77 141.541C170.754 141.539 170.742 141.538 170.726 141.536C170.893 141.52 171.054 141.512 171.225 141.488C171.835 141.402 172.098 140.553 171.797 140.081C171.737 139.988 171.659 139.916 171.595 139.828C172.641 139.354 173.764 138.964 173.864 138.936C174.328 138.807 175.629 138.678 176.09 138.564C179.29 137.777 182.001 136.575 185.388 136.513C186.307 136.496 187.563 136.395 188.645 136.48C188.003 137.744 187.149 138.893 186.257 140.06C184.769 140.8 183.199 141.378 182.114 141.772C181.559 141.973 181 142.141 180.437 142.294C178.71 141.995 176.887 141.964 175.049 142.042C175.999 141.666 176.936 141.296 177.855 141.013C180.73 140.131 184.211 139.192 186.578 137.374C186.759 137.238 186.588 136.927 186.397 137.064ZM166.766 142.575C166.395 142.581 166.026 142.583 165.665 142.575C165.523 142.571 165.405 142.601 165.294 142.636C164.24 140.527 160.239 139.298 158.051 138.594C158.675 138.573 159.624 138.735 160.383 138.765C161.356 139.396 162.525 139.754 163.722 140.195C164.81 140.597 165.814 140.955 166.826 141.213C166.696 141.627 166.665 142.079 166.766 142.575ZM163.147 128.69C163.229 128.728 163.313 128.765 163.398 128.799C163.217 128.902 163.035 129.006 162.856 129.109C161.433 129.934 162.261 129.33 163.147 128.69ZM169.474 131.552C169.666 131.497 169.842 131.259 169.758 131.054C169.756 131.05 169.753 131.044 169.751 131.04C171.932 131.121 174.951 131.753 170.948 132.421C169.093 132.731 166.713 133.196 164.532 133.07C164.295 132.988 164.092 132.903 163.943 132.817C165.777 132.368 167.642 132.079 169.474 131.552ZM196.828 136.121C197.262 136.389 197.12 136.138 197.985 135.581C198.684 135.131 199.127 134.173 199.6 133.524C199.878 133.143 200.153 132.765 200.425 132.386C200.081 133.046 199.711 133.694 199.297 134.322C199.098 134.622 198.83 134.942 198.549 135.273C197.998 135.694 197.439 136.099 196.867 136.489C196.844 136.396 196.807 136.308 196.761 136.224C196.782 136.189 196.806 136.156 196.828 136.121ZM176.044 134.322C177.439 133.82 178.873 133.371 180.319 132.983C178.617 133.693 176.941 134.442 175.182 134.934C172.789 135.603 173.179 135.351 176.044 134.322ZM183.602 133.166C184.707 132.777 187.335 132.259 189.667 131.404C189.713 131.408 189.756 131.413 189.801 131.418C189.802 131.875 189.786 132.34 189.74 132.813C189.718 133.049 189.667 133.267 189.628 133.493C188.255 134.044 184.876 134.879 183.14 135.411C181.037 135.644 179.019 136.04 176.7 136.632C176.455 136.695 176.15 136.762 175.805 136.837C178.647 135.854 181.639 133.855 183.602 133.166ZM188.026 123.211C188.127 123.664 188.286 124.066 188.538 124.352C187.298 124.326 186.089 124.448 185.215 124.585C186.163 124.207 187.135 123.74 188.026 123.211ZM189.038 125.784C189.04 125.794 189.042 125.804 189.045 125.814C188.348 126.358 187.686 126.669 186.776 126.903C185.245 127.295 183.653 127.769 182.037 128.162C183.914 127.385 187.17 125.857 189.038 125.784ZM186.858 128.435C187.638 128.243 188.516 127.859 189.353 127.358C189.476 128.001 189.581 128.647 189.661 129.299C185.854 128.857 181.289 130.394 177.946 131.461C177.316 131.662 176.466 131.875 175.569 132.142C175.563 131.815 175.517 131.509 175.415 131.239C179.288 130.855 183.152 129.349 186.858 128.435ZM167.524 134.783C168.803 134.705 170.092 134.528 171.32 134.314C170.88 134.797 170.587 135.362 170.543 136.042C170.519 136.403 170.765 136.841 171.092 137C171.791 137.339 172.575 137.436 173.405 137.374C172.293 137.647 171.099 137.992 170.029 138.447C168.436 137.513 166.383 137.186 164.636 136.861C164.487 136.833 164.324 136.803 164.153 136.771C166.336 136.482 168.251 135.921 167.524 134.783ZM167.764 139.817C167.755 139.825 167.746 139.834 167.737 139.842C166.565 139.718 165.277 139.427 164.071 139.002C165.331 139.152 166.613 139.405 167.764 139.817ZM198.535 137.46C200.284 136.147 202.014 134.721 203.685 133.21C202.129 134.852 200.407 136.346 198.419 137.624C198.458 137.569 198.495 137.514 198.535 137.46ZM205.488 123.106C205.797 122.332 206.122 121.57 206.45 120.809C207.368 119.797 208.343 118.82 209.372 117.874C208.35 120.073 207.306 122.263 206.207 124.446C204.9 127.043 203.4 129.427 201.83 131.855C203.192 129.029 204.307 126.062 205.488 123.106ZM168.932 125.215C167.898 126.098 166.741 126.845 165.559 127.547C165.352 127.415 165.154 127.293 164.979 127.194C165.465 126.731 166.052 126.168 166.646 125.643C166.585 125.846 166.876 125.925 166.988 125.774C167.091 125.593 167.204 125.427 167.327 125.273C167.552 125.207 167.745 125.151 167.88 125.109C169.733 124.524 170.337 124.014 168.932 125.215ZM161.473 126.823C161.483 126.885 161.513 126.934 161.528 126.992C160.613 127.688 159.758 128.445 159.083 129.368C159.053 129.409 159.04 129.46 159.018 129.506C158.624 129.38 158.207 129.225 157.717 129.002C157.352 128.836 157.005 128.646 156.655 128.459C157.259 127.997 157.762 127.111 157.939 126.274C158.156 126.456 158.432 126.569 158.76 126.565C159.68 126.552 160.584 126.423 161.469 126.212C161.438 126.41 161.437 126.613 161.473 126.823ZM155.675 127.474C155.748 127.405 155.82 127.336 155.893 127.267C156.271 127.019 155.932 126.423 155.535 126.655C155.282 126.816 155.019 126.957 154.747 127.08C154.663 127.123 154.611 127.191 154.575 127.268C153.666 126.714 152.759 126.156 151.8 125.662C151.546 125.532 151.295 125.403 151.042 125.273C152.191 125.04 153.271 124.263 154.486 124.351C155.502 124.425 156.794 124.893 156.702 126.08C156.644 126.791 156.268 127.793 155.675 127.474ZM165.652 114.907C167.554 112.785 169.491 110.388 171.865 109.188C172.28 109.305 172.585 109.541 172.696 109.968C172.748 110.172 172.926 110.361 173.135 110.407C173.669 110.528 174.157 110.728 174.625 110.959C173.351 111.071 172.089 111.37 170.91 111.813C168.933 112.556 167.235 113.642 165.652 114.907ZM152.851 112.163C152.673 112.327 152.493 112.496 152.315 112.669C152.347 112.506 152.378 112.343 152.4 112.198C152.414 112.105 152.407 112.015 152.404 111.925C152.552 112.004 152.702 112.082 152.851 112.163ZM154.379 113.014C154.709 113.204 155.04 113.396 155.367 113.591C155.227 113.738 155.088 113.89 154.949 114.032C153.698 115.313 152.548 116.669 151.457 118.089C149.144 121.099 150.663 118.273 151.553 116.66C152.366 115.187 153.311 114.046 154.379 113.014ZM158.426 116.818C158.625 116.543 158.85 116.286 159.072 116.025C159.382 116.247 159.692 116.469 159.996 116.698C159.414 117.088 158.833 117.482 158.26 117.889C156.505 119.142 157.568 118.003 158.426 116.818ZM157.437 114.262C158.96 112.24 160.54 110.283 162.472 108.782C162.64 109.09 162.796 109.403 162.948 109.719C160.89 110.844 159.044 112.53 157.437 114.262ZM161.626 107.333C159.416 108.976 157.501 111.303 155.656 113.288C155.34 113.094 155.024 112.902 154.705 112.713C155.656 111.832 156.697 111.013 157.834 110.116C159.005 109.193 160.179 107.977 161.526 107.181C161.559 107.232 161.594 107.282 161.626 107.333ZM155.939 109.675C155.291 110.101 154.285 110.875 153.203 111.844C152.862 111.654 152.516 111.472 152.171 111.287C152.054 111.144 151.908 111.023 151.697 110.96C151.621 110.937 151.541 110.925 151.464 110.911C151.147 110.745 150.834 110.576 150.514 110.415C150.601 110.361 150.688 110.293 150.775 110.243C152.007 109.539 153.244 109.498 154.608 109.121C155.528 108.867 156.975 108.275 158.478 107.796C157.596 108.473 156.749 109.143 155.939 109.675ZM148.404 121.515C148.59 121.778 148.824 122.028 149.122 122.256C149.408 122.475 149.943 122.454 150.232 122.256C151.657 121.278 152.889 120.034 154.036 118.675C153.855 119.302 153.872 119.976 154.232 120.716C154.969 122.226 156.426 122.405 157.801 121.665C158.966 121.038 159.633 119.683 160.707 118.919C161.195 118.572 161.683 118.318 162.168 118.038C160.295 119.78 157.8 121.543 157.433 124.113C156.873 123.415 155.988 122.954 155.116 122.754C154.37 122.584 153.599 122.603 152.863 122.796C152.477 122.897 152.042 123.106 151.602 123.268C151.512 123.027 151.306 122.841 151.012 122.879C150.343 122.968 149.993 123.168 149.401 123.507C149.111 123.674 148.976 123.936 148.96 124.208C148.214 123.83 147.468 123.457 146.72 123.091C147.314 122.711 147.878 122.167 148.404 121.515ZM150.751 131.396C151.641 131.836 152.55 132.508 153.474 133.139C153.315 133.222 153.155 133.301 152.997 133.385C151.307 133.061 149.658 132.467 148.266 131.816C147.447 131.432 146.635 131.07 145.828 130.714C145.114 129.892 144.01 129.502 142.818 129.36C142.395 129.164 141.975 128.96 141.557 128.755C141.862 128.783 142.158 128.797 142.437 128.793C145.208 129.583 148.085 130.076 150.751 131.396ZM145.08 134.124C145.106 134.026 145.102 133.928 145.097 133.832C145.455 133.664 145.791 133.423 146.094 133.086C146.38 132.768 146.481 132.413 146.455 132.046C148.076 132.953 149.106 134.04 150.837 134.541C150.264 134.848 149.682 135.151 149.087 135.447C147.33 135.59 145.572 135.727 143.804 135.816C144.401 135.413 144.882 134.878 145.08 134.124ZM159.133 135.498C159.306 135.498 159.393 135.366 159.396 135.233C159.507 135.181 159.619 135.129 159.729 135.067C159.849 135.031 159.965 134.988 160.083 134.947C159.998 135.183 160.1 135.487 160.415 135.463L160.697 135.44C161.06 135.411 161.355 134.932 161.025 134.649C160.997 134.626 160.968 134.607 160.939 134.585C161.111 134.494 161.277 134.391 161.438 134.282C162.393 134.943 164.51 134.793 165.049 135.476C164.793 135.152 160.16 135.65 159.231 135.722C158.989 135.741 158.723 135.898 158.594 136.12C157.405 136.134 156.322 136.31 155.593 136.788C155.114 137.102 154.81 137.446 154.637 137.808C154.238 137.785 153.872 137.805 153.522 137.845C154.457 137.306 155.352 136.687 156.341 136.258C157.145 135.908 157.926 135.757 158.681 135.511C158.833 135.508 158.979 135.499 159.133 135.498ZM142.454 145.175C142.286 144.616 142.205 144.105 142.396 143.949C142.585 144.334 142.813 144.704 143.063 145.064C142.861 145.101 142.659 145.137 142.454 145.175ZM148.554 144.801C148.65 144.798 148.744 144.797 148.84 144.795C149.273 145.084 149.715 145.362 150.175 145.622C150.484 146.019 150.804 146.417 151.134 146.816C150.197 146.234 149.302 145.567 148.554 144.801ZM150.638 142.203C150.824 141.936 151.002 141.663 151.199 141.403C151.309 141.712 151.456 142.038 151.649 142.384C151.273 142.313 150.935 142.253 150.638 142.203ZM151.012 140.726C150.953 140.723 150.893 140.732 150.836 140.767C150.064 141.253 149.919 141.333 149.599 141.615C149.229 141.055 148.848 140.514 148.44 140.023C149.415 139.686 150.384 139.332 151.332 138.925C151.007 139.388 150.877 139.988 151.012 140.726ZM143.3 145.392C143.303 145.396 143.307 145.4 143.31 145.404C143.296 145.402 143.282 145.398 143.268 145.396C143.279 145.395 143.29 145.394 143.3 145.392ZM151.832 148.612C151.885 148.64 151.937 148.672 151.991 148.7C151.907 148.872 151.789 149.045 151.652 149.217C151.467 148.995 151.285 148.767 151.103 148.537C151.345 148.567 151.588 148.591 151.832 148.612ZM151.762 152.338C151.43 152.3 151.1 152.237 150.775 152.163C150.892 152.058 151.004 151.952 151.112 151.845C151.334 152.01 151.551 152.174 151.762 152.338ZM152.516 148.952C152.806 149.093 153.094 149.238 153.388 149.372C154.306 150.348 155.238 151.261 156.136 152.036C157.082 152.851 158.044 153.432 159.034 153.867C157.856 153.78 156.778 153.417 155.776 152.861C155.725 152.746 155.665 152.637 155.587 152.542C154.697 151.471 153.551 150.657 152.387 149.863C152.475 149.567 152.518 149.264 152.516 148.952ZM157.969 146.705C157.448 146.224 156.953 145.716 156.485 145.182C156.429 145.122 156.368 145.058 156.309 144.998C157.767 145.425 158.876 145.865 158.911 146.213C159.786 146.542 159.472 146.707 157.969 146.705ZM151.973 143.927C152.253 143.987 152.539 144.05 152.836 144.117C153.058 144.399 153.327 144.73 153.628 145.086C153.075 144.708 152.524 144.318 151.973 143.927ZM136.455 140.395C130.739 142.02 125.248 143.325 119.278 143.609C116.787 143.728 114.317 143.673 111.854 143.528C111.879 143.528 111.904 143.527 111.93 143.527C115.586 143.515 119.12 143.564 122.72 142.854C126.608 142.085 130.314 140.656 134.168 139.799C136.109 139.368 138.055 139.427 139.993 139.402C138.814 139.733 137.634 140.06 136.455 140.395ZM133.352 144.917C133.288 144.948 133.224 144.979 133.161 145.009C133.116 145.008 133.071 145.006 133.027 145.005C133.136 144.976 133.244 144.947 133.352 144.917ZM140.918 142.794C140.972 142.782 141.02 142.775 141.073 142.764C140.701 143.226 140.567 144.165 140.699 145.189C138.859 145.117 137.03 145.084 135.204 145.051C137.05 144.132 138.913 143.234 140.918 142.794ZM163.742 147.459C165.337 147.313 166.914 147.423 168.503 147.671C168.223 147.713 167.942 147.747 167.659 147.77C166.279 147.878 165.004 147.714 163.742 147.459ZM167.249 145.977C165.491 145.515 163.578 145.633 161.752 146.019C160.309 144.662 157.228 143.657 154.5 142.993C154.232 142.637 153.998 142.272 153.839 141.897C153.098 140.151 153.69 139.662 154.863 139.815C156.466 142.54 162.457 145.366 164.342 145.191C164.767 145.151 165.159 144.941 165.363 144.572C165.458 144.611 165.55 144.654 165.664 144.667C168.722 145.038 170.966 145.599 174.141 145.379C176.367 145.224 178.558 144.978 180.707 144.415C181.29 144.548 181.85 144.725 182.387 144.944C182.206 145.147 182.024 145.346 181.839 145.544C181.191 145.568 180.861 146.047 180.844 146.551C179.962 146.665 179.014 146.656 177.901 146.553C176.484 146.421 175.159 146.403 173.749 146.59C172.863 146.708 171.997 146.912 171.133 147.119C169.836 146.73 168.54 146.316 167.249 145.977ZM178.423 148.919C178.326 149.017 178.223 149.111 178.126 149.21C178.095 149.182 178.063 149.15 178.032 149.126C177.892 149.018 177.731 148.924 177.562 148.834C177.848 148.865 178.136 148.894 178.423 148.919ZM182.878 151.764C182.943 151.714 183.012 151.658 183.072 151.613C183.364 151.388 183.641 151.16 183.922 150.933C183.922 152.365 183.996 153.798 184.244 155.137C183.907 154.73 183.521 154.218 183.172 153.668C183.103 153.023 183.015 152.384 182.878 151.764ZM184.474 156.176C184.604 156.658 184.763 157.122 184.956 157.564C185.58 158.994 186.312 159.506 187.142 159.77C187.482 160.643 187.844 161.512 188.29 162.365C189.849 165.341 191.635 168.511 191.807 171.875C192.161 178.845 190.679 185.317 189.809 192.155C189.62 193.637 189.435 195.12 189.248 196.601C189.219 193.13 189.007 189.688 188.637 186.349C187.936 180.033 186.45 173.9 185.249 167.674C184.573 164.171 184.167 160.618 183.554 157.102C183.424 156.357 183.352 155.579 183.281 154.796C183.641 155.266 184.043 155.728 184.474 156.176ZM188.993 158.535C188.033 158.198 187.399 157.77 186.959 157.223C186.704 156.596 186.435 155.973 186.133 155.358C186.015 154.848 185.928 154.278 185.839 153.641C185.647 152.272 185.564 150.93 185.529 149.585C185.534 149.58 185.54 149.575 185.546 149.571C185.973 149.933 186.159 151.566 186.427 152.117C187.15 153.602 188.236 154.953 189.06 156.385C189.572 157.274 190.102 158.158 190.634 159.041C190.124 158.89 189.58 158.74 188.993 158.535ZM191.17 150.415C193.754 152.291 196.212 154.534 198.771 156.433C199.252 156.79 199.716 157.164 200.185 157.534C198.485 156.449 196.813 155.315 195.034 154.351C193.023 153.261 191.318 152.251 189.486 150.827C189.271 150.66 188.984 150.399 188.661 150.094C189.499 150.352 190.326 150.437 191.17 150.415ZM192.287 148.205C191.606 148.036 190.941 147.839 190.279 147.636C199.169 147.502 208.025 147.167 216.881 146.702C213.715 147.504 210.512 148.166 207.232 148.561C205.762 148.738 204.235 148.876 202.691 148.959C201.075 148.95 199.395 148.853 197.768 148.984C195.894 148.883 194.046 148.643 192.287 148.205ZM226.438 100.516C226.788 98.8243 227.459 97.2591 228.311 95.7753C228.356 95.7687 228.404 95.765 228.451 95.7593C227.539 97.8329 226.419 100.589 226.284 102.88C225.867 103.568 225.445 104.252 225.015 104.933C223.969 106.589 222.869 108.213 221.738 109.817C222.843 107.726 223.734 105.606 224.253 103.217C224.823 100.589 224.945 96.8088 227.698 95.9166C226.938 97.333 226.345 98.8225 226.039 100.406C225.989 100.666 226.384 100.778 226.438 100.516ZM228.827 94.9486C228.821 94.9486 228.817 94.9458 228.811 94.9458C228.843 94.8962 228.873 94.8456 228.905 94.7951C228.88 94.8466 228.852 94.8971 228.827 94.9486ZM232.03 90.6301C232.16 90.4747 232.288 90.3174 232.419 90.163C232.377 90.2332 232.332 90.3024 232.292 90.3727C232.202 90.4569 232.118 90.5449 232.03 90.6301ZM232.805 88.9085C231.206 90.8024 229.531 92.8076 228.22 94.9917C225.214 95.3811 224.106 98.1231 223.659 101.114C222.607 108.135 218.487 114.196 214.17 119.592C210.63 124.016 206.952 128.004 202.814 131.702C204.779 128.497 206.404 124.982 207.983 121.862C208.797 120.254 209.577 118.636 210.333 117.013C210.544 116.829 210.742 116.637 210.957 116.455C215.84 112.323 216.794 104.908 218.799 99.0696C221.304 91.7741 224.055 84.5881 226.333 77.2149C227.004 75.0421 227.641 72.8225 228.161 70.5804C228.334 70.864 228.533 71.1317 228.806 71.3471C230.061 72.3413 231.261 71.9977 232.699 71.7786C235.745 71.3152 243.548 70.629 241.149 76.9706C240.606 78.4057 239.146 80.338 238.323 81.6186C236.734 84.0882 234.696 86.6683 232.805 88.9085ZM204.033 43.4598C204.16 44.0299 204.298 44.5944 204.464 45.1346C204.385 45.3546 204.229 45.5053 203.963 45.5381C203.964 45.4978 203.967 45.4575 203.968 45.4173C203.868 44.7854 203.905 44.1179 204.033 43.4598ZM210.573 37.4421C210.48 36.0894 210.456 34.7319 210.455 33.3736C210.583 34.3285 210.698 35.2843 210.78 36.242C211.049 39.4315 211.146 42.9308 212.121 45.9818C211.917 46.0005 211.711 46.0192 211.503 46.0408C211.239 43.1649 210.769 40.3218 210.573 37.4421ZM207.62 46.3628C207.616 43.9044 207.034 41.4049 206.784 38.9962C206.618 37.3916 206.514 35.7945 206.431 34.1974C206.736 35.8919 207.091 37.5732 207.543 39.2237C208.073 41.1681 208.373 44.0879 209.228 46.2645C208.692 46.3104 208.154 46.346 207.62 46.3628ZM213.633 24.9079C215.786 28.5795 214.548 34.2508 214.537 38.1929C214.53 40.4734 214.141 43.3278 214.46 45.8798C214.143 45.8769 213.833 45.8854 213.522 45.8966C214.453 44.4531 214.06 41.0754 214.049 39.9211C214.007 35.6335 214.02 31.0819 213.385 26.8897C213.314 26.4188 212.669 26.4413 212.451 26.768C211.113 28.7742 212.12 32.8774 212.273 35.0662C212.298 35.4359 212.822 35.4359 212.847 35.0662C212.924 33.9868 212.722 31.9122 212.771 30.1092C213.23 34.4127 213.353 39.2218 212.98 43.3119C212.666 46.7448 212.682 43.6217 212.544 42.2063C212.348 40.2076 211.974 38.2463 211.776 36.2439C211.456 33.0104 210.818 29.6842 210.56 26.4301C211.62 25.9611 212.687 25.4892 213.633 24.9079ZM209.504 26.9141C209.52 30.1785 209.364 33.4522 209.529 36.7082C209.68 39.6871 210.783 42.9524 210.405 45.8957C210.418 45.9958 210.427 46.0745 210.435 46.1494C210.417 46.1512 210.399 46.1531 210.381 46.155C210.336 45.9312 210.275 45.5998 210.192 45.1327C209.993 44.1413 209.737 43.1649 209.422 42.2034C208.915 40.3527 208.309 38.5262 207.887 36.652C207.311 34.0944 206.926 31.4011 206.567 28.7461C206.968 28.4344 207.373 28.1348 207.782 27.8596C208.306 27.5067 208.895 27.2033 209.504 26.9141ZM205.282 29.8237C205.329 32.1865 205.41 34.54 205.621 36.9188C205.833 39.3229 206.817 42.6069 206.577 44.9885C206.388 46.8758 206.574 46.5145 205.959 45.4173C205.862 45.2432 205.777 45.0569 205.697 44.8621C205.761 42.7389 205.055 40.1495 204.793 38.016C204.519 35.7889 204.183 33.543 203.804 31.3178C204.271 30.7926 204.766 30.2927 205.282 29.8237ZM202.163 33.4728C202.379 34.6833 202.712 35.8376 202.84 36.4554C203.179 38.0872 203.404 40.1533 203.776 42.195C203.415 43.1405 203.124 44.2452 202.984 45.3134C202.912 45.2816 202.843 45.2544 202.764 45.216C202.149 44.9127 201.499 42.1211 201.317 41.5322C200.995 40.4856 200.641 39.0458 200.412 37.5311C200.739 36.0969 201.355 34.7348 202.163 33.4728ZM200.424 41.1306C200.584 41.756 200.841 42.9093 201.247 44.0533C200.798 43.3905 200.466 42.5508 200.285 41.491C200.201 40.9958 200.168 40.5071 200.159 40.0213C200.246 40.4135 200.336 40.7861 200.424 41.1306ZM201.979 47.8363C202.387 48.0975 202.81 48.3203 203.239 48.5253C204.062 50.3668 205.143 49.9343 206.572 49.5448C207.554 49.6862 208.554 49.7049 209.553 49.6001C210.029 49.5504 210.496 49.5158 210.962 49.483C211.771 49.7255 212.569 50.1112 213.412 50.657C214.165 51.1447 214.669 51.8843 215.461 52.357C216.886 53.2089 218.324 53.4392 219.977 53.3419C220.373 53.3185 220.764 53.2764 221.149 53.2314C222.2 61.0633 222.77 68.5938 221.352 76.5231C219.989 84.1453 217.586 92.3826 214.495 99.4909C214.376 99.7642 214.78 100.002 214.899 99.7268C217.06 94.7455 218.505 89.3101 220.029 84.1013C220.619 82.0839 221.123 80.0449 221.535 77.9882C220.941 83.1614 219.964 88.3506 218.635 93.4171C216.006 99.0743 212.931 104.495 210.051 110.006C210.993 106.698 211.724 103.315 212.129 99.9786C212.535 96.6309 212.628 93.2757 213.057 89.928C213.321 87.8703 213.596 85.8164 213.13 83.7699C212.739 82.0586 212.4 80.3473 212.048 78.6416C212.09 75.1273 211.617 71.7889 209.873 68.4216C209.305 67.3263 208.782 66.0475 208.117 64.8763C207.67 63.3672 207.194 61.8694 206.514 60.5017C205.475 58.4121 203.717 56.7701 202.71 54.6497C201.242 51.5613 200.128 48.5946 199.659 45.4707C200.232 46.389 200.988 47.2016 201.979 47.8363ZM206.829 66.802C207.149 68.21 207.437 69.6433 207.686 71.0344C207.64 70.9689 207.593 70.9024 207.55 70.8303C206.607 69.2566 206.421 67.6745 206.325 65.9239C206.498 66.1954 206.663 66.4921 206.829 66.802ZM205.858 65.2686C205.651 65.2779 205.446 65.4212 205.417 65.6973C204.982 69.8876 207.212 71.5605 208.242 75.3819C209.73 80.9053 209.05 86.9145 208.493 92.5333C208.462 92.8413 208.419 93.1456 208.383 93.4526C207.821 95.7827 207.113 98.0941 206.43 100.367C205.829 102.368 205.121 104.214 204.1 105.997C204.106 100.475 204.824 95.1611 204.431 89.6153C204.057 84.3438 204.345 79.0198 203.618 73.7764C203.273 71.2853 202.833 68.7511 202.412 66.2852C202.133 64.6516 201.532 63.1557 201.082 61.5998C201.814 62.344 202.335 62.9001 203.57 63.5095C204.643 64.0375 205.323 64.602 205.858 65.2686ZM203.865 114.748C204.105 112.492 204.114 110.284 204.106 108.046C204.349 107.654 204.604 107.256 204.878 106.841C205.596 105.751 206.16 104.577 206.644 103.364C206.204 105.499 205.768 107.638 205.418 109.809C205.045 112.133 204.294 114.231 203.641 116.396C203.727 115.788 203.815 115.222 203.865 114.748ZM206.291 108.534C206.898 104.878 207.802 101.324 208.477 97.7056C208.627 97.1963 208.777 96.6889 208.935 96.1881C209.013 95.9363 209.09 95.6816 209.168 95.4279C209.025 97.3424 208.886 99.2568 208.609 101.165C208.098 104.673 206.928 107.92 205.955 111.319C205.748 112.042 205.516 112.752 205.271 113.455C205.64 111.83 206.015 110.2 206.291 108.534ZM199.839 126.2C199.286 127.573 198.664 128.963 197.975 130.318C197.808 129.865 197.592 129.426 197.343 128.999C199.58 125.775 201.171 121.741 202.157 117.959C202.129 118.843 202.183 119.689 202.358 120.466C201.497 122.359 200.624 124.251 199.839 126.2ZM196.298 127.373C195.927 126.816 195.571 126.258 195.285 125.683C196.595 122.961 198.787 120.574 199.976 117.78C200.121 117.44 200.246 117.091 200.383 116.747C199.621 120.09 198.21 124.111 196.298 127.373ZM194.736 127.856C194.95 128.209 195.149 128.553 195.328 128.891C195.028 129.324 194.717 129.731 194.397 130.116C194.27 129.445 194.107 128.778 193.91 128.115C193.932 128.003 193.944 127.887 193.947 127.769C194.055 127.818 194.176 127.864 194.318 127.907C194.391 127.929 194.475 127.881 194.493 127.808C194.515 127.723 194.543 127.64 194.567 127.556C194.624 127.653 194.677 127.759 194.736 127.856ZM181.829 116.143C179.622 116.602 177.832 117.655 175.676 118.356C173.878 118.941 172.365 119.135 171.439 120.936C171.089 121.612 171.663 122.372 172.411 122.201C174.468 121.733 176.457 120.538 178.504 119.848C180.42 119.202 182.441 118.336 184.124 117.207C184.201 117.195 184.271 117.187 184.344 117.176C184.975 117.602 185.592 118.048 186.192 118.521C183.553 119.13 181.002 120.178 178.38 120.818C176.361 121.311 173.949 121.66 172.259 122.979C172.084 122.863 171.886 122.75 171.652 122.639C171.09 122.373 170.135 122.296 169.028 122.38C169.449 122.065 169.86 121.745 170.26 121.422C172.844 119.335 175.202 116.907 177.942 115.041C178.431 114.707 178.95 114.427 179.479 114.164C180.152 114.574 180.83 114.978 181.505 115.385C181.536 115.668 181.651 115.92 181.829 116.143ZM160.432 105.528C160.259 105.574 160.085 105.622 159.898 105.68C158.602 106.082 157.274 106.873 155.921 107.305C154.728 107.686 153.288 107.731 152.16 108.129C151.094 108.504 150.073 109.058 149.123 109.738C147.717 109.061 146.289 108.423 144.842 107.816C145.178 107.742 145.515 107.674 145.849 107.595C150.426 106.522 155.601 104.694 160.361 105.426C160.385 105.46 160.409 105.494 160.432 105.528ZM135.275 122.138C137.515 122.784 139.665 123.596 141.774 124.5C142.062 124.764 142.308 125.027 142.489 125.284C143.246 126.362 143.617 125.408 143.207 127.144C143.078 127.69 142.947 127.988 142.768 128.152C142.08 127.971 141.396 127.772 140.724 127.525C136.846 126.102 133.553 122.742 129.778 120.876C131.634 121.178 133.467 121.616 135.275 122.138ZM138.245 137.057C138.752 137.244 139.13 137.457 139.867 137.285C140.468 137.144 141.096 136.932 141.699 136.734C143.064 136.748 144.385 136.75 145.743 136.555C146.179 136.493 146.6 136.445 147.031 136.388C143.411 137.853 140.701 137.517 136.916 137.853C134.345 138.081 131.914 138.969 129.448 139.662C122.998 141.476 117.009 141.989 110.329 141.991C107.398 141.991 104.278 142.318 101.363 142.044C100.067 141.921 96.6861 141.26 94.1295 140.322C94.1192 140.154 94.0817 139.999 94.0311 139.848C95.969 138.954 97.9696 138.28 100.273 137.802C104.692 136.885 109.833 137.106 114.378 136.79C118.398 136.511 122.066 136.204 126.089 136.833C129.122 137.308 132.025 138.314 135.104 137.707C136.187 137.492 137.212 137.248 138.245 137.057ZM96.718 145.432C91.6646 146.224 86.5812 146.976 81.5784 148.049C81.5962 148.035 81.6158 148.021 81.6336 148.006C83.9468 146.11 86.1683 144.545 88.6211 142.946C91.0186 144.385 94.1155 145.03 96.718 145.432ZM60.9791 157.44C64.5515 156.069 68.0649 154.499 71.6663 153.201C80.5121 150.012 90.1021 148.6 99.386 147.326C103.334 146.784 107.287 147.096 111.246 147.002C115.817 147.242 120.405 147.175 124.882 146.623C125.542 146.657 126.203 146.699 126.869 146.757C127.463 146.809 128.056 146.849 128.649 146.881C119.722 149.953 110.095 149.945 100.769 150.808C91.7628 151.642 82.9826 152.925 74.2389 155.253C69.8136 156.432 65.5419 157.445 61.2384 159.068C59.3015 159.798 57.2101 160.374 55.1749 161.053C56.8291 159.567 58.6471 158.335 60.9791 157.44ZM131.085 146.961C131.736 146.972 132.387 146.976 133.036 146.973C131.2 147.403 129.362 147.821 127.522 148.229C128.725 147.857 129.913 147.436 131.085 146.961ZM128.064 149.16C130.939 148.574 133.888 147.713 136.864 146.908C138.03 146.878 139.197 146.846 140.369 146.823C140.633 146.818 140.89 146.838 141.15 146.846C141.766 148.348 142.717 149.708 143.892 150.862C141.915 150.782 139.867 151.299 137.95 151.621C134.359 152.223 130.793 152.649 127.324 153.82C125.526 154.427 123.205 155.228 122.229 156.89C117.203 158.531 112.206 160.276 107.153 161.829C100.586 163.847 93.7054 164.993 87.3086 167.551C84.7988 168.554 79.8848 171.971 77.0867 171.255C72.6642 170.122 79.0376 167.352 79.9887 166.846C82.7513 165.377 85.1077 163.198 87.7299 161.51C93.3038 157.922 100.977 155.781 107.344 154.048C114.227 152.174 121.075 150.586 128.064 149.16ZM137.385 152.351C140.094 151.9 142.379 151.688 144.939 151.799C145.051 151.888 145.17 151.968 145.285 152.053C139.61 153.306 133.663 153.379 128.034 155.061C126.415 155.545 124.804 156.057 123.194 156.577C125.858 153.414 134.603 152.815 137.385 152.351ZM148.152 153.945C148.166 154.019 148.209 154.094 148.292 154.154C149.354 154.913 149.176 156.438 149.903 157.424C149.007 157.316 148.106 157.193 147.181 157.033C144.183 156.514 141.284 157.811 138.438 158.54C138.103 158.626 137.782 158.717 137.452 158.805C136.687 158.983 135.926 159.165 135.168 159.35C136.978 158.611 138.801 157.89 140.63 157.131C142.199 156.481 145.446 155.427 148.152 153.945ZM107.745 172.496C107.092 172.538 105.959 172.672 105.392 172.378C104.391 171.859 104.258 171.348 104.618 170.957C105.802 171.305 107.019 171.67 107.224 171.688C108.384 171.793 109.575 171.734 110.773 171.565C109.875 172.015 108.94 172.419 107.745 172.496ZM112.43 176.054C113.969 173.919 115.788 173.059 117.73 171.497C118.895 170.56 119.932 169.461 120.913 168.313C126.328 166.044 131.362 163.758 137.112 162.367C139.698 161.742 142.485 160.481 145.135 160.345C146.477 160.276 147.776 160.628 149.101 160.909C146.859 162.684 144.129 163.36 141.526 164.679C137.109 166.916 132.545 168.282 128.05 170.278C122.71 172.649 117.225 174.556 111.872 176.898C112.05 176.612 112.232 176.327 112.43 176.054ZM155.544 157.895C155.825 157.793 156.101 157.683 156.375 157.566C157.07 157.377 157.694 157.201 158.162 157.107C159.316 156.876 162.397 156.312 164.703 155.253C165.173 155.325 165.645 155.397 166.133 155.475C166.204 155.486 166.281 155.499 166.358 155.514C166.295 155.547 166.233 155.576 166.17 155.611C162.579 157.591 159.749 158.124 155.743 157.906C155.675 157.904 155.612 157.899 155.544 157.895ZM174.284 151.088C174.074 151.282 173.858 151.451 173.643 151.623C171.139 150.97 168.695 150.496 166.253 149.884C166.335 149.887 166.414 149.897 166.497 149.898C168.696 149.912 170.712 149.209 172.854 148.809C173.072 148.768 173.287 148.753 173.503 148.727C173.51 148.729 173.518 148.731 173.525 148.733C174.239 148.901 176.028 149.37 177.365 150.03C176.685 150.782 176.029 151.55 175.352 152.295C175.037 152.148 174.73 152.002 174.442 151.882C174.545 151.775 174.654 151.671 174.754 151.562C175.047 151.244 174.6 150.796 174.284 151.088ZM176.966 155.641C177.404 155.478 177.848 155.27 178.293 155.027C177.908 156.139 177.279 157.36 177.135 157.63C177.087 157.719 177.043 157.809 176.996 157.899C177 157.283 176.989 156.669 176.968 156.048C176.966 155.997 176.965 155.846 176.966 155.641ZM189.076 203.116C189.862 197.539 190.526 191.936 191.612 186.424C192.674 181.03 193.731 173.905 192.143 168.524C191.465 166.226 190.013 164.122 188.948 161.981C188.618 161.319 188.33 160.653 188.057 159.986C188.461 160.063 188.883 160.142 189.322 160.276C189.84 160.665 190.3 161.013 190.664 161.305C191.033 161.6 191.399 161.9 191.767 162.197C192.482 163.504 192.939 165.336 193.465 166.379C195.028 169.475 196.105 172.27 196.327 175.729C196.693 181.449 196.386 186.609 195.059 192.213C193.559 198.543 190.87 204.633 188.219 210.708C188.624 208.203 188.914 205.666 189.076 203.116ZM230.05 114.415C230.898 116.576 231.933 119.981 233.767 121.551C235.43 122.974 238.782 123.569 240.731 124.313C244.449 125.732 247.953 126.998 251.029 129.584C253.054 131.287 255.442 132.951 257.963 134.022C259.214 134.553 260.489 135.055 261.773 135.536C261.354 135.557 260.939 135.592 260.532 135.645C256.816 136.127 254.705 137.568 251.693 133.999C250.519 132.608 249.67 132.022 248.003 131.193C243.67 129.037 238.8 128.057 234.785 125.244C230.468 122.22 226.8 117.008 226.392 111.657C226.326 110.79 226.181 107.94 226.465 105.689C226.495 105.637 226.525 105.584 226.554 105.532C227.24 108.582 228.981 111.69 230.05 114.415ZM238.69 68.6837C240.62 69.3521 243.822 70.9988 244.496 73.0584C245.327 75.5982 244.726 79.5029 243.046 81.4576C240.41 84.5263 236.651 86.6711 233.493 89.3111C233.551 89.2128 233.599 89.1079 233.66 89.0115C233.718 88.9207 233.67 88.8233 233.593 88.7728C234.394 87.8254 235.18 86.8845 235.904 85.9362C237.379 84.0021 238.807 82.2056 240.06 80.1217C240.793 78.9009 242.438 77.3731 242.819 75.9792C243.396 73.8691 241.387 71.9799 239.689 71.2123C236.357 69.7069 230.245 72.1821 228.688 68.0668C228.804 67.433 228.905 66.7973 228.995 66.1617C229.162 65.4193 229.312 64.6732 229.416 63.9139C229.434 63.7857 229.441 63.6612 229.456 63.5339C229.701 64.294 230.092 65.0065 230.669 65.6262C232.826 67.9413 235.929 67.7279 238.69 68.6837ZM134.906 8.1403C145.657 7.31648 156.291 5.58271 166.977 4.20187C172.478 3.49133 177.662 3.04291 183.146 4.21404C188.302 5.31497 192.715 7.66192 197.569 9.52207C200.384 10.6005 203.361 11.0986 206.179 12.2285C209.152 13.4203 211.317 15.1512 213.927 16.914C216.556 18.6899 219.849 20.1615 221.666 22.8184C223.146 24.9809 224.384 27.4907 225.69 29.7469C228.847 35.2 230.529 42.122 229.877 48.4458C229.823 48.9653 229.768 49.4727 229.714 49.9736C227.766 48.8184 225.429 48.0245 223.437 47.4038C221.665 46.8515 219.695 46.3974 217.715 46.1316C217.389 41.2504 217.384 36.388 217.466 31.4629C217.514 28.5439 217.177 25.5108 215.3 23.5298C215.419 23.3932 215.553 23.2687 215.658 23.1189C216.239 22.2866 215.655 20.9685 214.697 20.7551C209.549 19.6073 206.722 23.3333 203.711 26.9412C202.398 28.514 201.339 30.2272 200.505 32.0377C200.494 32.0564 200.486 32.077 200.475 32.0957C200.554 31.8196 200.645 31.5556 200.761 31.3178C200.87 31.0959 200.555 30.9049 200.427 31.1221C199.984 31.8729 199.741 32.7922 199.63 33.7855C199.531 34.0083 199.426 34.2274 199.336 34.4558C198.51 36.5537 198.083 39.0739 198.339 41.4395C198.23 43.5169 198.26 45.7 198.686 47.6922C199.205 50.1234 200.59 52.1988 201.462 54.5009C202.491 57.2157 204.657 59.3361 205.562 62.0875C205.299 62.0454 205.003 62.1231 204.779 62.0435C202.92 61.3844 202.004 60.9913 200.569 59.7724C200.192 59.4522 199.666 59.7583 199.757 60.2451C200.71 65.3126 202.215 70.2564 202.746 75.4615C203.354 81.4333 203.369 87.6175 203.596 93.6202C203.747 97.6448 203.406 101.715 203.197 105.771C202.954 102.694 202.409 99.6304 201.728 96.6487C200.953 93.2532 199.58 90.0469 198.792 86.6458C197.923 82.9012 197.16 79.1322 196.271 75.3922C194.551 68.1482 192.124 61.2646 190.265 54.0992C188.483 47.2353 185.701 40.7327 182.633 34.3565C181.431 31.8579 180.078 29.5391 178.193 27.5029C176.043 25.1803 174.557 22.4336 172.335 20.2055C168.875 16.7343 165.421 11.9084 160.621 10.2476C158.563 9.53519 155.068 8.41554 155.786 11.5713C156.424 14.377 158.935 17.7154 160.583 20.0427C162.381 22.5825 164.616 24.6963 166.77 26.9234C171.894 32.2221 177.079 38.9522 180.937 45.2319C189.023 58.3962 193.801 74.0984 195.801 89.3785C196.831 97.245 197.527 104.858 196.208 112.746C195.927 114.425 195.575 116.092 195.165 117.744C195 118.408 194.858 119.083 194.787 119.438C194.829 119.222 194.895 118.865 194.998 118.302C195.666 114.636 194.785 110.991 194.246 107.381C193.18 100.242 192.735 93.0651 190.861 86.0729C188.977 79.0414 186.974 72.1316 183.915 65.4961C177.334 51.2271 169.751 36.2691 156.847 26.7755C150.981 22.4598 144.385 19.7262 138.236 15.9647C135.183 14.098 132.228 12.8548 128.731 12.0563C125.333 11.2802 121.888 11.2109 118.515 10.4395C118.703 10.7531 118.855 11.2792 119.102 11.2671C121.17 11.1622 125.338 11.8644 127.264 12.2079C132.218 13.0945 136.063 15.4686 140.392 17.8118C148.021 21.9431 156.659 25.6989 162.701 32.1734C169.363 39.3116 174.546 47.5583 178.891 56.2543C183.962 66.4023 188.133 76.5652 190.837 87.6007C192.065 92.6138 192.412 97.7449 193.108 102.84C193.462 105.432 193.892 108.017 194.283 110.604C194.861 114.436 194.461 117.587 194.168 121.404C194.143 121.718 194.62 121.764 194.704 121.477C196.989 113.663 198.121 105.573 197.304 97.4379C196.491 89.3541 194.815 81.5222 193.247 73.5667C192.448 69.5056 190.665 65.7095 189.443 61.7636C188.272 57.9815 186.23 54.9418 184.614 51.3572C181.107 43.5787 175.78 37.2905 170.589 30.5913C168.917 28.4335 152.678 11.8138 158.155 10.1456C160.595 9.40225 165.512 14.0924 167.087 15.7803C170.088 18.9951 172.701 22.2529 175.367 25.7027C177.576 28.5608 179.929 30.8656 181.525 34.1918C183.617 38.5515 185.579 43.0937 187.102 47.6791C188.428 51.669 189.062 55.8246 190.303 59.8192C191.591 63.9654 192.9 67.8711 193.856 72.1344C194.917 76.8704 195.899 81.6186 196.915 86.365C197.889 90.9138 199.475 95.237 200.243 99.8307C200.915 103.847 201.354 107.723 201.106 111.662C200.212 114.432 199.63 117.304 198.284 119.954C197.508 121.482 196.431 122.777 195.576 124.25C195.57 124.259 195.346 124.68 195.048 125.172C194.453 123.858 193.906 122.471 193.393 121.061C191.814 111.677 190.548 102.449 188.263 93.1896C186.092 84.3934 182.262 77.7298 177.152 70.2752C166.349 54.5187 151.451 42.8007 137.138 30.4153C130.928 25.0427 124.758 18.9342 119.252 12.867C118.778 12.3437 117.196 12.0141 117.754 10.813C117.865 10.5762 117.96 10.4274 118.046 10.3347C117.563 10.2139 117.081 10.0791 116.602 9.92276C116.444 9.87127 116.3 10.0079 116.292 10.1587C116.24 11.2615 116.713 11.5451 117.519 12.2697C119.545 14.0915 121.63 15.5968 123.476 17.6611C127.089 21.6997 131.073 25.7326 135.136 29.3303C144.607 37.7164 154.805 45.4931 163.63 54.572C171.904 63.0845 179.974 73.1997 184.929 84.048C189.875 94.8793 190.503 107.397 192.68 119.04C192.341 118.06 192.009 117.085 191.685 116.141C191.553 115.757 191.171 115.704 190.918 115.867C190.731 114.356 190.342 112.858 189.508 111.584C188.266 109.682 186.346 108.72 184.427 107.625C181.847 106.153 179.488 104.353 177.05 102.658C173.011 99.8494 168.927 95.3512 166.558 90.3745C167.085 90.8538 167.983 90.8267 168.248 89.9299C168.452 89.2399 168.742 86.5447 168.72 83.6754C168.801 83.4881 168.8 83.2672 168.711 83.0669C168.615 79.0685 167.863 74.985 165.387 75.7049C163.678 76.202 163.418 80.1189 163.321 81.408C162.964 86.2199 165.659 91.5438 168.104 95.5206C170.978 100.195 174.604 104.012 178.706 107.62C180.479 109.179 182.239 110.177 184.244 111.397C186.278 112.635 187.17 114.233 187.573 116.125C187.036 116.02 186.479 115.952 185.923 115.916C185.322 115.261 184.692 114.632 184.036 114.03C184.143 113.853 184.281 113.688 184.479 113.545C184.788 113.2 184.403 112.68 183.984 112.902C183.661 113.073 183.357 113.144 183.06 113.166C182.861 112.996 182.659 112.829 182.457 112.664C182.757 112.484 183.05 112.295 183.324 112.079C183.852 111.666 183.272 110.869 182.704 111.015C182.01 111.194 181.385 111.3 180.793 111.352C180.098 110.813 179.403 110.275 178.709 109.733C178.668 109.663 178.628 109.593 178.561 109.527C174.727 105.831 171.141 102.226 168.089 97.8095C165.412 93.9348 163.123 89.2109 160.979 85.0113C158.664 80.4756 156.041 76.422 154.074 71.6747C152.519 67.9217 149.962 64.2322 147.309 61.1607C144.693 58.1332 141.057 55.1421 137.727 52.8944C136.054 51.7645 134.261 50.5802 132.43 49.7236C130.792 48.9579 129.133 48.9663 127.505 48.4355C126.661 47.5676 125.833 46.6783 124.996 45.73C123.162 43.6508 120.815 42.0387 119.12 39.8687C117.736 38.0956 116.768 35.9733 115.504 34.0954C112.635 29.833 108.592 28.4625 104.916 25.1953C102.264 22.838 94.0508 13.7198 96.3959 9.406C97.831 9.02872 99.2999 8.85365 100.784 8.76097C106.072 8.43051 111.5 8.12439 116.799 8.12252C122.777 8.11971 128.948 8.59715 134.906 8.1403ZM166.209 83.4984C166.63 83.4853 167.194 83.7821 167.656 83.9553C167.648 84.5207 167.615 85.0834 167.539 85.6348C167.405 85.353 167.257 85.0777 167.076 84.8147C166.534 84.0255 165.139 83.5312 166.209 83.4984ZM164.602 81.2058C164.656 80.1994 164.753 79.0779 164.947 78.8364C166.148 77.3357 166.78 77.8412 167.202 79.6976C167.367 80.4231 167.501 81.2123 167.583 82.0277C166.687 81.2722 165.623 80.4952 164.602 81.2058ZM106.836 29.1964C103.645 25.6577 101.219 22.3784 97.4294 19.378C95.0328 17.4804 92.45 15.9975 92.8245 12.705C93.0913 10.3525 93.3609 10.3478 95.2997 9.72335C94.2821 12.2987 96.3154 15.1288 97.6709 17.4729C100.499 22.3606 104.008 26.0369 108.666 29.1234C111.856 31.2363 113.574 33.7995 115.103 37.2278C115.106 37.2352 115.11 37.2427 115.114 37.2493C112.256 34.673 109.43 32.0733 106.836 29.1964ZM148.288 67.3628C146.217 65.0345 143.951 62.9179 141.982 60.4904C140.516 58.6817 138.967 56.6269 136.917 55.4211C134.92 54.2462 133.135 53.6124 131.324 52.0491C131.036 51.8 130.767 51.5491 130.489 51.3001C131.557 51.6231 132.622 52.0172 133.669 52.6248C139.647 56.0877 144.586 60.8518 148.373 66.5137C149.049 67.5257 149.624 68.5779 150.141 69.6536C149.562 68.8812 148.959 68.1154 148.288 67.3628ZM166.195 104.648C166.06 104.628 165.925 104.607 165.8 104.595C164.963 104.519 164.151 104.65 163.359 104.903C162.396 104.43 161.376 104.104 160.324 103.883C159.973 103.47 159.609 103.063 159.228 102.661C159.133 102.561 159.035 102.459 158.939 102.358C158.815 102.172 158.696 101.983 158.573 101.796C161.043 102.692 163.814 103.427 166.195 104.648ZM135.881 77.6559C135.483 76.8021 133.711 75.0955 134.684 75.0402C138.857 74.8024 137.657 80.63 137.496 83.8495C137.374 83.5574 137.263 83.2635 137.174 82.9648C136.651 81.2067 136.665 79.3391 135.881 77.6559ZM80.425 51.7336C85.0637 49.6796 89.0967 48.8259 94.0939 48.4383C97.6129 48.1659 100.976 47.2943 104.55 48.0236C108.121 48.7528 113.629 50.8901 116.694 52.7418C119.182 54.2453 122.559 56.8984 124.798 58.883C127.828 61.5689 131.54 63.4122 134.481 66.1682C140.923 72.2074 145.496 80.8116 150.055 88.3206C151.728 91.0767 153.32 93.8795 154.926 96.6758C153.831 96.2003 152.747 95.7107 151.668 95.1976C150.657 94.2802 149.637 93.3796 148.603 92.5314C146.848 91.0916 145.044 89.6986 143.215 88.3346C141.759 86.4913 139.44 86.1524 139.444 83.2588C139.448 80.8416 140.252 79.7744 139.042 77.3535C138.344 75.9577 137.294 75.175 136.055 74.252C135.06 73.5105 133.205 71.9303 132.507 73.7951C132.141 74.7744 133.42 75.8987 133.826 76.5474C135.05 78.5031 135.12 80.6843 135.354 82.8703C130.197 79.5478 124.821 76.5699 119.272 74.076C108.567 69.266 97.2881 65.2892 85.6853 63.2895C74.5796 61.376 63.635 60.6215 52.9272 64.2613C58.854 60.232 65.1085 57.0332 71.9715 54.8163C74.8614 53.8802 77.6483 52.9627 80.425 51.7336ZM150.294 94.5292C149.048 93.9113 147.801 93.2607 146.538 92.5577C145.778 92.1354 144.98 91.6468 144.18 91.1047C144.178 90.5665 144.08 90.0347 143.882 89.5142C146.06 91.1179 148.22 92.7805 150.294 94.5292ZM26.3336 92.5052C26.3439 92.4921 26.3533 92.479 26.3645 92.4659C23.8116 95.9878 21.3935 99.6023 19.7777 103.654C18.1132 107.827 16.6013 110.734 13.4184 113.973C11.1922 116.239 8.46983 118.04 6.42806 120.457C6.25862 120.658 6.08355 120.88 5.90661 121.112C10.2467 110.243 19.0531 101.432 26.3336 92.5052ZM14.1289 140.367C10.6913 140.231 7.45408 139.046 5.26815 136.264C4.58381 135.394 4.13635 134.466 3.86299 133.504C5.19515 135.173 7.23223 136.873 8.53068 137.932C10.0379 139.163 11.2858 139.448 13.2386 139.448C13.5438 139.448 13.5345 139.004 13.2386 138.981C10.3496 138.746 4.85812 134.713 3.52222 131.244C3.44358 128.866 4.12416 126.384 4.83658 124.085C4.84688 124.05 4.86091 124.017 4.87215 123.983C6.3129 121.642 8.43425 119.607 10.2691 118.076C14.6897 114.386 18.1179 110.396 20.1709 105.043C23.0505 97.5343 28.455 91.394 33.0946 84.9298C38.1761 77.8506 43.4261 71.1121 50.5259 65.9464C51.0913 65.5354 51.6633 65.1422 52.2344 64.7462C66.3657 59.7471 82.0296 62.1839 96.1731 66.1018C109.88 69.8988 123.692 75.323 135.425 83.5003C135.502 84.1013 135.6 84.7014 135.747 85.2949C136.729 89.2437 139.956 92.6831 143.422 94.7689C147.949 97.4931 152.489 99.5124 157.376 101.351C157.704 101.721 158.03 102.092 158.345 102.47C158.612 102.879 158.887 103.283 159.162 103.686C155.522 103.201 151.586 103.891 148.184 104.739C145.759 105.344 143.285 105.799 140.805 106.213C135.157 104.1 129.347 102.389 123.729 100.783C116.423 98.6951 108.276 97.3358 100.664 97.1542C93.2869 96.9782 85.9025 98.3703 78.6707 99.6556C63.9083 102.28 48.8923 106.955 35.0409 112.654C28.9437 115.163 23.4091 117.878 17.9091 121.498C14.8282 123.526 11.7511 125.681 8.70947 127.788C6.95042 129.007 5.10808 130.124 4.1532 132.11C4.12418 132.169 4.13259 132.257 4.2 132.289C5.87385 133.101 8.46141 131.401 10.0201 130.966C14.5773 129.693 19.0381 128.095 23.6291 126.906C32.7501 124.543 42.0078 122.071 51.4115 121.18C60.1066 120.356 68.7305 118.911 77.3675 117.621C87.2693 116.141 96.7675 116.246 106.718 116.574C110.366 116.695 113.926 116.813 117.513 117.156C116.671 117.451 115.849 117.825 115.101 118.21C111.918 119.491 108.745 121.845 111.017 124.289C112.711 126.112 116.032 124.842 118.838 123.069C120.541 123.781 123.208 123.417 124.644 123.221C127.283 122.86 129.789 122.144 132.33 123.514C134.217 124.531 135.672 126.297 137.369 127.652C137.274 127.677 137.184 127.712 137.093 127.744C133.745 127.324 130.394 126.812 127.044 126.46C109.679 124.631 91.7067 125.471 74.765 130.007C57.4226 134.649 41.7756 142.276 27.0648 152.411C27.1285 149.457 27.6583 145.874 25.727 143.408C22.6864 139.525 18.3866 140.536 14.1289 140.367ZM45.3901 160.104C42.6959 161.628 41.4723 161.504 38.3811 161.213C37.4768 161.128 36.6146 161.276 35.7233 161.247C33.6535 161.181 32.2923 160.001 30.4181 159.698C29.4361 159.539 26.8982 160.339 26.3336 159.377C26.1239 159.019 26.8045 157.558 26.8813 157.055C27.0835 155.724 27.0507 154.337 27.0592 152.987C27.1659 152.944 27.2754 152.899 27.4112 152.842C28.0655 152.566 28.6722 152.164 29.2601 151.721C30.23 151.21 31.2185 150.719 32.2352 150.264C31.387 150.628 30.5379 151.005 29.6898 151.39C30.4415 150.796 31.1717 150.164 31.9366 149.671C35.3891 147.445 38.954 145.092 42.5957 143.183C59.2219 134.47 76.8657 128.516 95.6517 126.594C104.151 125.724 112.56 126.016 121.059 126.352C126.231 126.557 131.612 127.025 136.721 127.819C136.752 127.824 136.79 127.832 136.823 127.838C135.597 128.369 134.733 129.534 135.206 131.215C135.556 132.455 136.55 133.061 137.676 133.386C138.112 134.267 138.235 135.162 137.161 136.064C137.043 136.162 137.007 136.28 137.018 136.393C135.151 136.753 133.304 137.145 131.353 136.918C128.399 136.572 125.504 135.709 122.531 135.44C116.555 134.901 109.987 136.335 103.986 136.445C100.174 136.515 96.6936 137.393 93.3815 138.89C92.728 138.29 91.7516 137.897 90.8782 137.647C90.9119 137.024 90.8538 136.4 90.7144 136.005C90.6273 135.759 90.5215 135.549 90.4017 135.36C94.9673 134.889 99.5929 134.492 103.891 133.092C104.078 133.032 103.998 132.736 103.809 132.797C99.7876 134.084 95.5927 134.164 91.438 134.706C90.9699 134.767 90.5028 134.837 90.0347 134.901C89.6921 134.547 89.2727 134.272 88.784 133.959C87.2655 132.99 85.558 132.023 84.5778 133.983C84.3063 134.525 84.2005 135.145 84.2174 135.795C82.5211 136.084 80.8276 136.389 79.1443 136.723C70.2845 138.48 61.6251 140.943 52.9038 143.238C47.1483 144.751 41.6539 146.509 36.2279 148.633C39.2826 147.483 42.3907 146.504 45.3321 145.631C51.6025 143.769 58.0742 141.684 64.4784 140.362C71.0774 139 77.5903 137.273 84.2417 136.155C84.4074 138.007 85.4644 140.027 86.4427 141.158C86.7376 141.499 87.0643 141.811 87.4153 142.099C85.9952 142.843 84.5469 143.584 83.3355 144.513C80.1404 146.963 78.0238 149.645 73.6173 149.623C68.5564 149.599 64.2379 145.269 59.6544 148.827C57.5256 150.479 55.8133 152.656 53.897 154.536C51.3039 157.083 48.4991 158.344 45.3901 160.104ZM93.3337 177.586C88.7615 176.139 84.2595 174.609 79.4888 173.727C70.9885 172.156 63.0049 169.357 54.6066 167.518C52.9861 167.163 50.6027 169.108 50.5053 165.53C50.6795 165.519 50.8639 165.464 51.0539 165.339C60.0822 159.377 72.4489 156.453 82.9742 154.409C94.5507 152.159 106.313 151.959 117.952 150.304C118.149 150.276 118.343 150.243 118.539 150.214C118.161 150.298 117.783 150.381 117.405 150.465C112.107 151.656 106.654 153.009 101.531 154.808C96.7816 156.475 91.5185 157.984 87.2683 160.721C83.7231 163.006 80.4981 165.398 76.7441 167.332C75.4952 167.975 73.2241 169.141 74.0488 170.909C75.5308 174.086 82.9414 170.038 84.8006 169.196C94.2306 164.918 104.747 163.054 114.643 160.058C117.085 159.318 119.494 158.46 121.907 157.613C121.816 157.915 121.765 158.24 121.762 158.592C121.758 159.013 122.414 159.014 122.417 158.592C122.419 158.139 122.521 157.721 122.704 157.336C126.168 156.128 129.647 154.972 133.252 154.263C136.645 153.595 140.104 153.498 143.515 152.967C143.746 152.932 145.199 152.71 145.972 152.541C146.105 152.628 146.242 152.711 146.378 152.793C145.907 153.037 145.497 153.247 145.197 153.412C141.026 155.71 136.542 157.307 132.17 159.161C129.577 160.26 126.625 161.613 124.14 163.189C123.041 163.727 121.785 164.298 120.569 164.957C120.247 165.107 119.93 165.251 119.606 165.407C117.812 166.268 116.022 167.132 114.211 167.865C114.087 167.851 113.962 167.84 113.837 167.832C111.012 167.641 99.21 165.517 100.46 171.92C100.974 174.552 103.789 175.323 106.086 175.452C106.971 175.502 107.937 175.525 108.863 175.394C108.408 176.033 107.947 176.616 107.036 177.094C106.498 177.377 105.68 177.33 105.084 177.599C102.803 178.627 101.914 179.924 98.8786 179.486C97.0007 179.214 95.1162 178.151 93.3337 177.586ZM55.407 238.986C49.4596 236.412 44.3622 229.149 42.5601 223.116C41.6764 220.159 42.0218 216.027 42.8513 213.099C43.9213 209.321 45.8086 207.643 49.601 206.59C55.2844 205.011 61.3966 204.547 66.9621 202.624C69.5581 201.727 72.2654 201.032 74.8342 200.086C77.2233 199.206 79.2567 197.646 81.5129 196.508C87.3292 193.572 93.3703 191.963 98.61 187.901C104.616 183.244 112.595 179.167 119.814 176.798C125.816 174.829 131.839 172.257 137.499 169.435C140.429 167.975 143.19 166.113 145.929 164.331C146.554 163.924 149.754 162.164 150.23 161.115C150.519 161.159 150.81 161.189 151.104 161.208C150.792 161.537 150.457 161.908 150.062 162.332C147.334 165.255 144.781 168.836 141.62 171.283C137.86 174.193 134.735 177.794 130.94 180.638C127.606 183.137 124.37 185.718 121.162 188.379C113.938 194.375 105.992 198.604 98.095 203.53C90.0553 208.546 82.5323 213.863 74.0161 218.089C73.621 218.285 73.8981 218.967 74.3194 218.809C82.508 215.765 89.6612 210.564 97.0288 205.99C104.561 201.314 112.776 197.995 120.041 192.826C127.025 187.857 133.519 182.567 139.757 176.737C142.909 173.791 145.938 171.63 148.713 168.256C149.834 166.894 151.089 165.499 152.102 164.07C152.373 163.689 152.654 163.162 152.938 162.617C153.092 162.805 153.234 163.003 153.398 163.183C153.438 163.227 153.505 163.16 153.464 163.116C153.292 162.932 153.143 162.728 152.982 162.534C153.22 162.076 153.459 161.618 153.696 161.215C157.244 161.167 160.793 160.95 164.016 159.339C166.032 158.33 168.046 157.138 169.931 155.78C170.736 155.647 171.419 155.29 171.743 154.502C171.766 154.445 171.777 154.393 171.796 154.338C172.394 153.843 172.978 153.337 173.531 152.807C173.889 152.896 174.248 152.979 174.604 153.084C173.551 154.165 172.405 155.157 170.971 155.897C163.911 159.545 158.722 165.101 153.915 171.102C153.589 170.868 153.205 170.707 152.752 170.649C152.299 170.592 151.828 170.687 151.361 170.886C151.813 169.521 152.292 168.147 152.994 167.219C153.114 167.062 152.847 166.908 152.729 167.064C151.887 168.175 151.386 169.646 150.902 171.117C149.316 172.031 147.868 174.076 147.434 175.762C146.863 176.34 146.4 176.949 146.218 177.284C145.386 178.818 144.786 180.544 144.037 182.144C143.911 182.412 143.785 182.686 143.665 182.962C142.79 183.957 141.884 184.929 140.952 185.878C135.383 191.555 129.224 196.985 123.12 202.08C116.621 207.505 110.059 212.735 103.211 217.729C96.5691 222.572 89.8353 227.62 83.6763 233.06C82.9423 233.709 75.3772 239.174 76.3237 240.56C76.3976 240.668 76.4997 240.743 76.6251 240.794C75.4044 241.098 74.1808 241.365 72.946 241.489C66.8938 242.093 60.9294 241.377 55.407 238.986ZM177.045 234.769C175.363 236.295 173.405 236.949 172.035 238.805C170.912 240.326 170.242 241.432 168.585 242.524C167.599 243.174 166.586 243.724 165.672 244.475C162.915 246.735 161.114 249.704 157.162 249.425C153.227 249.147 149.52 249.166 145.648 248.25C139.695 246.841 133.994 244.322 128.151 242.507C122.314 240.695 116.325 240.101 110.237 239.89C103.74 239.664 97.3452 238.079 90.8248 238.558C87.9742 238.768 85.1142 239.07 82.2851 239.483C81.393 239.614 80.5064 239.809 79.6227 240.025C82.4087 238.667 85.9877 236.085 86.7188 235.672C101.72 227.197 117.372 219.512 132.022 210.465C138.323 206.574 143.814 201.532 149.457 196.775C155.779 191.443 160.86 185.752 165 178.568C169.07 171.505 172.492 163.914 175.839 156.473C175.975 156.351 176.118 156.237 176.251 156.113C176.226 157.215 176.219 158.321 176.2 159.43C174.633 162.422 173.105 165.427 171.667 168.487C170.06 171.909 167.913 174.964 166.378 178.444C164.753 182.128 162.882 185.704 160.819 189.162C156.497 196.406 150.948 202.669 145.411 208.985C139.47 215.761 133.314 222.34 126.541 228.295C125.661 229.07 124.803 229.877 123.945 230.686C123.037 231.111 122.132 231.552 121.24 232.043C118.974 233.289 115.699 234.87 115.157 237.628C115.138 237.73 115.246 237.841 115.348 237.774C118.516 235.654 121.556 233.303 124.488 230.799C124.494 230.796 124.499 230.793 124.506 230.791C139.588 224.221 152.35 212.936 160.778 198.831C165.177 191.469 170.744 185.217 173.471 176.909C174.825 172.788 175.612 168.477 176.309 164.203C176.587 162.504 176.85 160.794 176.954 159.073C177.901 157.53 178.948 155.88 179.496 154.297C180.146 153.87 180.773 153.41 181.339 152.974C181.255 154.311 181.247 155.675 181.121 156.929C180.802 160.122 181.017 163.481 181.483 166.656C182.283 172.111 183.397 177.723 184.637 183.085C186.059 189.228 183.485 195.411 183.887 201.642C184.165 205.948 185.714 210.534 186.145 214.988C186.064 215.361 185.985 215.737 185.904 216.112C185.14 217.959 184.413 219.811 183.758 221.673C182.848 224.259 180.242 228.496 179.49 232.296C178.712 233.158 177.903 233.992 177.045 234.769ZM176.175 160.391C176.135 161.627 176.056 162.861 175.859 164.082C175.057 169.072 174.138 174.107 172.347 178.85C170.452 183.866 167.541 188.417 164.482 192.791C161.493 197.064 159.024 201.871 155.61 205.771C152.552 209.264 149.683 212.885 146.34 216.132C142.629 219.735 138.246 222.302 134.127 225.372C131.399 227.405 128.39 228.674 125.381 230.029C131.318 224.857 136.815 219.077 142.032 213.316C150.258 204.23 158.117 195.22 163.939 184.368C165.285 181.858 166.392 179.276 167.584 176.695C168.873 173.906 170.718 171.475 172.025 168.698C173.237 166.12 174.495 163.588 175.807 161.058C175.919 160.84 176.047 160.616 176.175 160.391ZM123.223 231.37C121.499 232.989 119.748 234.581 117.784 235.885C114.433 238.111 118.117 234.275 119.317 233.489C120.581 232.663 121.876 231.992 123.223 231.37ZM183.14 230.253C183.654 229.643 184.14 229.016 184.579 228.367C184.567 228.519 184.546 228.67 184.54 228.822C184.523 229.258 184.537 229.708 184.564 230.164C182.554 232.03 181.727 233.74 181.751 236.344C181.452 234.45 182.194 232.255 183.14 230.253ZM183.455 234.172C183.708 233.426 184.177 232.712 184.767 232.06C184.921 233.069 185.136 234.086 185.366 235.074C184.936 236.39 184.575 237.724 184.333 239.122C183.284 237.783 182.738 236.286 183.455 234.172ZM185.558 240.46C186.553 238.441 187.717 236.487 188.83 234.51C188.236 236.779 187.292 239.252 186.795 241.692C186.573 241.456 186.35 241.221 186.113 240.996C185.924 240.817 185.738 240.639 185.558 240.46ZM193.198 247.738C192.675 247.637 191.735 246.805 190.885 245.977C191.266 245.511 191.574 244.989 191.826 244.429C191.791 244.849 191.766 245.265 191.763 245.671C191.759 245.999 192.119 246.183 192.395 246.034C194.494 244.903 194.792 242.606 195.47 240.439C196.061 238.55 196.515 236.625 197.026 234.715C196.632 237.301 196.405 239.924 196.254 242.516C196.178 243.83 195.864 245.044 195.901 246.186C195.229 247.279 194.355 247.962 193.198 247.738ZM199.65 227.456C198.66 231.112 199.098 234.745 198.182 238.406C197.916 239.468 197.559 242 196.816 244.165C196.894 241.913 197.329 239.407 197.454 238.391C197.817 235.461 198.257 232.426 198.886 229.545C198.964 229.191 198.484 228.816 198.215 229.155C195.328 232.78 196.251 238.506 193.938 242.436C192.996 244.039 193.419 243.816 193.196 242.63C192.919 241.155 193.8 238.621 194.138 237.16C194.264 236.613 195.785 232.461 195.995 230.274C196.279 229.535 196.577 228.804 196.918 228.098C197.122 227.675 196.511 227.302 196.28 227.725C195.175 229.745 194.511 232.159 193.937 234.474C193.718 235.09 193.552 235.561 193.501 235.727C193.294 236.397 191.578 244.823 190.133 243.427C189.632 242.943 191.654 236.869 191.922 235.823C192.659 232.935 193.716 230.346 194.858 227.627C196.527 227.311 198.223 227.061 199.815 226.869C199.759 227.056 199.705 227.25 199.65 227.456ZM205.13 223.313C201.078 223.835 197.501 225.011 193.584 225.99C190.603 226.734 187.874 227.542 185.478 229.395C185.524 228.285 185.635 227.179 185.808 226.081C185.851 225.972 185.905 225.867 185.943 225.756C186.221 224.951 186.441 224.155 186.613 223.363C187.655 220.913 188.516 218.363 189.468 215.876C189.77 215.368 190.082 214.865 190.416 214.375C194.997 207.654 198.829 201.25 200.416 193.218C201.092 189.791 202.063 186.676 201.743 183.131C201.507 180.513 200.808 177.589 199.899 174.888C199.808 174.157 199.704 173.44 199.573 172.765C199.169 170.686 198.104 168.698 197.036 166.897C196.914 166.692 196.806 166.473 196.691 166.261C200.84 169.754 204.877 173.39 208.585 177.353C213.755 182.877 218.719 188.509 224.019 193.886C230.214 200.171 235.266 207.333 241.968 213.145C247.672 218.091 253.066 223.634 258.993 228.342C257.398 229.059 255.788 229.726 254.171 230.36C253.594 230.434 253.011 230.493 252.414 230.524C249.879 230.66 247.355 230.315 244.831 230.162C242.09 229.996 239.396 230.298 236.665 230.203C233.942 230.109 231.428 228.988 228.917 227.829C228.859 227.803 228.803 227.775 228.745 227.75C227.043 226.963 225.34 226.169 223.574 225.677C216.18 223.613 207.168 218.657 199.582 223.293C199.244 223.5 199.543 224.009 199.892 223.824C204.511 221.377 210.901 222.052 215.6 223.753C216.297 224.006 216.989 224.239 217.682 224.472C213.55 223.447 209.376 222.765 205.13 223.313ZM236.916 232.089C235.884 231.603 234.897 231.062 233.923 230.511C234.773 230.753 235.674 230.914 236.666 230.946C241.369 231.095 246.198 231.253 250.906 231.254C251.227 231.254 251.558 231.247 251.889 231.239C247.067 233.002 241.769 234.374 236.916 232.089ZM288.64 192.907C288.241 197.31 286.313 202.435 284.03 206.157C281.559 210.184 278.87 215.526 275.219 218.546C271.641 221.505 267.668 223.999 263.514 226.153C265.479 223.716 267.045 220.927 269.883 219.175C271.205 218.36 272.812 217.976 274.074 217.08C275.179 216.296 275.859 215.134 276.831 214.208C279.903 211.283 282.458 209.01 284.138 204.952C285.305 202.135 285.705 199.061 285.962 196.041C286.304 192.025 285.477 190.221 283.837 186.717C279.659 177.79 282.121 166.809 283.967 157.574C284.03 157.26 284.106 156.927 284.19 156.58C285.314 159.96 285.391 163.16 285.628 166.917C285.875 170.831 286.92 174.774 287.43 178.671C287.744 181.079 287.615 183.524 287.971 185.918C288.318 188.257 288.857 190.517 288.64 192.907Z" fill="#506956"/>
<path d="M225.913 58.7325C225.896 58.6538 225.874 58.5752 225.87 58.4984C225.893 59.0011 225.904 58.9965 225.913 58.7325Z" fill="#506956"/>
<path d="M118.046 10.333C118.201 10.3714 118.358 10.4013 118.514 10.4369C118.387 10.2263 118.243 10.1186 118.046 10.333Z" fill="#506956"/>
<path d="M32.2354 150.265C33.5638 149.696 34.895 149.155 36.2299 148.633C34.88 149.141 33.5432 149.679 32.2354 150.265Z" fill="#506956"/>
<path d="M112.611 191.018C120.475 185.59 128.244 179.846 135.8 174.036C135.868 173.985 135.801 173.869 135.733 173.921C123.612 183.212 111.117 192.158 97.7923 199.691C95.6241 200.917 63.3809 216.473 62.4897 209.313C62.4522 209.011 61.9757 209.003 62.0084 209.313C62.7808 216.429 86.3205 205.791 88.3895 204.676C96.5593 200.274 104.93 196.321 112.611 191.018Z" fill="#506956"/>
</svg>
