<svg xmlns="http://www.w3.org/2000/svg" width="401" height="293" fill="none"><path fill="#F8FAF8" fill-rule="evenodd" d="M30.6 1.707C41.766-.34 54.034 1.47 67.403 7.138c3.618 1.575 14.785 7.558 33.501 17.95 5.033 2.834 8.728 5.038 11.087 6.612 1.731 1.103 3.619 1.103 5.663 0 15.728-8.502 29.411-14.248 41.05-17.24 9.279-2.519 18.795-3.07 28.546-1.653 4.876.63 9.752 2.361 14.627 5.195.944.473 1.73 1.024 2.359 1.654 3.932 3.15 5.898 7.085 5.898 11.809.157 4.566-1.73 8.502-5.662 11.808-6.291 5.354-13.92 8.66-22.884 9.919-12.425 2.047-26.423.394-41.994-4.959-6.606-2.519-12.11-4.96-16.514-7.322-2.202-.944-4.01-.787-5.426.472-10.223 6.77-18.638 13.698-25.244 20.783-3.775 4.252-7.077 9.29-9.909 15.116-.629 1.102-.864 1.81-.707 2.126.315.314 1.023.471 2.124.471 12.896 0 24.457-2.283 34.68-6.849 2.988-1.26 5.505-2.912 7.549-4.96.157-.156.393-.314.708-.471.314-.157.55-.315.707-.473.786-.472 1.416-.314 1.888.473.629.472.707 1.102.235 1.89-.157.314-.393.63-.707.944l-.708.708c-.314.158-.551.316-.708.473-4.246 2.676-8.493 4.724-12.74 6.14-10.537 3.307-20.446 4.881-29.725 4.724h-2.123c-1.415.157-2.36.393-2.831.708-.315.315-.63 1.18-.944 2.598-.943 3.778-.314 7.322 1.888 10.628 2.201 3.149 4.876 5.432 8.021 6.849 3.46 1.575 7.392 2.597 11.796 3.07 1.376.11 2.796.161 4.259.155 2.576-7.074 6.553-13.64 11.93-19.694 9.117-10.484 21.313-17.513 36.59-21.09 8.748-2.097 19.097-2.714 31.047-1.85 8.378.616 18.296 2.651 29.753 6.104 6.653 1.974 18.543 6.6 35.668 13.876 6.16 2.59 14.907 6.598 26.242 12.025 11.458 5.426 18.049 8.51 19.774 9.25 13.183 5.92 24.025 10.298 32.526 13.135 1.847.493 3.449.37 4.804-.37 5.544-3.207 10.965-5.303 16.263-6.29 5.914-.863 10.781-.555 14.6.925 2.094.617 3.819 1.542 5.174 2.775 1.602 1.48 2.28 3.207 2.033 5.18-.123 1.85-1.109 3.268-2.956 4.255-1.972 1.11-4.19 1.665-6.654 1.665-6.776.493-14.476-.431-23.1-2.775-.37 0-.925-.123-1.664-.37-1.478-.493-2.895-.246-4.25.74-4.681 2.837-10.102 7.338-16.262 13.505-7.762 7.277-17.619 17.514-29.569 30.71a24779.833 24779.833 0 0 0-17.371 19.24c-2.957 3.207-4.744 5.304-5.36 6.291l.37.37c.493-.37 2.033-1.419 4.62-3.146.985-.616 1.663-.986 2.032-1.11.739 0 1.232.247 1.479.74.246.37 0 .802-.74 1.296-5.79 3.823-9.548 6.105-11.272 6.845-.986.493-2.157 1.418-3.512 2.774-2.71 2.96-6.591 7.524-11.642 13.691-5.052 6.043-8.871 10.545-11.458 13.505-12.074 13.443-19.898 21.953-23.47 25.53-.616.616-1.54 1.48-2.772 2.59l-2.772 2.775c-.986.74-.863 1.357.369 1.85 3.696 1.233 8.748 3.392 15.154 6.475 6.407 3.207 10.842 5.304 13.306 6.291 15.4 6.66 24.579 10.421 27.536 11.285 8.87 2.713 15.708 4.255 20.513 4.625 5.051.616 10.904.74 17.557.37 6.776-.37 14.045-1.542 21.806-3.516 4.559-1.11 9.98-3.329 16.263-6.659 5.913-2.96 10.78-5.921 14.599-8.881 3.942-2.836 9.24-7.893 15.893-15.17 6.776-7.153 15.524-17.513 26.242-31.08.493-.37 1.171-.987 2.034-1.85.985-.863 1.724-1.542 2.217-2.035.739-.494 1.294-.555 1.664-.185.246.247.122.678-.37 1.295-.739.74-1.91 1.85-3.511 3.329-19.466 25.777-34.929 42.551-46.387 50.322-3.942 2.713-10.595 6.042-19.958 9.989-7.023 2.96-15.339 5.057-24.948 6.291-4.436.37-8.809.554-13.121.554-7.885.123-16.325-.986-25.319-3.33-7.762-1.973-17.679-5.611-29.753-10.915-2.218-.863-10.164-4.501-23.84-10.914-2.956-1.357-6.221-2.652-9.794-3.886-1.479-.616-2.772-.37-3.881.74-7.516 6.66-14.353 11.84-20.514 15.54-6.899 3.947-12.997 6.475-18.294 7.585-3.204.74-6.223.864-9.057.37-5.051-.986-7.884-3.7-8.5-8.14-.246-1.973.308-4.255 1.662-6.844 2.957-5.057 7.639-9.127 14.046-12.211 10.225-5.056 21.561-6.105 34.004-3.145 2.095.493 4.127-.062 6.098-1.665 3.45-3.084 11.027-10.915 22.731-23.495 6.16-6.784 13.429-15.355 21.807-25.716.616-.616.923-1.047.924-1.294-.247-.247-.554-.247-.924 0-9.486 2.467-18.665 4.07-27.535 4.81-6.9.616-13.491.74-19.775.37-12.32-.864-25.133-4.071-38.439-9.621a137.93 137.93 0 0 1-3.096-1.355l-2.791 2.213c-13.683 11.652-24.771 20.076-33.264 25.272-10.381 6.455-20.447 11.178-30.198 14.169-18.088 5.196-34.76 3.307-50.015-5.668-7.235-4.251-12.66-10.391-16.278-18.421-3.46-7.872-4.247-16.06-2.36-24.562 2.045-8.817 5.898-17.162 11.56-25.034 7.864-11.337 18.56-21.807 32.086-31.411 9.122-6.298 19.345-11.415 30.67-15.351 2.93-1.006 5.66-1.953 8.189-2.836a58.588 58.588 0 0 1 1.887-8.568 55.764 55.764 0 0 1-12.2-1.114c-6.92-1.417-12.504-4.959-16.75-10.627-2.36-2.677-3.54-6.534-3.54-11.572 0-.473.08-.867.236-1.181 0-1.417-.157-2.283-.471-2.598-.157-.315-.865-.552-2.123-.71-5.977-.944-10.538-1.81-13.684-2.597C39.25 75.55 25.96 69.49 15.737 60.986c-5.348-4.25-9.359-9.21-12.033-14.878C.874 40.282-.07 34.377.874 28.395 1.816 22.412 4.57 17.137 9.13 12.57c5.82-5.826 12.975-9.447 21.468-10.864Zm147.662 257.321c-8.747.124-16.817 2.776-24.209 7.956-3.449 2.343-5.913 5.303-7.392 8.879-1.601 4.07-.308 6.722 3.881 7.955.616.247 1.54.37 2.772.37 2.587.123 6.345-.801 11.273-2.774 5.297-2.467 11.15-6.167 17.556-11.101 6.776-5.673 10.35-8.695 10.719-9.065-.493-.493-1.356-.863-2.588-1.11-3.819-.74-7.823-1.11-12.012-1.11ZM101.71 123.62c-14.215 6.817-28.483 15.932-42.8 27.347-11.324 8.817-19.974 19.367-25.951 31.648-3.932 8.187-5.427 16.768-4.483 25.743 1.258 11.493 7.471 20.231 18.638 26.214 10.852 5.826 22.648 7.479 35.387 4.96 10.38-1.889 21.784-6.612 34.209-14.17 7.077-4.408 17.065-11.809 29.962-22.2a642.914 642.914 0 0 1 5.534-4.53c-9.545-4.55-17.738-9.887-24.58-16.01-15.4-13.69-23.962-29.846-25.687-48.47a70.587 70.587 0 0 1-.229-10.532Zm71.378-58.104c-4.681.247-8.193.556-10.534.926-8.131 1.11-14.969 2.836-20.513 5.18-12.69 5.18-22.608 13.444-29.754 24.79a55.296 55.296 0 0 0-4.987 10.026c6.37-.258 13.517-1.553 21.442-3.886 1.573-.472 3.853-1.102 6.841-1.889 2.989-.788 5.191-1.417 6.607-1.89.943-.314 1.573-.471 1.887-.471.786-.315 1.337-.158 1.651.471.315.473.236 1.103-.236 1.89-.629.629-1.1 1.181-1.415 1.654-1.415 1.417-4.876 3.778-10.381 7.084-3.303 1.732-10.538 4.96-21.705 9.684a172.64 172.64 0 0 0-8.171 3.538c-.302 4.231-.191 8.629.336 13.194 1.972 17.39 10.102 32.438 24.394 45.141 7.206 6.399 15.619 11.865 25.238 16.398 8.627-6.95 19.938-15.801 33.934-26.55 1.258-1.26 2.124-1.574 2.595-.945.629.63.236 1.496-1.179 2.598-.59.443-11.546 9.119-32.867 26.026 16.145 7.058 32.469 10.529 48.973 10.408 5.051 0 10.904-.432 17.556-1.296 8.994-1.48 16.818-3.268 23.471-5.365 1.354-.493 2.278-1.048 2.771-1.664 1.232-1.357 3.019-3.392 5.359-6.105 2.464-2.714 4.251-4.749 5.36-6.105 6.16-7.277 18.911-21.338 38.254-42.181 9.979-10.36 19.713-18.623 29.199-24.79l.37-.185.369-.37c-.616-.493-1.417-.863-2.402-1.11-9.856-3.453-18.604-7.03-26.243-10.73-3.327-1.481-11.766-5.366-25.318-11.655-13.428-6.413-23.839-11.162-31.231-14.245-14.784-6.29-27.228-10.73-37.331-13.32-11.458-2.96-22.238-4.379-32.34-4.256Zm192.011 49.766c-2.341-.986-5.236-1.356-8.686-1.11-5.79.37-11.827 2.529-18.11 6.475 0 .124.061.247.184.37l.185.185c9.117 2.466 17.371 3.392 24.763 2.775 1.848 0 3.327-.493 4.435-1.48 2.218-1.603 2.28-3.392.186-5.365-.493-.493-1.479-1.11-2.957-1.85Zm-226.685-12.73c-1.73.472-4.167 1.102-7.313 1.889a684.821 684.821 0 0 1-8.257 2.126c-2.517.63-4.876 1.181-7.078 1.654a62.21 62.21 0 0 1-9.509 1.272 56.735 56.735 0 0 0-1.837 7.886c5.944-2.088 10.67-3.801 14.178-5.143 8.336-2.992 14.941-6.22 19.816-9.684Zm-69.36-91.635C56.63 5.092 45.462 2.573 35.554 3.36c-11.167.945-19.896 5.117-26.187 12.517C3.705 22.805 1.74 30.284 3.47 38.314c1.258 5.825 4.561 11.572 9.909 17.24 5.82 5.983 13.29 10.943 22.412 14.879 10.852 4.566 22.334 7.479 34.444 8.738 1.573.157 2.596-.393 3.067-1.653 2.36-7.715 7.392-15.43 15.099-23.145 5.662-5.668 12.582-11.415 20.761-17.24 1.258-.63 2.045-1.339 2.359-2.126-.944-.945-3.461-2.519-7.55-4.723-19.66-11.179-31.298-17.635-34.916-19.367Zm117.724 7.322c-5.19-.158-10.931.393-17.222 1.653C156.502 22.41 141.796 28 125.44 36.66c-.944.315-1.416.788-1.416 1.417l.236.472c.157 0 .236.08.236.237 4.717 2.204 7.391 3.385 8.02 3.543 17.144 7.715 33.186 10.627 48.128 8.738 7.707-.945 14.549-3.621 20.526-8.03 1.101-.787 2.437-2.126 4.009-4.015 1.888-2.834 2.518-5.747 1.889-8.738-.472-3.15-2.124-5.669-4.955-7.558-4.089-2.52-9.201-4.015-15.335-4.487Z" clip-rule="evenodd"/></svg>